%TF.GenerationSoftware,KiCad,Pcbnew,9.0.1*%
%TF.CreationDate,2026-01-21T11:16:40-07:00*%
%TF.ProjectId,testhologram v2,74657374-686f-46c6-9f67-72616d207632,rev?*%
%TF.SameCoordinates,Original*%
%TF.FileFunction,Copper,L6,Bot*%
%TF.FilePolarity,Positive*%
%FSLAX46Y46*%
G04 Gerber Fmt 4.6, Leading zero omitted, Abs format (unit mm)*
G04 Created by KiCad (PCBNEW 9.0.1) date 2026-01-21 11:16:40*
%MOMM*%
%LPD*%
G01*
G04 APERTURE LIST*
G04 Aperture macros list*
%AMRoundRect*
0 Rectangle with rounded corners*
0 $1 Rounding radius*
0 $2 $3 $4 $5 $6 $7 $8 $9 X,Y pos of 4 corners*
0 Add a 4 corners polygon primitive as box body*
4,1,4,$2,$3,$4,$5,$6,$7,$8,$9,$2,$3,0*
0 Add four circle primitives for the rounded corners*
1,1,$1+$1,$2,$3*
1,1,$1+$1,$4,$5*
1,1,$1+$1,$6,$7*
1,1,$1+$1,$8,$9*
0 Add four rect primitives between the rounded corners*
20,1,$1+$1,$2,$3,$4,$5,0*
20,1,$1+$1,$4,$5,$6,$7,0*
20,1,$1+$1,$6,$7,$8,$9,0*
20,1,$1+$1,$8,$9,$2,$3,0*%
G04 Aperture macros list end*
%TA.AperFunction,SMDPad,CuDef*%
%ADD10RoundRect,0.200000X-0.200000X-0.275000X0.200000X-0.275000X0.200000X0.275000X-0.200000X0.275000X0*%
%TD*%
%TA.AperFunction,SMDPad,CuDef*%
%ADD11RoundRect,0.200000X0.200000X0.275000X-0.200000X0.275000X-0.200000X-0.275000X0.200000X-0.275000X0*%
%TD*%
%TA.AperFunction,SMDPad,CuDef*%
%ADD12O,0.360000X1.500000*%
%TD*%
%TA.AperFunction,ViaPad*%
%ADD13C,0.600000*%
%TD*%
%TA.AperFunction,Conductor*%
%ADD14C,0.200000*%
%TD*%
G04 APERTURE END LIST*
D10*
%TO.P,R2,2*%
%TO.N,Net-(U2-R-EXT)*%
X26325000Y-13800000D03*
%TO.P,R2,1*%
%TO.N,GND*%
X24675000Y-13800000D03*
%TD*%
D11*
%TO.P,R1,1*%
%TO.N,GND*%
X72325000Y-3300000D03*
%TO.P,R1,2*%
%TO.N,Net-(U1-R-EXT)*%
X70675000Y-3300000D03*
%TD*%
D12*
%TO.P,U3,1,GND*%
%TO.N,GND*%
X68190000Y-20790000D03*
%TO.P,U3,2,SDI*%
%TO.N,SDO-02*%
X67560000Y-20790000D03*
%TO.P,U3,3,CLK*%
%TO.N,CLK*%
X66920000Y-20790000D03*
%TO.P,U3,4,LE*%
%TO.N,LE*%
X66290000Y-20790000D03*
%TO.P,U3,5,OUT0*%
%TO.N,Net-(LED33-K)*%
X65650000Y-20790000D03*
%TO.P,U3,6,OUT1*%
%TO.N,Net-(LED34-K)*%
X65020000Y-20790000D03*
%TO.P,U3,7,OUT2*%
%TO.N,Net-(LED35-K)*%
X64380000Y-20790000D03*
%TO.P,U3,8,OUT3*%
%TO.N,Net-(LED36-K)*%
X63750000Y-20790000D03*
%TO.P,U3,9,OUT4*%
%TO.N,Net-(LED37-K)*%
X63110000Y-20790000D03*
%TO.P,U3,10,OUT5*%
%TO.N,Net-(LED38-K)*%
X62480000Y-20790000D03*
%TO.P,U3,11,OUT6*%
%TO.N,Net-(LED39-K)*%
X61840000Y-20790000D03*
%TO.P,U3,12,OUT7*%
%TO.N,Net-(LED40-K)*%
X61210000Y-20790000D03*
%TO.P,U3,13,OUT8*%
%TO.N,Net-(LED41-K)*%
X61210000Y-15410000D03*
%TO.P,U3,14,OUT9*%
%TO.N,Net-(LED42-K)*%
X61840000Y-15410000D03*
%TO.P,U3,15,OUT10*%
%TO.N,Net-(LED43-K)*%
X62480000Y-15410000D03*
%TO.P,U3,16,OUT11*%
%TO.N,Net-(LED44-K)*%
X63110000Y-15410000D03*
%TO.P,U3,17,OUT12*%
%TO.N,Net-(LED45-K)*%
X63750000Y-15410000D03*
%TO.P,U3,18,OUT13*%
%TO.N,Net-(LED46-K)*%
X64380000Y-15410000D03*
%TO.P,U3,19,OUT14*%
%TO.N,Net-(LED47-K)*%
X65020000Y-15410000D03*
%TO.P,U3,20,OUT15*%
%TO.N,Net-(LED48-K)*%
X65650000Y-15410000D03*
%TO.P,U3,21,~{OE}*%
%TO.N,NOT_OE*%
X66290000Y-15410000D03*
%TO.P,U3,22,SDO*%
%TO.N,SDO-03*%
X66920000Y-15410000D03*
%TO.P,U3,23,R-EXT*%
%TO.N,Net-(U3-R-EXT)*%
X67560000Y-15410000D03*
%TO.P,U3,24,VDD*%
%TO.N,VDD*%
X68190000Y-15410000D03*
%TD*%
%TO.P,U2,1,GND*%
%TO.N,GND*%
X31810000Y-9410000D03*
%TO.P,U2,2,SDI*%
%TO.N,SDO-01*%
X32440000Y-9410000D03*
%TO.P,U2,3,CLK*%
%TO.N,CLK*%
X33080000Y-9410000D03*
%TO.P,U2,4,LE*%
%TO.N,LE*%
X33710000Y-9410000D03*
%TO.P,U2,5,OUT0*%
%TO.N,Net-(LED17-K)*%
X34350000Y-9410000D03*
%TO.P,U2,6,OUT1*%
%TO.N,Net-(LED18-K)*%
X34980000Y-9410000D03*
%TO.P,U2,7,OUT2*%
%TO.N,Net-(LED19-K)*%
X35620000Y-9410000D03*
%TO.P,U2,8,OUT3*%
%TO.N,Net-(LED20-K)*%
X36250000Y-9410000D03*
%TO.P,U2,9,OUT4*%
%TO.N,Net-(LED21-K)*%
X36890000Y-9410000D03*
%TO.P,U2,10,OUT5*%
%TO.N,Net-(LED22-K)*%
X37520000Y-9410000D03*
%TO.P,U2,11,OUT6*%
%TO.N,Net-(LED23-K)*%
X38160000Y-9410000D03*
%TO.P,U2,12,OUT7*%
%TO.N,Net-(LED24-K)*%
X38790000Y-9410000D03*
%TO.P,U2,13,OUT8*%
%TO.N,Net-(LED25-K)*%
X38790000Y-14790000D03*
%TO.P,U2,14,OUT9*%
%TO.N,Net-(LED26-K)*%
X38160000Y-14790000D03*
%TO.P,U2,15,OUT10*%
%TO.N,Net-(LED27-K)*%
X37520000Y-14790000D03*
%TO.P,U2,16,OUT11*%
%TO.N,Net-(LED28-K)*%
X36890000Y-14790000D03*
%TO.P,U2,17,OUT12*%
%TO.N,Net-(LED29-K)*%
X36250000Y-14790000D03*
%TO.P,U2,18,OUT13*%
%TO.N,Net-(LED30-K)*%
X35620000Y-14790000D03*
%TO.P,U2,19,OUT14*%
%TO.N,Net-(LED31-K)*%
X34980000Y-14790000D03*
%TO.P,U2,20,OUT15*%
%TO.N,Net-(LED32-K)*%
X34350000Y-14790000D03*
%TO.P,U2,21,~{OE}*%
%TO.N,NOT_OE*%
X33710000Y-14790000D03*
%TO.P,U2,22,SDO*%
%TO.N,SDO-02*%
X33080000Y-14790000D03*
%TO.P,U2,23,R-EXT*%
%TO.N,Net-(U2-R-EXT)*%
X32440000Y-14790000D03*
%TO.P,U2,24,VDD*%
%TO.N,VDD*%
X31810000Y-14790000D03*
%TD*%
%TO.P,U1,1,GND*%
%TO.N,GND*%
X68190000Y-8690000D03*
%TO.P,U1,2,SDI*%
%TO.N,SDI*%
X67560000Y-8690000D03*
%TO.P,U1,3,CLK*%
%TO.N,CLK*%
X66920000Y-8690000D03*
%TO.P,U1,4,LE*%
%TO.N,LE*%
X66290000Y-8690000D03*
%TO.P,U1,5,OUT0*%
%TO.N,Net-(LED1-K)*%
X65650000Y-8690000D03*
%TO.P,U1,6,OUT1*%
%TO.N,Net-(LED2-K)*%
X65020000Y-8690000D03*
%TO.P,U1,7,OUT2*%
%TO.N,Net-(LED3-K)*%
X64380000Y-8690000D03*
%TO.P,U1,8,OUT3*%
%TO.N,Net-(LED4-K)*%
X63750000Y-8690000D03*
%TO.P,U1,9,OUT4*%
%TO.N,Net-(LED5-K)*%
X63110000Y-8690000D03*
%TO.P,U1,10,OUT5*%
%TO.N,Net-(LED6-K)*%
X62480000Y-8690000D03*
%TO.P,U1,11,OUT6*%
%TO.N,Net-(LED7-K)*%
X61840000Y-8690000D03*
%TO.P,U1,12,OUT7*%
%TO.N,Net-(LED8-K)*%
X61210000Y-8690000D03*
%TO.P,U1,13,OUT8*%
%TO.N,Net-(LED9-K)*%
X61210000Y-3310000D03*
%TO.P,U1,14,OUT9*%
%TO.N,Net-(LED10-K)*%
X61840000Y-3310000D03*
%TO.P,U1,15,OUT10*%
%TO.N,Net-(LED11-K)*%
X62480000Y-3310000D03*
%TO.P,U1,16,OUT11*%
%TO.N,Net-(LED12-K)*%
X63110000Y-3310000D03*
%TO.P,U1,17,OUT12*%
%TO.N,Net-(LED13-K)*%
X63750000Y-3310000D03*
%TO.P,U1,18,OUT13*%
%TO.N,Net-(LED14-K)*%
X64380000Y-3310000D03*
%TO.P,U1,19,OUT14*%
%TO.N,Net-(LED15-K)*%
X65020000Y-3310000D03*
%TO.P,U1,20,OUT15*%
%TO.N,Net-(LED16-K)*%
X65650000Y-3310000D03*
%TO.P,U1,21,~{OE}*%
%TO.N,NOT_OE*%
X66290000Y-3310000D03*
%TO.P,U1,22,SDO*%
%TO.N,SDO-01*%
X66920000Y-3310000D03*
%TO.P,U1,23,R-EXT*%
%TO.N,Net-(U1-R-EXT)*%
X67560000Y-3310000D03*
%TO.P,U1,24,VDD*%
%TO.N,VDD*%
X68190000Y-3310000D03*
%TD*%
%TO.P,U4,1,GND*%
%TO.N,GND*%
X31830000Y-21620000D03*
%TO.P,U4,2,SDI*%
%TO.N,SDO-03*%
X32460000Y-21620000D03*
%TO.P,U4,3,CLK*%
%TO.N,CLK*%
X33100000Y-21620000D03*
%TO.P,U4,4,LE*%
%TO.N,LE*%
X33730000Y-21620000D03*
%TO.P,U4,5,OUT0*%
%TO.N,Net-(LED49-K)*%
X34370000Y-21620000D03*
%TO.P,U4,6,OUT1*%
%TO.N,Net-(LED50-K)*%
X35000000Y-21620000D03*
%TO.P,U4,7,OUT2*%
%TO.N,Net-(LED51-K)*%
X35640000Y-21620000D03*
%TO.P,U4,8,OUT3*%
%TO.N,Net-(LED52-K)*%
X36270000Y-21620000D03*
%TO.P,U4,9,OUT4*%
%TO.N,Net-(LED53-K)*%
X36910000Y-21620000D03*
%TO.P,U4,10,OUT5*%
%TO.N,Net-(LED54-K)*%
X37540000Y-21620000D03*
%TO.P,U4,11,OUT6*%
%TO.N,Net-(LED55-K)*%
X38180000Y-21620000D03*
%TO.P,U4,12,OUT7*%
%TO.N,Net-(LED56-K)*%
X38810000Y-21620000D03*
%TO.P,U4,13,OUT8*%
%TO.N,Net-(LED57-K)*%
X38810000Y-27000000D03*
%TO.P,U4,14,OUT9*%
%TO.N,Net-(LED58-K)*%
X38180000Y-27000000D03*
%TO.P,U4,15,OUT10*%
%TO.N,Net-(LED59-K)*%
X37540000Y-27000000D03*
%TO.P,U4,16,OUT11*%
%TO.N,Net-(LED60-K)*%
X36910000Y-27000000D03*
%TO.P,U4,17,OUT12*%
%TO.N,Net-(LED61-K)*%
X36270000Y-27000000D03*
%TO.P,U4,18,OUT13*%
%TO.N,Net-(LED62-K)*%
X35640000Y-27000000D03*
%TO.P,U4,19,OUT14*%
%TO.N,Net-(LED63-K)*%
X35000000Y-27000000D03*
%TO.P,U4,20,OUT15*%
%TO.N,Net-(LED64-K)*%
X34370000Y-27000000D03*
%TO.P,U4,21,~{OE}*%
%TO.N,NOT_OE*%
X33730000Y-27000000D03*
%TO.P,U4,22,SDO*%
%TO.N,SDO-04*%
X33100000Y-27000000D03*
%TO.P,U4,23,R-EXT*%
%TO.N,Net-(U4-R-EXT)*%
X32460000Y-27000000D03*
%TO.P,U4,24,VDD*%
%TO.N,VDD*%
X31830000Y-27000000D03*
%TD*%
D13*
%TO.N,GND*%
X31500000Y-8100000D03*
%TO.N,SDI*%
X67700000Y-10000000D03*
%TO.N,CLK*%
X66900000Y-10000000D03*
%TO.N,LE*%
X66000000Y-10000000D03*
X34000000Y-8100000D03*
%TO.N,CLK*%
X33124265Y-8124265D03*
%TO.N,NOT_OE*%
X66100000Y-2000000D03*
%TO.N,VDD*%
X31000000Y-14800000D03*
%TO.N,NOT_OE*%
X33500000Y-13400000D03*
%TO.N,VDD*%
X69200000Y-3200000D03*
%TO.N,SDO-02*%
X67500000Y-19200000D03*
X30600000Y-15600000D03*
%TO.N,SDO-01*%
X66900000Y-2000000D03*
X32300000Y-8100000D03*
%TO.N,Net-(LED2-K)*%
X14200000Y-6100000D03*
%TO.N,Net-(LED1-K)*%
X8300000Y-6100000D03*
%TO.N,Net-(LED3-K)*%
X20060606Y-6060606D03*
%TO.N,Net-(LED4-K)*%
X25900000Y-6100000D03*
%TO.N,Net-(LED5-K)*%
X31800000Y-6100000D03*
%TO.N,Net-(LED6-K)*%
X37700000Y-6100000D03*
%TO.N,Net-(LED7-K)*%
X43600000Y-6100000D03*
%TO.N,Net-(LED8-K)*%
X49400000Y-6100000D03*
%TO.N,Net-(LED9-K)*%
X54000000Y-4600000D03*
%TO.N,Net-(LED10-K)*%
X61800000Y-5300000D03*
%TO.N,Net-(LED11-K)*%
X62500000Y-4700000D03*
%TO.N,Net-(LED12-K)*%
X73000000Y-6300000D03*
%TO.N,Net-(LED13-K)*%
X78860606Y-6060606D03*
%TO.N,Net-(LED14-K)*%
X84760606Y-6060606D03*
%TO.N,Net-(LED15-K)*%
X90639394Y-6060606D03*
%TO.N,Net-(LED16-K)*%
X96560606Y-6060606D03*
%TO.N,Net-(LED17-K)*%
X8300000Y-12100000D03*
%TO.N,Net-(LED18-K)*%
X14100000Y-12100000D03*
%TO.N,Net-(LED19-K)*%
X20000000Y-12100000D03*
%TO.N,Net-(LED20-K)*%
X25900000Y-12100000D03*
%TO.N,Net-(LED21-K)*%
X31500000Y-13000000D03*
%TO.N,Net-(LED22-K)*%
X37300000Y-8100000D03*
%TO.N,Net-(LED23-K)*%
X38175735Y-8124265D03*
%TO.N,Net-(LED24-K)*%
X40000000Y-9400000D03*
%TO.N,Net-(LED25-K)*%
X55300000Y-12100000D03*
%TO.N,Net-(LED26-K)*%
X42300000Y-13939000D03*
X42300000Y-15139000D03*
X61200000Y-12100000D03*
%TO.N,Net-(LED27-K)*%
X43199998Y-15561000D03*
X67100000Y-12100000D03*
X43200000Y-13900000D03*
%TO.N,Net-(LED28-K)*%
X73000000Y-12100000D03*
X47576123Y-13799253D03*
X50933200Y-15001000D03*
%TO.N,Net-(LED29-K)*%
X78900000Y-12100000D03*
X60500000Y-14323265D03*
X48400376Y-13775389D03*
%TO.N,Net-(LED30-K)*%
X49200000Y-13800000D03*
X84700000Y-12100000D03*
X62700000Y-14000000D03*
%TO.N,Net-(LED31-K)*%
X90600000Y-12100000D03*
%TO.N,Net-(LED32-K)*%
X96500000Y-12100000D03*
%TO.N,Net-(LED33-K)*%
X8326470Y-18221212D03*
%TO.N,Net-(LED34-K)*%
X14226470Y-18221212D03*
%TO.N,Net-(LED35-K)*%
X20087076Y-18181818D03*
%TO.N,Net-(LED36-K)*%
X25926470Y-18221212D03*
%TO.N,Net-(LED37-K)*%
X31826470Y-18221212D03*
%TO.N,Net-(LED38-K)*%
X37726470Y-18221212D03*
%TO.N,Net-(LED39-K)*%
X43626470Y-18221212D03*
%TO.N,Net-(LED40-K)*%
X49426470Y-18221212D03*
%TO.N,Net-(LED41-K)*%
X54026470Y-16721212D03*
%TO.N,Net-(LED42-K)*%
X61826470Y-17421212D03*
%TO.N,Net-(LED43-K)*%
X62526470Y-16821212D03*
%TO.N,Net-(LED44-K)*%
X73026470Y-18421212D03*
%TO.N,Net-(LED45-K)*%
X78887076Y-18181818D03*
%TO.N,Net-(LED46-K)*%
X84787076Y-18181818D03*
%TO.N,Net-(LED47-K)*%
X90665864Y-18181818D03*
%TO.N,Net-(LED48-K)*%
X96587076Y-18181818D03*
%TO.N,Net-(LED49-K)*%
X8326470Y-24221212D03*
%TO.N,Net-(LED50-K)*%
X14126470Y-24221212D03*
%TO.N,Net-(LED51-K)*%
X20026470Y-24221212D03*
%TO.N,Net-(LED52-K)*%
X25926470Y-24221212D03*
%TO.N,Net-(LED53-K)*%
X31526470Y-25121212D03*
%TO.N,Net-(LED54-K)*%
X37526470Y-19921212D03*
%TO.N,Net-(LED55-K)*%
X38226470Y-20321212D03*
%TO.N,Net-(LED56-K)*%
X40026470Y-21521212D03*
%TO.N,Net-(LED57-K)*%
X55326470Y-24221212D03*
%TO.N,Net-(LED58-K)*%
X42326470Y-26060212D03*
X42326470Y-27260212D03*
X61226470Y-24221212D03*
%TO.N,Net-(LED59-K)*%
X43226470Y-26021212D03*
X43226468Y-27682212D03*
X67126470Y-24221212D03*
%TO.N,Net-(LED60-K)*%
X73026470Y-24221212D03*
X47602593Y-25920465D03*
X50959670Y-27122212D03*
%TO.N,Net-(LED61-K)*%
X48426846Y-25896601D03*
X60526470Y-26444477D03*
X78926470Y-24221212D03*
%TO.N,Net-(LED62-K)*%
X84726470Y-24221212D03*
X62726470Y-26121212D03*
X49226470Y-25921212D03*
%TO.N,Net-(LED63-K)*%
X90626470Y-24221212D03*
%TO.N,Net-(LED64-K)*%
X96526470Y-24221212D03*
%TD*%
D14*
%TO.N,Net-(LED23-K)*%
X38200000Y-9370000D02*
X38160000Y-9410000D01*
X38200000Y-8148530D02*
X38200000Y-9370000D01*
X38175735Y-8124265D02*
X38200000Y-8148530D01*
%TO.N,Net-(LED22-K)*%
X37520000Y-8320003D02*
X37520000Y-9410000D01*
X37300000Y-8100003D02*
X37520000Y-8320003D01*
X37300000Y-8100000D02*
X37300000Y-8100003D01*
%TO.N,GND*%
X31500000Y-8500000D02*
X31500000Y-8100000D01*
X31810000Y-8810000D02*
X31500000Y-8500000D01*
X31810000Y-9410000D02*
X31810000Y-8810000D01*
%TO.N,SDI*%
X67560000Y-9860000D02*
X67700000Y-10000000D01*
X67560000Y-8690000D02*
X67560000Y-9860000D01*
%TO.N,CLK*%
X66920000Y-9980000D02*
X66900000Y-10000000D01*
X66920000Y-8690000D02*
X66920000Y-9980000D01*
%TO.N,LE*%
X66290000Y-9710000D02*
X66000000Y-10000000D01*
X66290000Y-8690000D02*
X66290000Y-9710000D01*
X33710000Y-8390000D02*
X34000000Y-8100000D01*
X33710000Y-9410000D02*
X33710000Y-8390000D01*
%TO.N,CLK*%
X33080000Y-8168530D02*
X33124265Y-8124265D01*
X33080000Y-9410000D02*
X33080000Y-8168530D01*
%TO.N,NOT_OE*%
X66290000Y-2190000D02*
X66100000Y-2000000D01*
X66290000Y-3310000D02*
X66290000Y-2190000D01*
%TO.N,SDO-01*%
X66900000Y-3290000D02*
X66920000Y-3310000D01*
X66900000Y-2000000D02*
X66900000Y-3290000D01*
%TO.N,VDD*%
X31010000Y-14790000D02*
X31000000Y-14800000D01*
X31810000Y-14790000D02*
X31010000Y-14790000D01*
%TO.N,NOT_OE*%
X33710000Y-13610000D02*
X33500000Y-13400000D01*
X33710000Y-14790000D02*
X33710000Y-13610000D01*
%TO.N,Net-(LED21-K)*%
X36890000Y-10360000D02*
X36890000Y-9410000D01*
X34450000Y-12800000D02*
X36890000Y-10360000D01*
X31500000Y-13000000D02*
X31700000Y-12800000D01*
X31700000Y-12800000D02*
X34450000Y-12800000D01*
%TO.N,Net-(U2-R-EXT)*%
X32009237Y-13739000D02*
X30286000Y-13739000D01*
X32440000Y-14169763D02*
X32009237Y-13739000D01*
X32440000Y-14790000D02*
X32440000Y-14169763D01*
%TO.N,VDD*%
X69090000Y-3310000D02*
X69200000Y-3200000D01*
X68190000Y-3310000D02*
X69090000Y-3310000D01*
%TO.N,Net-(U1-R-EXT)*%
X69834000Y-2259000D02*
X70675000Y-3100000D01*
X67560000Y-2689763D02*
X67990763Y-2259000D01*
X67990763Y-2259000D02*
X69834000Y-2259000D01*
X67560000Y-3310000D02*
X67560000Y-2689763D01*
%TO.N,SDO-02*%
X67500000Y-20730000D02*
X67560000Y-20790000D01*
X67500000Y-19200000D02*
X67500000Y-20730000D01*
X30841000Y-15841000D02*
X30600000Y-15600000D01*
X32639237Y-15841000D02*
X30841000Y-15841000D01*
X33080000Y-15400237D02*
X32639237Y-15841000D01*
X33080000Y-14790000D02*
X33080000Y-15400237D01*
%TO.N,SDO-01*%
X32440000Y-8240000D02*
X32300000Y-8100000D01*
X32440000Y-9410000D02*
X32440000Y-8240000D01*
%TO.N,Net-(LED2-K)*%
X49982143Y-4698000D02*
X15602000Y-4698000D01*
X65020000Y-8079763D02*
X63741237Y-6801000D01*
X15602000Y-4698000D02*
X14200000Y-6100000D01*
X52085143Y-6801000D02*
X49982143Y-4698000D01*
X63741237Y-6801000D02*
X52085143Y-6801000D01*
X65020000Y-8690000D02*
X65020000Y-8079763D01*
%TO.N,Net-(LED1-K)*%
X50148243Y-4297000D02*
X52251243Y-6400000D01*
X52251243Y-6400000D02*
X63700000Y-6400000D01*
X63980237Y-6400000D02*
X63700000Y-6400000D01*
X10103000Y-4297000D02*
X50148243Y-4297000D01*
X65650000Y-8069763D02*
X63980237Y-6400000D01*
X8300000Y-6100000D02*
X10103000Y-4297000D01*
X65650000Y-8690000D02*
X65650000Y-8069763D01*
%TO.N,Net-(LED3-K)*%
X49816043Y-5099000D02*
X21022212Y-5099000D01*
X63512237Y-7202000D02*
X51919043Y-7202000D01*
X21022212Y-5099000D02*
X20060606Y-6060606D01*
X64380000Y-8690000D02*
X64380000Y-8069763D01*
X64380000Y-8069763D02*
X63512237Y-7202000D01*
X51919043Y-7202000D02*
X49816043Y-5099000D01*
%TO.N,Net-(LED4-K)*%
X26500000Y-5500000D02*
X25900000Y-6100000D01*
X51752943Y-7603000D02*
X49649943Y-5500000D01*
X63750000Y-8690000D02*
X63750000Y-8079763D01*
X63750000Y-8079763D02*
X63273237Y-7603000D01*
X63273237Y-7603000D02*
X51752943Y-7603000D01*
X49649943Y-5500000D02*
X26500000Y-5500000D01*
%TO.N,Net-(LED5-K)*%
X46843000Y-10543000D02*
X43400000Y-7100000D01*
X63110000Y-8690000D02*
X63110000Y-9310237D01*
X43400000Y-7100000D02*
X32800000Y-7100000D01*
X32800000Y-7100000D02*
X31800000Y-6100000D01*
X61877237Y-10543000D02*
X46843000Y-10543000D01*
X63110000Y-9310237D02*
X61877237Y-10543000D01*
%TO.N,Net-(LED6-K)*%
X38300000Y-6700000D02*
X37700000Y-6100000D01*
X62480000Y-9300237D02*
X61638237Y-10142000D01*
X47074900Y-10142000D02*
X43632900Y-6700000D01*
X61638237Y-10142000D02*
X47074900Y-10142000D01*
X43632900Y-6700000D02*
X38300000Y-6700000D01*
X62480000Y-8690000D02*
X62480000Y-9300237D01*
%TO.N,Net-(LED7-K)*%
X61840000Y-9310237D02*
X61409237Y-9741000D01*
X61840000Y-8690000D02*
X61840000Y-9310237D01*
X61409237Y-9741000D02*
X47241000Y-9741000D01*
X47241000Y-9741000D02*
X43600000Y-6100000D01*
%TO.N,Net-(LED8-K)*%
X51990000Y-8690000D02*
X61210000Y-8690000D01*
X49400000Y-6100000D02*
X51990000Y-8690000D01*
%TO.N,Net-(LED9-K)*%
X58090000Y-3310000D02*
X61210000Y-3310000D01*
X54000000Y-4600000D02*
X56800000Y-4600000D01*
X56800000Y-4600000D02*
X58090000Y-3310000D01*
%TO.N,Net-(LED10-K)*%
X61800000Y-5200000D02*
X61840000Y-5160000D01*
X61840000Y-5160000D02*
X61840000Y-3310000D01*
X61800000Y-5300000D02*
X61800000Y-5200000D01*
%TO.N,Net-(LED11-K)*%
X62500000Y-3330000D02*
X62480000Y-3310000D01*
X62500000Y-4700000D02*
X62500000Y-3330000D01*
X62480000Y-3310000D02*
X62480000Y-3980000D01*
%TO.N,Net-(LED12-K)*%
X65085600Y-6004000D02*
X63110000Y-4028400D01*
X73000000Y-6100000D02*
X72904000Y-6004000D01*
X73000000Y-6300000D02*
X73000000Y-6100000D01*
X72904000Y-6004000D02*
X65085600Y-6004000D01*
X63110000Y-4028400D02*
X63110000Y-3310000D01*
%TO.N,Net-(LED13-K)*%
X63750000Y-3310000D02*
X63750000Y-4101300D01*
X63750000Y-4101300D02*
X65251700Y-5603000D01*
X65251700Y-5603000D02*
X78403000Y-5603000D01*
X78403000Y-5603000D02*
X78860606Y-6060606D01*
%TO.N,Net-(LED14-K)*%
X83902000Y-5202000D02*
X84760606Y-6060606D01*
X64380000Y-3310000D02*
X64380000Y-4164200D01*
X64380000Y-4164200D02*
X65417800Y-5202000D01*
X65417800Y-5202000D02*
X83902000Y-5202000D01*
%TO.N,Net-(LED15-K)*%
X65020000Y-4237100D02*
X65583900Y-4801000D01*
X65020000Y-3310000D02*
X65020000Y-4237100D01*
X89379788Y-4801000D02*
X90639394Y-6060606D01*
X65583900Y-4801000D02*
X89379788Y-4801000D01*
%TO.N,Net-(LED16-K)*%
X65750000Y-4400000D02*
X94900000Y-4400000D01*
X65650000Y-3310000D02*
X65650000Y-4300000D01*
X94900000Y-4400000D02*
X96560606Y-6060606D01*
X65650000Y-4300000D02*
X65750000Y-4400000D01*
%TO.N,Net-(LED17-K)*%
X26983143Y-11199000D02*
X26481143Y-10697000D01*
X33201000Y-11199000D02*
X26983143Y-11199000D01*
X34350000Y-9410000D02*
X34350000Y-10050000D01*
X26481143Y-10697000D02*
X9703000Y-10697000D01*
X34350000Y-10050000D02*
X33201000Y-11199000D01*
X9703000Y-10697000D02*
X8300000Y-12100000D01*
%TO.N,Net-(LED18-K)*%
X26817043Y-11600000D02*
X26315043Y-11098000D01*
X26315043Y-11098000D02*
X25484957Y-11098000D01*
X25483957Y-11099000D02*
X15101000Y-11099000D01*
X15101000Y-11099000D02*
X14100000Y-12100000D01*
X25484957Y-11098000D02*
X25483957Y-11099000D01*
X34980000Y-10030237D02*
X33410237Y-11600000D01*
X33410237Y-11600000D02*
X26817043Y-11600000D01*
X34980000Y-9410000D02*
X34980000Y-10030237D01*
%TO.N,Net-(LED19-K)*%
X35620000Y-10020237D02*
X33640237Y-12000000D01*
X33640237Y-12000000D02*
X26649943Y-12000000D01*
X25650057Y-11500000D02*
X20600000Y-11500000D01*
X26649943Y-12000000D02*
X26148943Y-11499000D01*
X25651057Y-11499000D02*
X25650057Y-11500000D01*
X26148943Y-11499000D02*
X25651057Y-11499000D01*
X20600000Y-11500000D02*
X20000000Y-12100000D01*
X35620000Y-9410000D02*
X35620000Y-10020237D01*
%TO.N,Net-(LED20-K)*%
X25900000Y-12100000D02*
X26200000Y-12400000D01*
X36250000Y-10360000D02*
X36250000Y-9410000D01*
X34210000Y-12400000D02*
X36250000Y-10360000D01*
X26200000Y-12400000D02*
X34210000Y-12400000D01*
%TO.N,Net-(LED24-K)*%
X38800000Y-9400000D02*
X38790000Y-9410000D01*
X40000000Y-9400000D02*
X38800000Y-9400000D01*
%TO.N,Net-(LED25-K)*%
X46527178Y-14401291D02*
X47025064Y-14401291D01*
X49500000Y-14400000D02*
X51800000Y-12100000D01*
X39041000Y-14539000D02*
X43461000Y-14539000D01*
X47025064Y-14401291D02*
X47026355Y-14400000D01*
X43461000Y-14539000D02*
X43600000Y-14400000D01*
X43600000Y-14400000D02*
X46525887Y-14400000D01*
X46525887Y-14400000D02*
X46527178Y-14401291D01*
X47026355Y-14400000D02*
X49500000Y-14400000D01*
X38790000Y-14790000D02*
X39041000Y-14539000D01*
X51800000Y-12100000D02*
X55300000Y-12100000D01*
%TO.N,Net-(LED26-K)*%
X49699000Y-14801000D02*
X51800000Y-12700000D01*
X42239998Y-13739000D02*
X38590763Y-13739000D01*
X60900000Y-12700000D02*
X61200000Y-12400000D01*
X43766100Y-14801000D02*
X49699000Y-14801000D01*
X61200000Y-12400000D02*
X61200000Y-12100000D01*
X38160000Y-14169763D02*
X38160000Y-14790000D01*
X43607100Y-14960000D02*
X43766100Y-14801000D01*
X42479000Y-14960000D02*
X43607100Y-14960000D01*
X42300000Y-13939000D02*
X42300000Y-13799002D01*
X42300000Y-13799002D02*
X42239998Y-13739000D01*
X38590763Y-13739000D02*
X38160000Y-14169763D01*
X51800000Y-12700000D02*
X60900000Y-12700000D01*
X42300000Y-15139000D02*
X42479000Y-14960000D01*
X42300000Y-15139000D02*
X42400000Y-15139000D01*
%TO.N,Net-(LED27-K)*%
X61100000Y-13100000D02*
X62100000Y-12100000D01*
X51967100Y-13117157D02*
X51967100Y-13100000D01*
X40051057Y-13337000D02*
X42637000Y-13337000D01*
X43199998Y-15561000D02*
X43573200Y-15561000D01*
X62100000Y-12100000D02*
X67100000Y-12100000D01*
X37520000Y-14790000D02*
X37520000Y-13840000D01*
X42637000Y-13337000D02*
X43200000Y-13900000D01*
X49867157Y-15217100D02*
X51967100Y-13117157D01*
X40050057Y-13338000D02*
X40051057Y-13337000D01*
X38022000Y-13338000D02*
X40050057Y-13338000D01*
X43573200Y-15561000D02*
X43917100Y-15217100D01*
X43917100Y-15217100D02*
X49867157Y-15217100D01*
X51967100Y-13100000D02*
X61100000Y-13100000D01*
X37520000Y-13840000D02*
X38022000Y-13338000D01*
%TO.N,Net-(LED28-K)*%
X36890000Y-13840000D02*
X36890000Y-14790000D01*
X46837000Y-12937000D02*
X37793000Y-12937000D01*
X72400000Y-12700000D02*
X73000000Y-12100000D01*
X47576123Y-13676123D02*
X46837000Y-12937000D01*
X37793000Y-12937000D02*
X36890000Y-13840000D01*
X47576123Y-13799253D02*
X47576123Y-13676123D01*
X52434200Y-13500000D02*
X61300000Y-13500000D01*
X62100000Y-12700000D02*
X72400000Y-12700000D01*
X50933200Y-15001000D02*
X52434200Y-13500000D01*
X61300000Y-13500000D02*
X62100000Y-12700000D01*
%TO.N,Net-(LED29-K)*%
X36250000Y-13840000D02*
X36250000Y-14790000D01*
X60500000Y-14323265D02*
X60600000Y-14223265D01*
X47100000Y-12301000D02*
X37789000Y-12301000D01*
X37789000Y-12301000D02*
X36250000Y-13840000D01*
X48423884Y-13751881D02*
X48423884Y-13624884D01*
X48423884Y-13624884D02*
X47100000Y-12301000D01*
X62548530Y-13100000D02*
X77900000Y-13100000D01*
X77900000Y-13100000D02*
X78900000Y-12100000D01*
X61425265Y-14223265D02*
X62548530Y-13100000D01*
X60600000Y-14223265D02*
X61425265Y-14223265D01*
X48400376Y-13775389D02*
X48423884Y-13751881D01*
%TO.N,Net-(LED30-K)*%
X37560000Y-11900000D02*
X35620000Y-13840000D01*
X49200000Y-13800000D02*
X49200000Y-13700000D01*
X83299000Y-13501000D02*
X84700000Y-12100000D01*
X62700000Y-14000000D02*
X63199000Y-13501000D01*
X63199000Y-13501000D02*
X83299000Y-13501000D01*
X47400000Y-11900000D02*
X37560000Y-11900000D01*
X49200000Y-13700000D02*
X47400000Y-11900000D01*
X35620000Y-13840000D02*
X35620000Y-14790000D01*
%TO.N,Net-(LED31-K)*%
X34980000Y-14790000D02*
X34980000Y-13840000D01*
X34980000Y-13840000D02*
X37320000Y-11500000D01*
X90000000Y-11500000D02*
X90600000Y-12100000D01*
X37320000Y-11500000D02*
X90000000Y-11500000D01*
%TO.N,Net-(LED32-K)*%
X37090000Y-11100000D02*
X34350000Y-13840000D01*
X95500000Y-11100000D02*
X37090000Y-11100000D01*
X96500000Y-12100000D02*
X95500000Y-11100000D01*
X34350000Y-13840000D02*
X34350000Y-14790000D01*
%TO.N,Net-(LED33-K)*%
X65676470Y-20811212D02*
X65676470Y-20190975D01*
X10129470Y-16418212D02*
X50174713Y-16418212D01*
X64006707Y-18521212D02*
X63726470Y-18521212D01*
X52277713Y-18521212D02*
X63726470Y-18521212D01*
X8326470Y-18221212D02*
X10129470Y-16418212D01*
X65676470Y-20190975D02*
X64006707Y-18521212D01*
X50174713Y-16418212D02*
X52277713Y-18521212D01*
%TO.N,Net-(LED34-K)*%
X65046470Y-20200975D02*
X63767707Y-18922212D01*
X15628470Y-16819212D02*
X14226470Y-18221212D01*
X65046470Y-20811212D02*
X65046470Y-20200975D01*
X50008613Y-16819212D02*
X15628470Y-16819212D01*
X63767707Y-18922212D02*
X52111613Y-18922212D01*
X52111613Y-18922212D02*
X50008613Y-16819212D01*
%TO.N,Net-(LED35-K)*%
X51945513Y-19323212D02*
X49842513Y-17220212D01*
X63538707Y-19323212D02*
X51945513Y-19323212D01*
X64406470Y-20811212D02*
X64406470Y-20190975D01*
X49842513Y-17220212D02*
X21048682Y-17220212D01*
X21048682Y-17220212D02*
X20087076Y-18181818D01*
X64406470Y-20190975D02*
X63538707Y-19323212D01*
%TO.N,Net-(LED36-K)*%
X51779413Y-19724212D02*
X49676413Y-17621212D01*
X26526470Y-17621212D02*
X25926470Y-18221212D01*
X63299707Y-19724212D02*
X51779413Y-19724212D01*
X63776470Y-20200975D02*
X63299707Y-19724212D01*
X49676413Y-17621212D02*
X26526470Y-17621212D01*
X63776470Y-20811212D02*
X63776470Y-20200975D01*
%TO.N,Net-(LED37-K)*%
X61903707Y-22664212D02*
X46869470Y-22664212D01*
X32826470Y-19221212D02*
X31826470Y-18221212D01*
X63136470Y-20811212D02*
X63136470Y-21431449D01*
X43426470Y-19221212D02*
X32826470Y-19221212D01*
X63136470Y-21431449D02*
X61903707Y-22664212D01*
X46869470Y-22664212D02*
X43426470Y-19221212D01*
%TO.N,Net-(LED38-K)*%
X62506470Y-21421449D02*
X61664707Y-22263212D01*
X47101370Y-22263212D02*
X43659370Y-18821212D01*
X61664707Y-22263212D02*
X47101370Y-22263212D01*
X62506470Y-20811212D02*
X62506470Y-21421449D01*
X38326470Y-18821212D02*
X37726470Y-18221212D01*
X43659370Y-18821212D02*
X38326470Y-18821212D01*
%TO.N,Net-(LED39-K)*%
X61866470Y-21431449D02*
X61435707Y-21862212D01*
X61866470Y-20811212D02*
X61866470Y-21431449D01*
X47267470Y-21862212D02*
X43626470Y-18221212D01*
X61435707Y-21862212D02*
X47267470Y-21862212D01*
%TO.N,Net-(LED40-K)*%
X49426470Y-18221212D02*
X52016470Y-20811212D01*
X52016470Y-20811212D02*
X61236470Y-20811212D01*
%TO.N,Net-(LED41-K)*%
X58116470Y-15431212D02*
X61236470Y-15431212D01*
X54026470Y-16721212D02*
X56826470Y-16721212D01*
X56826470Y-16721212D02*
X58116470Y-15431212D01*
%TO.N,Net-(LED42-K)*%
X61866470Y-17281212D02*
X61866470Y-15431212D01*
X61826470Y-17421212D02*
X61826470Y-17321212D01*
X61826470Y-17321212D02*
X61866470Y-17281212D01*
%TO.N,Net-(LED43-K)*%
X62506470Y-15431212D02*
X62506470Y-16101212D01*
X62526470Y-16821212D02*
X62526470Y-15451212D01*
X62526470Y-15451212D02*
X62506470Y-15431212D01*
%TO.N,Net-(LED44-K)*%
X73026470Y-18421212D02*
X73026470Y-18221212D01*
X63136470Y-16149612D02*
X63136470Y-15431212D01*
X73026470Y-18221212D02*
X72930470Y-18125212D01*
X72930470Y-18125212D02*
X65112070Y-18125212D01*
X65112070Y-18125212D02*
X63136470Y-16149612D01*
%TO.N,Net-(LED45-K)*%
X65278170Y-17724212D02*
X78429470Y-17724212D01*
X63776470Y-16222512D02*
X65278170Y-17724212D01*
X63776470Y-15431212D02*
X63776470Y-16222512D01*
X78429470Y-17724212D02*
X78887076Y-18181818D01*
%TO.N,Net-(LED46-K)*%
X64406470Y-16285412D02*
X65444270Y-17323212D01*
X64406470Y-15431212D02*
X64406470Y-16285412D01*
X83928470Y-17323212D02*
X84787076Y-18181818D01*
X65444270Y-17323212D02*
X83928470Y-17323212D01*
%TO.N,Net-(LED47-K)*%
X89406258Y-16922212D02*
X90665864Y-18181818D01*
X65046470Y-16358312D02*
X65610370Y-16922212D01*
X65046470Y-15431212D02*
X65046470Y-16358312D01*
X65610370Y-16922212D02*
X89406258Y-16922212D01*
%TO.N,Net-(LED48-K)*%
X94926470Y-16521212D02*
X96587076Y-18181818D01*
X65676470Y-15431212D02*
X65676470Y-16421212D01*
X65676470Y-16421212D02*
X65776470Y-16521212D01*
X65776470Y-16521212D02*
X94926470Y-16521212D01*
%TO.N,Net-(LED49-K)*%
X27009613Y-23320212D02*
X26507613Y-22818212D01*
X26507613Y-22818212D02*
X9729470Y-22818212D01*
X33379788Y-23320212D02*
X27009613Y-23320212D01*
X34376470Y-21531212D02*
X34376470Y-22323530D01*
X9729470Y-22818212D02*
X8326470Y-24221212D01*
X34376470Y-22323530D02*
X33379788Y-23320212D01*
%TO.N,Net-(LED50-K)*%
X26341513Y-23219212D02*
X25511427Y-23219212D01*
X26843513Y-23721212D02*
X26341513Y-23219212D01*
X15127470Y-23220212D02*
X14126470Y-24221212D01*
X33578788Y-23721212D02*
X26843513Y-23721212D01*
X35006470Y-22293530D02*
X33578788Y-23721212D01*
X25511427Y-23219212D02*
X25510427Y-23220212D01*
X25510427Y-23220212D02*
X15127470Y-23220212D01*
X35006470Y-21531212D02*
X35006470Y-22293530D01*
%TO.N,Net-(LED51-K)*%
X25676527Y-23621212D02*
X20626470Y-23621212D01*
X26676413Y-24121212D02*
X26175413Y-23620212D01*
X20626470Y-23621212D02*
X20026470Y-24221212D01*
X33878788Y-24121212D02*
X26676413Y-24121212D01*
X25677527Y-23620212D02*
X25676527Y-23621212D01*
X35646470Y-22353530D02*
X33878788Y-24121212D01*
X35646470Y-21531212D02*
X35646470Y-22353530D01*
X26175413Y-23620212D02*
X25677527Y-23620212D01*
%TO.N,Net-(LED52-K)*%
X25926470Y-24221212D02*
X26226470Y-24521212D01*
X26226470Y-24521212D02*
X34236470Y-24521212D01*
X34236470Y-24521212D02*
X36276470Y-22481212D01*
X36276470Y-22481212D02*
X36276470Y-21531212D01*
%TO.N,Net-(LED53-K)*%
X34276470Y-25121212D02*
X36916470Y-22481212D01*
X36916470Y-22481212D02*
X36916470Y-21531212D01*
X31526470Y-25121212D02*
X34276470Y-25121212D01*
%TO.N,Net-(LED54-K)*%
X37546470Y-21531212D02*
X37546470Y-19941212D01*
X37546470Y-19941212D02*
X37526470Y-19921212D01*
%TO.N,Net-(LED55-K)*%
X38226470Y-20321212D02*
X38226470Y-21491212D01*
X38226470Y-21491212D02*
X38186470Y-21531212D01*
%TO.N,Net-(LED56-K)*%
X40026470Y-21521212D02*
X38826470Y-21521212D01*
X38826470Y-21521212D02*
X38816470Y-21531212D01*
%TO.N,Net-(LED57-K)*%
X43626470Y-26521212D02*
X46552357Y-26521212D01*
X47052825Y-26521212D02*
X49526470Y-26521212D01*
X51826470Y-24221212D02*
X55326470Y-24221212D01*
X38816470Y-26911212D02*
X39067470Y-26660212D01*
X47051534Y-26522503D02*
X47052825Y-26521212D01*
X46552357Y-26521212D02*
X46553648Y-26522503D01*
X46553648Y-26522503D02*
X47051534Y-26522503D01*
X39067470Y-26660212D02*
X43487470Y-26660212D01*
X43487470Y-26660212D02*
X43626470Y-26521212D01*
X49526470Y-26521212D02*
X51826470Y-24221212D01*
%TO.N,Net-(LED58-K)*%
X42266468Y-25860212D02*
X38617233Y-25860212D01*
X42326470Y-27260212D02*
X42505470Y-27081212D01*
X60926470Y-24821212D02*
X61226470Y-24521212D01*
X42326470Y-26060212D02*
X42326470Y-25920214D01*
X51826470Y-24821212D02*
X60926470Y-24821212D01*
X38617233Y-25860212D02*
X38186470Y-26290975D01*
X42505470Y-27081212D02*
X43633570Y-27081212D01*
X61226470Y-24521212D02*
X61226470Y-24221212D01*
X42326470Y-25920214D02*
X42266468Y-25860212D01*
X43792570Y-26922212D02*
X49725470Y-26922212D01*
X49725470Y-26922212D02*
X51826470Y-24821212D01*
X43633570Y-27081212D02*
X43792570Y-26922212D01*
X42326470Y-27260212D02*
X42426470Y-27260212D01*
X38186470Y-26290975D02*
X38186470Y-26911212D01*
%TO.N,Net-(LED59-K)*%
X37546470Y-25961212D02*
X38048470Y-25459212D01*
X51993570Y-25221212D02*
X61126470Y-25221212D01*
X62126470Y-24221212D02*
X67126470Y-24221212D01*
X37546470Y-26911212D02*
X37546470Y-25961212D01*
X38048470Y-25459212D02*
X40076527Y-25459212D01*
X40077527Y-25458212D02*
X42663470Y-25458212D01*
X43599670Y-27682212D02*
X43943570Y-27338312D01*
X61126470Y-25221212D02*
X62126470Y-24221212D01*
X40076527Y-25459212D02*
X40077527Y-25458212D01*
X42663470Y-25458212D02*
X43226470Y-26021212D01*
X51993570Y-25238369D02*
X51993570Y-25221212D01*
X43226468Y-27682212D02*
X43599670Y-27682212D01*
X49893627Y-27338312D02*
X51993570Y-25238369D01*
X43943570Y-27338312D02*
X49893627Y-27338312D01*
%TO.N,Net-(LED60-K)*%
X47602593Y-25920465D02*
X47602593Y-25797335D01*
X36916470Y-25961212D02*
X36916470Y-26911212D01*
X61326470Y-25621212D02*
X62126470Y-24821212D01*
X62126470Y-24821212D02*
X72426470Y-24821212D01*
X47602593Y-25797335D02*
X46863470Y-25058212D01*
X46863470Y-25058212D02*
X37819470Y-25058212D01*
X72426470Y-24821212D02*
X73026470Y-24221212D01*
X37819470Y-25058212D02*
X36916470Y-25961212D01*
X52460670Y-25621212D02*
X61326470Y-25621212D01*
X50959670Y-27122212D02*
X52460670Y-25621212D01*
%TO.N,Net-(LED61-K)*%
X47126470Y-24422212D02*
X37815470Y-24422212D01*
X62575000Y-25221212D02*
X77926470Y-25221212D01*
X48450354Y-25873093D02*
X48450354Y-25746096D01*
X60526470Y-26444477D02*
X60626470Y-26344477D01*
X61451735Y-26344477D02*
X62575000Y-25221212D01*
X48426846Y-25896601D02*
X48450354Y-25873093D01*
X60626470Y-26344477D02*
X61451735Y-26344477D01*
X37815470Y-24422212D02*
X36276470Y-25961212D01*
X36276470Y-25961212D02*
X36276470Y-26911212D01*
X48450354Y-25746096D02*
X47126470Y-24422212D01*
X77926470Y-25221212D02*
X78926470Y-24221212D01*
%TO.N,Net-(LED62-K)*%
X49226470Y-25821212D02*
X47426470Y-24021212D01*
X63225470Y-25622212D02*
X83325470Y-25622212D01*
X35646470Y-25961212D02*
X35646470Y-26911212D01*
X47426470Y-24021212D02*
X37586470Y-24021212D01*
X37586470Y-24021212D02*
X35646470Y-25961212D01*
X49226470Y-25921212D02*
X49226470Y-25821212D01*
X62726470Y-26121212D02*
X63225470Y-25622212D01*
X83325470Y-25622212D02*
X84726470Y-24221212D01*
%TO.N,Net-(LED63-K)*%
X35006470Y-25961212D02*
X37346470Y-23621212D01*
X35006470Y-26911212D02*
X35006470Y-25961212D01*
X37346470Y-23621212D02*
X90026470Y-23621212D01*
X90026470Y-23621212D02*
X90626470Y-24221212D01*
%TO.N,Net-(LED64-K)*%
X37116470Y-23221212D02*
X34376470Y-25961212D01*
X34376470Y-25961212D02*
X34376470Y-26911212D01*
X95526470Y-23221212D02*
X37116470Y-23221212D01*
X96526470Y-24221212D02*
X95526470Y-23221212D01*
%TD*%
%TA.AperFunction,Conductor*%
%TO.N,GND*%
G36*
X99442539Y-520185D02*
G01*
X99488294Y-572989D01*
X99499500Y-624500D01*
X99499500Y-199375500D01*
X99479815Y-199442539D01*
X99427011Y-199488294D01*
X99375500Y-199499500D01*
X624500Y-199499500D01*
X557461Y-199479815D01*
X511706Y-199427011D01*
X500500Y-199375500D01*
X500500Y-14131582D01*
X23775001Y-14131582D01*
X23781408Y-14202102D01*
X23781409Y-14202107D01*
X23831981Y-14364396D01*
X23919927Y-14509877D01*
X24040122Y-14630072D01*
X24185604Y-14718019D01*
X24185603Y-14718019D01*
X24347894Y-14768590D01*
X24347893Y-14768590D01*
X24418408Y-14774998D01*
X24418426Y-14774999D01*
X24424999Y-14774998D01*
X24425000Y-14774998D01*
X24425000Y-14050000D01*
X23775001Y-14050000D01*
X23775001Y-14131582D01*
X500500Y-14131582D01*
X500500Y-13468427D01*
X23775000Y-13468427D01*
X23775000Y-13550000D01*
X24425000Y-13550000D01*
X24425000Y-12825000D01*
X24424999Y-12824999D01*
X24418436Y-12825000D01*
X24418417Y-12825001D01*
X24347897Y-12831408D01*
X24347892Y-12831409D01*
X24185603Y-12881981D01*
X24040122Y-12969927D01*
X23919927Y-13090122D01*
X23831980Y-13235604D01*
X23781409Y-13397893D01*
X23775000Y-13468427D01*
X500500Y-13468427D01*
X500500Y-6021153D01*
X7499500Y-6021153D01*
X7499500Y-6178846D01*
X7530261Y-6333489D01*
X7530264Y-6333501D01*
X7590602Y-6479172D01*
X7590609Y-6479185D01*
X7678210Y-6610288D01*
X7678213Y-6610292D01*
X7789707Y-6721786D01*
X7789711Y-6721789D01*
X7920814Y-6809390D01*
X7920827Y-6809397D01*
X8066498Y-6869735D01*
X8066503Y-6869737D01*
X8221153Y-6900499D01*
X8221156Y-6900500D01*
X8221158Y-6900500D01*
X8378844Y-6900500D01*
X8378845Y-6900499D01*
X8533497Y-6869737D01*
X8679179Y-6809394D01*
X8810289Y-6721789D01*
X8921789Y-6610289D01*
X9009394Y-6479179D01*
X9069737Y-6333497D01*
X9096423Y-6199337D01*
X9100638Y-6178150D01*
X9133023Y-6116239D01*
X9134518Y-6114716D01*
X10315416Y-4933819D01*
X10376739Y-4900334D01*
X10403097Y-4897500D01*
X14253903Y-4897500D01*
X14275148Y-4903738D01*
X14297237Y-4905318D01*
X14308020Y-4913390D01*
X14320942Y-4917185D01*
X14335441Y-4933918D01*
X14353170Y-4947190D01*
X14357877Y-4959810D01*
X14366697Y-4969989D01*
X14369848Y-4991906D01*
X14377587Y-5012654D01*
X14374724Y-5025814D01*
X14376641Y-5039147D01*
X14367441Y-5059290D01*
X14362735Y-5080927D01*
X14349465Y-5098653D01*
X14347616Y-5102703D01*
X14341597Y-5109167D01*
X14250265Y-5200500D01*
X14185339Y-5265426D01*
X14124016Y-5298910D01*
X14121850Y-5299361D01*
X13966508Y-5330261D01*
X13966498Y-5330264D01*
X13820827Y-5390602D01*
X13820814Y-5390609D01*
X13689711Y-5478210D01*
X13689707Y-5478213D01*
X13578213Y-5589707D01*
X13578210Y-5589711D01*
X13490609Y-5720814D01*
X13490602Y-5720827D01*
X13430264Y-5866498D01*
X13430261Y-5866510D01*
X13399500Y-6021153D01*
X13399500Y-6178846D01*
X13430261Y-6333489D01*
X13430264Y-6333501D01*
X13490602Y-6479172D01*
X13490609Y-6479185D01*
X13578210Y-6610288D01*
X13578213Y-6610292D01*
X13689707Y-6721786D01*
X13689711Y-6721789D01*
X13820814Y-6809390D01*
X13820827Y-6809397D01*
X13966498Y-6869735D01*
X13966503Y-6869737D01*
X14121153Y-6900499D01*
X14121156Y-6900500D01*
X14121158Y-6900500D01*
X14278844Y-6900500D01*
X14278845Y-6900499D01*
X14433497Y-6869737D01*
X14579179Y-6809394D01*
X14710289Y-6721789D01*
X14821789Y-6610289D01*
X14909394Y-6479179D01*
X14969737Y-6333497D01*
X14996423Y-6199337D01*
X15000638Y-6178150D01*
X15033023Y-6116239D01*
X15034518Y-6114716D01*
X15814416Y-5334819D01*
X15875739Y-5301334D01*
X15902097Y-5298500D01*
X19391271Y-5298500D01*
X19458310Y-5318185D01*
X19504065Y-5370989D01*
X19514009Y-5440147D01*
X19484984Y-5503703D01*
X19478952Y-5510181D01*
X19438819Y-5550313D01*
X19438816Y-5550317D01*
X19351215Y-5681420D01*
X19351208Y-5681433D01*
X19290870Y-5827104D01*
X19290867Y-5827116D01*
X19260106Y-5981759D01*
X19260106Y-6139452D01*
X19290867Y-6294095D01*
X19290870Y-6294107D01*
X19351208Y-6439778D01*
X19351215Y-6439791D01*
X19438816Y-6570894D01*
X19438819Y-6570898D01*
X19550313Y-6682392D01*
X19550317Y-6682395D01*
X19681420Y-6769996D01*
X19681433Y-6770003D01*
X19827104Y-6830341D01*
X19827109Y-6830343D01*
X19981759Y-6861105D01*
X19981762Y-6861106D01*
X19981764Y-6861106D01*
X20139450Y-6861106D01*
X20139451Y-6861105D01*
X20294103Y-6830343D01*
X20439785Y-6770000D01*
X20570895Y-6682395D01*
X20682395Y-6570895D01*
X20770000Y-6439785D01*
X20830343Y-6294103D01*
X20860238Y-6143814D01*
X20861244Y-6138756D01*
X20893629Y-6076845D01*
X20895124Y-6075322D01*
X21234628Y-5735819D01*
X21295951Y-5702334D01*
X21322309Y-5699500D01*
X25013859Y-5699500D01*
X25080898Y-5719185D01*
X25126653Y-5771989D01*
X25136597Y-5841147D01*
X25131299Y-5860454D01*
X25132031Y-5860676D01*
X25130261Y-5866510D01*
X25099500Y-6021153D01*
X25099500Y-6178846D01*
X25130261Y-6333489D01*
X25130264Y-6333501D01*
X25190602Y-6479172D01*
X25190609Y-6479185D01*
X25278210Y-6610288D01*
X25278213Y-6610292D01*
X25389707Y-6721786D01*
X25389711Y-6721789D01*
X25520814Y-6809390D01*
X25520827Y-6809397D01*
X25666498Y-6869735D01*
X25666503Y-6869737D01*
X25821153Y-6900499D01*
X25821156Y-6900500D01*
X25821158Y-6900500D01*
X25978844Y-6900500D01*
X25978845Y-6900499D01*
X26133497Y-6869737D01*
X26279179Y-6809394D01*
X26410289Y-6721789D01*
X26521789Y-6610289D01*
X26609394Y-6479179D01*
X26669737Y-6333497D01*
X26684265Y-6260461D01*
X26696231Y-6200308D01*
X26728616Y-6138397D01*
X26789332Y-6103823D01*
X26817848Y-6100500D01*
X30882152Y-6100500D01*
X30949191Y-6120185D01*
X30994946Y-6172989D01*
X31003769Y-6200308D01*
X31030261Y-6333491D01*
X31030264Y-6333501D01*
X31090602Y-6479172D01*
X31090609Y-6479185D01*
X31178210Y-6610288D01*
X31178213Y-6610292D01*
X31289707Y-6721786D01*
X31289711Y-6721789D01*
X31420814Y-6809390D01*
X31420827Y-6809397D01*
X31566498Y-6869735D01*
X31566503Y-6869737D01*
X31631147Y-6882595D01*
X31721849Y-6900638D01*
X31783760Y-6933023D01*
X31785339Y-6934574D01*
X32016259Y-7165495D01*
X32049744Y-7226818D01*
X32044760Y-7296510D01*
X32002888Y-7352443D01*
X31976031Y-7367737D01*
X31920824Y-7390604D01*
X31920814Y-7390609D01*
X31789711Y-7478210D01*
X31789707Y-7478213D01*
X31678213Y-7589707D01*
X31678210Y-7589711D01*
X31590609Y-7720814D01*
X31590602Y-7720827D01*
X31530264Y-7866498D01*
X31530261Y-7866510D01*
X31499500Y-8021153D01*
X31499500Y-8163360D01*
X31479815Y-8230399D01*
X31444392Y-8266462D01*
X31376521Y-8311812D01*
X31281812Y-8406521D01*
X31281809Y-8406525D01*
X31207395Y-8517892D01*
X31207390Y-8517901D01*
X31156132Y-8641650D01*
X31156130Y-8641658D01*
X31130000Y-8773021D01*
X31130000Y-9230000D01*
X31635500Y-9230000D01*
X31644185Y-9232550D01*
X31653147Y-9231262D01*
X31677187Y-9242240D01*
X31702539Y-9249685D01*
X31708466Y-9256525D01*
X31716703Y-9260287D01*
X31730992Y-9282521D01*
X31748294Y-9302489D01*
X31750581Y-9313003D01*
X31754477Y-9319065D01*
X31759500Y-9354000D01*
X31759500Y-9466000D01*
X31739815Y-9533039D01*
X31687011Y-9578794D01*
X31635500Y-9590000D01*
X31130000Y-9590000D01*
X31130000Y-10046978D01*
X31156130Y-10178341D01*
X31156132Y-10178349D01*
X31207390Y-10302098D01*
X31207395Y-10302106D01*
X31276554Y-10405609D01*
X31297432Y-10472286D01*
X31278948Y-10539666D01*
X31226969Y-10586357D01*
X31173452Y-10598500D01*
X27283240Y-10598500D01*
X27216201Y-10578815D01*
X27195559Y-10562181D01*
X26968733Y-10335355D01*
X26968731Y-10335352D01*
X26849860Y-10216481D01*
X26849859Y-10216480D01*
X26763047Y-10166360D01*
X26763047Y-10166359D01*
X26763043Y-10166358D01*
X26712928Y-10137423D01*
X26560200Y-10096499D01*
X26402086Y-10096499D01*
X26394490Y-10096499D01*
X26394474Y-10096500D01*
X9789670Y-10096500D01*
X9789654Y-10096499D01*
X9782058Y-10096499D01*
X9623943Y-10096499D01*
X9575801Y-10109399D01*
X9471214Y-10137423D01*
X9471209Y-10137426D01*
X9334290Y-10216475D01*
X9334282Y-10216481D01*
X8285339Y-11265425D01*
X8224016Y-11298910D01*
X8221850Y-11299361D01*
X8066508Y-11330261D01*
X8066498Y-11330264D01*
X7920827Y-11390602D01*
X7920814Y-11390609D01*
X7789711Y-11478210D01*
X7789707Y-11478213D01*
X7678213Y-11589707D01*
X7678210Y-11589711D01*
X7590609Y-11720814D01*
X7590602Y-11720827D01*
X7530264Y-11866498D01*
X7530261Y-11866510D01*
X7499500Y-12021153D01*
X7499500Y-12178846D01*
X7530261Y-12333489D01*
X7530264Y-12333501D01*
X7590602Y-12479172D01*
X7590609Y-12479185D01*
X7678210Y-12610288D01*
X7678213Y-12610292D01*
X7789707Y-12721786D01*
X7789711Y-12721789D01*
X7920814Y-12809390D01*
X7920827Y-12809397D01*
X8066498Y-12869735D01*
X8066503Y-12869737D01*
X8206911Y-12897666D01*
X8221153Y-12900499D01*
X8221156Y-12900500D01*
X8221158Y-12900500D01*
X8378844Y-12900500D01*
X8378845Y-12900499D01*
X8533497Y-12869737D01*
X8679179Y-12809394D01*
X8810289Y-12721789D01*
X8921789Y-12610289D01*
X9009394Y-12479179D01*
X9069737Y-12333497D01*
X9100038Y-12181166D01*
X9100638Y-12178150D01*
X9133023Y-12116239D01*
X9134516Y-12114718D01*
X9915417Y-11333819D01*
X9976740Y-11300334D01*
X10003098Y-11297500D01*
X13471059Y-11297500D01*
X13538098Y-11317185D01*
X13583853Y-11369989D01*
X13593797Y-11439147D01*
X13564772Y-11502703D01*
X13558740Y-11509181D01*
X13478213Y-11589707D01*
X13478210Y-11589711D01*
X13390609Y-11720814D01*
X13390602Y-11720827D01*
X13330264Y-11866498D01*
X13330261Y-11866510D01*
X13299500Y-12021153D01*
X13299500Y-12178846D01*
X13330261Y-12333489D01*
X13330264Y-12333501D01*
X13390602Y-12479172D01*
X13390609Y-12479185D01*
X13478210Y-12610288D01*
X13478213Y-12610292D01*
X13589707Y-12721786D01*
X13589711Y-12721789D01*
X13720814Y-12809390D01*
X13720827Y-12809397D01*
X13866498Y-12869735D01*
X13866503Y-12869737D01*
X14006911Y-12897666D01*
X14021153Y-12900499D01*
X14021156Y-12900500D01*
X14021158Y-12900500D01*
X14178844Y-12900500D01*
X14178845Y-12900499D01*
X14333497Y-12869737D01*
X14479179Y-12809394D01*
X14610289Y-12721789D01*
X14721789Y-12610289D01*
X14809394Y-12479179D01*
X14869737Y-12333497D01*
X14900038Y-12181166D01*
X14900638Y-12178150D01*
X14933023Y-12116239D01*
X14934514Y-12114720D01*
X15313417Y-11735819D01*
X15374740Y-11702334D01*
X15401098Y-11699500D01*
X19113859Y-11699500D01*
X19180898Y-11719185D01*
X19226653Y-11771989D01*
X19236597Y-11841147D01*
X19231299Y-11860454D01*
X19232031Y-11860676D01*
X19230261Y-11866510D01*
X19199500Y-12021153D01*
X19199500Y-12178846D01*
X19230261Y-12333489D01*
X19230264Y-12333501D01*
X19290602Y-12479172D01*
X19290609Y-12479185D01*
X19378210Y-12610288D01*
X19378213Y-12610292D01*
X19489707Y-12721786D01*
X19489711Y-12721789D01*
X19620814Y-12809390D01*
X19620827Y-12809397D01*
X19766498Y-12869735D01*
X19766503Y-12869737D01*
X19906911Y-12897666D01*
X19921153Y-12900499D01*
X19921156Y-12900500D01*
X19921158Y-12900500D01*
X20078844Y-12900500D01*
X20078845Y-12900499D01*
X20233497Y-12869737D01*
X20379179Y-12809394D01*
X20510289Y-12721789D01*
X20621789Y-12610289D01*
X20709394Y-12479179D01*
X20769737Y-12333497D01*
X20783901Y-12262290D01*
X20796231Y-12200308D01*
X20828616Y-12138397D01*
X20889332Y-12103823D01*
X20917848Y-12100500D01*
X24982152Y-12100500D01*
X25049191Y-12120185D01*
X25094946Y-12172989D01*
X25103769Y-12200308D01*
X25130261Y-12333491D01*
X25130264Y-12333501D01*
X25190602Y-12479172D01*
X25190609Y-12479185D01*
X25278210Y-12610288D01*
X25278213Y-12610292D01*
X25389707Y-12721786D01*
X25389711Y-12721789D01*
X25520814Y-12809390D01*
X25520823Y-12809395D01*
X25582096Y-12834775D01*
X25636499Y-12878616D01*
X25658564Y-12944910D01*
X25641285Y-13012609D01*
X25622325Y-13037016D01*
X25587328Y-13072014D01*
X25526006Y-13105500D01*
X25456314Y-13100516D01*
X25411965Y-13072015D01*
X25309877Y-12969927D01*
X25164395Y-12881980D01*
X25164396Y-12881980D01*
X25002105Y-12831409D01*
X25002106Y-12831409D01*
X24931572Y-12825000D01*
X24925000Y-12825000D01*
X24925000Y-14774999D01*
X24931581Y-14774999D01*
X25002102Y-14768591D01*
X25002107Y-14768590D01*
X25164396Y-14718018D01*
X25309877Y-14630072D01*
X25309878Y-14630071D01*
X25411963Y-14527985D01*
X25473286Y-14494499D01*
X25542977Y-14499483D01*
X25587326Y-14527984D01*
X25689811Y-14630469D01*
X25689813Y-14630470D01*
X25689815Y-14630472D01*
X25835394Y-14718478D01*
X25997804Y-14769086D01*
X26068384Y-14775500D01*
X26068387Y-14775500D01*
X26581613Y-14775500D01*
X26581616Y-14775500D01*
X26652196Y-14769086D01*
X26814606Y-14718478D01*
X26960185Y-14630472D01*
X27080472Y-14510185D01*
X27168478Y-14364606D01*
X27219086Y-14202196D01*
X27225500Y-14131616D01*
X27225500Y-13468384D01*
X27219086Y-13397804D01*
X27168478Y-13235394D01*
X27140219Y-13188649D01*
X27122384Y-13121095D01*
X27143902Y-13054621D01*
X27197942Y-13010334D01*
X27246337Y-13000500D01*
X29901344Y-13000500D01*
X29968383Y-13020185D01*
X30014138Y-13072989D01*
X30024082Y-13142147D01*
X29995057Y-13205703D01*
X29963344Y-13231887D01*
X29917287Y-13258477D01*
X29917282Y-13258481D01*
X29805481Y-13370282D01*
X29805475Y-13370290D01*
X29726426Y-13507209D01*
X29726423Y-13507216D01*
X29685500Y-13659943D01*
X29685500Y-13818056D01*
X29726423Y-13970783D01*
X29726426Y-13970790D01*
X29805475Y-14107709D01*
X29805479Y-14107714D01*
X29805480Y-14107716D01*
X29917284Y-14219520D01*
X29917286Y-14219521D01*
X29917290Y-14219524D01*
X30054209Y-14298573D01*
X30054216Y-14298577D01*
X30175991Y-14331206D01*
X30235650Y-14367570D01*
X30266179Y-14430417D01*
X30258458Y-14498430D01*
X30230264Y-14566499D01*
X30230261Y-14566510D01*
X30199500Y-14721153D01*
X30199500Y-14838572D01*
X30179815Y-14905611D01*
X30144393Y-14941673D01*
X30089706Y-14978214D01*
X30089704Y-14978217D01*
X29978213Y-15089707D01*
X29978210Y-15089711D01*
X29890609Y-15220814D01*
X29890602Y-15220827D01*
X29830264Y-15366498D01*
X29830261Y-15366510D01*
X29799500Y-15521153D01*
X29799500Y-15678843D01*
X29799768Y-15681566D01*
X29799500Y-15682978D01*
X29799500Y-15684934D01*
X29799129Y-15684934D01*
X29786745Y-15750211D01*
X29738676Y-15800918D01*
X29676364Y-15817712D01*
X10050413Y-15817712D01*
X9897684Y-15858635D01*
X9879515Y-15869126D01*
X9879512Y-15869127D01*
X9760760Y-15937687D01*
X9760752Y-15937693D01*
X8311809Y-17386637D01*
X8250486Y-17420122D01*
X8248320Y-17420573D01*
X8092978Y-17451473D01*
X8092968Y-17451476D01*
X7947297Y-17511814D01*
X7947284Y-17511821D01*
X7816181Y-17599422D01*
X7816177Y-17599425D01*
X7704683Y-17710919D01*
X7704680Y-17710923D01*
X7617079Y-17842026D01*
X7617072Y-17842039D01*
X7556734Y-17987710D01*
X7556731Y-17987722D01*
X7525970Y-18142365D01*
X7525970Y-18300058D01*
X7556731Y-18454701D01*
X7556734Y-18454713D01*
X7617072Y-18600384D01*
X7617079Y-18600397D01*
X7704680Y-18731500D01*
X7704683Y-18731504D01*
X7816177Y-18842998D01*
X7816181Y-18843001D01*
X7947284Y-18930602D01*
X7947297Y-18930609D01*
X8092968Y-18990947D01*
X8092973Y-18990949D01*
X8247623Y-19021711D01*
X8247626Y-19021712D01*
X8247628Y-19021712D01*
X8405314Y-19021712D01*
X8405315Y-19021711D01*
X8559967Y-18990949D01*
X8705649Y-18930606D01*
X8836759Y-18843001D01*
X8948259Y-18731501D01*
X9035864Y-18600391D01*
X9096207Y-18454709D01*
X9122893Y-18320549D01*
X9127108Y-18299362D01*
X9159493Y-18237451D01*
X9160988Y-18235928D01*
X10341886Y-17055031D01*
X10403209Y-17021546D01*
X10429567Y-17018712D01*
X14280373Y-17018712D01*
X14301618Y-17024950D01*
X14323707Y-17026530D01*
X14334490Y-17034602D01*
X14347412Y-17038397D01*
X14361911Y-17055130D01*
X14379640Y-17068402D01*
X14384347Y-17081022D01*
X14393167Y-17091201D01*
X14396318Y-17113118D01*
X14404057Y-17133866D01*
X14401194Y-17147026D01*
X14403111Y-17160359D01*
X14393911Y-17180502D01*
X14389205Y-17202139D01*
X14375935Y-17219865D01*
X14374086Y-17223915D01*
X14368067Y-17230379D01*
X14276735Y-17321712D01*
X14211809Y-17386638D01*
X14150486Y-17420122D01*
X14148320Y-17420573D01*
X13992978Y-17451473D01*
X13992968Y-17451476D01*
X13847297Y-17511814D01*
X13847284Y-17511821D01*
X13716181Y-17599422D01*
X13716177Y-17599425D01*
X13604683Y-17710919D01*
X13604680Y-17710923D01*
X13517079Y-17842026D01*
X13517072Y-17842039D01*
X13456734Y-17987710D01*
X13456731Y-17987722D01*
X13425970Y-18142365D01*
X13425970Y-18300058D01*
X13456731Y-18454701D01*
X13456734Y-18454713D01*
X13517072Y-18600384D01*
X13517079Y-18600397D01*
X13604680Y-18731500D01*
X13604683Y-18731504D01*
X13716177Y-18842998D01*
X13716181Y-18843001D01*
X13847284Y-18930602D01*
X13847297Y-18930609D01*
X13992968Y-18990947D01*
X13992973Y-18990949D01*
X14147623Y-19021711D01*
X14147626Y-19021712D01*
X14147628Y-19021712D01*
X14305314Y-19021712D01*
X14305315Y-19021711D01*
X14459967Y-18990949D01*
X14605649Y-18930606D01*
X14736759Y-18843001D01*
X14848259Y-18731501D01*
X14935864Y-18600391D01*
X14996207Y-18454709D01*
X15022893Y-18320549D01*
X15027108Y-18299362D01*
X15059493Y-18237451D01*
X15060988Y-18235928D01*
X15840886Y-17456031D01*
X15902209Y-17422546D01*
X15928567Y-17419712D01*
X19417741Y-17419712D01*
X19484780Y-17439397D01*
X19530535Y-17492201D01*
X19540479Y-17561359D01*
X19511454Y-17624915D01*
X19505422Y-17631393D01*
X19465289Y-17671525D01*
X19465286Y-17671529D01*
X19377685Y-17802632D01*
X19377678Y-17802645D01*
X19317340Y-17948316D01*
X19317337Y-17948328D01*
X19286576Y-18102971D01*
X19286576Y-18260664D01*
X19317337Y-18415307D01*
X19317340Y-18415319D01*
X19377678Y-18560990D01*
X19377685Y-18561003D01*
X19465286Y-18692106D01*
X19465289Y-18692110D01*
X19576783Y-18803604D01*
X19576787Y-18803607D01*
X19707890Y-18891208D01*
X19707903Y-18891215D01*
X19853574Y-18951553D01*
X19853579Y-18951555D01*
X20008229Y-18982317D01*
X20008232Y-18982318D01*
X20008234Y-18982318D01*
X20165920Y-18982318D01*
X20165921Y-18982317D01*
X20320573Y-18951555D01*
X20466255Y-18891212D01*
X20597365Y-18803607D01*
X20708865Y-18692107D01*
X20796470Y-18560997D01*
X20856813Y-18415315D01*
X20885729Y-18269947D01*
X20887714Y-18259968D01*
X20920099Y-18198057D01*
X20921594Y-18196534D01*
X21261098Y-17857031D01*
X21322421Y-17823546D01*
X21348779Y-17820712D01*
X25040329Y-17820712D01*
X25107368Y-17840397D01*
X25153123Y-17893201D01*
X25163067Y-17962359D01*
X25157769Y-17981666D01*
X25158501Y-17981888D01*
X25156731Y-17987722D01*
X25125970Y-18142365D01*
X25125970Y-18300058D01*
X25156731Y-18454701D01*
X25156734Y-18454713D01*
X25217072Y-18600384D01*
X25217079Y-18600397D01*
X25304680Y-18731500D01*
X25304683Y-18731504D01*
X25416177Y-18842998D01*
X25416181Y-18843001D01*
X25547284Y-18930602D01*
X25547297Y-18930609D01*
X25692968Y-18990947D01*
X25692973Y-18990949D01*
X25847623Y-19021711D01*
X25847626Y-19021712D01*
X25847628Y-19021712D01*
X26005314Y-19021712D01*
X26005315Y-19021711D01*
X26159967Y-18990949D01*
X26305649Y-18930606D01*
X26436759Y-18843001D01*
X26548259Y-18731501D01*
X26635864Y-18600391D01*
X26696207Y-18454709D01*
X26710735Y-18381673D01*
X26722701Y-18321520D01*
X26755086Y-18259609D01*
X26815802Y-18225035D01*
X26844318Y-18221712D01*
X30908622Y-18221712D01*
X30975661Y-18241397D01*
X31021416Y-18294201D01*
X31030239Y-18321520D01*
X31056731Y-18454703D01*
X31056734Y-18454713D01*
X31117072Y-18600384D01*
X31117079Y-18600397D01*
X31204680Y-18731500D01*
X31204683Y-18731504D01*
X31316177Y-18842998D01*
X31316181Y-18843001D01*
X31447284Y-18930602D01*
X31447297Y-18930609D01*
X31592968Y-18990947D01*
X31592973Y-18990949D01*
X31657617Y-19003807D01*
X31748319Y-19021850D01*
X31810230Y-19054235D01*
X31811806Y-19055783D01*
X32457754Y-19701732D01*
X32457756Y-19701733D01*
X32457760Y-19701736D01*
X32509449Y-19731578D01*
X32594686Y-19780789D01*
X32747413Y-19821713D01*
X32747415Y-19821713D01*
X32913124Y-19821713D01*
X32913140Y-19821712D01*
X36601970Y-19821712D01*
X36669009Y-19841397D01*
X36714764Y-19894201D01*
X36725970Y-19945712D01*
X36725970Y-20000058D01*
X36756731Y-20154701D01*
X36756734Y-20154713D01*
X36787989Y-20230169D01*
X36788985Y-20239433D01*
X36793706Y-20247468D01*
X36792660Y-20273616D01*
X36795458Y-20299638D01*
X36791286Y-20307971D01*
X36790914Y-20317281D01*
X36775899Y-20338710D01*
X36764183Y-20362117D01*
X36755103Y-20368392D01*
X36750822Y-20374503D01*
X36731724Y-20384550D01*
X36720392Y-20392383D01*
X36713258Y-20395302D01*
X36711505Y-20395651D01*
X36637419Y-20426337D01*
X36636964Y-20426524D01*
X36602592Y-20430071D01*
X36567982Y-20433792D01*
X36567607Y-20433682D01*
X36567463Y-20433697D01*
X36567192Y-20433560D01*
X36542548Y-20426324D01*
X36468496Y-20395651D01*
X36468489Y-20395649D01*
X36337027Y-20369500D01*
X36337023Y-20369500D01*
X36202977Y-20369500D01*
X36202972Y-20369500D01*
X36071510Y-20395649D01*
X36071503Y-20395651D01*
X36002452Y-20424253D01*
X35932982Y-20431721D01*
X35907548Y-20424253D01*
X35838496Y-20395651D01*
X35838489Y-20395649D01*
X35707027Y-20369500D01*
X35707023Y-20369500D01*
X35572977Y-20369500D01*
X35572972Y-20369500D01*
X35441510Y-20395649D01*
X35441503Y-20395651D01*
X35367452Y-20426324D01*
X35297982Y-20433792D01*
X35272548Y-20426324D01*
X35198496Y-20395651D01*
X35198489Y-20395649D01*
X35067027Y-20369500D01*
X35067023Y-20369500D01*
X34932977Y-20369500D01*
X34932972Y-20369500D01*
X34801510Y-20395649D01*
X34801503Y-20395651D01*
X34732452Y-20424253D01*
X34662982Y-20431721D01*
X34637548Y-20424253D01*
X34568496Y-20395651D01*
X34568489Y-20395649D01*
X34437027Y-20369500D01*
X34437023Y-20369500D01*
X34302977Y-20369500D01*
X34302972Y-20369500D01*
X34171510Y-20395649D01*
X34171503Y-20395651D01*
X34097452Y-20426324D01*
X34027982Y-20433792D01*
X34002548Y-20426324D01*
X33928496Y-20395651D01*
X33928489Y-20395649D01*
X33797027Y-20369500D01*
X33797023Y-20369500D01*
X33662977Y-20369500D01*
X33662972Y-20369500D01*
X33531510Y-20395649D01*
X33531503Y-20395651D01*
X33462452Y-20424253D01*
X33392982Y-20431721D01*
X33367548Y-20424253D01*
X33298496Y-20395651D01*
X33298489Y-20395649D01*
X33167027Y-20369500D01*
X33167023Y-20369500D01*
X33032977Y-20369500D01*
X33032972Y-20369500D01*
X32901510Y-20395649D01*
X32901503Y-20395651D01*
X32827452Y-20426324D01*
X32757982Y-20433792D01*
X32732548Y-20426324D01*
X32658496Y-20395651D01*
X32658489Y-20395649D01*
X32527027Y-20369500D01*
X32527023Y-20369500D01*
X32392977Y-20369500D01*
X32392972Y-20369500D01*
X32261510Y-20395649D01*
X32261499Y-20395653D01*
X32191796Y-20424524D01*
X32122327Y-20431991D01*
X32096893Y-20424523D01*
X32028351Y-20396132D01*
X32028342Y-20396129D01*
X32010000Y-20392481D01*
X32010000Y-20486264D01*
X32003354Y-20508896D01*
X32001106Y-20532380D01*
X31992732Y-20545071D01*
X31990315Y-20553303D01*
X31983451Y-20562941D01*
X31978892Y-20568734D01*
X31931421Y-20616206D01*
X31874432Y-20701494D01*
X31871451Y-20705284D01*
X31846750Y-20722863D01*
X31823489Y-20742303D01*
X31818568Y-20742921D01*
X31814526Y-20745798D01*
X31784239Y-20747232D01*
X31754164Y-20751010D01*
X31749689Y-20748869D01*
X31744734Y-20749104D01*
X31718483Y-20733939D01*
X31691137Y-20720855D01*
X31688529Y-20716634D01*
X31684235Y-20714153D01*
X31670353Y-20687209D01*
X31654418Y-20661412D01*
X31653482Y-20654462D01*
X31652235Y-20652042D01*
X31652617Y-20648044D01*
X31650000Y-20628607D01*
X31650000Y-20392482D01*
X31649999Y-20392481D01*
X31631657Y-20396129D01*
X31631652Y-20396131D01*
X31507901Y-20447390D01*
X31507892Y-20447395D01*
X31396525Y-20521809D01*
X31396521Y-20521812D01*
X31301812Y-20616521D01*
X31301809Y-20616525D01*
X31227395Y-20727892D01*
X31227390Y-20727901D01*
X31176132Y-20851650D01*
X31176130Y-20851658D01*
X31150000Y-20983021D01*
X31150000Y-21440000D01*
X31655500Y-21440000D01*
X31664185Y-21442550D01*
X31673147Y-21441262D01*
X31697187Y-21452240D01*
X31722539Y-21459685D01*
X31728466Y-21466525D01*
X31736703Y-21470287D01*
X31750992Y-21492521D01*
X31768294Y-21512489D01*
X31770581Y-21523003D01*
X31774477Y-21529065D01*
X31779500Y-21564000D01*
X31779500Y-21676000D01*
X31759815Y-21743039D01*
X31707011Y-21788794D01*
X31655500Y-21800000D01*
X31150000Y-21800000D01*
X31150000Y-22256978D01*
X31176130Y-22388341D01*
X31176132Y-22388349D01*
X31227390Y-22512098D01*
X31227395Y-22512107D01*
X31237227Y-22526821D01*
X31258105Y-22593498D01*
X31239621Y-22660879D01*
X31187642Y-22707569D01*
X31134125Y-22719712D01*
X27309710Y-22719712D01*
X27242671Y-22700027D01*
X27222029Y-22683393D01*
X26995203Y-22456567D01*
X26995201Y-22456564D01*
X26876330Y-22337693D01*
X26876329Y-22337692D01*
X26789517Y-22287572D01*
X26789517Y-22287571D01*
X26789513Y-22287570D01*
X26739398Y-22258635D01*
X26586670Y-22217711D01*
X26428556Y-22217711D01*
X26420960Y-22217711D01*
X26420944Y-22217712D01*
X9816140Y-22217712D01*
X9816124Y-22217711D01*
X9808528Y-22217711D01*
X9650413Y-22217711D01*
X9574049Y-22238173D01*
X9497684Y-22258635D01*
X9497679Y-22258638D01*
X9360760Y-22337687D01*
X9360752Y-22337693D01*
X8311809Y-23386637D01*
X8250486Y-23420122D01*
X8248320Y-23420573D01*
X8092978Y-23451473D01*
X8092968Y-23451476D01*
X7947297Y-23511814D01*
X7947284Y-23511821D01*
X7816181Y-23599422D01*
X7816177Y-23599425D01*
X7704683Y-23710919D01*
X7704680Y-23710923D01*
X7617079Y-23842026D01*
X7617072Y-23842039D01*
X7556734Y-23987710D01*
X7556731Y-23987722D01*
X7525970Y-24142365D01*
X7525970Y-24300058D01*
X7556731Y-24454701D01*
X7556734Y-24454713D01*
X7617072Y-24600384D01*
X7617079Y-24600397D01*
X7704680Y-24731500D01*
X7704683Y-24731504D01*
X7816177Y-24842998D01*
X7816181Y-24843001D01*
X7947284Y-24930602D01*
X7947297Y-24930609D01*
X8092968Y-24990947D01*
X8092973Y-24990949D01*
X8233381Y-25018878D01*
X8247623Y-25021711D01*
X8247626Y-25021712D01*
X8247628Y-25021712D01*
X8405314Y-25021712D01*
X8405315Y-25021711D01*
X8559967Y-24990949D01*
X8705649Y-24930606D01*
X8836759Y-24843001D01*
X8948259Y-24731501D01*
X9035864Y-24600391D01*
X9096207Y-24454709D01*
X9126508Y-24302378D01*
X9127108Y-24299362D01*
X9159493Y-24237451D01*
X9160986Y-24235930D01*
X9941887Y-23455031D01*
X10003210Y-23421546D01*
X10029568Y-23418712D01*
X13497529Y-23418712D01*
X13564568Y-23438397D01*
X13610323Y-23491201D01*
X13620267Y-23560359D01*
X13591242Y-23623915D01*
X13585210Y-23630393D01*
X13504683Y-23710919D01*
X13504680Y-23710923D01*
X13417079Y-23842026D01*
X13417072Y-23842039D01*
X13356734Y-23987710D01*
X13356731Y-23987722D01*
X13325970Y-24142365D01*
X13325970Y-24300058D01*
X13356731Y-24454701D01*
X13356734Y-24454713D01*
X13417072Y-24600384D01*
X13417079Y-24600397D01*
X13504680Y-24731500D01*
X13504683Y-24731504D01*
X13616177Y-24842998D01*
X13616181Y-24843001D01*
X13747284Y-24930602D01*
X13747297Y-24930609D01*
X13892968Y-24990947D01*
X13892973Y-24990949D01*
X14033381Y-25018878D01*
X14047623Y-25021711D01*
X14047626Y-25021712D01*
X14047628Y-25021712D01*
X14205314Y-25021712D01*
X14205315Y-25021711D01*
X14359967Y-24990949D01*
X14505649Y-24930606D01*
X14636759Y-24843001D01*
X14748259Y-24731501D01*
X14835864Y-24600391D01*
X14896207Y-24454709D01*
X14926508Y-24302378D01*
X14927108Y-24299362D01*
X14959493Y-24237451D01*
X14960984Y-24235932D01*
X15339887Y-23857031D01*
X15401210Y-23823546D01*
X15427568Y-23820712D01*
X19140329Y-23820712D01*
X19207368Y-23840397D01*
X19253123Y-23893201D01*
X19263067Y-23962359D01*
X19257769Y-23981666D01*
X19258501Y-23981888D01*
X19256731Y-23987722D01*
X19225970Y-24142365D01*
X19225970Y-24300058D01*
X19256731Y-24454701D01*
X19256734Y-24454713D01*
X19317072Y-24600384D01*
X19317079Y-24600397D01*
X19404680Y-24731500D01*
X19404683Y-24731504D01*
X19516177Y-24842998D01*
X19516181Y-24843001D01*
X19647284Y-24930602D01*
X19647297Y-24930609D01*
X19792968Y-24990947D01*
X19792973Y-24990949D01*
X19933381Y-25018878D01*
X19947623Y-25021711D01*
X19947626Y-25021712D01*
X19947628Y-25021712D01*
X20105314Y-25021712D01*
X20105315Y-25021711D01*
X20259967Y-24990949D01*
X20405649Y-24930606D01*
X20536759Y-24843001D01*
X20648259Y-24731501D01*
X20735864Y-24600391D01*
X20796207Y-24454709D01*
X20810371Y-24383502D01*
X20822701Y-24321520D01*
X20855086Y-24259609D01*
X20915802Y-24225035D01*
X20944318Y-24221712D01*
X25008622Y-24221712D01*
X25075661Y-24241397D01*
X25121416Y-24294201D01*
X25130239Y-24321520D01*
X25156731Y-24454703D01*
X25156734Y-24454713D01*
X25217072Y-24600384D01*
X25217079Y-24600397D01*
X25304680Y-24731500D01*
X25304683Y-24731504D01*
X25416177Y-24842998D01*
X25416181Y-24843001D01*
X25547284Y-24930602D01*
X25547297Y-24930609D01*
X25692968Y-24990947D01*
X25692973Y-24990949D01*
X25833381Y-25018878D01*
X25847623Y-25021711D01*
X25847626Y-25021712D01*
X25847628Y-25021712D01*
X25859136Y-25021712D01*
X25874626Y-25025862D01*
X25888371Y-25025208D01*
X25921133Y-25038323D01*
X25928142Y-25042370D01*
X25994685Y-25080789D01*
X26147413Y-25121712D01*
X30608622Y-25121712D01*
X30675661Y-25141397D01*
X30721416Y-25194201D01*
X30730239Y-25221520D01*
X30756731Y-25354703D01*
X30756734Y-25354713D01*
X30817072Y-25500384D01*
X30817079Y-25500397D01*
X30904680Y-25631500D01*
X30904683Y-25631504D01*
X31016177Y-25742998D01*
X31016181Y-25743001D01*
X31147284Y-25830602D01*
X31147296Y-25830609D01*
X31215080Y-25858685D01*
X31269484Y-25902525D01*
X31291549Y-25968819D01*
X31274270Y-26036519D01*
X31270730Y-26042137D01*
X31226951Y-26107655D01*
X31226944Y-26107667D01*
X31175651Y-26231503D01*
X31175648Y-26231512D01*
X31149500Y-26362972D01*
X31149500Y-27637027D01*
X31175648Y-27768487D01*
X31175651Y-27768496D01*
X31226944Y-27892332D01*
X31226951Y-27892344D01*
X31301420Y-28003793D01*
X31301423Y-28003797D01*
X31396202Y-28098576D01*
X31396206Y-28098579D01*
X31507655Y-28173048D01*
X31507667Y-28173055D01*
X31598251Y-28210575D01*
X31631505Y-28224349D01*
X31631507Y-28224349D01*
X31631512Y-28224351D01*
X31762972Y-28250499D01*
X31762976Y-28250500D01*
X31762977Y-28250500D01*
X31897024Y-28250500D01*
X31897025Y-28250499D01*
X32028495Y-28224349D01*
X32097549Y-28195745D01*
X32167016Y-28188277D01*
X32192447Y-28195744D01*
X32261505Y-28224349D01*
X32392972Y-28250499D01*
X32392976Y-28250500D01*
X32392977Y-28250500D01*
X32527024Y-28250500D01*
X32527025Y-28250499D01*
X32658495Y-28224349D01*
X32732549Y-28193674D01*
X32802016Y-28186206D01*
X32827447Y-28193673D01*
X32901505Y-28224349D01*
X33032972Y-28250499D01*
X33032976Y-28250500D01*
X33032977Y-28250500D01*
X33167024Y-28250500D01*
X33167025Y-28250499D01*
X33298495Y-28224349D01*
X33367549Y-28195745D01*
X33437016Y-28188277D01*
X33462447Y-28195744D01*
X33531505Y-28224349D01*
X33662972Y-28250499D01*
X33662976Y-28250500D01*
X33662977Y-28250500D01*
X33797024Y-28250500D01*
X33797025Y-28250499D01*
X33928495Y-28224349D01*
X34002549Y-28193674D01*
X34072016Y-28186206D01*
X34097447Y-28193673D01*
X34171505Y-28224349D01*
X34302972Y-28250499D01*
X34302976Y-28250500D01*
X34302977Y-28250500D01*
X34437024Y-28250500D01*
X34437025Y-28250499D01*
X34568495Y-28224349D01*
X34637549Y-28195745D01*
X34707016Y-28188277D01*
X34732447Y-28195744D01*
X34801505Y-28224349D01*
X34932972Y-28250499D01*
X34932976Y-28250500D01*
X34932977Y-28250500D01*
X35067024Y-28250500D01*
X35067025Y-28250499D01*
X35198495Y-28224349D01*
X35272549Y-28193674D01*
X35342016Y-28186206D01*
X35367447Y-28193673D01*
X35441505Y-28224349D01*
X35572972Y-28250499D01*
X35572976Y-28250500D01*
X35572977Y-28250500D01*
X35707024Y-28250500D01*
X35707025Y-28250499D01*
X35838495Y-28224349D01*
X35907549Y-28195745D01*
X35977016Y-28188277D01*
X36002447Y-28195744D01*
X36071505Y-28224349D01*
X36202972Y-28250499D01*
X36202976Y-28250500D01*
X36202977Y-28250500D01*
X36337024Y-28250500D01*
X36337025Y-28250499D01*
X36468495Y-28224349D01*
X36542549Y-28193674D01*
X36612016Y-28186206D01*
X36637447Y-28193673D01*
X36711505Y-28224349D01*
X36842972Y-28250499D01*
X36842976Y-28250500D01*
X36842977Y-28250500D01*
X36977024Y-28250500D01*
X36977025Y-28250499D01*
X37108495Y-28224349D01*
X37177549Y-28195745D01*
X37247016Y-28188277D01*
X37272447Y-28195744D01*
X37341505Y-28224349D01*
X37472972Y-28250499D01*
X37472976Y-28250500D01*
X37472977Y-28250500D01*
X37607024Y-28250500D01*
X37607025Y-28250499D01*
X37738495Y-28224349D01*
X37812549Y-28193674D01*
X37882016Y-28186206D01*
X37907447Y-28193673D01*
X37981505Y-28224349D01*
X38112972Y-28250499D01*
X38112976Y-28250500D01*
X38112977Y-28250500D01*
X38247024Y-28250500D01*
X38247025Y-28250499D01*
X38378495Y-28224349D01*
X38447549Y-28195745D01*
X38517016Y-28188277D01*
X38542447Y-28195744D01*
X38611505Y-28224349D01*
X38742972Y-28250499D01*
X38742976Y-28250500D01*
X38742977Y-28250500D01*
X38877024Y-28250500D01*
X38877025Y-28250499D01*
X38920847Y-28241783D01*
X39008487Y-28224351D01*
X39008490Y-28224349D01*
X39008495Y-28224349D01*
X39082549Y-28193675D01*
X39132332Y-28173055D01*
X39132335Y-28173053D01*
X39132338Y-28173052D01*
X39243794Y-28098579D01*
X39338579Y-28003794D01*
X39413052Y-27892338D01*
X39413053Y-27892335D01*
X39413055Y-27892332D01*
X39443499Y-27818832D01*
X39464349Y-27768495D01*
X39468060Y-27749842D01*
X39490499Y-27637027D01*
X39490500Y-27637024D01*
X39490500Y-27384712D01*
X39510185Y-27317673D01*
X39562989Y-27271918D01*
X39614500Y-27260712D01*
X41408622Y-27260712D01*
X41475661Y-27280397D01*
X41521416Y-27333201D01*
X41530239Y-27360520D01*
X41556731Y-27493703D01*
X41556734Y-27493713D01*
X41617072Y-27639384D01*
X41617079Y-27639397D01*
X41704680Y-27770500D01*
X41704683Y-27770504D01*
X41816177Y-27881998D01*
X41816181Y-27882001D01*
X41947284Y-27969602D01*
X41947297Y-27969609D01*
X42092968Y-28029947D01*
X42092973Y-28029949D01*
X42198426Y-28050925D01*
X42247623Y-28060711D01*
X42247626Y-28060712D01*
X42247628Y-28060712D01*
X42405311Y-28060712D01*
X42405312Y-28060712D01*
X42422297Y-28057333D01*
X42491888Y-28063559D01*
X42547066Y-28106420D01*
X42549593Y-28110060D01*
X42604675Y-28192496D01*
X42604681Y-28192504D01*
X42716175Y-28303998D01*
X42716179Y-28304001D01*
X42847282Y-28391602D01*
X42847295Y-28391609D01*
X42992966Y-28451947D01*
X42992971Y-28451949D01*
X43147621Y-28482711D01*
X43147624Y-28482712D01*
X43147626Y-28482712D01*
X43305312Y-28482712D01*
X43305313Y-28482711D01*
X43459965Y-28451949D01*
X43605647Y-28391606D01*
X43736757Y-28304001D01*
X43763586Y-28277171D01*
X43797303Y-28253212D01*
X43807852Y-28248112D01*
X43831455Y-28241789D01*
X43881574Y-28212851D01*
X43968386Y-28162732D01*
X44080190Y-28050928D01*
X44080191Y-28050925D01*
X44155988Y-27975129D01*
X44217312Y-27941645D01*
X44243668Y-27938812D01*
X49806958Y-27938812D01*
X49806974Y-27938813D01*
X49814570Y-27938813D01*
X49972681Y-27938813D01*
X49972684Y-27938813D01*
X50125412Y-27897889D01*
X50189804Y-27860712D01*
X50262343Y-27818832D01*
X50316418Y-27764756D01*
X50323494Y-27759456D01*
X50348269Y-27750205D01*
X50371481Y-27737530D01*
X50380489Y-27738174D01*
X50388950Y-27735015D01*
X50414796Y-27740627D01*
X50441172Y-27742514D01*
X50454211Y-27749186D01*
X50457228Y-27749842D01*
X50459050Y-27751663D01*
X50466731Y-27755594D01*
X50580484Y-27831602D01*
X50580497Y-27831609D01*
X50702149Y-27881998D01*
X50726173Y-27891949D01*
X50880823Y-27922711D01*
X50880826Y-27922712D01*
X50880828Y-27922712D01*
X51038514Y-27922712D01*
X51038515Y-27922711D01*
X51193167Y-27891949D01*
X51338849Y-27831606D01*
X51469959Y-27744001D01*
X51581459Y-27632501D01*
X51669064Y-27501391D01*
X51672249Y-27493703D01*
X51682737Y-27468378D01*
X51729407Y-27355709D01*
X51757552Y-27214215D01*
X51760308Y-27200362D01*
X51792693Y-27138451D01*
X51794186Y-27136930D01*
X52673087Y-26258031D01*
X52734410Y-26224546D01*
X52760768Y-26221712D01*
X59603504Y-26221712D01*
X59670543Y-26241397D01*
X59716298Y-26294201D01*
X59725684Y-26359485D01*
X59726567Y-26359572D01*
X59726213Y-26363161D01*
X59726242Y-26363359D01*
X59726129Y-26364016D01*
X59725970Y-26365634D01*
X59725970Y-26523323D01*
X59756731Y-26677966D01*
X59756734Y-26677978D01*
X59817072Y-26823649D01*
X59817079Y-26823662D01*
X59904680Y-26954765D01*
X59904683Y-26954769D01*
X60016177Y-27066263D01*
X60016181Y-27066266D01*
X60147284Y-27153867D01*
X60147297Y-27153874D01*
X60292968Y-27214212D01*
X60292973Y-27214214D01*
X60447623Y-27244976D01*
X60447626Y-27244977D01*
X60447628Y-27244977D01*
X60605314Y-27244977D01*
X60605315Y-27244976D01*
X60759967Y-27214214D01*
X60905649Y-27153871D01*
X61036759Y-27066266D01*
X61121730Y-26981294D01*
X61148661Y-26966588D01*
X61174475Y-26950000D01*
X61180674Y-26949108D01*
X61183051Y-26947811D01*
X61209410Y-26944977D01*
X61365066Y-26944977D01*
X61365082Y-26944978D01*
X61372678Y-26944978D01*
X61530789Y-26944978D01*
X61530792Y-26944978D01*
X61683520Y-26904054D01*
X61758590Y-26860712D01*
X61820451Y-26824997D01*
X61932255Y-26713193D01*
X61932255Y-26713191D01*
X61942458Y-26702989D01*
X61942462Y-26702983D01*
X61971633Y-26673812D01*
X62032954Y-26640329D01*
X62102646Y-26645313D01*
X62146993Y-26673814D01*
X62216177Y-26742998D01*
X62216181Y-26743001D01*
X62347284Y-26830602D01*
X62347297Y-26830609D01*
X62492968Y-26890947D01*
X62492973Y-26890949D01*
X62647623Y-26921711D01*
X62647626Y-26921712D01*
X62647628Y-26921712D01*
X62805314Y-26921712D01*
X62805315Y-26921711D01*
X62959967Y-26890949D01*
X63105649Y-26830606D01*
X63236759Y-26743001D01*
X63348259Y-26631501D01*
X63435864Y-26500391D01*
X63496207Y-26354709D01*
X63502610Y-26322521D01*
X63534995Y-26260610D01*
X63595710Y-26226036D01*
X63624227Y-26222712D01*
X83238801Y-26222712D01*
X83238817Y-26222713D01*
X83246413Y-26222713D01*
X83404524Y-26222713D01*
X83404527Y-26222713D01*
X83557255Y-26181789D01*
X83630901Y-26139269D01*
X83694186Y-26102732D01*
X83805990Y-25990928D01*
X83805990Y-25990926D01*
X83816194Y-25980723D01*
X83816197Y-25980718D01*
X84741132Y-25055784D01*
X84802453Y-25022301D01*
X84804620Y-25021850D01*
X84862555Y-25010325D01*
X84959967Y-24990949D01*
X85105649Y-24930606D01*
X85236759Y-24843001D01*
X85348259Y-24731501D01*
X85435864Y-24600391D01*
X85496207Y-24454709D01*
X85510371Y-24383502D01*
X85522701Y-24321520D01*
X85555086Y-24259609D01*
X85615802Y-24225035D01*
X85644318Y-24221712D01*
X89708622Y-24221712D01*
X89775661Y-24241397D01*
X89821416Y-24294201D01*
X89830239Y-24321520D01*
X89856731Y-24454703D01*
X89856734Y-24454713D01*
X89917072Y-24600384D01*
X89917079Y-24600397D01*
X90004680Y-24731500D01*
X90004683Y-24731504D01*
X90116177Y-24842998D01*
X90116181Y-24843001D01*
X90247284Y-24930602D01*
X90247297Y-24930609D01*
X90392968Y-24990947D01*
X90392973Y-24990949D01*
X90533381Y-25018878D01*
X90547623Y-25021711D01*
X90547626Y-25021712D01*
X90547628Y-25021712D01*
X90705314Y-25021712D01*
X90705315Y-25021711D01*
X90859967Y-24990949D01*
X91005649Y-24930606D01*
X91136759Y-24843001D01*
X91248259Y-24731501D01*
X91335864Y-24600391D01*
X91396207Y-24454709D01*
X91426970Y-24300054D01*
X91426970Y-24142370D01*
X91426970Y-24142367D01*
X91426969Y-24142365D01*
X91396208Y-23987722D01*
X91396207Y-23987715D01*
X91396202Y-23987704D01*
X91394439Y-23981888D01*
X91397190Y-23981053D01*
X91390967Y-23923853D01*
X91422161Y-23861334D01*
X91482204Y-23825604D01*
X91513025Y-23821712D01*
X95226373Y-23821712D01*
X95293412Y-23841397D01*
X95314054Y-23858031D01*
X95691895Y-24235872D01*
X95725380Y-24297195D01*
X95725831Y-24299361D01*
X95756731Y-24454703D01*
X95756734Y-24454713D01*
X95817072Y-24600384D01*
X95817079Y-24600397D01*
X95904680Y-24731500D01*
X95904683Y-24731504D01*
X96016177Y-24842998D01*
X96016181Y-24843001D01*
X96147284Y-24930602D01*
X96147297Y-24930609D01*
X96292968Y-24990947D01*
X96292973Y-24990949D01*
X96433381Y-25018878D01*
X96447623Y-25021711D01*
X96447626Y-25021712D01*
X96447628Y-25021712D01*
X96605314Y-25021712D01*
X96605315Y-25021711D01*
X96759967Y-24990949D01*
X96905649Y-24930606D01*
X97036759Y-24843001D01*
X97148259Y-24731501D01*
X97235864Y-24600391D01*
X97296207Y-24454709D01*
X97326970Y-24300054D01*
X97326970Y-24142370D01*
X97326970Y-24142367D01*
X97326969Y-24142365D01*
X97296208Y-23987722D01*
X97296207Y-23987715D01*
X97293793Y-23981888D01*
X97235867Y-23842039D01*
X97235860Y-23842026D01*
X97148259Y-23710923D01*
X97148256Y-23710919D01*
X97036762Y-23599425D01*
X97036758Y-23599422D01*
X96905655Y-23511821D01*
X96905642Y-23511814D01*
X96759971Y-23451476D01*
X96759961Y-23451473D01*
X96604621Y-23420574D01*
X96542711Y-23388189D01*
X96541132Y-23386638D01*
X96014060Y-22859567D01*
X96014058Y-22859564D01*
X95895187Y-22740693D01*
X95895186Y-22740692D01*
X95808374Y-22690572D01*
X95808374Y-22690571D01*
X95808370Y-22690570D01*
X95758255Y-22661635D01*
X95605527Y-22620711D01*
X95447413Y-22620711D01*
X95439817Y-22620711D01*
X95439801Y-22620712D01*
X63095804Y-22620712D01*
X63028765Y-22601027D01*
X62983010Y-22548223D01*
X62973066Y-22479065D01*
X63002091Y-22415509D01*
X63008123Y-22409031D01*
X63274155Y-22142998D01*
X63387772Y-22029380D01*
X63449093Y-21995897D01*
X63518784Y-22000881D01*
X63522880Y-22002492D01*
X63551505Y-22014349D01*
X63682972Y-22040499D01*
X63682976Y-22040500D01*
X63682977Y-22040500D01*
X63817024Y-22040500D01*
X63817025Y-22040499D01*
X63948495Y-22014349D01*
X64017549Y-21985745D01*
X64087016Y-21978277D01*
X64112447Y-21985744D01*
X64181505Y-22014349D01*
X64312972Y-22040499D01*
X64312976Y-22040500D01*
X64312977Y-22040500D01*
X64447024Y-22040500D01*
X64447025Y-22040499D01*
X64578495Y-22014349D01*
X64652549Y-21983674D01*
X64722016Y-21976206D01*
X64747447Y-21983673D01*
X64821505Y-22014349D01*
X64952972Y-22040499D01*
X64952976Y-22040500D01*
X64952977Y-22040500D01*
X65087024Y-22040500D01*
X65087025Y-22040499D01*
X65218495Y-22014349D01*
X65287549Y-21985745D01*
X65357016Y-21978277D01*
X65382447Y-21985744D01*
X65451505Y-22014349D01*
X65582972Y-22040499D01*
X65582976Y-22040500D01*
X65582977Y-22040500D01*
X65717024Y-22040500D01*
X65717025Y-22040499D01*
X65848495Y-22014349D01*
X65922549Y-21983674D01*
X65992016Y-21976206D01*
X66017447Y-21983673D01*
X66091505Y-22014349D01*
X66222972Y-22040499D01*
X66222976Y-22040500D01*
X66222977Y-22040500D01*
X66357024Y-22040500D01*
X66357025Y-22040499D01*
X66488495Y-22014349D01*
X66557549Y-21985745D01*
X66627016Y-21978277D01*
X66652447Y-21985744D01*
X66721505Y-22014349D01*
X66852972Y-22040499D01*
X66852976Y-22040500D01*
X66852977Y-22040500D01*
X66987024Y-22040500D01*
X66987025Y-22040499D01*
X67118495Y-22014349D01*
X67192549Y-21983674D01*
X67262016Y-21976206D01*
X67287447Y-21983673D01*
X67361505Y-22014349D01*
X67492972Y-22040499D01*
X67492976Y-22040500D01*
X67492977Y-22040500D01*
X67627024Y-22040500D01*
X67627025Y-22040499D01*
X67758495Y-22014349D01*
X67828201Y-21985475D01*
X67897668Y-21978006D01*
X67923107Y-21985476D01*
X67991644Y-22013866D01*
X68010000Y-22017516D01*
X68010000Y-21923735D01*
X68016645Y-21901102D01*
X68018894Y-21877619D01*
X68027267Y-21864927D01*
X68029685Y-21856696D01*
X68036549Y-21847058D01*
X68041103Y-21841269D01*
X68088579Y-21793794D01*
X68145571Y-21708498D01*
X68148549Y-21704715D01*
X68173249Y-21687135D01*
X68196510Y-21667696D01*
X68201431Y-21667077D01*
X68205474Y-21664201D01*
X68235759Y-21662766D01*
X68265835Y-21658989D01*
X68270309Y-21661129D01*
X68275266Y-21660895D01*
X68301518Y-21676061D01*
X68328863Y-21689144D01*
X68331470Y-21693364D01*
X68335765Y-21695846D01*
X68349646Y-21722789D01*
X68365582Y-21748587D01*
X68366517Y-21755536D01*
X68367765Y-21757957D01*
X68367382Y-21761954D01*
X68370000Y-21781392D01*
X68370000Y-22017515D01*
X68388353Y-22013866D01*
X68512097Y-21962609D01*
X68512107Y-21962604D01*
X68623474Y-21888190D01*
X68623478Y-21888187D01*
X68718187Y-21793478D01*
X68718190Y-21793474D01*
X68792604Y-21682107D01*
X68792609Y-21682098D01*
X68843867Y-21558349D01*
X68843869Y-21558341D01*
X68869999Y-21426978D01*
X68870000Y-21426975D01*
X68870000Y-20970000D01*
X68364500Y-20970000D01*
X68355814Y-20967449D01*
X68346853Y-20968738D01*
X68322812Y-20957759D01*
X68297461Y-20950315D01*
X68291533Y-20943474D01*
X68283297Y-20939713D01*
X68269007Y-20917478D01*
X68251706Y-20897511D01*
X68249418Y-20886996D01*
X68245523Y-20880935D01*
X68240500Y-20846000D01*
X68240500Y-20734000D01*
X68260185Y-20666961D01*
X68312989Y-20621206D01*
X68364500Y-20610000D01*
X68870000Y-20610000D01*
X68870000Y-20153025D01*
X68869999Y-20153021D01*
X68843869Y-20021658D01*
X68843867Y-20021650D01*
X68792609Y-19897901D01*
X68792604Y-19897892D01*
X68718190Y-19786525D01*
X68718187Y-19786521D01*
X68623478Y-19691812D01*
X68623474Y-19691809D01*
X68512107Y-19617395D01*
X68512098Y-19617390D01*
X68388349Y-19566132D01*
X68388343Y-19566130D01*
X68370489Y-19562579D01*
X68308578Y-19530194D01*
X68274004Y-19469478D01*
X68273064Y-19416770D01*
X68300500Y-19278844D01*
X68300500Y-19121155D01*
X68300499Y-19121153D01*
X68269737Y-18966503D01*
X68241015Y-18897163D01*
X68233547Y-18827695D01*
X68264822Y-18765216D01*
X68324911Y-18729564D01*
X68355577Y-18725712D01*
X72203289Y-18725712D01*
X72270328Y-18745397D01*
X72313605Y-18795341D01*
X72314206Y-18795021D01*
X72315620Y-18797666D01*
X72316083Y-18798201D01*
X72316862Y-18799990D01*
X72317079Y-18800397D01*
X72404680Y-18931500D01*
X72404683Y-18931504D01*
X72516177Y-19042998D01*
X72516181Y-19043001D01*
X72647284Y-19130602D01*
X72647297Y-19130609D01*
X72792968Y-19190947D01*
X72792973Y-19190949D01*
X72947623Y-19221711D01*
X72947626Y-19221712D01*
X72947628Y-19221712D01*
X73105314Y-19221712D01*
X73105315Y-19221711D01*
X73259967Y-19190949D01*
X73405649Y-19130606D01*
X73536759Y-19043001D01*
X73648259Y-18931501D01*
X73735864Y-18800391D01*
X73796207Y-18654709D01*
X73826970Y-18500054D01*
X73826970Y-18448712D01*
X73846655Y-18381673D01*
X73899459Y-18335918D01*
X73950970Y-18324712D01*
X77997890Y-18324712D01*
X78064929Y-18344397D01*
X78110684Y-18397201D01*
X78116548Y-18412708D01*
X78117338Y-18415314D01*
X78177678Y-18560990D01*
X78177685Y-18561003D01*
X78265286Y-18692106D01*
X78265289Y-18692110D01*
X78376783Y-18803604D01*
X78376787Y-18803607D01*
X78507890Y-18891208D01*
X78507903Y-18891215D01*
X78653574Y-18951553D01*
X78653579Y-18951555D01*
X78808229Y-18982317D01*
X78808232Y-18982318D01*
X78808234Y-18982318D01*
X78965920Y-18982318D01*
X78965921Y-18982317D01*
X79120573Y-18951555D01*
X79266255Y-18891212D01*
X79397365Y-18803607D01*
X79508865Y-18692107D01*
X79596470Y-18560997D01*
X79656813Y-18415315D01*
X79687576Y-18260660D01*
X79687576Y-18102976D01*
X79687576Y-18102973D01*
X79687575Y-18102971D01*
X79681396Y-18071903D01*
X79687623Y-18002311D01*
X79730487Y-17947134D01*
X79796376Y-17923890D01*
X79803013Y-17923712D01*
X83628373Y-17923712D01*
X83695412Y-17943397D01*
X83716054Y-17960031D01*
X83952501Y-18196478D01*
X83985986Y-18257801D01*
X83986437Y-18259967D01*
X84017337Y-18415309D01*
X84017340Y-18415319D01*
X84077678Y-18560990D01*
X84077685Y-18561003D01*
X84165286Y-18692106D01*
X84165289Y-18692110D01*
X84276783Y-18803604D01*
X84276787Y-18803607D01*
X84407890Y-18891208D01*
X84407903Y-18891215D01*
X84553574Y-18951553D01*
X84553579Y-18951555D01*
X84708229Y-18982317D01*
X84708232Y-18982318D01*
X84708234Y-18982318D01*
X84865920Y-18982318D01*
X84865921Y-18982317D01*
X85020573Y-18951555D01*
X85166255Y-18891212D01*
X85297365Y-18803607D01*
X85408865Y-18692107D01*
X85496470Y-18560997D01*
X85556813Y-18415315D01*
X85587576Y-18260660D01*
X85587576Y-18102976D01*
X85587576Y-18102973D01*
X85587575Y-18102971D01*
X85563490Y-17981888D01*
X85556813Y-17948321D01*
X85556321Y-17947134D01*
X85496473Y-17802645D01*
X85496466Y-17802632D01*
X85438315Y-17715603D01*
X85417437Y-17648925D01*
X85435922Y-17581545D01*
X85487900Y-17534855D01*
X85541417Y-17522712D01*
X89106161Y-17522712D01*
X89173200Y-17542397D01*
X89193842Y-17559031D01*
X89831289Y-18196478D01*
X89864774Y-18257801D01*
X89865225Y-18259967D01*
X89896125Y-18415309D01*
X89896128Y-18415319D01*
X89956466Y-18560990D01*
X89956473Y-18561003D01*
X90044074Y-18692106D01*
X90044077Y-18692110D01*
X90155571Y-18803604D01*
X90155575Y-18803607D01*
X90286678Y-18891208D01*
X90286691Y-18891215D01*
X90432362Y-18951553D01*
X90432367Y-18951555D01*
X90587017Y-18982317D01*
X90587020Y-18982318D01*
X90587022Y-18982318D01*
X90744708Y-18982318D01*
X90744709Y-18982317D01*
X90899361Y-18951555D01*
X91045043Y-18891212D01*
X91176153Y-18803607D01*
X91287653Y-18692107D01*
X91375258Y-18560997D01*
X91435601Y-18415315D01*
X91466364Y-18260660D01*
X91466364Y-18102976D01*
X91466364Y-18102973D01*
X91466363Y-18102971D01*
X91442278Y-17981888D01*
X91435601Y-17948321D01*
X91435109Y-17947134D01*
X91375261Y-17802645D01*
X91375254Y-17802632D01*
X91287653Y-17671529D01*
X91287650Y-17671525D01*
X91176156Y-17560031D01*
X91176152Y-17560028D01*
X91045049Y-17472427D01*
X91045036Y-17472420D01*
X90899365Y-17412082D01*
X90899355Y-17412079D01*
X90744013Y-17381179D01*
X90727256Y-17372413D01*
X90708778Y-17368394D01*
X90683741Y-17349651D01*
X90682102Y-17348794D01*
X90680524Y-17347243D01*
X90666674Y-17333393D01*
X90633189Y-17272070D01*
X90638173Y-17202378D01*
X90680045Y-17146445D01*
X90745509Y-17122028D01*
X90754355Y-17121712D01*
X94626373Y-17121712D01*
X94693412Y-17141397D01*
X94714054Y-17158031D01*
X95752501Y-18196478D01*
X95785986Y-18257801D01*
X95786437Y-18259967D01*
X95817337Y-18415309D01*
X95817340Y-18415319D01*
X95877678Y-18560990D01*
X95877685Y-18561003D01*
X95965286Y-18692106D01*
X95965289Y-18692110D01*
X96076783Y-18803604D01*
X96076787Y-18803607D01*
X96207890Y-18891208D01*
X96207903Y-18891215D01*
X96353574Y-18951553D01*
X96353579Y-18951555D01*
X96508229Y-18982317D01*
X96508232Y-18982318D01*
X96508234Y-18982318D01*
X96665920Y-18982318D01*
X96665921Y-18982317D01*
X96820573Y-18951555D01*
X96966255Y-18891212D01*
X97097365Y-18803607D01*
X97208865Y-18692107D01*
X97296470Y-18560997D01*
X97356813Y-18415315D01*
X97387576Y-18260660D01*
X97387576Y-18102976D01*
X97387576Y-18102973D01*
X97387575Y-18102971D01*
X97363490Y-17981888D01*
X97356813Y-17948321D01*
X97356321Y-17947134D01*
X97296473Y-17802645D01*
X97296466Y-17802632D01*
X97208865Y-17671529D01*
X97208862Y-17671525D01*
X97097368Y-17560031D01*
X97097364Y-17560028D01*
X96966261Y-17472427D01*
X96966248Y-17472420D01*
X96820577Y-17412082D01*
X96820567Y-17412079D01*
X96665227Y-17381180D01*
X96603317Y-17348795D01*
X96601738Y-17347244D01*
X95414060Y-16159567D01*
X95414058Y-16159564D01*
X95295187Y-16040693D01*
X95295186Y-16040692D01*
X95206684Y-15989596D01*
X95206683Y-15989595D01*
X95158253Y-15961634D01*
X95102351Y-15946655D01*
X95005527Y-15920711D01*
X94847413Y-15920711D01*
X94839817Y-15920711D01*
X94839801Y-15920712D01*
X68994500Y-15920712D01*
X68927461Y-15901027D01*
X68881706Y-15848223D01*
X68870500Y-15796712D01*
X68870500Y-14772976D01*
X68870499Y-14772972D01*
X68844351Y-14641512D01*
X68844348Y-14641503D01*
X68793055Y-14517667D01*
X68793048Y-14517655D01*
X68718579Y-14406206D01*
X68718576Y-14406202D01*
X68625555Y-14313181D01*
X68592070Y-14251858D01*
X68597054Y-14182166D01*
X68638926Y-14126233D01*
X68704390Y-14101816D01*
X68713236Y-14101500D01*
X83212331Y-14101500D01*
X83212347Y-14101501D01*
X83219943Y-14101501D01*
X83378054Y-14101501D01*
X83378057Y-14101501D01*
X83530785Y-14060577D01*
X83604431Y-14018057D01*
X83667716Y-13981520D01*
X83779520Y-13869716D01*
X83779520Y-13869714D01*
X83789724Y-13859511D01*
X83789727Y-13859506D01*
X84714662Y-12934572D01*
X84775983Y-12901089D01*
X84778150Y-12900638D01*
X84836085Y-12889113D01*
X84933497Y-12869737D01*
X85079179Y-12809394D01*
X85210289Y-12721789D01*
X85321789Y-12610289D01*
X85409394Y-12479179D01*
X85469737Y-12333497D01*
X85483901Y-12262290D01*
X85496231Y-12200308D01*
X85528616Y-12138397D01*
X85589332Y-12103823D01*
X85617848Y-12100500D01*
X89682152Y-12100500D01*
X89749191Y-12120185D01*
X89794946Y-12172989D01*
X89803769Y-12200308D01*
X89830261Y-12333491D01*
X89830264Y-12333501D01*
X89890602Y-12479172D01*
X89890609Y-12479185D01*
X89978210Y-12610288D01*
X89978213Y-12610292D01*
X90089707Y-12721786D01*
X90089711Y-12721789D01*
X90220814Y-12809390D01*
X90220827Y-12809397D01*
X90366498Y-12869735D01*
X90366503Y-12869737D01*
X90506911Y-12897666D01*
X90521153Y-12900499D01*
X90521156Y-12900500D01*
X90521158Y-12900500D01*
X90678844Y-12900500D01*
X90678845Y-12900499D01*
X90833497Y-12869737D01*
X90979179Y-12809394D01*
X91110289Y-12721789D01*
X91221789Y-12610289D01*
X91309394Y-12479179D01*
X91369737Y-12333497D01*
X91400500Y-12178842D01*
X91400500Y-12021158D01*
X91400500Y-12021155D01*
X91400499Y-12021153D01*
X91369738Y-11866510D01*
X91369737Y-11866503D01*
X91369732Y-11866492D01*
X91367969Y-11860676D01*
X91370720Y-11859841D01*
X91364497Y-11802641D01*
X91395691Y-11740122D01*
X91455734Y-11704392D01*
X91486555Y-11700500D01*
X95199903Y-11700500D01*
X95266942Y-11720185D01*
X95287584Y-11736819D01*
X95665425Y-12114660D01*
X95698910Y-12175983D01*
X95699361Y-12178149D01*
X95730261Y-12333491D01*
X95730264Y-12333501D01*
X95790602Y-12479172D01*
X95790609Y-12479185D01*
X95878210Y-12610288D01*
X95878213Y-12610292D01*
X95989707Y-12721786D01*
X95989711Y-12721789D01*
X96120814Y-12809390D01*
X96120827Y-12809397D01*
X96266498Y-12869735D01*
X96266503Y-12869737D01*
X96406911Y-12897666D01*
X96421153Y-12900499D01*
X96421156Y-12900500D01*
X96421158Y-12900500D01*
X96578844Y-12900500D01*
X96578845Y-12900499D01*
X96733497Y-12869737D01*
X96879179Y-12809394D01*
X97010289Y-12721789D01*
X97121789Y-12610289D01*
X97209394Y-12479179D01*
X97269737Y-12333497D01*
X97300500Y-12178842D01*
X97300500Y-12021158D01*
X97300500Y-12021155D01*
X97300499Y-12021153D01*
X97269738Y-11866510D01*
X97269737Y-11866503D01*
X97267323Y-11860676D01*
X97209397Y-11720827D01*
X97209390Y-11720814D01*
X97121789Y-11589711D01*
X97121786Y-11589707D01*
X97010292Y-11478213D01*
X97010288Y-11478210D01*
X96879185Y-11390609D01*
X96879172Y-11390602D01*
X96733501Y-11330264D01*
X96733491Y-11330261D01*
X96578151Y-11299362D01*
X96516241Y-11266977D01*
X96514662Y-11265426D01*
X95987590Y-10738355D01*
X95987588Y-10738352D01*
X95868717Y-10619481D01*
X95868716Y-10619480D01*
X95764960Y-10559577D01*
X95764959Y-10559576D01*
X95731783Y-10540422D01*
X95675881Y-10525443D01*
X95579057Y-10499499D01*
X95420943Y-10499499D01*
X95413347Y-10499499D01*
X95413331Y-10499500D01*
X68545134Y-10499500D01*
X68478095Y-10479815D01*
X68432340Y-10427011D01*
X68422396Y-10357853D01*
X68430573Y-10328047D01*
X68469737Y-10233497D01*
X68500500Y-10078842D01*
X68500500Y-9936638D01*
X68520185Y-9869599D01*
X68555610Y-9833535D01*
X68623477Y-9788188D01*
X68718187Y-9693478D01*
X68718190Y-9693474D01*
X68792604Y-9582107D01*
X68792609Y-9582098D01*
X68843867Y-9458349D01*
X68843869Y-9458341D01*
X68869999Y-9326978D01*
X68870000Y-9326975D01*
X68870000Y-8870000D01*
X68364500Y-8870000D01*
X68355814Y-8867449D01*
X68346853Y-8868738D01*
X68322812Y-8857759D01*
X68297461Y-8850315D01*
X68291533Y-8843474D01*
X68283297Y-8839713D01*
X68269007Y-8817478D01*
X68251706Y-8797511D01*
X68249418Y-8786996D01*
X68245523Y-8780935D01*
X68240500Y-8746000D01*
X68240500Y-8634000D01*
X68260185Y-8566961D01*
X68312989Y-8521206D01*
X68364500Y-8510000D01*
X68870000Y-8510000D01*
X68870000Y-8053025D01*
X68869999Y-8053021D01*
X68843869Y-7921658D01*
X68843867Y-7921650D01*
X68792609Y-7797901D01*
X68792604Y-7797892D01*
X68718190Y-7686525D01*
X68718187Y-7686521D01*
X68623478Y-7591812D01*
X68623474Y-7591809D01*
X68512107Y-7517395D01*
X68512098Y-7517390D01*
X68388347Y-7466131D01*
X68388342Y-7466129D01*
X68370000Y-7462481D01*
X68370000Y-7698607D01*
X68361757Y-7726675D01*
X68356230Y-7755398D01*
X68352030Y-7759805D01*
X68350315Y-7765646D01*
X68328211Y-7784799D01*
X68308028Y-7805978D01*
X68302111Y-7807415D01*
X68297511Y-7811401D01*
X68268558Y-7815563D01*
X68240132Y-7822468D01*
X68234378Y-7820478D01*
X68228353Y-7821345D01*
X68201742Y-7809192D01*
X68174099Y-7799633D01*
X68168752Y-7794126D01*
X68164797Y-7792320D01*
X68148549Y-7775284D01*
X68145567Y-7771494D01*
X68088579Y-7686206D01*
X68041107Y-7638734D01*
X68036549Y-7632941D01*
X68026186Y-7607074D01*
X68012834Y-7582622D01*
X68011529Y-7570490D01*
X68010565Y-7568083D01*
X68011017Y-7565730D01*
X68010000Y-7556264D01*
X68010000Y-7462482D01*
X68009999Y-7462481D01*
X67991656Y-7466130D01*
X67991650Y-7466132D01*
X67923104Y-7494524D01*
X67853634Y-7501991D01*
X67828202Y-7494524D01*
X67808284Y-7486274D01*
X67758495Y-7465651D01*
X67758488Y-7465649D01*
X67758486Y-7465649D01*
X67627027Y-7439500D01*
X67627023Y-7439500D01*
X67492977Y-7439500D01*
X67492972Y-7439500D01*
X67361510Y-7465649D01*
X67361503Y-7465651D01*
X67287452Y-7496324D01*
X67217982Y-7503792D01*
X67192548Y-7496324D01*
X67118496Y-7465651D01*
X67118489Y-7465649D01*
X66987027Y-7439500D01*
X66987023Y-7439500D01*
X66852977Y-7439500D01*
X66852972Y-7439500D01*
X66721510Y-7465649D01*
X66721503Y-7465651D01*
X66652452Y-7494253D01*
X66582982Y-7501721D01*
X66557548Y-7494253D01*
X66488496Y-7465651D01*
X66488489Y-7465649D01*
X66357027Y-7439500D01*
X66357023Y-7439500D01*
X66222977Y-7439500D01*
X66222972Y-7439500D01*
X66091510Y-7465649D01*
X66091499Y-7465653D01*
X66029186Y-7491463D01*
X65959717Y-7498930D01*
X65897238Y-7467655D01*
X65894054Y-7464582D01*
X65245653Y-6816181D01*
X65212168Y-6754858D01*
X65217152Y-6685166D01*
X65259024Y-6629233D01*
X65324488Y-6604816D01*
X65333334Y-6604500D01*
X72176819Y-6604500D01*
X72243858Y-6624185D01*
X72287135Y-6674129D01*
X72287736Y-6673809D01*
X72289150Y-6676454D01*
X72289613Y-6676989D01*
X72290392Y-6678778D01*
X72290609Y-6679185D01*
X72378210Y-6810288D01*
X72378213Y-6810292D01*
X72489707Y-6921786D01*
X72489711Y-6921789D01*
X72620814Y-7009390D01*
X72620827Y-7009397D01*
X72766498Y-7069735D01*
X72766503Y-7069737D01*
X72921153Y-7100499D01*
X72921156Y-7100500D01*
X72921158Y-7100500D01*
X73078844Y-7100500D01*
X73078845Y-7100499D01*
X73233497Y-7069737D01*
X73379179Y-7009394D01*
X73510289Y-6921789D01*
X73621789Y-6810289D01*
X73709394Y-6679179D01*
X73769737Y-6533497D01*
X73800500Y-6378842D01*
X73800500Y-6327500D01*
X73820185Y-6260461D01*
X73872989Y-6214706D01*
X73924500Y-6203500D01*
X77971420Y-6203500D01*
X78038459Y-6223185D01*
X78084214Y-6275989D01*
X78090078Y-6291496D01*
X78090868Y-6294102D01*
X78151208Y-6439778D01*
X78151215Y-6439791D01*
X78238816Y-6570894D01*
X78238819Y-6570898D01*
X78350313Y-6682392D01*
X78350317Y-6682395D01*
X78481420Y-6769996D01*
X78481433Y-6770003D01*
X78627104Y-6830341D01*
X78627109Y-6830343D01*
X78781759Y-6861105D01*
X78781762Y-6861106D01*
X78781764Y-6861106D01*
X78939450Y-6861106D01*
X78939451Y-6861105D01*
X79094103Y-6830343D01*
X79239785Y-6770000D01*
X79370895Y-6682395D01*
X79482395Y-6570895D01*
X79570000Y-6439785D01*
X79630343Y-6294103D01*
X79661106Y-6139448D01*
X79661106Y-5981764D01*
X79661106Y-5981761D01*
X79661105Y-5981759D01*
X79654926Y-5950691D01*
X79661153Y-5881099D01*
X79704017Y-5825922D01*
X79769906Y-5802678D01*
X79776543Y-5802500D01*
X83601903Y-5802500D01*
X83668942Y-5822185D01*
X83689584Y-5838819D01*
X83926031Y-6075266D01*
X83959516Y-6136589D01*
X83959967Y-6138755D01*
X83990867Y-6294097D01*
X83990870Y-6294107D01*
X84051208Y-6439778D01*
X84051215Y-6439791D01*
X84138816Y-6570894D01*
X84138819Y-6570898D01*
X84250313Y-6682392D01*
X84250317Y-6682395D01*
X84381420Y-6769996D01*
X84381433Y-6770003D01*
X84527104Y-6830341D01*
X84527109Y-6830343D01*
X84681759Y-6861105D01*
X84681762Y-6861106D01*
X84681764Y-6861106D01*
X84839450Y-6861106D01*
X84839451Y-6861105D01*
X84994103Y-6830343D01*
X85139785Y-6770000D01*
X85270895Y-6682395D01*
X85382395Y-6570895D01*
X85470000Y-6439785D01*
X85530343Y-6294103D01*
X85561106Y-6139448D01*
X85561106Y-5981764D01*
X85561106Y-5981761D01*
X85561105Y-5981759D01*
X85537020Y-5860676D01*
X85530343Y-5827109D01*
X85529851Y-5825922D01*
X85470003Y-5681433D01*
X85469996Y-5681420D01*
X85411845Y-5594391D01*
X85390967Y-5527713D01*
X85409452Y-5460333D01*
X85461430Y-5413643D01*
X85514947Y-5401500D01*
X89079691Y-5401500D01*
X89146730Y-5421185D01*
X89167372Y-5437819D01*
X89804819Y-6075266D01*
X89838304Y-6136589D01*
X89838755Y-6138755D01*
X89869655Y-6294097D01*
X89869658Y-6294107D01*
X89929996Y-6439778D01*
X89930003Y-6439791D01*
X90017604Y-6570894D01*
X90017607Y-6570898D01*
X90129101Y-6682392D01*
X90129105Y-6682395D01*
X90260208Y-6769996D01*
X90260221Y-6770003D01*
X90405892Y-6830341D01*
X90405897Y-6830343D01*
X90560547Y-6861105D01*
X90560550Y-6861106D01*
X90560552Y-6861106D01*
X90718238Y-6861106D01*
X90718239Y-6861105D01*
X90872891Y-6830343D01*
X91018573Y-6770000D01*
X91149683Y-6682395D01*
X91261183Y-6570895D01*
X91348788Y-6439785D01*
X91409131Y-6294103D01*
X91439894Y-6139448D01*
X91439894Y-5981764D01*
X91439894Y-5981761D01*
X91439893Y-5981759D01*
X91415808Y-5860676D01*
X91409131Y-5827109D01*
X91408639Y-5825922D01*
X91348791Y-5681433D01*
X91348784Y-5681420D01*
X91261183Y-5550317D01*
X91261180Y-5550313D01*
X91149686Y-5438819D01*
X91149682Y-5438816D01*
X91018579Y-5351215D01*
X91018566Y-5351208D01*
X90872895Y-5290870D01*
X90872885Y-5290867D01*
X90717543Y-5259967D01*
X90700786Y-5251201D01*
X90682308Y-5247182D01*
X90657271Y-5228439D01*
X90655632Y-5227582D01*
X90654054Y-5226031D01*
X90640204Y-5212181D01*
X90606719Y-5150858D01*
X90611703Y-5081166D01*
X90653575Y-5025233D01*
X90719039Y-5000816D01*
X90727885Y-5000500D01*
X94599903Y-5000500D01*
X94666942Y-5020185D01*
X94687584Y-5036819D01*
X95726031Y-6075266D01*
X95759516Y-6136589D01*
X95759967Y-6138755D01*
X95790867Y-6294097D01*
X95790870Y-6294107D01*
X95851208Y-6439778D01*
X95851215Y-6439791D01*
X95938816Y-6570894D01*
X95938819Y-6570898D01*
X96050313Y-6682392D01*
X96050317Y-6682395D01*
X96181420Y-6769996D01*
X96181433Y-6770003D01*
X96327104Y-6830341D01*
X96327109Y-6830343D01*
X96481759Y-6861105D01*
X96481762Y-6861106D01*
X96481764Y-6861106D01*
X96639450Y-6861106D01*
X96639451Y-6861105D01*
X96794103Y-6830343D01*
X96939785Y-6770000D01*
X97070895Y-6682395D01*
X97182395Y-6570895D01*
X97270000Y-6439785D01*
X97330343Y-6294103D01*
X97361106Y-6139448D01*
X97361106Y-5981764D01*
X97361106Y-5981761D01*
X97361105Y-5981759D01*
X97337020Y-5860676D01*
X97330343Y-5827109D01*
X97329851Y-5825922D01*
X97270003Y-5681433D01*
X97269996Y-5681420D01*
X97182395Y-5550317D01*
X97182392Y-5550313D01*
X97070898Y-5438819D01*
X97070894Y-5438816D01*
X96939791Y-5351215D01*
X96939778Y-5351208D01*
X96794107Y-5290870D01*
X96794097Y-5290867D01*
X96638757Y-5259968D01*
X96576847Y-5227583D01*
X96575268Y-5226032D01*
X95387590Y-4038355D01*
X95387588Y-4038352D01*
X95268717Y-3919481D01*
X95268709Y-3919475D01*
X95173672Y-3864606D01*
X95173670Y-3864605D01*
X95131790Y-3840425D01*
X95131789Y-3840424D01*
X95119263Y-3837067D01*
X94979057Y-3799499D01*
X94820943Y-3799499D01*
X94813347Y-3799499D01*
X94813331Y-3799500D01*
X73345519Y-3799500D01*
X73278480Y-3779815D01*
X73232725Y-3727011D01*
X73222028Y-3664279D01*
X73225000Y-3631572D01*
X73225000Y-3550000D01*
X72449000Y-3550000D01*
X72381961Y-3530315D01*
X72336206Y-3477511D01*
X72325000Y-3426000D01*
X72325000Y-3300000D01*
X72199000Y-3300000D01*
X72131961Y-3280315D01*
X72086206Y-3227511D01*
X72075000Y-3176000D01*
X72075000Y-3050000D01*
X72575000Y-3050000D01*
X73224999Y-3050000D01*
X73224999Y-2968417D01*
X73218591Y-2897897D01*
X73218590Y-2897892D01*
X73168018Y-2735603D01*
X73080072Y-2590122D01*
X72959877Y-2469927D01*
X72814395Y-2381980D01*
X72814396Y-2381980D01*
X72652105Y-2331409D01*
X72652106Y-2331409D01*
X72581572Y-2325000D01*
X72575000Y-2325000D01*
X72575000Y-3050000D01*
X72075000Y-3050000D01*
X72075000Y-2325000D01*
X72074999Y-2324999D01*
X72068436Y-2325000D01*
X72068417Y-2325001D01*
X71997897Y-2331408D01*
X71997892Y-2331409D01*
X71835603Y-2381981D01*
X71690122Y-2469927D01*
X71690121Y-2469928D01*
X71588035Y-2572015D01*
X71526712Y-2605500D01*
X71457020Y-2600516D01*
X71412673Y-2572015D01*
X71310188Y-2469530D01*
X71224388Y-2417662D01*
X71164606Y-2381522D01*
X71002196Y-2330914D01*
X71002194Y-2330913D01*
X71002192Y-2330913D01*
X70952778Y-2326423D01*
X70931616Y-2324500D01*
X70931613Y-2324500D01*
X70800098Y-2324500D01*
X70733059Y-2304815D01*
X70712417Y-2288181D01*
X70321590Y-1897355D01*
X70321588Y-1897352D01*
X70202717Y-1778481D01*
X70202716Y-1778480D01*
X70115904Y-1728360D01*
X70115904Y-1728359D01*
X70115900Y-1728358D01*
X70065785Y-1699423D01*
X69913057Y-1658499D01*
X69754943Y-1658499D01*
X69747347Y-1658499D01*
X69747331Y-1658500D01*
X68077432Y-1658500D01*
X68077416Y-1658499D01*
X68069820Y-1658499D01*
X67911706Y-1658499D01*
X67758681Y-1699502D01*
X67688831Y-1697839D01*
X67630969Y-1658676D01*
X67612028Y-1627181D01*
X67609394Y-1620821D01*
X67609389Y-1620814D01*
X67521789Y-1489710D01*
X67410292Y-1378213D01*
X67410288Y-1378210D01*
X67279185Y-1290609D01*
X67279172Y-1290602D01*
X67133501Y-1230264D01*
X67133489Y-1230261D01*
X66978845Y-1199500D01*
X66978842Y-1199500D01*
X66821158Y-1199500D01*
X66821155Y-1199500D01*
X66666510Y-1230261D01*
X66666498Y-1230264D01*
X66547452Y-1279574D01*
X66477982Y-1287043D01*
X66452548Y-1279574D01*
X66333501Y-1230264D01*
X66333489Y-1230261D01*
X66178845Y-1199500D01*
X66178842Y-1199500D01*
X66021158Y-1199500D01*
X66021155Y-1199500D01*
X65866510Y-1230261D01*
X65866498Y-1230264D01*
X65720827Y-1290602D01*
X65720814Y-1290609D01*
X65589711Y-1378210D01*
X65589707Y-1378213D01*
X65478213Y-1489707D01*
X65478210Y-1489711D01*
X65390609Y-1620814D01*
X65390602Y-1620827D01*
X65330264Y-1766498D01*
X65330261Y-1766510D01*
X65299500Y-1921153D01*
X65299500Y-1950669D01*
X65279815Y-2017708D01*
X65227011Y-2063463D01*
X65157853Y-2073407D01*
X65151310Y-2072287D01*
X65113697Y-2064805D01*
X65087023Y-2059500D01*
X64952977Y-2059500D01*
X64952972Y-2059500D01*
X64821510Y-2085649D01*
X64821503Y-2085651D01*
X64747452Y-2116324D01*
X64677982Y-2123792D01*
X64652548Y-2116324D01*
X64578496Y-2085651D01*
X64578489Y-2085649D01*
X64447027Y-2059500D01*
X64447023Y-2059500D01*
X64312977Y-2059500D01*
X64312972Y-2059500D01*
X64181510Y-2085649D01*
X64181503Y-2085651D01*
X64112452Y-2114253D01*
X64042982Y-2121721D01*
X64017548Y-2114253D01*
X63948496Y-2085651D01*
X63948489Y-2085649D01*
X63817027Y-2059500D01*
X63817023Y-2059500D01*
X63682977Y-2059500D01*
X63682972Y-2059500D01*
X63551510Y-2085649D01*
X63551503Y-2085651D01*
X63477452Y-2116324D01*
X63407982Y-2123792D01*
X63382548Y-2116324D01*
X63308496Y-2085651D01*
X63308489Y-2085649D01*
X63177027Y-2059500D01*
X63177023Y-2059500D01*
X63042977Y-2059500D01*
X63042972Y-2059500D01*
X62911510Y-2085649D01*
X62911503Y-2085651D01*
X62842452Y-2114253D01*
X62772982Y-2121721D01*
X62747548Y-2114253D01*
X62678496Y-2085651D01*
X62678489Y-2085649D01*
X62547027Y-2059500D01*
X62547023Y-2059500D01*
X62412977Y-2059500D01*
X62412972Y-2059500D01*
X62281510Y-2085649D01*
X62281503Y-2085651D01*
X62207452Y-2116324D01*
X62137982Y-2123792D01*
X62112548Y-2116324D01*
X62038496Y-2085651D01*
X62038489Y-2085649D01*
X61907027Y-2059500D01*
X61907023Y-2059500D01*
X61772977Y-2059500D01*
X61772972Y-2059500D01*
X61641510Y-2085649D01*
X61641503Y-2085651D01*
X61572452Y-2114253D01*
X61502982Y-2121721D01*
X61477548Y-2114253D01*
X61408496Y-2085651D01*
X61408489Y-2085649D01*
X61277027Y-2059500D01*
X61277023Y-2059500D01*
X61142977Y-2059500D01*
X61142972Y-2059500D01*
X61011512Y-2085648D01*
X61011503Y-2085651D01*
X60887667Y-2136944D01*
X60887655Y-2136951D01*
X60776206Y-2211420D01*
X60776202Y-2211423D01*
X60681423Y-2306202D01*
X60681420Y-2306206D01*
X60606951Y-2417655D01*
X60606944Y-2417667D01*
X60555651Y-2541503D01*
X60555651Y-2541504D01*
X60555651Y-2541505D01*
X60542087Y-2609691D01*
X60509704Y-2671602D01*
X60448988Y-2706176D01*
X60420471Y-2709500D01*
X58010939Y-2709500D01*
X57973692Y-2719480D01*
X57973693Y-2719481D01*
X57858214Y-2750423D01*
X57858209Y-2750426D01*
X57721290Y-2829475D01*
X57721282Y-2829481D01*
X57609478Y-2941286D01*
X56587584Y-3963181D01*
X56526261Y-3996666D01*
X56499903Y-3999500D01*
X54579766Y-3999500D01*
X54512727Y-3979815D01*
X54510875Y-3978602D01*
X54379185Y-3890609D01*
X54379172Y-3890602D01*
X54233501Y-3830264D01*
X54233489Y-3830261D01*
X54078845Y-3799500D01*
X54078842Y-3799500D01*
X53921158Y-3799500D01*
X53921155Y-3799500D01*
X53766510Y-3830261D01*
X53766498Y-3830264D01*
X53620827Y-3890602D01*
X53620814Y-3890609D01*
X53489711Y-3978210D01*
X53489707Y-3978213D01*
X53378213Y-4089707D01*
X53378210Y-4089711D01*
X53290609Y-4220814D01*
X53290602Y-4220827D01*
X53230264Y-4366498D01*
X53230261Y-4366510D01*
X53199500Y-4521153D01*
X53199500Y-4678846D01*
X53230261Y-4833489D01*
X53230264Y-4833501D01*
X53290602Y-4979172D01*
X53290609Y-4979185D01*
X53378210Y-5110288D01*
X53378213Y-5110292D01*
X53489707Y-5221786D01*
X53489711Y-5221789D01*
X53620814Y-5309390D01*
X53620827Y-5309397D01*
X53766498Y-5369735D01*
X53766503Y-5369737D01*
X53921153Y-5400499D01*
X53921156Y-5400500D01*
X53921158Y-5400500D01*
X54078844Y-5400500D01*
X54078845Y-5400499D01*
X54233497Y-5369737D01*
X54349262Y-5321786D01*
X54379172Y-5309397D01*
X54379172Y-5309396D01*
X54379179Y-5309394D01*
X54391242Y-5301334D01*
X54510875Y-5221398D01*
X54577553Y-5200520D01*
X54579766Y-5200500D01*
X56713331Y-5200500D01*
X56713347Y-5200501D01*
X56720943Y-5200501D01*
X56879054Y-5200501D01*
X56879057Y-5200501D01*
X57031785Y-5159577D01*
X57081904Y-5130639D01*
X57168716Y-5080520D01*
X57280520Y-4968716D01*
X57280520Y-4968714D01*
X57290728Y-4958507D01*
X57290729Y-4958504D01*
X58302416Y-3946819D01*
X58363739Y-3913334D01*
X58390097Y-3910500D01*
X60420471Y-3910500D01*
X60487510Y-3930185D01*
X60533265Y-3982989D01*
X60542087Y-4010304D01*
X60547667Y-4038355D01*
X60555651Y-4078495D01*
X60555651Y-4078496D01*
X60606944Y-4202332D01*
X60606951Y-4202344D01*
X60681420Y-4313793D01*
X60681423Y-4313797D01*
X60776202Y-4408576D01*
X60776206Y-4408579D01*
X60887655Y-4483048D01*
X60887667Y-4483055D01*
X60979659Y-4521158D01*
X61011505Y-4534349D01*
X61011507Y-4534349D01*
X61011512Y-4534351D01*
X61136017Y-4559116D01*
X61197928Y-4591500D01*
X61232502Y-4652216D01*
X61228763Y-4721986D01*
X61199507Y-4768414D01*
X61178213Y-4789707D01*
X61178210Y-4789711D01*
X61090609Y-4920814D01*
X61090602Y-4920827D01*
X61030264Y-5066498D01*
X61030261Y-5066510D01*
X60999500Y-5221153D01*
X60999500Y-5378846D01*
X61024861Y-5506342D01*
X61030263Y-5533497D01*
X61053547Y-5589711D01*
X61069427Y-5628047D01*
X61076896Y-5697517D01*
X61045621Y-5759996D01*
X60985532Y-5795648D01*
X60954866Y-5799500D01*
X52551340Y-5799500D01*
X52484301Y-5779815D01*
X52463659Y-5763181D01*
X50635833Y-3935355D01*
X50635831Y-3935352D01*
X50516960Y-3816481D01*
X50516959Y-3816480D01*
X50413210Y-3756581D01*
X50413209Y-3756580D01*
X50380026Y-3737422D01*
X50324124Y-3722443D01*
X50227300Y-3696499D01*
X50069186Y-3696499D01*
X50061590Y-3696499D01*
X50061574Y-3696500D01*
X10023943Y-3696500D01*
X9871213Y-3737423D01*
X9838033Y-3756581D01*
X9838032Y-3756581D01*
X9734287Y-3816477D01*
X9734282Y-3816481D01*
X8285339Y-5265425D01*
X8224016Y-5298910D01*
X8221850Y-5299361D01*
X8066508Y-5330261D01*
X8066498Y-5330264D01*
X7920827Y-5390602D01*
X7920814Y-5390609D01*
X7789711Y-5478210D01*
X7789707Y-5478213D01*
X7678213Y-5589707D01*
X7678210Y-5589711D01*
X7590609Y-5720814D01*
X7590602Y-5720827D01*
X7530264Y-5866498D01*
X7530261Y-5866510D01*
X7499500Y-6021153D01*
X500500Y-6021153D01*
X500500Y-624500D01*
X520185Y-557461D01*
X572989Y-511706D01*
X624500Y-500500D01*
X99375500Y-500500D01*
X99442539Y-520185D01*
G37*
%TD.AperFunction*%
%TD*%
M02*
