%TF.GenerationSoftware,KiCad,Pcbnew,9.0.1*%
%TF.CreationDate,2026-01-21T11:16:40-07:00*%
%TF.ProjectId,testhologram v2,74657374-686f-46c6-9f67-72616d207632,rev?*%
%TF.SameCoordinates,Original*%
%TF.FileFunction,Legend,Bot*%
%TF.FilePolarity,Positive*%
%FSLAX46Y46*%
G04 Gerber Fmt 4.6, Leading zero omitted, Abs format (unit mm)*
G04 Created by KiCad (PCBNEW 9.0.1) date 2026-01-21 11:16:40*
%MOMM*%
%LPD*%
G01*
G04 APERTURE LIST*
%ADD10C,0.150000*%
%ADD11C,0.120000*%
%ADD12C,0.250000*%
G04 APERTURE END LIST*
D10*
X25666666Y-15684819D02*
X25999999Y-15208628D01*
X26238094Y-15684819D02*
X26238094Y-14684819D01*
X26238094Y-14684819D02*
X25857142Y-14684819D01*
X25857142Y-14684819D02*
X25761904Y-14732438D01*
X25761904Y-14732438D02*
X25714285Y-14780057D01*
X25714285Y-14780057D02*
X25666666Y-14875295D01*
X25666666Y-14875295D02*
X25666666Y-15018152D01*
X25666666Y-15018152D02*
X25714285Y-15113390D01*
X25714285Y-15113390D02*
X25761904Y-15161009D01*
X25761904Y-15161009D02*
X25857142Y-15208628D01*
X25857142Y-15208628D02*
X26238094Y-15208628D01*
X25285713Y-14780057D02*
X25238094Y-14732438D01*
X25238094Y-14732438D02*
X25142856Y-14684819D01*
X25142856Y-14684819D02*
X24904761Y-14684819D01*
X24904761Y-14684819D02*
X24809523Y-14732438D01*
X24809523Y-14732438D02*
X24761904Y-14780057D01*
X24761904Y-14780057D02*
X24714285Y-14875295D01*
X24714285Y-14875295D02*
X24714285Y-14970533D01*
X24714285Y-14970533D02*
X24761904Y-15113390D01*
X24761904Y-15113390D02*
X25333332Y-15684819D01*
X25333332Y-15684819D02*
X24714285Y-15684819D01*
X71666666Y-2324819D02*
X71999999Y-1848628D01*
X72238094Y-2324819D02*
X72238094Y-1324819D01*
X72238094Y-1324819D02*
X71857142Y-1324819D01*
X71857142Y-1324819D02*
X71761904Y-1372438D01*
X71761904Y-1372438D02*
X71714285Y-1420057D01*
X71714285Y-1420057D02*
X71666666Y-1515295D01*
X71666666Y-1515295D02*
X71666666Y-1658152D01*
X71666666Y-1658152D02*
X71714285Y-1753390D01*
X71714285Y-1753390D02*
X71761904Y-1801009D01*
X71761904Y-1801009D02*
X71857142Y-1848628D01*
X71857142Y-1848628D02*
X72238094Y-1848628D01*
X70714285Y-2324819D02*
X71285713Y-2324819D01*
X70999999Y-2324819D02*
X70999999Y-1324819D01*
X70999999Y-1324819D02*
X71095237Y-1467676D01*
X71095237Y-1467676D02*
X71190475Y-1562914D01*
X71190475Y-1562914D02*
X71285713Y-1610533D01*
X65461904Y-13054819D02*
X65461904Y-13864342D01*
X65461904Y-13864342D02*
X65414285Y-13959580D01*
X65414285Y-13959580D02*
X65366666Y-14007200D01*
X65366666Y-14007200D02*
X65271428Y-14054819D01*
X65271428Y-14054819D02*
X65080952Y-14054819D01*
X65080952Y-14054819D02*
X64985714Y-14007200D01*
X64985714Y-14007200D02*
X64938095Y-13959580D01*
X64938095Y-13959580D02*
X64890476Y-13864342D01*
X64890476Y-13864342D02*
X64890476Y-13054819D01*
X64509523Y-13054819D02*
X63890476Y-13054819D01*
X63890476Y-13054819D02*
X64223809Y-13435771D01*
X64223809Y-13435771D02*
X64080952Y-13435771D01*
X64080952Y-13435771D02*
X63985714Y-13483390D01*
X63985714Y-13483390D02*
X63938095Y-13531009D01*
X63938095Y-13531009D02*
X63890476Y-13626247D01*
X63890476Y-13626247D02*
X63890476Y-13864342D01*
X63890476Y-13864342D02*
X63938095Y-13959580D01*
X63938095Y-13959580D02*
X63985714Y-14007200D01*
X63985714Y-14007200D02*
X64080952Y-14054819D01*
X64080952Y-14054819D02*
X64366666Y-14054819D01*
X64366666Y-14054819D02*
X64461904Y-14007200D01*
X64461904Y-14007200D02*
X64509523Y-13959580D01*
X36061904Y-16054819D02*
X36061904Y-16864342D01*
X36061904Y-16864342D02*
X36014285Y-16959580D01*
X36014285Y-16959580D02*
X35966666Y-17007200D01*
X35966666Y-17007200D02*
X35871428Y-17054819D01*
X35871428Y-17054819D02*
X35680952Y-17054819D01*
X35680952Y-17054819D02*
X35585714Y-17007200D01*
X35585714Y-17007200D02*
X35538095Y-16959580D01*
X35538095Y-16959580D02*
X35490476Y-16864342D01*
X35490476Y-16864342D02*
X35490476Y-16054819D01*
X35061904Y-16150057D02*
X35014285Y-16102438D01*
X35014285Y-16102438D02*
X34919047Y-16054819D01*
X34919047Y-16054819D02*
X34680952Y-16054819D01*
X34680952Y-16054819D02*
X34585714Y-16102438D01*
X34585714Y-16102438D02*
X34538095Y-16150057D01*
X34538095Y-16150057D02*
X34490476Y-16245295D01*
X34490476Y-16245295D02*
X34490476Y-16340533D01*
X34490476Y-16340533D02*
X34538095Y-16483390D01*
X34538095Y-16483390D02*
X35109523Y-17054819D01*
X35109523Y-17054819D02*
X34490476Y-17054819D01*
X65461904Y-954819D02*
X65461904Y-1764342D01*
X65461904Y-1764342D02*
X65414285Y-1859580D01*
X65414285Y-1859580D02*
X65366666Y-1907200D01*
X65366666Y-1907200D02*
X65271428Y-1954819D01*
X65271428Y-1954819D02*
X65080952Y-1954819D01*
X65080952Y-1954819D02*
X64985714Y-1907200D01*
X64985714Y-1907200D02*
X64938095Y-1859580D01*
X64938095Y-1859580D02*
X64890476Y-1764342D01*
X64890476Y-1764342D02*
X64890476Y-954819D01*
X63890476Y-1954819D02*
X64461904Y-1954819D01*
X64176190Y-1954819D02*
X64176190Y-954819D01*
X64176190Y-954819D02*
X64271428Y-1097676D01*
X64271428Y-1097676D02*
X64366666Y-1192914D01*
X64366666Y-1192914D02*
X64461904Y-1240533D01*
X36081904Y-28264819D02*
X36081904Y-29074342D01*
X36081904Y-29074342D02*
X36034285Y-29169580D01*
X36034285Y-29169580D02*
X35986666Y-29217200D01*
X35986666Y-29217200D02*
X35891428Y-29264819D01*
X35891428Y-29264819D02*
X35700952Y-29264819D01*
X35700952Y-29264819D02*
X35605714Y-29217200D01*
X35605714Y-29217200D02*
X35558095Y-29169580D01*
X35558095Y-29169580D02*
X35510476Y-29074342D01*
X35510476Y-29074342D02*
X35510476Y-28264819D01*
X34605714Y-28598152D02*
X34605714Y-29264819D01*
X34843809Y-28217200D02*
X35081904Y-28931485D01*
X35081904Y-28931485D02*
X34462857Y-28931485D01*
D11*
%TO.C,R2*%
X25262742Y-13277500D02*
X25737258Y-13277500D01*
X25262742Y-14322500D02*
X25737258Y-14322500D01*
%TO.C,R1*%
X71737258Y-2777500D02*
X71262742Y-2777500D01*
X71737258Y-3822500D02*
X71262742Y-3822500D01*
D12*
%TO.C,U3*%
X60300000Y-20100000D02*
X60300000Y-16100000D01*
X60800000Y-16100000D02*
X60390000Y-16100000D01*
X60800000Y-20100000D02*
X60300000Y-20100000D01*
X69100000Y-16100000D02*
X68610000Y-16100000D01*
X69100000Y-16100000D02*
X69100000Y-17470000D01*
X69100000Y-20100000D02*
X68610000Y-20100000D01*
X69100000Y-20100000D02*
X69100000Y-18610000D01*
X69100000Y-18610000D02*
G75*
G02*
X69100000Y-17470000I0J570000D01*
G01*
X69020000Y-20890000D02*
G75*
G02*
X68760000Y-20890000I-130000J0D01*
G01*
X68760000Y-20890000D02*
G75*
G02*
X69020000Y-20890000I130000J0D01*
G01*
%TO.C,U2*%
X30900000Y-10100000D02*
X30900000Y-11590000D01*
X30900000Y-10100000D02*
X31390000Y-10100000D01*
X30900000Y-14100000D02*
X30900000Y-12730000D01*
X30900000Y-14100000D02*
X31390000Y-14100000D01*
X39200000Y-10100000D02*
X39700000Y-10100000D01*
X39200000Y-14100000D02*
X39610000Y-14100000D01*
X39700000Y-10100000D02*
X39700000Y-14100000D01*
X30900000Y-11590000D02*
G75*
G02*
X30900000Y-12730000I0J-570000D01*
G01*
X31240000Y-9310000D02*
G75*
G02*
X30980000Y-9310000I-130000J0D01*
G01*
X30980000Y-9310000D02*
G75*
G02*
X31240000Y-9310000I130000J0D01*
G01*
%TO.C,U1*%
X60300000Y-8000000D02*
X60300000Y-4000000D01*
X60800000Y-4000000D02*
X60390000Y-4000000D01*
X60800000Y-8000000D02*
X60300000Y-8000000D01*
X69100000Y-4000000D02*
X68610000Y-4000000D01*
X69100000Y-4000000D02*
X69100000Y-5370000D01*
X69100000Y-8000000D02*
X68610000Y-8000000D01*
X69100000Y-8000000D02*
X69100000Y-6510000D01*
X69100000Y-6510000D02*
G75*
G02*
X69100000Y-5370000I0J570000D01*
G01*
X69020000Y-8790000D02*
G75*
G02*
X68760000Y-8790000I-130000J0D01*
G01*
X68760000Y-8790000D02*
G75*
G02*
X69020000Y-8790000I130000J0D01*
G01*
%TO.C,U4*%
X30920000Y-22310000D02*
X30920000Y-23800000D01*
X30920000Y-22310000D02*
X31410000Y-22310000D01*
X30920000Y-26310000D02*
X30920000Y-24940000D01*
X30920000Y-26310000D02*
X31410000Y-26310000D01*
X39220000Y-22310000D02*
X39720000Y-22310000D01*
X39220000Y-26310000D02*
X39630000Y-26310000D01*
X39720000Y-22310000D02*
X39720000Y-26310000D01*
X30920000Y-23800000D02*
G75*
G02*
X30920000Y-24940000I0J-570000D01*
G01*
X31260000Y-21520000D02*
G75*
G02*
X31000000Y-21520000I-130000J0D01*
G01*
X31000000Y-21520000D02*
G75*
G02*
X31260000Y-21520000I130000J0D01*
G01*
%TD*%
M02*
