%TF.GenerationSoftware,KiCad,Pcbnew,9.0.1*%
%TF.CreationDate,2026-01-21T11:16:40-07:00*%
%TF.ProjectId,testhologram v2,74657374-686f-46c6-9f67-72616d207632,rev?*%
%TF.SameCoordinates,Original*%
%TF.FileFunction,Copper,L2,Inr*%
%TF.FilePolarity,Positive*%
%FSLAX46Y46*%
G04 Gerber Fmt 4.6, Leading zero omitted, Abs format (unit mm)*
G04 Created by KiCad (PCBNEW 9.0.1) date 2026-01-21 11:16:40*
%MOMM*%
%LPD*%
G01*
G04 APERTURE LIST*
%TA.AperFunction,ViaPad*%
%ADD10C,0.600000*%
%TD*%
G04 APERTURE END LIST*
D10*
%TO.N,GND*%
X31500000Y-8100000D03*
%TO.N,SDI*%
X67700000Y-10000000D03*
%TO.N,CLK*%
X66900000Y-10000000D03*
%TO.N,LE*%
X66000000Y-10000000D03*
X34000000Y-8100000D03*
%TO.N,CLK*%
X33124265Y-8124265D03*
%TO.N,NOT_OE*%
X66100000Y-2000000D03*
%TO.N,VDD*%
X31000000Y-14800000D03*
%TO.N,NOT_OE*%
X33500000Y-13400000D03*
%TO.N,VDD*%
X69200000Y-3200000D03*
%TO.N,SDO-02*%
X67500000Y-19200000D03*
X30600000Y-15600000D03*
%TO.N,SDO-01*%
X66900000Y-2000000D03*
X32300000Y-8100000D03*
%TO.N,Net-(LED2-K)*%
X14200000Y-6100000D03*
%TO.N,Net-(LED1-K)*%
X8300000Y-6100000D03*
%TO.N,Net-(LED3-K)*%
X20060606Y-6060606D03*
%TO.N,Net-(LED4-K)*%
X25900000Y-6100000D03*
%TO.N,Net-(LED5-K)*%
X31800000Y-6100000D03*
%TO.N,Net-(LED6-K)*%
X37700000Y-6100000D03*
%TO.N,Net-(LED7-K)*%
X43600000Y-6100000D03*
%TO.N,Net-(LED8-K)*%
X49400000Y-6100000D03*
%TO.N,Net-(LED9-K)*%
X54000000Y-4600000D03*
%TO.N,Net-(LED10-K)*%
X61800000Y-5300000D03*
%TO.N,Net-(LED11-K)*%
X62500000Y-4700000D03*
%TO.N,Net-(LED12-K)*%
X73000000Y-6300000D03*
%TO.N,Net-(LED13-K)*%
X78860606Y-6060606D03*
%TO.N,Net-(LED14-K)*%
X84760606Y-6060606D03*
%TO.N,Net-(LED15-K)*%
X90639394Y-6060606D03*
%TO.N,Net-(LED16-K)*%
X96560606Y-6060606D03*
%TO.N,Net-(LED17-K)*%
X8300000Y-12100000D03*
%TO.N,Net-(LED18-K)*%
X14100000Y-12100000D03*
%TO.N,Net-(LED19-K)*%
X20000000Y-12100000D03*
%TO.N,Net-(LED20-K)*%
X25900000Y-12100000D03*
%TO.N,Net-(LED21-K)*%
X31500000Y-13000000D03*
%TO.N,Net-(LED22-K)*%
X37300000Y-8100000D03*
%TO.N,Net-(LED23-K)*%
X38175735Y-8124265D03*
%TO.N,Net-(LED24-K)*%
X40000000Y-9400000D03*
%TO.N,Net-(LED25-K)*%
X55300000Y-12100000D03*
%TO.N,Net-(LED26-K)*%
X42300000Y-13939000D03*
X42300000Y-15139000D03*
X61200000Y-12100000D03*
%TO.N,Net-(LED27-K)*%
X43199998Y-15561000D03*
X67100000Y-12100000D03*
X43200000Y-13900000D03*
%TO.N,Net-(LED28-K)*%
X73000000Y-12100000D03*
X47576123Y-13799253D03*
X50933200Y-15001000D03*
%TO.N,Net-(LED29-K)*%
X78900000Y-12100000D03*
X60500000Y-14323265D03*
X48400376Y-13775389D03*
%TO.N,Net-(LED30-K)*%
X49200000Y-13800000D03*
X84700000Y-12100000D03*
X62700000Y-14000000D03*
%TO.N,Net-(LED31-K)*%
X90600000Y-12100000D03*
%TO.N,Net-(LED32-K)*%
X96500000Y-12100000D03*
%TO.N,Net-(LED33-K)*%
X8326470Y-18221212D03*
%TO.N,Net-(LED34-K)*%
X14226470Y-18221212D03*
%TO.N,Net-(LED35-K)*%
X20087076Y-18181818D03*
%TO.N,Net-(LED36-K)*%
X25926470Y-18221212D03*
%TO.N,Net-(LED37-K)*%
X31826470Y-18221212D03*
%TO.N,Net-(LED38-K)*%
X37726470Y-18221212D03*
%TO.N,Net-(LED39-K)*%
X43626470Y-18221212D03*
%TO.N,Net-(LED40-K)*%
X49426470Y-18221212D03*
%TO.N,Net-(LED41-K)*%
X54026470Y-16721212D03*
%TO.N,Net-(LED42-K)*%
X61826470Y-17421212D03*
%TO.N,Net-(LED43-K)*%
X62526470Y-16821212D03*
%TO.N,Net-(LED44-K)*%
X73026470Y-18421212D03*
%TO.N,Net-(LED45-K)*%
X78887076Y-18181818D03*
%TO.N,Net-(LED46-K)*%
X84787076Y-18181818D03*
%TO.N,Net-(LED47-K)*%
X90665864Y-18181818D03*
%TO.N,Net-(LED48-K)*%
X96587076Y-18181818D03*
%TO.N,Net-(LED49-K)*%
X8326470Y-24221212D03*
%TO.N,Net-(LED50-K)*%
X14126470Y-24221212D03*
%TO.N,Net-(LED51-K)*%
X20026470Y-24221212D03*
%TO.N,Net-(LED52-K)*%
X25926470Y-24221212D03*
%TO.N,Net-(LED53-K)*%
X31526470Y-25121212D03*
%TO.N,Net-(LED54-K)*%
X37526470Y-19921212D03*
%TO.N,Net-(LED55-K)*%
X38226470Y-20321212D03*
%TO.N,Net-(LED56-K)*%
X40026470Y-21521212D03*
%TO.N,Net-(LED57-K)*%
X55326470Y-24221212D03*
%TO.N,Net-(LED58-K)*%
X42326470Y-26060212D03*
X42326470Y-27260212D03*
X61226470Y-24221212D03*
%TO.N,Net-(LED59-K)*%
X43226470Y-26021212D03*
X43226468Y-27682212D03*
X67126470Y-24221212D03*
%TO.N,Net-(LED60-K)*%
X73026470Y-24221212D03*
X47602593Y-25920465D03*
X50959670Y-27122212D03*
%TO.N,Net-(LED61-K)*%
X48426846Y-25896601D03*
X60526470Y-26444477D03*
X78926470Y-24221212D03*
%TO.N,Net-(LED62-K)*%
X84726470Y-24221212D03*
X62726470Y-26121212D03*
X49226470Y-25921212D03*
%TO.N,Net-(LED63-K)*%
X90626470Y-24221212D03*
%TO.N,Net-(LED64-K)*%
X96526470Y-24221212D03*
%TD*%
M02*
