%TF.GenerationSoftware,KiCad,Pcbnew,9.0.1*%
%TF.CreationDate,2026-01-21T11:16:40-07:00*%
%TF.ProjectId,testhologram v2,74657374-686f-46c6-9f67-72616d207632,rev?*%
%TF.SameCoordinates,Original*%
%TF.FileFunction,Paste,Top*%
%TF.FilePolarity,Positive*%
%FSLAX46Y46*%
G04 Gerber Fmt 4.6, Leading zero omitted, Abs format (unit mm)*
G04 Created by KiCad (PCBNEW 9.0.1) date 2026-01-21 11:16:40*
%MOMM*%
%LPD*%
G01*
G04 APERTURE LIST*
%ADD10R,1.000000X1.400000*%
G04 APERTURE END LIST*
D10*
%TO.C,LED511*%
X89285295Y-193939392D03*
X87185295Y-193939392D03*
%TD*%
%TO.C,LED330*%
X59873530Y-127272726D03*
X57773530Y-127272726D03*
%TD*%
%TO.C,LED371*%
X18697059Y-145454544D03*
X16597059Y-145454544D03*
%TD*%
%TO.C,LED364*%
X71638236Y-139393938D03*
X69538236Y-139393938D03*
%TD*%
%TO.C,LED100*%
X24579412Y-42424242D03*
X22479412Y-42424242D03*
%TD*%
%TO.C,LED185*%
X53991177Y-72727272D03*
X51891177Y-72727272D03*
%TD*%
%TO.C,LED351*%
X89285295Y-133333332D03*
X87185295Y-133333332D03*
%TD*%
%TO.C,LED42*%
X59873530Y-18181818D03*
X57773530Y-18181818D03*
%TD*%
%TO.C,LED239*%
X89285295Y-90909090D03*
X87185295Y-90909090D03*
%TD*%
%TO.C,LED35*%
X18697059Y-18181818D03*
X16597059Y-18181818D03*
%TD*%
%TO.C,LED414*%
X83402942Y-157575756D03*
X81302942Y-157575756D03*
%TD*%
%TO.C,LED178*%
X12814706Y-72727272D03*
X10714706Y-72727272D03*
%TD*%
%TO.C,LED340*%
X24579412Y-133333332D03*
X22479412Y-133333332D03*
%TD*%
%TO.C,LED121*%
X53991177Y-48484848D03*
X51891177Y-48484848D03*
%TD*%
%TO.C,LED196*%
X24579412Y-78787878D03*
X22479412Y-78787878D03*
%TD*%
%TO.C,LED449*%
X6932353Y-175757574D03*
X4832353Y-175757574D03*
%TD*%
%TO.C,LED411*%
X65755883Y-157575756D03*
X63655883Y-157575756D03*
%TD*%
%TO.C,LED158*%
X83402942Y-60606060D03*
X81302942Y-60606060D03*
%TD*%
%TO.C,LED326*%
X36344118Y-127272726D03*
X34244118Y-127272726D03*
%TD*%
%TO.C,LED267*%
X65755883Y-103030302D03*
X63655883Y-103030302D03*
%TD*%
%TO.C,LED240*%
X95167648Y-90909090D03*
X93067648Y-90909090D03*
%TD*%
%TO.C,LED448*%
X95167648Y-169696968D03*
X93067648Y-169696968D03*
%TD*%
%TO.C,LED13*%
X77520589Y-6060606D03*
X75420589Y-6060606D03*
%TD*%
%TO.C,LED132*%
X24579412Y-54545454D03*
X22479412Y-54545454D03*
%TD*%
%TO.C,LED433*%
X6932353Y-169696968D03*
X4832353Y-169696968D03*
%TD*%
%TO.C,LED201*%
X53991177Y-78787878D03*
X51891177Y-78787878D03*
%TD*%
%TO.C,LED295*%
X42226471Y-115151514D03*
X40126471Y-115151514D03*
%TD*%
%TO.C,LED488*%
X48108824Y-187878786D03*
X46008824Y-187878786D03*
%TD*%
%TO.C,LED425*%
X53991177Y-163636362D03*
X51891177Y-163636362D03*
%TD*%
%TO.C,LED40*%
X48108824Y-18181818D03*
X46008824Y-18181818D03*
%TD*%
%TO.C,LED311*%
X42226471Y-121212120D03*
X40126471Y-121212120D03*
%TD*%
%TO.C,LED12*%
X71638236Y-6060606D03*
X69538236Y-6060606D03*
%TD*%
%TO.C,LED268*%
X71638236Y-103030302D03*
X69538236Y-103030302D03*
%TD*%
%TO.C,LED406*%
X36344118Y-157575756D03*
X34244118Y-157575756D03*
%TD*%
%TO.C,LED166*%
X36344118Y-66666666D03*
X34244118Y-66666666D03*
%TD*%
%TO.C,LED18*%
X12814706Y-12121212D03*
X10714706Y-12121212D03*
%TD*%
%TO.C,LED21*%
X30461765Y-12121212D03*
X28361765Y-12121212D03*
%TD*%
%TO.C,LED331*%
X65755883Y-127272726D03*
X63655883Y-127272726D03*
%TD*%
%TO.C,LED173*%
X77520589Y-66666666D03*
X75420589Y-66666666D03*
%TD*%
%TO.C,LED262*%
X36344118Y-103030302D03*
X34244118Y-103030302D03*
%TD*%
%TO.C,LED103*%
X42226471Y-42424242D03*
X40126471Y-42424242D03*
%TD*%
%TO.C,LED228*%
X24579412Y-90909090D03*
X22479412Y-90909090D03*
%TD*%
%TO.C,LED399*%
X89285295Y-151515150D03*
X87185295Y-151515150D03*
%TD*%
%TO.C,LED143*%
X89285295Y-54545454D03*
X87185295Y-54545454D03*
%TD*%
%TO.C,LED339*%
X18697059Y-133333332D03*
X16597059Y-133333332D03*
%TD*%
%TO.C,LED190*%
X83402942Y-72727272D03*
X81302942Y-72727272D03*
%TD*%
%TO.C,LED180*%
X24579412Y-72727272D03*
X22479412Y-72727272D03*
%TD*%
%TO.C,LED395*%
X65755883Y-151515150D03*
X63655883Y-151515150D03*
%TD*%
%TO.C,LED253*%
X77520589Y-96969696D03*
X75420589Y-96969696D03*
%TD*%
%TO.C,LED63*%
X89285295Y-24242424D03*
X87185295Y-24242424D03*
%TD*%
%TO.C,LED114*%
X12814706Y-48484848D03*
X10714706Y-48484848D03*
%TD*%
%TO.C,LED179*%
X18697059Y-72727272D03*
X16597059Y-72727272D03*
%TD*%
%TO.C,LED503*%
X42226471Y-193939392D03*
X40126471Y-193939392D03*
%TD*%
%TO.C,LED294*%
X36344118Y-115151514D03*
X34244118Y-115151514D03*
%TD*%
%TO.C,LED413*%
X77520589Y-157575756D03*
X75420589Y-157575756D03*
%TD*%
%TO.C,LED325*%
X30461765Y-127272726D03*
X28361765Y-127272726D03*
%TD*%
%TO.C,LED347*%
X65755883Y-133333332D03*
X63655883Y-133333332D03*
%TD*%
%TO.C,LED129*%
X6932353Y-54545454D03*
X4832353Y-54545454D03*
%TD*%
%TO.C,LED463*%
X89285295Y-175757574D03*
X87185295Y-175757574D03*
%TD*%
%TO.C,LED506*%
X59873530Y-193939392D03*
X57773530Y-193939392D03*
%TD*%
%TO.C,LED312*%
X48108824Y-121212120D03*
X46008824Y-121212120D03*
%TD*%
%TO.C,LED280*%
X48108824Y-109090908D03*
X46008824Y-109090908D03*
%TD*%
%TO.C,LED218*%
X59873530Y-84848484D03*
X57773530Y-84848484D03*
%TD*%
%TO.C,LED109*%
X77520589Y-42424242D03*
X75420589Y-42424242D03*
%TD*%
%TO.C,LED1*%
X6932353Y-6060606D03*
X4832353Y-6060606D03*
%TD*%
%TO.C,LED360*%
X48108824Y-139393938D03*
X46008824Y-139393938D03*
%TD*%
%TO.C,LED341*%
X30461765Y-133333332D03*
X28361765Y-133333332D03*
%TD*%
%TO.C,LED107*%
X65755883Y-42424242D03*
X63655883Y-42424242D03*
%TD*%
%TO.C,LED223*%
X89285295Y-84848484D03*
X87185295Y-84848484D03*
%TD*%
%TO.C,LED211*%
X18697059Y-84848484D03*
X16597059Y-84848484D03*
%TD*%
%TO.C,LED444*%
X71638236Y-169696968D03*
X69538236Y-169696968D03*
%TD*%
%TO.C,LED264*%
X48108824Y-103030302D03*
X46008824Y-103030302D03*
%TD*%
%TO.C,LED152*%
X48108824Y-60606060D03*
X46008824Y-60606060D03*
%TD*%
%TO.C,LED216*%
X48108824Y-84848484D03*
X46008824Y-84848484D03*
%TD*%
%TO.C,LED453*%
X30461765Y-175757574D03*
X28361765Y-175757574D03*
%TD*%
%TO.C,LED307*%
X18697059Y-121212120D03*
X16597059Y-121212120D03*
%TD*%
%TO.C,LED67*%
X18697059Y-30303030D03*
X16597059Y-30303030D03*
%TD*%
%TO.C,LED219*%
X65755883Y-84848484D03*
X63655883Y-84848484D03*
%TD*%
%TO.C,LED327*%
X42226471Y-127272726D03*
X40126471Y-127272726D03*
%TD*%
%TO.C,LED297*%
X53991177Y-115151514D03*
X51891177Y-115151514D03*
%TD*%
%TO.C,LED374*%
X36344118Y-145454544D03*
X34244118Y-145454544D03*
%TD*%
%TO.C,LED404*%
X24579412Y-157575756D03*
X22479412Y-157575756D03*
%TD*%
%TO.C,LED438*%
X36344118Y-169696968D03*
X34244118Y-169696968D03*
%TD*%
%TO.C,LED342*%
X36344118Y-133333332D03*
X34244118Y-133333332D03*
%TD*%
%TO.C,LED207*%
X89285295Y-78787878D03*
X87185295Y-78787878D03*
%TD*%
%TO.C,LED367*%
X89285295Y-139393938D03*
X87185295Y-139393938D03*
%TD*%
%TO.C,LED140*%
X71638236Y-54545454D03*
X69538236Y-54545454D03*
%TD*%
%TO.C,LED418*%
X12814706Y-163636362D03*
X10714706Y-163636362D03*
%TD*%
%TO.C,LED97*%
X6932353Y-42424242D03*
X4832353Y-42424242D03*
%TD*%
%TO.C,LED469*%
X30461765Y-181818180D03*
X28361765Y-181818180D03*
%TD*%
%TO.C,LED245*%
X30461765Y-96969696D03*
X28361765Y-96969696D03*
%TD*%
%TO.C,LED11*%
X65755883Y-6060606D03*
X63655883Y-6060606D03*
%TD*%
%TO.C,LED398*%
X83402942Y-151515150D03*
X81302942Y-151515150D03*
%TD*%
%TO.C,LED499*%
X18697059Y-193939392D03*
X16597059Y-193939392D03*
%TD*%
%TO.C,LED291*%
X18697059Y-115151514D03*
X16597059Y-115151514D03*
%TD*%
%TO.C,LED510*%
X83402942Y-193939392D03*
X81302942Y-193939392D03*
%TD*%
%TO.C,LED85*%
X30461765Y-36363636D03*
X28361765Y-36363636D03*
%TD*%
%TO.C,LED355*%
X18697059Y-139393938D03*
X16597059Y-139393938D03*
%TD*%
%TO.C,LED205*%
X77520589Y-78787878D03*
X75420589Y-78787878D03*
%TD*%
%TO.C,LED328*%
X48108824Y-127272726D03*
X46008824Y-127272726D03*
%TD*%
%TO.C,LED384*%
X95167648Y-145454544D03*
X93067648Y-145454544D03*
%TD*%
%TO.C,LED128*%
X95167648Y-48484848D03*
X93067648Y-48484848D03*
%TD*%
%TO.C,LED98*%
X12814706Y-42424242D03*
X10714706Y-42424242D03*
%TD*%
%TO.C,LED410*%
X59873530Y-157575756D03*
X57773530Y-157575756D03*
%TD*%
%TO.C,LED289*%
X6932353Y-115151514D03*
X4832353Y-115151514D03*
%TD*%
%TO.C,LED281*%
X53991177Y-109090908D03*
X51891177Y-109090908D03*
%TD*%
%TO.C,LED56*%
X48108824Y-24242424D03*
X46008824Y-24242424D03*
%TD*%
%TO.C,LED437*%
X30461765Y-169696968D03*
X28361765Y-169696968D03*
%TD*%
%TO.C,LED238*%
X83402942Y-90909090D03*
X81302942Y-90909090D03*
%TD*%
%TO.C,LED308*%
X24579412Y-121212120D03*
X22479412Y-121212120D03*
%TD*%
%TO.C,LED309*%
X30461765Y-121212120D03*
X28361765Y-121212120D03*
%TD*%
%TO.C,LED259*%
X18697059Y-103030302D03*
X16597059Y-103030302D03*
%TD*%
%TO.C,LED256*%
X95167648Y-96969696D03*
X93067648Y-96969696D03*
%TD*%
%TO.C,LED498*%
X12814706Y-193939392D03*
X10714706Y-193939392D03*
%TD*%
%TO.C,LED354*%
X12814706Y-139393938D03*
X10714706Y-139393938D03*
%TD*%
%TO.C,LED112*%
X95167648Y-42424242D03*
X93067648Y-42424242D03*
%TD*%
%TO.C,LED89*%
X53991177Y-36363636D03*
X51891177Y-36363636D03*
%TD*%
%TO.C,LED159*%
X89285295Y-60606060D03*
X87185295Y-60606060D03*
%TD*%
%TO.C,LED329*%
X53991177Y-127272726D03*
X51891177Y-127272726D03*
%TD*%
%TO.C,LED452*%
X24579412Y-175757574D03*
X22479412Y-175757574D03*
%TD*%
%TO.C,LED310*%
X36344118Y-121212120D03*
X34244118Y-121212120D03*
%TD*%
%TO.C,LED344*%
X48108824Y-133333332D03*
X46008824Y-133333332D03*
%TD*%
%TO.C,LED68*%
X24579412Y-30303030D03*
X22479412Y-30303030D03*
%TD*%
%TO.C,LED244*%
X24579412Y-96969696D03*
X22479412Y-96969696D03*
%TD*%
%TO.C,LED272*%
X95167648Y-103030302D03*
X93067648Y-103030302D03*
%TD*%
%TO.C,LED421*%
X30461765Y-163636362D03*
X28361765Y-163636362D03*
%TD*%
%TO.C,LED446*%
X83402942Y-169696968D03*
X81302942Y-169696968D03*
%TD*%
%TO.C,LED83*%
X18697059Y-36363636D03*
X16597059Y-36363636D03*
%TD*%
%TO.C,LED383*%
X89285295Y-145454544D03*
X87185295Y-145454544D03*
%TD*%
%TO.C,LED88*%
X48108824Y-36363636D03*
X46008824Y-36363636D03*
%TD*%
%TO.C,LED434*%
X12814706Y-169696968D03*
X10714706Y-169696968D03*
%TD*%
%TO.C,LED302*%
X83402942Y-115151514D03*
X81302942Y-115151514D03*
%TD*%
%TO.C,LED320*%
X95167648Y-121212120D03*
X93067648Y-121212120D03*
%TD*%
%TO.C,LED359*%
X42226471Y-139393938D03*
X40126471Y-139393938D03*
%TD*%
%TO.C,LED93*%
X77520589Y-36363636D03*
X75420589Y-36363636D03*
%TD*%
%TO.C,LED420*%
X24579412Y-163636362D03*
X22479412Y-163636362D03*
%TD*%
%TO.C,LED481*%
X6932353Y-187878786D03*
X4832353Y-187878786D03*
%TD*%
%TO.C,LED150*%
X36344118Y-60606060D03*
X34244118Y-60606060D03*
%TD*%
%TO.C,LED380*%
X71638236Y-145454544D03*
X69538236Y-145454544D03*
%TD*%
%TO.C,LED234*%
X59873530Y-90909090D03*
X57773530Y-90909090D03*
%TD*%
%TO.C,LED165*%
X30461765Y-66666666D03*
X28361765Y-66666666D03*
%TD*%
%TO.C,LED305*%
X6932353Y-121212120D03*
X4832353Y-121212120D03*
%TD*%
%TO.C,LED505*%
X53991177Y-193939392D03*
X51891177Y-193939392D03*
%TD*%
%TO.C,LED127*%
X89285295Y-48484848D03*
X87185295Y-48484848D03*
%TD*%
%TO.C,LED44*%
X71638236Y-18181818D03*
X69538236Y-18181818D03*
%TD*%
%TO.C,LED75*%
X65755883Y-30303030D03*
X63655883Y-30303030D03*
%TD*%
%TO.C,LED115*%
X18697059Y-48484848D03*
X16597059Y-48484848D03*
%TD*%
%TO.C,LED333*%
X77520589Y-127272726D03*
X75420589Y-127272726D03*
%TD*%
%TO.C,LED443*%
X65755883Y-169696968D03*
X63655883Y-169696968D03*
%TD*%
%TO.C,LED313*%
X53991177Y-121212120D03*
X51891177Y-121212120D03*
%TD*%
%TO.C,LED182*%
X36344118Y-72727272D03*
X34244118Y-72727272D03*
%TD*%
%TO.C,LED78*%
X83402942Y-30303030D03*
X81302942Y-30303030D03*
%TD*%
%TO.C,LED497*%
X6932353Y-193939392D03*
X4832353Y-193939392D03*
%TD*%
%TO.C,LED77*%
X77520589Y-30303030D03*
X75420589Y-30303030D03*
%TD*%
%TO.C,LED126*%
X83402942Y-48484848D03*
X81302942Y-48484848D03*
%TD*%
%TO.C,LED16*%
X95167648Y-6060606D03*
X93067648Y-6060606D03*
%TD*%
%TO.C,LED462*%
X83402942Y-175757574D03*
X81302942Y-175757574D03*
%TD*%
%TO.C,LED64*%
X95167648Y-24242424D03*
X93067648Y-24242424D03*
%TD*%
%TO.C,LED200*%
X48108824Y-78787878D03*
X46008824Y-78787878D03*
%TD*%
%TO.C,LED261*%
X30461765Y-103030302D03*
X28361765Y-103030302D03*
%TD*%
%TO.C,LED161*%
X6932353Y-66666666D03*
X4832353Y-66666666D03*
%TD*%
%TO.C,LED356*%
X24579412Y-139393938D03*
X22479412Y-139393938D03*
%TD*%
%TO.C,LED350*%
X83402942Y-133333332D03*
X81302942Y-133333332D03*
%TD*%
%TO.C,LED6*%
X36344118Y-6060606D03*
X34244118Y-6060606D03*
%TD*%
%TO.C,LED358*%
X36344118Y-139393938D03*
X34244118Y-139393938D03*
%TD*%
%TO.C,LED23*%
X42226471Y-12121212D03*
X40126471Y-12121212D03*
%TD*%
%TO.C,LED287*%
X89285295Y-109090908D03*
X87185295Y-109090908D03*
%TD*%
%TO.C,LED484*%
X24579412Y-187878786D03*
X22479412Y-187878786D03*
%TD*%
%TO.C,LED72*%
X48108824Y-30303030D03*
X46008824Y-30303030D03*
%TD*%
%TO.C,LED38*%
X36344118Y-18181818D03*
X34244118Y-18181818D03*
%TD*%
%TO.C,LED283*%
X65755883Y-109090908D03*
X63655883Y-109090908D03*
%TD*%
%TO.C,LED382*%
X83402942Y-145454544D03*
X81302942Y-145454544D03*
%TD*%
%TO.C,LED230*%
X36344118Y-90909090D03*
X34244118Y-90909090D03*
%TD*%
%TO.C,LED369*%
X6932353Y-145454544D03*
X4832353Y-145454544D03*
%TD*%
%TO.C,LED194*%
X12814706Y-78787878D03*
X10714706Y-78787878D03*
%TD*%
%TO.C,LED485*%
X30461765Y-187878786D03*
X28361765Y-187878786D03*
%TD*%
%TO.C,LED248*%
X48108824Y-96969696D03*
X46008824Y-96969696D03*
%TD*%
%TO.C,LED296*%
X48108824Y-115151514D03*
X46008824Y-115151514D03*
%TD*%
%TO.C,LED419*%
X18697059Y-163636362D03*
X16597059Y-163636362D03*
%TD*%
%TO.C,LED153*%
X53991177Y-60606060D03*
X51891177Y-60606060D03*
%TD*%
%TO.C,LED476*%
X71638236Y-181818180D03*
X69538236Y-181818180D03*
%TD*%
%TO.C,LED290*%
X12814706Y-115151514D03*
X10714706Y-115151514D03*
%TD*%
%TO.C,LED113*%
X6932353Y-48484848D03*
X4832353Y-48484848D03*
%TD*%
%TO.C,LED332*%
X71638236Y-127272726D03*
X69538236Y-127272726D03*
%TD*%
%TO.C,LED400*%
X95167648Y-151515150D03*
X93067648Y-151515150D03*
%TD*%
%TO.C,LED118*%
X36344118Y-48484848D03*
X34244118Y-48484848D03*
%TD*%
%TO.C,LED167*%
X42226471Y-66666666D03*
X40126471Y-66666666D03*
%TD*%
%TO.C,LED176*%
X95167648Y-66666666D03*
X93067648Y-66666666D03*
%TD*%
%TO.C,LED84*%
X24579412Y-36363636D03*
X22479412Y-36363636D03*
%TD*%
%TO.C,LED231*%
X42226471Y-90909090D03*
X40126471Y-90909090D03*
%TD*%
%TO.C,LED397*%
X77520589Y-151515150D03*
X75420589Y-151515150D03*
%TD*%
%TO.C,LED405*%
X30461765Y-157575756D03*
X28361765Y-157575756D03*
%TD*%
%TO.C,LED79*%
X89285295Y-30303030D03*
X87185295Y-30303030D03*
%TD*%
%TO.C,LED184*%
X48108824Y-72727272D03*
X46008824Y-72727272D03*
%TD*%
%TO.C,LED349*%
X77520589Y-133333332D03*
X75420589Y-133333332D03*
%TD*%
%TO.C,LED3*%
X18697059Y-6060606D03*
X16597059Y-6060606D03*
%TD*%
%TO.C,LED386*%
X12814706Y-151515150D03*
X10714706Y-151515150D03*
%TD*%
%TO.C,LED412*%
X71638236Y-157575756D03*
X69538236Y-157575756D03*
%TD*%
%TO.C,LED32*%
X95167648Y-12121212D03*
X93067648Y-12121212D03*
%TD*%
%TO.C,LED37*%
X30461765Y-18181818D03*
X28361765Y-18181818D03*
%TD*%
%TO.C,LED233*%
X53991177Y-90909090D03*
X51891177Y-90909090D03*
%TD*%
%TO.C,LED416*%
X95167648Y-157575756D03*
X93067648Y-157575756D03*
%TD*%
%TO.C,LED471*%
X42226471Y-181818180D03*
X40126471Y-181818180D03*
%TD*%
%TO.C,LED134*%
X36344118Y-54545454D03*
X34244118Y-54545454D03*
%TD*%
%TO.C,LED226*%
X12814706Y-90909090D03*
X10714706Y-90909090D03*
%TD*%
%TO.C,LED162*%
X12814706Y-66666666D03*
X10714706Y-66666666D03*
%TD*%
%TO.C,LED242*%
X12814706Y-96969696D03*
X10714706Y-96969696D03*
%TD*%
%TO.C,LED123*%
X65755883Y-48484848D03*
X63655883Y-48484848D03*
%TD*%
%TO.C,LED175*%
X89285295Y-66666666D03*
X87185295Y-66666666D03*
%TD*%
%TO.C,LED306*%
X12814706Y-121212120D03*
X10714706Y-121212120D03*
%TD*%
%TO.C,LED104*%
X48108824Y-42424242D03*
X46008824Y-42424242D03*
%TD*%
%TO.C,LED314*%
X59873530Y-121212120D03*
X57773530Y-121212120D03*
%TD*%
%TO.C,LED110*%
X83402942Y-42424242D03*
X81302942Y-42424242D03*
%TD*%
%TO.C,LED512*%
X95167648Y-193939392D03*
X93067648Y-193939392D03*
%TD*%
%TO.C,LED199*%
X42226471Y-78787878D03*
X40126471Y-78787878D03*
%TD*%
%TO.C,LED509*%
X77520589Y-193939392D03*
X75420589Y-193939392D03*
%TD*%
%TO.C,LED108*%
X71638236Y-42424242D03*
X69538236Y-42424242D03*
%TD*%
%TO.C,LED501*%
X30461765Y-193939392D03*
X28361765Y-193939392D03*
%TD*%
%TO.C,LED401*%
X6932353Y-157575756D03*
X4832353Y-157575756D03*
%TD*%
%TO.C,LED389*%
X30461765Y-151515150D03*
X28361765Y-151515150D03*
%TD*%
%TO.C,LED168*%
X48108824Y-66666666D03*
X46008824Y-66666666D03*
%TD*%
%TO.C,LED475*%
X65755883Y-181818180D03*
X63655883Y-181818180D03*
%TD*%
%TO.C,LED368*%
X95167648Y-139393938D03*
X93067648Y-139393938D03*
%TD*%
%TO.C,LED215*%
X42226471Y-84848484D03*
X40126471Y-84848484D03*
%TD*%
%TO.C,LED429*%
X77520589Y-163636362D03*
X75420589Y-163636362D03*
%TD*%
%TO.C,LED99*%
X18697059Y-42424242D03*
X16597059Y-42424242D03*
%TD*%
%TO.C,LED507*%
X65755883Y-193939392D03*
X63655883Y-193939392D03*
%TD*%
%TO.C,LED292*%
X24579412Y-115151514D03*
X22479412Y-115151514D03*
%TD*%
%TO.C,LED151*%
X42226471Y-60606060D03*
X40126471Y-60606060D03*
%TD*%
%TO.C,LED243*%
X18697059Y-96969696D03*
X16597059Y-96969696D03*
%TD*%
%TO.C,LED468*%
X24579412Y-181818180D03*
X22479412Y-181818180D03*
%TD*%
%TO.C,LED415*%
X89285295Y-157575756D03*
X87185295Y-157575756D03*
%TD*%
%TO.C,LED246*%
X36344118Y-96969696D03*
X34244118Y-96969696D03*
%TD*%
%TO.C,LED286*%
X83402942Y-109090908D03*
X81302942Y-109090908D03*
%TD*%
%TO.C,LED119*%
X42226471Y-48484848D03*
X40126471Y-48484848D03*
%TD*%
%TO.C,LED92*%
X71638236Y-36363636D03*
X69538236Y-36363636D03*
%TD*%
%TO.C,LED187*%
X65755883Y-72727272D03*
X63655883Y-72727272D03*
%TD*%
%TO.C,LED80*%
X95167648Y-30303030D03*
X93067648Y-30303030D03*
%TD*%
%TO.C,LED137*%
X53991177Y-54545454D03*
X51891177Y-54545454D03*
%TD*%
%TO.C,LED82*%
X12814706Y-36363636D03*
X10714706Y-36363636D03*
%TD*%
%TO.C,LED317*%
X77520589Y-121212120D03*
X75420589Y-121212120D03*
%TD*%
%TO.C,LED324*%
X24579412Y-127272726D03*
X22479412Y-127272726D03*
%TD*%
%TO.C,LED164*%
X24579412Y-66666666D03*
X22479412Y-66666666D03*
%TD*%
%TO.C,LED407*%
X42226471Y-157575756D03*
X40126471Y-157575756D03*
%TD*%
%TO.C,LED417*%
X6932353Y-163636362D03*
X4832353Y-163636362D03*
%TD*%
%TO.C,LED122*%
X59873530Y-48484848D03*
X57773530Y-48484848D03*
%TD*%
%TO.C,LED477*%
X77520589Y-181818180D03*
X75420589Y-181818180D03*
%TD*%
%TO.C,LED489*%
X53991177Y-187878786D03*
X51891177Y-187878786D03*
%TD*%
%TO.C,LED157*%
X77520589Y-60606060D03*
X75420589Y-60606060D03*
%TD*%
%TO.C,LED430*%
X83402942Y-163636362D03*
X81302942Y-163636362D03*
%TD*%
%TO.C,LED274*%
X12814706Y-109090908D03*
X10714706Y-109090908D03*
%TD*%
%TO.C,LED66*%
X12814706Y-30303030D03*
X10714706Y-30303030D03*
%TD*%
%TO.C,LED117*%
X30461765Y-48484848D03*
X28361765Y-48484848D03*
%TD*%
%TO.C,LED227*%
X18697059Y-90909090D03*
X16597059Y-90909090D03*
%TD*%
%TO.C,LED495*%
X89285295Y-187878786D03*
X87185295Y-187878786D03*
%TD*%
%TO.C,LED460*%
X71638236Y-175757574D03*
X69538236Y-175757574D03*
%TD*%
%TO.C,LED461*%
X77520589Y-175757574D03*
X75420589Y-175757574D03*
%TD*%
%TO.C,LED105*%
X53991177Y-42424242D03*
X51891177Y-42424242D03*
%TD*%
%TO.C,LED139*%
X65755883Y-54545454D03*
X63655883Y-54545454D03*
%TD*%
%TO.C,LED220*%
X71638236Y-84848484D03*
X69538236Y-84848484D03*
%TD*%
%TO.C,LED385*%
X6932353Y-151515150D03*
X4832353Y-151515150D03*
%TD*%
%TO.C,LED133*%
X30461765Y-54545454D03*
X28361765Y-54545454D03*
%TD*%
%TO.C,LED270*%
X83402942Y-103030302D03*
X81302942Y-103030302D03*
%TD*%
%TO.C,LED58*%
X59873530Y-24242424D03*
X57773530Y-24242424D03*
%TD*%
%TO.C,LED273*%
X6932353Y-109090908D03*
X4832353Y-109090908D03*
%TD*%
%TO.C,LED217*%
X53991177Y-84848484D03*
X51891177Y-84848484D03*
%TD*%
%TO.C,LED73*%
X53991177Y-30303030D03*
X51891177Y-30303030D03*
%TD*%
%TO.C,LED235*%
X65755883Y-90909090D03*
X63655883Y-90909090D03*
%TD*%
%TO.C,LED29*%
X77520589Y-12121212D03*
X75420589Y-12121212D03*
%TD*%
%TO.C,LED81*%
X6932353Y-36363636D03*
X4832353Y-36363636D03*
%TD*%
%TO.C,LED370*%
X12814706Y-145454544D03*
X10714706Y-145454544D03*
%TD*%
%TO.C,LED54*%
X36344118Y-24242424D03*
X34244118Y-24242424D03*
%TD*%
%TO.C,LED426*%
X59873530Y-163636362D03*
X57773530Y-163636362D03*
%TD*%
%TO.C,LED249*%
X53991177Y-96969696D03*
X51891177Y-96969696D03*
%TD*%
%TO.C,LED373*%
X30461765Y-145454544D03*
X28361765Y-145454544D03*
%TD*%
%TO.C,LED26*%
X59873530Y-12121212D03*
X57773530Y-12121212D03*
%TD*%
%TO.C,LED46*%
X83402942Y-18181818D03*
X81302942Y-18181818D03*
%TD*%
%TO.C,LED465*%
X6932353Y-181818180D03*
X4832353Y-181818180D03*
%TD*%
%TO.C,LED224*%
X95167648Y-84848484D03*
X93067648Y-84848484D03*
%TD*%
%TO.C,LED508*%
X71638236Y-193939392D03*
X69538236Y-193939392D03*
%TD*%
%TO.C,LED409*%
X53991177Y-157575756D03*
X51891177Y-157575756D03*
%TD*%
%TO.C,LED303*%
X89285295Y-115151514D03*
X87185295Y-115151514D03*
%TD*%
%TO.C,LED210*%
X12814706Y-84848484D03*
X10714706Y-84848484D03*
%TD*%
%TO.C,LED155*%
X65755883Y-60606060D03*
X63655883Y-60606060D03*
%TD*%
%TO.C,LED427*%
X65755883Y-163636362D03*
X63655883Y-163636362D03*
%TD*%
%TO.C,LED276*%
X24579412Y-109090908D03*
X22479412Y-109090908D03*
%TD*%
%TO.C,LED49*%
X6932353Y-24242424D03*
X4832353Y-24242424D03*
%TD*%
%TO.C,LED490*%
X59873530Y-187878786D03*
X57773530Y-187878786D03*
%TD*%
%TO.C,LED198*%
X36344118Y-78787878D03*
X34244118Y-78787878D03*
%TD*%
%TO.C,LED43*%
X65755883Y-18181818D03*
X63655883Y-18181818D03*
%TD*%
%TO.C,LED455*%
X42226471Y-175757574D03*
X40126471Y-175757574D03*
%TD*%
%TO.C,LED323*%
X18697059Y-127272726D03*
X16597059Y-127272726D03*
%TD*%
%TO.C,LED279*%
X42226471Y-109090908D03*
X40126471Y-109090908D03*
%TD*%
%TO.C,LED316*%
X71638236Y-121212120D03*
X69538236Y-121212120D03*
%TD*%
%TO.C,LED393*%
X53991177Y-151515150D03*
X51891177Y-151515150D03*
%TD*%
%TO.C,LED144*%
X95167648Y-54545454D03*
X93067648Y-54545454D03*
%TD*%
%TO.C,LED236*%
X71638236Y-90909090D03*
X69538236Y-90909090D03*
%TD*%
%TO.C,LED357*%
X30461765Y-139393938D03*
X28361765Y-139393938D03*
%TD*%
%TO.C,LED146*%
X12814706Y-60606060D03*
X10714706Y-60606060D03*
%TD*%
%TO.C,LED288*%
X95167648Y-109090908D03*
X93067648Y-109090908D03*
%TD*%
%TO.C,LED440*%
X48108824Y-169696968D03*
X46008824Y-169696968D03*
%TD*%
%TO.C,LED90*%
X59873530Y-36363636D03*
X57773530Y-36363636D03*
%TD*%
%TO.C,LED251*%
X65755883Y-96969696D03*
X63655883Y-96969696D03*
%TD*%
%TO.C,LED278*%
X36344118Y-109090908D03*
X34244118Y-109090908D03*
%TD*%
%TO.C,LED348*%
X71638236Y-133333332D03*
X69538236Y-133333332D03*
%TD*%
%TO.C,LED372*%
X24579412Y-145454544D03*
X22479412Y-145454544D03*
%TD*%
%TO.C,LED254*%
X83402942Y-96969696D03*
X81302942Y-96969696D03*
%TD*%
%TO.C,LED424*%
X48108824Y-163636362D03*
X46008824Y-163636362D03*
%TD*%
%TO.C,LED258*%
X12814706Y-103030302D03*
X10714706Y-103030302D03*
%TD*%
%TO.C,LED131*%
X18697059Y-54545454D03*
X16597059Y-54545454D03*
%TD*%
%TO.C,LED487*%
X42226471Y-187878786D03*
X40126471Y-187878786D03*
%TD*%
%TO.C,LED353*%
X6932353Y-139393938D03*
X4832353Y-139393938D03*
%TD*%
%TO.C,LED188*%
X71638236Y-72727272D03*
X69538236Y-72727272D03*
%TD*%
%TO.C,LED391*%
X42226471Y-151515150D03*
X40126471Y-151515150D03*
%TD*%
%TO.C,LED189*%
X77520589Y-72727272D03*
X75420589Y-72727272D03*
%TD*%
%TO.C,LED379*%
X65755883Y-145454544D03*
X63655883Y-145454544D03*
%TD*%
%TO.C,LED136*%
X48108824Y-54545454D03*
X46008824Y-54545454D03*
%TD*%
%TO.C,LED472*%
X48108824Y-181818180D03*
X46008824Y-181818180D03*
%TD*%
%TO.C,LED50*%
X12814706Y-24242424D03*
X10714706Y-24242424D03*
%TD*%
%TO.C,LED445*%
X77520589Y-169696968D03*
X75420589Y-169696968D03*
%TD*%
%TO.C,LED467*%
X18697059Y-181818180D03*
X16597059Y-181818180D03*
%TD*%
%TO.C,LED149*%
X30461765Y-60606060D03*
X28361765Y-60606060D03*
%TD*%
%TO.C,LED76*%
X71638236Y-30303030D03*
X69538236Y-30303030D03*
%TD*%
%TO.C,LED24*%
X48108824Y-12121212D03*
X46008824Y-12121212D03*
%TD*%
%TO.C,LED482*%
X12814706Y-187878786D03*
X10714706Y-187878786D03*
%TD*%
%TO.C,LED62*%
X83402942Y-24242424D03*
X81302942Y-24242424D03*
%TD*%
%TO.C,LED208*%
X95167648Y-78787878D03*
X93067648Y-78787878D03*
%TD*%
%TO.C,LED48*%
X95167648Y-18181818D03*
X93067648Y-18181818D03*
%TD*%
%TO.C,LED257*%
X6932353Y-103030302D03*
X4832353Y-103030302D03*
%TD*%
%TO.C,LED186*%
X59873530Y-72727272D03*
X57773530Y-72727272D03*
%TD*%
%TO.C,LED17*%
X6932353Y-12121212D03*
X4832353Y-12121212D03*
%TD*%
%TO.C,LED60*%
X71638236Y-24242424D03*
X69538236Y-24242424D03*
%TD*%
%TO.C,LED255*%
X89285295Y-96969696D03*
X87185295Y-96969696D03*
%TD*%
%TO.C,LED500*%
X24579412Y-193939392D03*
X22479412Y-193939392D03*
%TD*%
%TO.C,LED209*%
X6932353Y-84848484D03*
X4832353Y-84848484D03*
%TD*%
%TO.C,LED101*%
X30461765Y-42424242D03*
X28361765Y-42424242D03*
%TD*%
%TO.C,LED402*%
X12814706Y-157575756D03*
X10714706Y-157575756D03*
%TD*%
%TO.C,LED91*%
X65755883Y-36363636D03*
X63655883Y-36363636D03*
%TD*%
%TO.C,LED142*%
X83402942Y-54545454D03*
X81302942Y-54545454D03*
%TD*%
%TO.C,LED343*%
X42226471Y-133333332D03*
X40126471Y-133333332D03*
%TD*%
%TO.C,LED250*%
X59873530Y-96969696D03*
X57773530Y-96969696D03*
%TD*%
%TO.C,LED447*%
X89285295Y-169696968D03*
X87185295Y-169696968D03*
%TD*%
%TO.C,LED298*%
X59873530Y-115151514D03*
X57773530Y-115151514D03*
%TD*%
%TO.C,LED57*%
X53991177Y-24242424D03*
X51891177Y-24242424D03*
%TD*%
%TO.C,LED470*%
X36344118Y-181818180D03*
X34244118Y-181818180D03*
%TD*%
%TO.C,LED237*%
X77520589Y-90909090D03*
X75420589Y-90909090D03*
%TD*%
%TO.C,LED28*%
X71638236Y-12121212D03*
X69538236Y-12121212D03*
%TD*%
%TO.C,LED315*%
X65755883Y-121212120D03*
X63655883Y-121212120D03*
%TD*%
%TO.C,LED345*%
X53991177Y-133333332D03*
X51891177Y-133333332D03*
%TD*%
%TO.C,LED504*%
X48108824Y-193939392D03*
X46008824Y-193939392D03*
%TD*%
%TO.C,LED479*%
X89285295Y-181818180D03*
X87185295Y-181818180D03*
%TD*%
%TO.C,LED301*%
X77520589Y-115151514D03*
X75420589Y-115151514D03*
%TD*%
%TO.C,LED195*%
X18697059Y-78787878D03*
X16597059Y-78787878D03*
%TD*%
%TO.C,LED299*%
X65755883Y-115151514D03*
X63655883Y-115151514D03*
%TD*%
%TO.C,LED493*%
X77520589Y-187878786D03*
X75420589Y-187878786D03*
%TD*%
%TO.C,LED51*%
X18697059Y-24242424D03*
X16597059Y-24242424D03*
%TD*%
%TO.C,LED474*%
X59873530Y-181818180D03*
X57773530Y-181818180D03*
%TD*%
%TO.C,LED96*%
X95167648Y-36363636D03*
X93067648Y-36363636D03*
%TD*%
%TO.C,LED25*%
X53991177Y-12121212D03*
X51891177Y-12121212D03*
%TD*%
%TO.C,LED229*%
X30461765Y-90909090D03*
X28361765Y-90909090D03*
%TD*%
%TO.C,LED388*%
X24579412Y-151515150D03*
X22479412Y-151515150D03*
%TD*%
%TO.C,LED263*%
X42226471Y-103030302D03*
X40126471Y-103030302D03*
%TD*%
%TO.C,LED265*%
X53991177Y-103030302D03*
X51891177Y-103030302D03*
%TD*%
%TO.C,LED147*%
X18697059Y-60606060D03*
X16597059Y-60606060D03*
%TD*%
%TO.C,LED174*%
X83402942Y-66666666D03*
X81302942Y-66666666D03*
%TD*%
%TO.C,LED483*%
X18697059Y-187878786D03*
X16597059Y-187878786D03*
%TD*%
%TO.C,LED141*%
X77520589Y-54545454D03*
X75420589Y-54545454D03*
%TD*%
%TO.C,LED225*%
X6932353Y-90909090D03*
X4832353Y-90909090D03*
%TD*%
%TO.C,LED241*%
X6932353Y-96969696D03*
X4832353Y-96969696D03*
%TD*%
%TO.C,LED30*%
X83402942Y-12121212D03*
X81302942Y-12121212D03*
%TD*%
%TO.C,LED318*%
X83402942Y-121212120D03*
X81302942Y-121212120D03*
%TD*%
%TO.C,LED69*%
X30461765Y-30303030D03*
X28361765Y-30303030D03*
%TD*%
%TO.C,LED260*%
X24579412Y-103030302D03*
X22479412Y-103030302D03*
%TD*%
%TO.C,LED271*%
X89285295Y-103030302D03*
X87185295Y-103030302D03*
%TD*%
%TO.C,LED352*%
X95167648Y-133333332D03*
X93067648Y-133333332D03*
%TD*%
%TO.C,LED486*%
X36344118Y-187878786D03*
X34244118Y-187878786D03*
%TD*%
%TO.C,LED321*%
X6932353Y-127272726D03*
X4832353Y-127272726D03*
%TD*%
%TO.C,LED466*%
X12814706Y-181818180D03*
X10714706Y-181818180D03*
%TD*%
%TO.C,LED378*%
X59873530Y-145454544D03*
X57773530Y-145454544D03*
%TD*%
%TO.C,LED177*%
X6932353Y-72727272D03*
X4832353Y-72727272D03*
%TD*%
%TO.C,LED59*%
X65755883Y-24242424D03*
X63655883Y-24242424D03*
%TD*%
%TO.C,LED396*%
X71638236Y-151515150D03*
X69538236Y-151515150D03*
%TD*%
%TO.C,LED34*%
X12814706Y-18181818D03*
X10714706Y-18181818D03*
%TD*%
%TO.C,LED390*%
X36344118Y-151515150D03*
X34244118Y-151515150D03*
%TD*%
%TO.C,LED7*%
X42226471Y-6060606D03*
X40126471Y-6060606D03*
%TD*%
%TO.C,LED361*%
X53991177Y-139393938D03*
X51891177Y-139393938D03*
%TD*%
%TO.C,LED428*%
X71638236Y-163636362D03*
X69538236Y-163636362D03*
%TD*%
%TO.C,LED478*%
X83402942Y-181818180D03*
X81302942Y-181818180D03*
%TD*%
%TO.C,LED170*%
X59873530Y-66666666D03*
X57773530Y-66666666D03*
%TD*%
%TO.C,LED102*%
X36344118Y-42424242D03*
X34244118Y-42424242D03*
%TD*%
%TO.C,LED335*%
X89285295Y-127272726D03*
X87185295Y-127272726D03*
%TD*%
%TO.C,LED156*%
X71638236Y-60606060D03*
X69538236Y-60606060D03*
%TD*%
%TO.C,LED423*%
X42226471Y-163636362D03*
X40126471Y-163636362D03*
%TD*%
%TO.C,LED71*%
X42226471Y-30303030D03*
X40126471Y-30303030D03*
%TD*%
%TO.C,LED221*%
X77520589Y-84848484D03*
X75420589Y-84848484D03*
%TD*%
%TO.C,LED439*%
X42226471Y-169696968D03*
X40126471Y-169696968D03*
%TD*%
%TO.C,LED232*%
X48108824Y-90909090D03*
X46008824Y-90909090D03*
%TD*%
%TO.C,LED5*%
X30461765Y-6060606D03*
X28361765Y-6060606D03*
%TD*%
%TO.C,LED94*%
X83402942Y-36363636D03*
X81302942Y-36363636D03*
%TD*%
%TO.C,LED45*%
X77520589Y-18181818D03*
X75420589Y-18181818D03*
%TD*%
%TO.C,LED435*%
X18697059Y-169696968D03*
X16597059Y-169696968D03*
%TD*%
%TO.C,LED172*%
X71638236Y-66666666D03*
X69538236Y-66666666D03*
%TD*%
%TO.C,LED10*%
X59873530Y-6060606D03*
X57773530Y-6060606D03*
%TD*%
%TO.C,LED86*%
X36344118Y-36363636D03*
X34244118Y-36363636D03*
%TD*%
%TO.C,LED116*%
X24579412Y-48484848D03*
X22479412Y-48484848D03*
%TD*%
%TO.C,LED19*%
X18697059Y-12121212D03*
X16597059Y-12121212D03*
%TD*%
%TO.C,LED338*%
X12814706Y-133333332D03*
X10714706Y-133333332D03*
%TD*%
%TO.C,LED181*%
X30461765Y-72727272D03*
X28361765Y-72727272D03*
%TD*%
%TO.C,LED457*%
X53991177Y-175757574D03*
X51891177Y-175757574D03*
%TD*%
%TO.C,LED111*%
X89285295Y-42424242D03*
X87185295Y-42424242D03*
%TD*%
%TO.C,LED70*%
X36344118Y-30303030D03*
X34244118Y-30303030D03*
%TD*%
%TO.C,LED394*%
X59873530Y-151515150D03*
X57773530Y-151515150D03*
%TD*%
%TO.C,LED387*%
X18697059Y-151515150D03*
X16597059Y-151515150D03*
%TD*%
%TO.C,LED403*%
X18697059Y-157575756D03*
X16597059Y-157575756D03*
%TD*%
%TO.C,LED39*%
X42226471Y-18181818D03*
X40126471Y-18181818D03*
%TD*%
%TO.C,LED138*%
X59873530Y-54545454D03*
X57773530Y-54545454D03*
%TD*%
%TO.C,LED14*%
X83402942Y-6060606D03*
X81302942Y-6060606D03*
%TD*%
%TO.C,LED431*%
X89285295Y-163636362D03*
X87185295Y-163636362D03*
%TD*%
%TO.C,LED300*%
X71638236Y-115151514D03*
X69538236Y-115151514D03*
%TD*%
%TO.C,LED2*%
X12814706Y-6060606D03*
X10714706Y-6060606D03*
%TD*%
%TO.C,LED171*%
X65755883Y-66666666D03*
X63655883Y-66666666D03*
%TD*%
%TO.C,LED22*%
X36344118Y-12121212D03*
X34244118Y-12121212D03*
%TD*%
%TO.C,LED366*%
X83402942Y-139393938D03*
X81302942Y-139393938D03*
%TD*%
%TO.C,LED408*%
X48108824Y-157575756D03*
X46008824Y-157575756D03*
%TD*%
%TO.C,LED106*%
X59873530Y-42424242D03*
X57773530Y-42424242D03*
%TD*%
%TO.C,LED135*%
X42226471Y-54545454D03*
X40126471Y-54545454D03*
%TD*%
%TO.C,LED277*%
X30461765Y-109090908D03*
X28361765Y-109090908D03*
%TD*%
%TO.C,LED36*%
X24579412Y-18181818D03*
X22479412Y-18181818D03*
%TD*%
%TO.C,LED197*%
X30461765Y-78787878D03*
X28361765Y-78787878D03*
%TD*%
%TO.C,LED214*%
X36344118Y-84848484D03*
X34244118Y-84848484D03*
%TD*%
%TO.C,LED125*%
X77520589Y-48484848D03*
X75420589Y-48484848D03*
%TD*%
%TO.C,LED95*%
X89285295Y-36363636D03*
X87185295Y-36363636D03*
%TD*%
%TO.C,LED203*%
X65755883Y-78787878D03*
X63655883Y-78787878D03*
%TD*%
%TO.C,LED450*%
X12814706Y-175757574D03*
X10714706Y-175757574D03*
%TD*%
%TO.C,LED282*%
X59873530Y-109090908D03*
X57773530Y-109090908D03*
%TD*%
%TO.C,LED160*%
X95167648Y-60606060D03*
X93067648Y-60606060D03*
%TD*%
%TO.C,LED53*%
X30461765Y-24242424D03*
X28361765Y-24242424D03*
%TD*%
%TO.C,LED213*%
X30461765Y-84848484D03*
X28361765Y-84848484D03*
%TD*%
%TO.C,LED365*%
X77520589Y-139393938D03*
X75420589Y-139393938D03*
%TD*%
%TO.C,LED169*%
X53991177Y-66666666D03*
X51891177Y-66666666D03*
%TD*%
%TO.C,LED464*%
X95167648Y-175757574D03*
X93067648Y-175757574D03*
%TD*%
%TO.C,LED202*%
X59873530Y-78787878D03*
X57773530Y-78787878D03*
%TD*%
%TO.C,LED4*%
X24579412Y-6060606D03*
X22479412Y-6060606D03*
%TD*%
%TO.C,LED206*%
X83402942Y-78787878D03*
X81302942Y-78787878D03*
%TD*%
%TO.C,LED193*%
X6932353Y-78787878D03*
X4832353Y-78787878D03*
%TD*%
%TO.C,LED442*%
X59873530Y-169696968D03*
X57773530Y-169696968D03*
%TD*%
%TO.C,LED154*%
X59873530Y-60606060D03*
X57773530Y-60606060D03*
%TD*%
%TO.C,LED496*%
X95167648Y-187878786D03*
X93067648Y-187878786D03*
%TD*%
%TO.C,LED336*%
X95167648Y-127272726D03*
X93067648Y-127272726D03*
%TD*%
%TO.C,LED362*%
X59873530Y-139393938D03*
X57773530Y-139393938D03*
%TD*%
%TO.C,LED441*%
X53991177Y-169696968D03*
X51891177Y-169696968D03*
%TD*%
%TO.C,LED491*%
X65755883Y-187878786D03*
X63655883Y-187878786D03*
%TD*%
%TO.C,LED269*%
X77520589Y-103030302D03*
X75420589Y-103030302D03*
%TD*%
%TO.C,LED458*%
X59873530Y-175757574D03*
X57773530Y-175757574D03*
%TD*%
%TO.C,LED192*%
X95167648Y-72727272D03*
X93067648Y-72727272D03*
%TD*%
%TO.C,LED222*%
X83402942Y-84848484D03*
X81302942Y-84848484D03*
%TD*%
%TO.C,LED492*%
X71638236Y-187878786D03*
X69538236Y-187878786D03*
%TD*%
%TO.C,LED456*%
X48108824Y-175757574D03*
X46008824Y-175757574D03*
%TD*%
%TO.C,LED27*%
X65755883Y-12121212D03*
X63655883Y-12121212D03*
%TD*%
%TO.C,LED480*%
X95167648Y-181818180D03*
X93067648Y-181818180D03*
%TD*%
%TO.C,LED381*%
X77520589Y-145454544D03*
X75420589Y-145454544D03*
%TD*%
%TO.C,LED8*%
X48108824Y-6060606D03*
X46008824Y-6060606D03*
%TD*%
%TO.C,LED334*%
X83402942Y-127272726D03*
X81302942Y-127272726D03*
%TD*%
%TO.C,LED252*%
X71638236Y-96969696D03*
X69538236Y-96969696D03*
%TD*%
%TO.C,LED15*%
X89285295Y-6060606D03*
X87185295Y-6060606D03*
%TD*%
%TO.C,LED20*%
X24579412Y-12121212D03*
X22479412Y-12121212D03*
%TD*%
%TO.C,LED293*%
X30461765Y-115151514D03*
X28361765Y-115151514D03*
%TD*%
%TO.C,LED502*%
X36344118Y-193939392D03*
X34244118Y-193939392D03*
%TD*%
%TO.C,LED204*%
X71638236Y-78787878D03*
X69538236Y-78787878D03*
%TD*%
%TO.C,LED183*%
X42226471Y-72727272D03*
X40126471Y-72727272D03*
%TD*%
%TO.C,LED376*%
X48108824Y-145454544D03*
X46008824Y-145454544D03*
%TD*%
%TO.C,LED375*%
X42226471Y-145454544D03*
X40126471Y-145454544D03*
%TD*%
%TO.C,LED422*%
X36344118Y-163636362D03*
X34244118Y-163636362D03*
%TD*%
%TO.C,LED212*%
X24579412Y-84848484D03*
X22479412Y-84848484D03*
%TD*%
%TO.C,LED47*%
X89285295Y-18181818D03*
X87185295Y-18181818D03*
%TD*%
%TO.C,LED41*%
X53991177Y-18181818D03*
X51891177Y-18181818D03*
%TD*%
%TO.C,LED363*%
X65755883Y-139393938D03*
X63655883Y-139393938D03*
%TD*%
%TO.C,LED319*%
X89285295Y-121212120D03*
X87185295Y-121212120D03*
%TD*%
%TO.C,LED124*%
X71638236Y-48484848D03*
X69538236Y-48484848D03*
%TD*%
%TO.C,LED494*%
X83402942Y-187878786D03*
X81302942Y-187878786D03*
%TD*%
%TO.C,LED191*%
X89285295Y-72727272D03*
X87185295Y-72727272D03*
%TD*%
%TO.C,LED473*%
X53991177Y-181818180D03*
X51891177Y-181818180D03*
%TD*%
%TO.C,LED145*%
X6932353Y-60606060D03*
X4832353Y-60606060D03*
%TD*%
%TO.C,LED322*%
X12814706Y-127272726D03*
X10714706Y-127272726D03*
%TD*%
%TO.C,LED284*%
X71638236Y-109090908D03*
X69538236Y-109090908D03*
%TD*%
%TO.C,LED377*%
X53991177Y-145454544D03*
X51891177Y-145454544D03*
%TD*%
%TO.C,LED459*%
X65755883Y-175757574D03*
X63655883Y-175757574D03*
%TD*%
%TO.C,LED436*%
X24579412Y-169696968D03*
X22479412Y-169696968D03*
%TD*%
%TO.C,LED65*%
X6932353Y-30303030D03*
X4832353Y-30303030D03*
%TD*%
%TO.C,LED392*%
X48108824Y-151515150D03*
X46008824Y-151515150D03*
%TD*%
%TO.C,LED130*%
X12814706Y-54545454D03*
X10714706Y-54545454D03*
%TD*%
%TO.C,LED285*%
X77520589Y-109090908D03*
X75420589Y-109090908D03*
%TD*%
%TO.C,LED33*%
X6932353Y-18181818D03*
X4832353Y-18181818D03*
%TD*%
%TO.C,LED9*%
X53991177Y-6060606D03*
X51891177Y-6060606D03*
%TD*%
%TO.C,LED247*%
X42226471Y-96969696D03*
X40126471Y-96969696D03*
%TD*%
%TO.C,LED31*%
X89285295Y-12121212D03*
X87185295Y-12121212D03*
%TD*%
%TO.C,LED432*%
X95167648Y-163636362D03*
X93067648Y-163636362D03*
%TD*%
%TO.C,LED163*%
X18697059Y-66666666D03*
X16597059Y-66666666D03*
%TD*%
%TO.C,LED74*%
X59873530Y-30303030D03*
X57773530Y-30303030D03*
%TD*%
%TO.C,LED120*%
X48108824Y-48484848D03*
X46008824Y-48484848D03*
%TD*%
%TO.C,LED55*%
X42226471Y-24242424D03*
X40126471Y-24242424D03*
%TD*%
%TO.C,LED346*%
X59873530Y-133333332D03*
X57773530Y-133333332D03*
%TD*%
%TO.C,LED275*%
X18697059Y-109090908D03*
X16597059Y-109090908D03*
%TD*%
%TO.C,LED148*%
X24579412Y-60606060D03*
X22479412Y-60606060D03*
%TD*%
%TO.C,LED454*%
X36344118Y-175757574D03*
X34244118Y-175757574D03*
%TD*%
%TO.C,LED451*%
X18697059Y-175757574D03*
X16597059Y-175757574D03*
%TD*%
%TO.C,LED52*%
X24579412Y-24242424D03*
X22479412Y-24242424D03*
%TD*%
%TO.C,LED304*%
X95167648Y-115151514D03*
X93067648Y-115151514D03*
%TD*%
%TO.C,LED61*%
X77520589Y-24242424D03*
X75420589Y-24242424D03*
%TD*%
%TO.C,LED266*%
X59873530Y-103030302D03*
X57773530Y-103030302D03*
%TD*%
%TO.C,LED87*%
X42226471Y-36363636D03*
X40126471Y-36363636D03*
%TD*%
%TO.C,LED337*%
X6932353Y-133333332D03*
X4832353Y-133333332D03*
%TD*%
M02*
