M48
; DRILL file {KiCad 9.0.1} date 2026-02-18T14:45:27-0700
; FORMAT={-:-/ absolute / metric / decimal}
; #@! TF.CreationDate,2026-02-18T14:45:27-07:00
; #@! TF.GenerationSoftware,Kicad,Pcbnew,9.0.1
; #@! TF.FileFunction,Plated,1,6,PTH
FMAT,2
METRIC
; #@! TA.AperFunction,Plated,PTH,ViaDrill
T1C0.300
; #@! TA.AperFunction,Plated,PTH,ComponentDrill
T2C0.600
; #@! TA.AperFunction,Plated,PTH,ComponentDrill
T3C0.700
; #@! TA.AperFunction,Plated,PTH,ComponentDrill
T4C1.000
; #@! TA.AperFunction,Plated,PTH,ComponentDrill
T5C1.400
; #@! TA.AperFunction,Plated,PTH,ComponentDrill
T6C5.000
%
G90
G05
T1
X1.9Y7.2
X1.9Y3.7
X2.0Y22.1
X2.0Y17.3
X2.0Y11.9
X4.9Y9.3
X5.199Y11.9
X6.1Y-223.7
X6.3Y13.7
X6.4Y11.9
X6.5Y10.7
X7.4Y1.4
X7.4Y0.7
X7.4Y0.0
X7.7Y22.2
X7.7Y18.2
X8.0Y-212.0
X8.1Y1.4
X8.1Y0.7
X8.1Y0.0
X8.3Y-6.1
X8.3Y-12.1
X8.3Y-18.248
X8.3Y-24.248
X8.3Y-30.348
X8.3Y-36.348
X8.3Y-42.448
X8.3Y-48.448
X8.3Y-54.648
X8.3Y-60.648
X8.3Y-66.748
X8.3Y-72.748
X8.3Y-78.848
X8.3Y-84.848
X8.3Y-90.948
X8.3Y-96.948
X8.3Y-103.148
X8.3Y-109.148
X8.3Y-115.248
X8.3Y-121.248
X8.3Y-127.348
X8.3Y-133.348
X8.3Y-139.448
X8.3Y-145.448
X8.3Y-151.548
X8.3Y-157.548
X8.3Y-163.748
X8.3Y-169.748
X8.3Y-175.848
X8.3Y-181.848
X8.3Y-187.948
X8.3Y-193.948
X8.3Y-219.4
X8.5Y14.6
X8.8Y1.4
X8.8Y0.7
X8.8Y0.0
X8.9Y-215.6
X9.1Y-219.4
X9.1Y-223.9
X9.3Y8.3
X10.7Y-215.8
X11.1Y10.5
X11.3Y11.9
X11.4Y17.4
X12.0Y11.9
X12.2Y-217.3
X12.7Y-212.1
X13.0Y-210.1
X13.8Y15.4
X13.9Y22.2
X14.1Y-12.1
X14.1Y-24.248
X14.1Y-36.348
X14.1Y-48.448
X14.1Y-60.648
X14.1Y-72.748
X14.1Y-84.848
X14.1Y-96.948
X14.1Y-109.148
X14.1Y-121.248
X14.1Y-133.348
X14.1Y-145.448
X14.1Y-157.548
X14.1Y-169.748
X14.1Y-181.848
X14.1Y-193.948
X14.2Y-6.1
X14.2Y-18.248
X14.2Y-30.348
X14.2Y-42.448
X14.2Y-54.648
X14.2Y-66.748
X14.2Y-78.848
X14.2Y-90.948
X14.2Y-103.148
X14.2Y-115.248
X14.2Y-127.348
X14.2Y-139.448
X14.2Y-151.548
X14.2Y-163.748
X14.2Y-175.848
X14.2Y-187.948
X14.7Y-213.1
X16.2Y-213.1
X18.0Y-212.7
X18.5Y-199.3
X18.8Y-217.3
X19.2Y22.2
X19.5Y12.3
X20.0Y-12.1
X20.0Y-24.248
X20.0Y-36.348
X20.0Y-48.448
X20.0Y-60.648
X20.0Y-72.748
X20.0Y-84.848
X20.0Y-96.948
X20.0Y-109.148
X20.0Y-121.248
X20.0Y-133.348
X20.0Y-145.448
X20.0Y-157.548
X20.0Y-169.748
X20.0Y-181.848
X20.0Y-193.948
X20.061Y-6.061
X20.061Y-18.209
X20.061Y-30.309
X20.061Y-42.409
X20.061Y-54.609
X20.061Y-66.709
X20.061Y-78.809
X20.061Y-90.909
X20.061Y-103.109
X20.061Y-115.209
X20.061Y-127.309
X20.061Y-139.409
X20.061Y-151.509
X20.061Y-163.709
X20.061Y-175.809
X20.061Y-187.909
X21.6Y14.5
X21.6Y-218.3
X21.6Y-219.0
X21.6Y-219.7
X21.6Y-220.4
X22.3Y-218.3
X22.3Y-219.0
X22.3Y-219.7
X22.3Y-220.4
X22.4Y11.5
X23.7Y-210.4
X24.1Y6.9
X24.1Y6.1
X24.1Y5.3
X24.8Y22.2
X24.8Y17.4
X25.0Y6.9
X25.0Y6.1
X25.0Y5.3
X25.8Y6.9
X25.8Y6.1
X25.8Y5.3
X25.9Y-6.1
X25.9Y-12.1
X25.9Y-18.248
X25.9Y-24.248
X25.9Y-30.348
X25.9Y-36.348
X25.9Y-42.448
X25.9Y-48.448
X25.9Y-54.648
X25.9Y-60.648
X25.9Y-66.748
X25.9Y-72.748
X25.9Y-78.848
X25.9Y-84.848
X25.9Y-90.948
X25.9Y-96.948
X25.9Y-103.148
X25.9Y-109.148
X25.9Y-115.248
X25.9Y-121.248
X25.9Y-127.348
X25.9Y-133.348
X25.9Y-139.448
X25.9Y-145.448
X25.9Y-151.548
X25.9Y-157.548
X25.9Y-163.748
X25.9Y-169.748
X25.9Y-175.848
X25.9Y-181.848
X25.9Y-187.948
X25.9Y-193.948
X26.9Y-13.3
X26.9Y-14.9
X26.9Y-25.448
X26.9Y-27.048
X26.9Y-37.548
X26.9Y-39.148
X26.9Y-49.648
X26.9Y-51.248
X26.9Y-61.848
X26.9Y-63.448
X26.9Y-73.948
X26.9Y-75.548
X26.9Y-86.048
X26.9Y-87.648
X26.9Y-98.148
X26.9Y-99.748
X26.9Y-110.348
X26.9Y-111.948
X26.9Y-122.448
X26.9Y-124.048
X26.9Y-134.548
X26.9Y-136.148
X26.9Y-146.648
X26.9Y-148.248
X26.9Y-158.748
X26.9Y-160.348
X26.9Y-170.948
X26.9Y-172.548
X26.9Y-183.048
X26.9Y-184.648
X26.9Y-195.148
X27.2Y-212.9
X27.2Y-213.6
X27.2Y-214.3
X27.2Y-215.0
X27.2Y-215.7
X27.9Y-212.9
X27.9Y-213.6
X27.9Y-214.3
X27.9Y-215.0
X27.9Y-215.7
X28.6Y-208.6
X29.5Y22.2
X29.5Y16.0
X30.6Y-27.748
X30.6Y-39.848
X30.6Y-51.948
X30.6Y-64.148
X30.6Y-76.248
X30.6Y-88.348
X30.6Y-100.448
X30.6Y-112.648
X30.6Y-124.748
X30.6Y-136.848
X30.6Y-148.948
X30.6Y-161.048
X30.6Y-173.248
X30.6Y-185.348
X30.8Y13.5
X31.0Y-15.6
X31.5Y-8.1
X31.5Y-13.0
X31.5Y-20.248
X31.5Y-25.148
X31.5Y-32.348
X31.5Y-37.248
X31.5Y-44.448
X31.5Y-49.348
X31.5Y-56.648
X31.5Y-61.548
X31.5Y-68.748
X31.5Y-73.648
X31.5Y-80.848
X31.5Y-85.748
X31.5Y-92.948
X31.5Y-97.848
X31.5Y-105.148
X31.5Y-110.048
X31.5Y-117.248
X31.5Y-122.148
X31.5Y-129.348
X31.5Y-134.248
X31.5Y-141.448
X31.5Y-146.348
X31.5Y-153.548
X31.5Y-158.448
X31.5Y-165.748
X31.5Y-170.648
X31.5Y-177.848
X31.5Y-182.748
X31.5Y-189.948
X31.5Y-194.848
X31.7Y3.4
X31.8Y-6.1
X31.8Y-18.248
X31.8Y-30.348
X31.8Y-42.448
X31.8Y-54.648
X31.8Y-66.748
X31.8Y-78.848
X31.8Y-90.948
X31.8Y-103.148
X31.8Y-115.248
X31.8Y-127.348
X31.8Y-139.448
X31.8Y-151.548
X31.8Y-163.748
X31.8Y-175.848
X31.8Y-187.948
X31.9Y10.4
X31.9Y7.3
X32.3Y-8.1
X32.3Y-20.248
X32.3Y-32.348
X32.3Y-44.448
X32.3Y-56.648
X32.3Y-68.748
X32.3Y-80.848
X32.3Y-92.948
X32.3Y-105.148
X32.3Y-117.248
X32.3Y-129.348
X32.3Y-141.448
X32.3Y-153.548
X32.3Y-165.748
X32.3Y-177.848
X32.3Y-189.948
X33.124Y-8.124
X33.124Y-20.272
X33.124Y-32.372
X33.124Y-44.472
X33.124Y-56.672
X33.124Y-68.772
X33.124Y-80.872
X33.124Y-92.972
X33.124Y-105.172
X33.124Y-117.272
X33.124Y-129.372
X33.124Y-141.472
X33.124Y-153.572
X33.124Y-165.772
X33.124Y-177.872
X33.124Y-189.972
X33.5Y-13.4
X33.5Y-25.548
X33.5Y-37.648
X33.5Y-49.748
X33.5Y-61.948
X33.5Y-74.048
X33.5Y-86.148
X33.5Y-98.248
X33.5Y-110.448
X33.5Y-122.548
X33.5Y-134.648
X33.5Y-146.748
X33.5Y-158.848
X33.5Y-171.048
X33.5Y-183.148
X33.5Y-195.248
X34.0Y-8.1
X34.0Y-20.248
X34.0Y-32.348
X34.0Y-44.448
X34.0Y-56.648
X34.0Y-68.748
X34.0Y-80.848
X34.0Y-92.948
X34.0Y-105.148
X34.0Y-117.248
X34.0Y-129.348
X34.0Y-141.448
X34.0Y-153.548
X34.0Y-165.748
X34.0Y-177.848
X34.0Y-189.948
X34.4Y-199.6
X34.9Y3.4
X35.0Y10.4
X35.0Y7.4
X37.3Y-8.1
X37.3Y-20.248
X37.3Y-32.348
X37.3Y-44.448
X37.3Y-56.648
X37.3Y-68.748
X37.3Y-80.848
X37.3Y-92.948
X37.3Y-105.148
X37.3Y-117.248
X37.3Y-129.348
X37.3Y-141.448
X37.3Y-153.548
X37.3Y-165.748
X37.3Y-177.848
X37.3Y-189.948
X37.7Y-6.1
X37.7Y-18.248
X37.7Y-30.348
X37.7Y-42.448
X37.7Y-54.648
X37.7Y-66.748
X37.7Y-78.848
X37.7Y-90.948
X37.7Y-103.148
X37.7Y-115.248
X37.7Y-127.348
X37.7Y-139.448
X37.7Y-151.548
X37.7Y-163.748
X37.7Y-175.848
X37.7Y-187.948
X38.176Y-8.124
X38.176Y-20.272
X38.176Y-32.372
X38.176Y-44.472
X38.176Y-56.672
X38.176Y-68.772
X38.176Y-80.872
X38.176Y-92.972
X38.176Y-105.172
X38.176Y-117.272
X38.176Y-129.372
X38.176Y-141.472
X38.176Y-153.572
X38.176Y-165.772
X38.176Y-177.872
X38.176Y-189.972
X40.0Y-9.4
X40.0Y-21.548
X40.0Y-33.648
X40.0Y-45.748
X40.0Y-57.948
X40.0Y-70.048
X40.0Y-82.148
X40.0Y-94.248
X40.0Y-106.448
X40.0Y-118.548
X40.0Y-130.648
X40.0Y-142.748
X40.0Y-154.848
X40.0Y-167.048
X40.0Y-179.148
X40.0Y-191.248
X40.2Y-199.3
X42.2Y-10.5
X42.2Y-22.648
X42.2Y-34.748
X42.2Y-46.848
X42.2Y-59.048
X42.2Y-71.148
X42.2Y-83.248
X42.2Y-95.348
X42.2Y-107.548
X42.2Y-119.648
X42.2Y-131.748
X42.2Y-143.848
X42.2Y-155.948
X42.2Y-168.148
X42.2Y-180.248
X42.2Y-192.348
X43.1Y-196.848
X43.6Y-6.1
X43.6Y-18.248
X43.6Y-30.348
X43.6Y-42.448
X43.6Y-54.648
X43.6Y-66.748
X43.6Y-78.848
X43.6Y-90.948
X43.6Y-103.148
X43.6Y-115.248
X43.6Y-127.348
X43.6Y-139.448
X43.6Y-151.548
X43.6Y-163.748
X43.6Y-175.848
X43.6Y-187.948
X43.853Y-197.249
X45.9Y-15.4
X45.9Y-27.548
X45.9Y-39.648
X45.9Y-51.748
X45.9Y-63.948
X45.9Y-76.048
X45.9Y-88.148
X45.9Y-100.248
X45.9Y-112.448
X45.9Y-124.548
X45.9Y-136.648
X45.9Y-148.748
X45.9Y-160.848
X45.9Y-173.048
X45.9Y-185.148
X45.939Y-13.736
X45.939Y-25.884
X45.939Y-37.984
X45.939Y-50.084
X45.939Y-62.284
X45.939Y-74.384
X45.939Y-86.484
X45.939Y-98.584
X45.939Y-110.784
X45.939Y-122.884
X45.939Y-134.984
X45.939Y-147.084
X45.939Y-159.184
X45.939Y-171.384
X45.939Y-183.484
X45.939Y-195.584
X46.776Y-13.724
X46.776Y-25.872
X46.776Y-37.972
X46.776Y-50.072
X46.776Y-62.272
X46.776Y-74.372
X46.776Y-86.472
X46.776Y-98.572
X46.776Y-110.772
X46.776Y-122.872
X46.776Y-134.972
X46.776Y-147.072
X46.776Y-159.172
X46.776Y-171.372
X46.776Y-183.472
X46.776Y-195.572
X46.8Y-15.401
X46.8Y-27.549
X46.8Y-39.649
X46.8Y-51.749
X46.8Y-63.949
X46.8Y-76.049
X46.8Y-88.149
X46.8Y-100.249
X46.8Y-112.449
X46.8Y-124.549
X46.8Y-136.649
X46.8Y-148.749
X46.8Y-160.849
X46.8Y-173.049
X46.8Y-185.149
X47.6Y-13.7
X47.6Y-25.848
X47.6Y-37.948
X47.6Y-50.048
X47.6Y-62.248
X47.6Y-74.348
X47.6Y-86.448
X47.6Y-98.548
X47.6Y-110.748
X47.6Y-122.848
X47.6Y-134.948
X47.6Y-147.048
X47.6Y-159.148
X47.6Y-171.348
X47.6Y-183.448
X47.6Y-195.548
X48.4Y-13.7
X48.4Y-25.848
X48.4Y-37.948
X48.4Y-50.048
X48.4Y-62.248
X48.4Y-74.348
X48.4Y-86.448
X48.4Y-98.548
X48.4Y-110.748
X48.4Y-122.848
X48.4Y-134.948
X48.4Y-147.048
X48.4Y-159.148
X48.4Y-171.348
X48.4Y-183.448
X48.4Y-195.548
X49.2Y-13.7
X49.2Y-25.848
X49.2Y-37.948
X49.2Y-50.048
X49.2Y-62.248
X49.2Y-74.348
X49.2Y-86.448
X49.2Y-98.548
X49.2Y-110.748
X49.2Y-122.848
X49.2Y-134.948
X49.2Y-147.048
X49.2Y-159.148
X49.2Y-171.348
X49.2Y-183.448
X49.2Y-195.548
X49.4Y-6.1
X49.4Y-18.248
X49.4Y-30.348
X49.4Y-42.448
X49.4Y-54.648
X49.4Y-66.748
X49.4Y-78.848
X49.4Y-90.948
X49.4Y-103.148
X49.4Y-115.248
X49.4Y-127.348
X49.4Y-139.448
X49.4Y-151.548
X49.4Y-163.748
X49.4Y-175.848
X49.4Y-187.948
X49.876Y-13.176
X49.876Y-25.324
X49.876Y-37.424
X49.876Y-49.524
X49.876Y-61.724
X49.876Y-73.824
X49.876Y-85.924
X49.876Y-98.024
X49.876Y-110.224
X49.876Y-122.324
X49.876Y-134.424
X49.876Y-146.524
X49.876Y-158.624
X49.876Y-170.824
X49.876Y-182.924
X49.876Y-195.024
X50.933Y-15.001
X50.933Y-27.149
X50.933Y-39.249
X50.933Y-51.349
X50.933Y-63.549
X50.933Y-75.649
X50.933Y-87.749
X50.933Y-99.849
X50.933Y-112.049
X50.933Y-124.149
X50.933Y-136.249
X50.933Y-148.349
X50.933Y-160.449
X50.933Y-172.649
X50.933Y-184.749
X50.933Y-196.849
X52.0Y-200.0
X52.0Y-200.7
X52.7Y-200.0
X52.7Y-200.7
X53.4Y-200.0
X53.4Y-200.7
X54.0Y-4.6
X54.0Y-16.748
X54.0Y-28.848
X54.0Y-40.948
X54.0Y-53.148
X54.0Y-65.248
X54.0Y-77.348
X54.0Y-89.448
X54.0Y-101.648
X54.0Y-113.748
X54.0Y-125.848
X54.0Y-137.948
X54.0Y-150.048
X54.0Y-162.248
X54.0Y-174.348
X54.0Y-186.448
X55.3Y-12.1
X55.3Y-24.248
X55.3Y-36.348
X55.3Y-48.448
X55.3Y-60.648
X55.3Y-72.748
X55.3Y-84.848
X55.3Y-96.948
X55.3Y-109.148
X55.3Y-121.248
X55.3Y-133.348
X55.3Y-145.448
X55.3Y-157.548
X55.3Y-169.748
X55.3Y-181.848
X55.3Y-193.948
X59.9Y-14.377
X59.9Y-26.525
X59.9Y-38.625
X59.9Y-50.725
X59.9Y-62.925
X59.9Y-75.025
X59.9Y-87.125
X59.9Y-99.225
X59.9Y-111.425
X59.9Y-123.525
X59.9Y-135.625
X59.9Y-147.725
X59.9Y-159.825
X59.9Y-172.025
X59.9Y-184.125
X59.9Y-196.225
X61.2Y-12.1
X61.2Y-24.248
X61.2Y-36.348
X61.2Y-48.448
X61.2Y-60.648
X61.2Y-72.748
X61.2Y-84.848
X61.2Y-96.948
X61.2Y-109.148
X61.2Y-121.248
X61.2Y-133.348
X61.2Y-145.448
X61.2Y-157.548
X61.2Y-169.748
X61.2Y-181.848
X61.2Y-193.948
X61.8Y-5.3
X61.8Y-17.448
X61.8Y-29.548
X61.8Y-41.648
X61.8Y-53.848
X61.8Y-65.948
X61.8Y-78.048
X61.8Y-90.148
X61.8Y-102.348
X61.8Y-114.448
X61.8Y-126.548
X61.8Y-138.648
X61.8Y-150.748
X61.8Y-162.948
X61.8Y-175.048
X61.8Y-187.148
X62.5Y-4.7
X62.5Y-16.848
X62.5Y-28.948
X62.5Y-41.048
X62.5Y-53.248
X62.5Y-65.348
X62.5Y-77.448
X62.5Y-89.548
X62.5Y-101.748
X62.5Y-113.848
X62.5Y-125.948
X62.5Y-138.048
X62.5Y-150.148
X62.5Y-162.348
X62.5Y-174.448
X62.5Y-186.548
X62.6Y-13.9
X62.6Y-26.048
X62.6Y-38.148
X62.6Y-50.248
X62.6Y-62.448
X62.6Y-74.548
X62.6Y-86.648
X62.6Y-98.748
X62.6Y-110.948
X62.6Y-123.048
X62.6Y-135.148
X62.6Y-147.248
X62.6Y-159.348
X62.6Y-171.548
X62.6Y-183.648
X62.6Y-195.748
X65.3Y9.4
X65.4Y6.0
X65.5Y2.5
X65.997Y-2.105
X66.0Y-10.0
X66.0Y-22.148
X66.0Y-34.248
X66.0Y-46.348
X66.0Y-58.548
X66.0Y-70.648
X66.0Y-82.748
X66.0Y-94.848
X66.0Y-107.048
X66.0Y-119.148
X66.0Y-131.248
X66.0Y-143.348
X66.0Y-155.448
X66.0Y-167.648
X66.0Y-179.748
X66.0Y-191.848
X66.026Y-14.269
X66.026Y-26.369
X66.026Y-38.469
X66.026Y-50.669
X66.026Y-62.769
X66.026Y-74.869
X66.026Y-86.969
X66.026Y-99.169
X66.026Y-111.269
X66.026Y-123.369
X66.026Y-135.469
X66.026Y-147.569
X66.026Y-159.769
X66.026Y-171.869
X66.026Y-183.969
X66.1Y-199.6
X66.9Y-10.0
X66.9Y-22.148
X66.9Y-34.248
X66.9Y-46.348
X66.9Y-58.548
X66.9Y-70.648
X66.9Y-82.748
X66.9Y-94.848
X66.9Y-107.048
X66.9Y-119.148
X66.9Y-131.248
X66.9Y-143.348
X66.9Y-155.448
X66.9Y-167.648
X66.9Y-179.748
X66.9Y-191.848
X67.1Y-12.1
X67.1Y-24.248
X67.1Y-36.348
X67.1Y-48.448
X67.1Y-60.648
X67.1Y-72.748
X67.1Y-84.848
X67.1Y-96.948
X67.1Y-109.148
X67.1Y-121.248
X67.1Y-133.348
X67.1Y-145.448
X67.1Y-157.548
X67.1Y-169.748
X67.1Y-181.848
X67.1Y-193.948
X67.2Y-2.1
X67.226Y-14.269
X67.226Y-26.369
X67.226Y-38.469
X67.226Y-50.669
X67.226Y-62.769
X67.226Y-74.869
X67.226Y-86.969
X67.226Y-99.169
X67.226Y-111.269
X67.226Y-123.369
X67.226Y-135.469
X67.226Y-147.569
X67.226Y-159.769
X67.226Y-171.869
X67.226Y-183.969
X67.7Y-10.0
X67.7Y-22.148
X67.7Y-34.248
X67.7Y-46.348
X67.7Y-58.548
X67.7Y-70.648
X67.7Y-82.748
X67.7Y-94.848
X67.7Y-107.048
X67.7Y-119.148
X67.7Y-131.248
X67.7Y-143.348
X67.7Y-155.448
X67.7Y-167.648
X67.7Y-179.748
X67.7Y-191.848
X68.2Y9.3
X68.2Y5.9
X68.2Y2.4
X68.5Y-10.0
X68.5Y-22.148
X68.5Y-34.248
X68.5Y-46.348
X68.5Y-58.548
X68.5Y-70.648
X68.5Y-82.748
X68.5Y-94.848
X68.5Y-107.048
X68.5Y-119.148
X68.5Y-131.248
X68.5Y-143.348
X68.5Y-155.448
X68.5Y-167.648
X68.5Y-179.748
X68.5Y-191.848
X70.7Y13.4
X71.6Y-217.4
X71.6Y-220.8
X72.3Y-213.3
X72.3Y-214.6
X72.4Y-198.9
X72.8Y-3.5
X72.8Y-15.648
X72.8Y-27.748
X72.8Y-39.848
X72.8Y-52.048
X72.8Y-64.148
X72.8Y-76.248
X72.8Y-88.348
X72.8Y-100.548
X72.8Y-112.648
X72.8Y-124.748
X72.8Y-136.848
X72.8Y-148.948
X72.8Y-161.148
X72.8Y-173.248
X72.8Y-185.348
X73.0Y-6.3
X73.0Y-12.1
X73.0Y-18.448
X73.0Y-24.248
X73.0Y-30.548
X73.0Y-36.348
X73.0Y-42.648
X73.0Y-48.448
X73.0Y-54.848
X73.0Y-60.648
X73.0Y-66.948
X73.0Y-72.748
X73.0Y-79.048
X73.0Y-84.848
X73.0Y-91.148
X73.0Y-96.948
X73.0Y-103.348
X73.0Y-109.148
X73.0Y-115.448
X73.0Y-121.248
X73.0Y-127.548
X73.0Y-133.348
X73.0Y-139.648
X73.0Y-145.448
X73.0Y-151.748
X73.0Y-157.548
X73.0Y-163.948
X73.0Y-169.748
X73.0Y-176.048
X73.0Y-181.848
X73.0Y-188.148
X73.0Y-193.948
X73.2Y-217.4
X73.2Y-221.1
X73.8Y-208.4
X73.9Y-201.8
X74.3Y22.2
X74.4Y-223.4
X74.6Y17.0
X74.6Y-205.8
X76.5Y-3.5
X76.5Y-15.648
X76.5Y-27.748
X76.5Y-39.848
X76.5Y-52.048
X76.5Y-64.148
X76.5Y-76.248
X76.5Y-88.348
X76.5Y-100.548
X76.5Y-112.648
X76.5Y-124.748
X76.5Y-136.848
X76.5Y-148.948
X76.5Y-161.148
X76.5Y-173.248
X76.5Y-185.348
X77.8Y11.4
X77.8Y10.6
X78.0Y13.8
X78.5Y22.2
X78.7Y17.0
X78.861Y-6.061
X78.861Y-18.209
X78.861Y-30.309
X78.861Y-42.409
X78.861Y-54.609
X78.861Y-66.709
X78.861Y-78.809
X78.861Y-90.909
X78.861Y-103.109
X78.861Y-115.209
X78.861Y-127.309
X78.861Y-139.409
X78.861Y-151.509
X78.861Y-163.709
X78.861Y-175.809
X78.861Y-187.909
X78.9Y-12.1
X78.9Y-24.248
X78.9Y-36.348
X78.9Y-48.448
X78.9Y-60.648
X78.9Y-72.748
X78.9Y-84.848
X78.9Y-96.948
X78.9Y-109.148
X78.9Y-121.248
X78.9Y-133.348
X78.9Y-145.448
X78.9Y-157.548
X78.9Y-169.748
X78.9Y-181.848
X78.9Y-193.948
X80.1Y-201.8
X80.7Y-207.9
X81.2Y-202.4
X82.0Y11.8
X82.5Y-202.4
X82.6Y22.1
X82.7Y16.9
X83.4Y-204.0
X83.5Y-214.3
X83.5Y-215.7
X83.5Y-217.1
X83.6Y-207.7
X83.7Y-201.8
X84.5Y-204.0
X84.5Y-213.3
X84.5Y-218.2
X84.7Y-12.1
X84.7Y-24.248
X84.7Y-36.348
X84.7Y-48.448
X84.7Y-60.648
X84.7Y-72.748
X84.7Y-84.848
X84.7Y-96.948
X84.7Y-109.148
X84.7Y-121.248
X84.7Y-133.348
X84.7Y-145.448
X84.7Y-157.548
X84.7Y-169.748
X84.7Y-181.848
X84.7Y-193.948
X84.761Y-6.061
X84.761Y-18.209
X84.761Y-30.309
X84.761Y-42.409
X84.761Y-54.609
X84.761Y-66.709
X84.761Y-78.809
X84.761Y-90.909
X84.761Y-103.109
X84.761Y-115.209
X84.761Y-127.309
X84.761Y-139.409
X84.761Y-151.509
X84.761Y-163.709
X84.761Y-175.809
X84.761Y-187.909
X85.8Y14.4
X85.8Y12.9
X85.9Y-213.3
X85.9Y-218.2
X86.8Y-213.3
X87.1Y-202.1
X87.3Y-218.2
X87.5Y17.5
X87.5Y15.9
X87.7Y11.4
X88.0Y-199.3
X88.3Y-215.7
X88.3Y-217.1
X88.5Y11.4
X88.6Y10.2
X88.899Y-213.001
X89.8Y13.9
X90.6Y-12.1
X90.6Y-24.248
X90.6Y-36.348
X90.6Y-48.448
X90.6Y-60.648
X90.6Y-72.748
X90.6Y-84.848
X90.6Y-96.948
X90.6Y-109.148
X90.6Y-121.248
X90.6Y-133.348
X90.6Y-145.448
X90.6Y-157.548
X90.6Y-169.748
X90.6Y-181.848
X90.6Y-193.948
X90.639Y-6.061
X90.639Y-18.209
X90.639Y-30.309
X90.639Y-42.409
X90.639Y-54.609
X90.639Y-66.709
X90.639Y-78.809
X90.639Y-90.909
X90.639Y-103.109
X90.639Y-115.209
X90.639Y-127.309
X90.639Y-139.409
X90.639Y-151.509
X90.639Y-163.709
X90.639Y-175.809
X90.639Y-187.909
X90.9Y2.6
X90.9Y1.9
X90.9Y1.2
X91.2Y14.8
X91.5Y-208.7
X91.5Y-211.9
X91.5Y-215.1
X91.6Y2.6
X91.6Y1.9
X91.6Y1.2
X91.7Y18.4
X92.2Y22.0
X92.3Y2.6
X92.3Y1.9
X92.3Y1.2
X93.2Y9.8
X93.3Y18.4
X93.3Y11.3
X93.5Y10.6
X94.0Y11.1
X94.3Y15.2
X94.4Y12.0
X94.6Y-224.2
X94.9Y-220.912
X95.2Y-202.2
X95.6Y-203.0
X95.6Y-222.2
X96.1Y9.7
X96.2Y12.8
X96.225Y14.3
X96.3Y-223.4
X96.4Y-217.1
X96.4Y-218.4
X96.4Y-219.6
X96.5Y-12.1
X96.5Y-24.248
X96.5Y-36.348
X96.5Y-48.448
X96.5Y-60.648
X96.5Y-72.748
X96.5Y-84.848
X96.5Y-96.948
X96.5Y-109.148
X96.5Y-121.248
X96.5Y-133.348
X96.5Y-145.448
X96.5Y-157.548
X96.5Y-169.748
X96.5Y-181.848
X96.5Y-193.948
X96.561Y-6.061
X96.561Y-18.209
X96.561Y-30.309
X96.561Y-42.409
X96.561Y-54.609
X96.561Y-66.709
X96.561Y-78.809
X96.561Y-90.909
X96.561Y-103.109
X96.561Y-115.209
X96.561Y-127.309
X96.561Y-139.409
X96.561Y-151.509
X96.561Y-163.709
X96.561Y-175.809
X96.561Y-187.909
X97.9Y21.9
X97.9Y17.3
X97.9Y2.1
X98.1Y5.6
X98.2Y-214.1
X98.4Y8.5
T3
X12.61Y-219.517
X18.39Y-219.517
T4
X2.5Y-209.88
X2.5Y-212.42
X2.5Y-214.96
X2.5Y-217.5
X2.5Y-220.04
X2.5Y-222.58
T5
X2.615Y-201.65
X7.615Y-201.65
X12.615Y-201.65
X17.615Y-201.65
X22.615Y-201.65
X27.615Y-201.65
T6
X37.0Y18.0
X37.0Y-218.0
X63.0Y18.0
X63.0Y-218.0
T2
G00X11.18Y-218.538
M15
G01X11.18Y-219.437
M16
G05
G00X11.18Y-222.898
M15
G01X11.18Y-223.497
M16
G05
G00X19.82Y-218.537
M15
G01X19.82Y-219.438
M16
G05
G00X19.82Y-222.898
M15
G01X19.82Y-223.497
M16
G05
M30
