%TF.GenerationSoftware,KiCad,Pcbnew,9.0.1*%
%TF.CreationDate,2026-02-18T14:45:31-07:00*%
%TF.ProjectId,hologram v3,686f6c6f-6772-4616-9d20-76332e6b6963,rev?*%
%TF.SameCoordinates,Original*%
%TF.FileFunction,Copper,L5,Inr*%
%TF.FilePolarity,Positive*%
%FSLAX46Y46*%
G04 Gerber Fmt 4.6, Leading zero omitted, Abs format (unit mm)*
G04 Created by KiCad (PCBNEW 9.0.1) date 2026-02-18 14:45:31*
%MOMM*%
%LPD*%
G01*
G04 APERTURE LIST*
%TA.AperFunction,ComponentPad*%
%ADD10C,10.000000*%
%TD*%
%TA.AperFunction,ComponentPad*%
%ADD11R,1.700000X1.700000*%
%TD*%
%TA.AperFunction,ComponentPad*%
%ADD12C,1.700000*%
%TD*%
%TA.AperFunction,ComponentPad*%
%ADD13C,0.700000*%
%TD*%
%TA.AperFunction,ComponentPad*%
%ADD14O,1.100000X2.000000*%
%TD*%
%TA.AperFunction,ComponentPad*%
%ADD15O,1.200000X1.800000*%
%TD*%
%TA.AperFunction,ComponentPad*%
%ADD16C,2.200000*%
%TD*%
%TA.AperFunction,ViaPad*%
%ADD17C,0.600000*%
%TD*%
%TA.AperFunction,Conductor*%
%ADD18C,0.200000*%
%TD*%
G04 APERTURE END LIST*
D10*
%TO.N,N/C*%
%TO.C,H3*%
X37000000Y-218000000D03*
%TD*%
%TO.N,N/C*%
%TO.C,H4*%
X63000000Y-218000000D03*
%TD*%
%TO.N,N/C*%
%TO.C,H2*%
X63000000Y18000000D03*
%TD*%
D11*
%TO.N,NOT_OE*%
%TO.C,J1*%
X2500000Y-209880000D03*
D12*
%TO.N,CLK*%
X2500000Y-212420000D03*
%TO.N,LE*%
X2500000Y-214960000D03*
%TO.N,GND*%
X2500000Y-217500000D03*
%TO.N,VDD*%
X2500000Y-220040000D03*
%TO.N,VCC*%
X2500000Y-222580000D03*
%TD*%
D13*
%TO.N,*%
%TO.C,U35*%
X12610000Y-219517500D03*
X18390000Y-219517500D03*
D14*
%TO.N,Net-(R33-Pad1)*%
X11180000Y-218987500D03*
D15*
X11180000Y-223197500D03*
D14*
X19820000Y-218987500D03*
D15*
X19820000Y-223197500D03*
%TD*%
D10*
%TO.N,N/C*%
%TO.C,H1*%
X37000000Y18000000D03*
%TD*%
D16*
%TO.N,Net-(J2-Pin_1)*%
%TO.C,J2*%
X27615000Y-201650000D03*
%TO.N,GND*%
X22615000Y-201650000D03*
%TO.N,Net-(J2-Pin_3)*%
X17615000Y-201650000D03*
%TO.N,ENC_Z*%
X12615000Y-201650000D03*
%TO.N,ENC_B*%
X7615000Y-201650000D03*
%TO.N,ENC_A*%
X2615000Y-201650000D03*
%TD*%
D17*
%TO.N,VCC*%
X87500000Y15900000D03*
X77800000Y11400000D03*
X87500000Y17500000D03*
X77800000Y10600000D03*
%TO.N,Net-(LED2-K)*%
X14200000Y-6100000D03*
%TO.N,Net-(LED1-K)*%
X8300000Y-6100000D03*
%TO.N,Net-(LED3-K)*%
X20060606Y-6060606D03*
%TO.N,Net-(LED4-K)*%
X25900000Y-6100000D03*
%TO.N,Net-(LED5-K)*%
X31800000Y-6100000D03*
%TO.N,Net-(LED6-K)*%
X37700000Y-6100000D03*
%TO.N,Net-(LED7-K)*%
X43600000Y-6100000D03*
%TO.N,Net-(LED8-K)*%
X49400000Y-6100000D03*
%TO.N,Net-(LED9-K)*%
X54000000Y-4600000D03*
%TO.N,Net-(LED10-K)*%
X61800000Y-5300000D03*
%TO.N,Net-(LED11-K)*%
X62500000Y-4700000D03*
%TO.N,Net-(LED12-K)*%
X73000000Y-6300000D03*
%TO.N,Net-(LED13-K)*%
X78860606Y-6060606D03*
%TO.N,Net-(LED14-K)*%
X84760606Y-6060606D03*
%TO.N,Net-(LED15-K)*%
X90639394Y-6060606D03*
%TO.N,Net-(LED16-K)*%
X96560606Y-6060606D03*
%TO.N,Net-(LED17-K)*%
X8300000Y-12100000D03*
%TO.N,Net-(LED18-K)*%
X14100000Y-12100000D03*
%TO.N,Net-(LED19-K)*%
X20000000Y-12100000D03*
%TO.N,Net-(LED20-K)*%
X25900000Y-12100000D03*
%TO.N,Net-(LED21-K)*%
X31500000Y-13000000D03*
%TO.N,Net-(LED22-K)*%
X37300000Y-8100000D03*
%TO.N,Net-(LED23-K)*%
X42200000Y-10500000D03*
X38175735Y-8124265D03*
%TO.N,Net-(LED24-K)*%
X49875735Y-13175735D03*
X40000000Y-9400000D03*
%TO.N,Net-(LED25-K)*%
X55300000Y-12100000D03*
%TO.N,Net-(LED26-K)*%
X45939159Y-13736217D03*
X45900000Y-15400000D03*
X61200000Y-12100000D03*
%TO.N,Net-(LED27-K)*%
X46800000Y-15401000D03*
X67100000Y-12100000D03*
X46775734Y-13724263D03*
%TO.N,Net-(LED28-K)*%
X73000000Y-12100000D03*
X47600000Y-13700000D03*
X50933200Y-15001000D03*
%TO.N,Net-(LED29-K)*%
X78900000Y-12100000D03*
X59900000Y-14376735D03*
X48400000Y-13700000D03*
%TO.N,Net-(LED30-K)*%
X49200003Y-13700000D03*
X84700000Y-12100000D03*
X62600000Y-13900000D03*
%TO.N,Net-(LED31-K)*%
X90600000Y-12100000D03*
%TO.N,Net-(LED32-K)*%
X96500000Y-12100000D03*
%TO.N,Net-(LED33-K)*%
X8300000Y-18248217D03*
%TO.N,Net-(LED34-K)*%
X14200000Y-18248217D03*
%TO.N,Net-(LED35-K)*%
X20060606Y-18208823D03*
%TO.N,Net-(LED36-K)*%
X25900000Y-18248217D03*
%TO.N,Net-(LED37-K)*%
X31800000Y-18248217D03*
%TO.N,Net-(LED38-K)*%
X37700000Y-18248217D03*
%TO.N,Net-(LED39-K)*%
X43600000Y-18248217D03*
%TO.N,Net-(LED40-K)*%
X49400000Y-18248217D03*
%TO.N,Net-(LED41-K)*%
X54000000Y-16748217D03*
%TO.N,Net-(LED42-K)*%
X61800000Y-17448217D03*
%TO.N,Net-(LED43-K)*%
X62500000Y-16848217D03*
%TO.N,Net-(LED44-K)*%
X73000000Y-18448217D03*
%TO.N,Net-(LED45-K)*%
X78860606Y-18208823D03*
%TO.N,Net-(LED46-K)*%
X84760606Y-18208823D03*
%TO.N,Net-(LED47-K)*%
X90639394Y-18208823D03*
%TO.N,Net-(LED48-K)*%
X96560606Y-18208823D03*
%TO.N,Net-(LED49-K)*%
X8300000Y-24248217D03*
%TO.N,Net-(LED50-K)*%
X14100000Y-24248217D03*
%TO.N,Net-(LED51-K)*%
X20000000Y-24248217D03*
%TO.N,Net-(LED52-K)*%
X25900000Y-24248217D03*
%TO.N,Net-(LED53-K)*%
X31500000Y-25148217D03*
%TO.N,Net-(LED54-K)*%
X37300000Y-20248217D03*
%TO.N,Net-(LED55-K)*%
X42200000Y-22648217D03*
X38175735Y-20272482D03*
%TO.N,Net-(LED56-K)*%
X49875735Y-25323952D03*
X40000000Y-21548217D03*
%TO.N,Net-(LED57-K)*%
X55300000Y-24248217D03*
%TO.N,Net-(LED58-K)*%
X45900000Y-27548217D03*
X61200000Y-24248217D03*
X45939159Y-25884434D03*
%TO.N,Net-(LED59-K)*%
X46775734Y-25872480D03*
X67100000Y-24248217D03*
X46800000Y-27549217D03*
%TO.N,Net-(LED60-K)*%
X73000000Y-24248217D03*
X47600000Y-25848217D03*
X50933200Y-27149217D03*
%TO.N,Net-(LED61-K)*%
X59900000Y-26524952D03*
X48400000Y-25848217D03*
X78900000Y-24248217D03*
%TO.N,Net-(LED62-K)*%
X49200003Y-25848217D03*
X62600000Y-26048217D03*
X84700000Y-24248217D03*
%TO.N,Net-(LED63-K)*%
X90600000Y-24248217D03*
%TO.N,Net-(LED64-K)*%
X96500000Y-24248217D03*
%TO.N,Net-(LED65-K)*%
X8300000Y-30348217D03*
%TO.N,Net-(LED66-K)*%
X14200000Y-30348217D03*
%TO.N,Net-(LED67-K)*%
X20060606Y-30308823D03*
%TO.N,Net-(LED68-K)*%
X25900000Y-30348217D03*
%TO.N,Net-(LED69-K)*%
X31800000Y-30348217D03*
%TO.N,Net-(LED70-K)*%
X37700000Y-30348217D03*
%TO.N,Net-(LED71-K)*%
X43600000Y-30348217D03*
%TO.N,Net-(LED72-K)*%
X49400000Y-30348217D03*
%TO.N,Net-(LED73-K)*%
X54000000Y-28848217D03*
%TO.N,Net-(LED74-K)*%
X61800000Y-29548217D03*
%TO.N,Net-(LED75-K)*%
X62500000Y-28948217D03*
%TO.N,Net-(LED76-K)*%
X73000000Y-30548217D03*
%TO.N,Net-(LED77-K)*%
X78860606Y-30308823D03*
%TO.N,Net-(LED78-K)*%
X84760606Y-30308823D03*
%TO.N,Net-(LED79-K)*%
X90639394Y-30308823D03*
%TO.N,Net-(LED80-K)*%
X96560606Y-30308823D03*
%TO.N,Net-(LED81-K)*%
X8300000Y-36348217D03*
%TO.N,Net-(LED82-K)*%
X14100000Y-36348217D03*
%TO.N,Net-(LED83-K)*%
X20000000Y-36348217D03*
%TO.N,Net-(LED84-K)*%
X25900000Y-36348217D03*
%TO.N,Net-(LED85-K)*%
X31500000Y-37248217D03*
%TO.N,Net-(LED86-K)*%
X37300000Y-32348217D03*
%TO.N,Net-(LED87-K)*%
X38175735Y-32372482D03*
X42200000Y-34748217D03*
%TO.N,Net-(LED88-K)*%
X40000000Y-33648217D03*
X49875735Y-37423952D03*
%TO.N,Net-(LED89-K)*%
X55300000Y-36348217D03*
%TO.N,Net-(LED90-K)*%
X45939159Y-37984434D03*
X61200000Y-36348217D03*
X45900000Y-39648217D03*
%TO.N,Net-(LED91-K)*%
X46800000Y-39649217D03*
X67100000Y-36348217D03*
X46775734Y-37972480D03*
%TO.N,Net-(LED92-K)*%
X73000000Y-36348217D03*
X47600000Y-37948217D03*
X50933200Y-39249217D03*
%TO.N,Net-(LED93-K)*%
X59900000Y-38624952D03*
X48400000Y-37948217D03*
X78900000Y-36348217D03*
%TO.N,Net-(LED94-K)*%
X84700000Y-36348217D03*
X49200003Y-37948217D03*
X62600000Y-38148217D03*
%TO.N,Net-(LED95-K)*%
X90600000Y-36348217D03*
%TO.N,Net-(LED96-K)*%
X96500000Y-36348217D03*
%TO.N,Net-(LED97-K)*%
X8300000Y-42448217D03*
%TO.N,Net-(LED98-K)*%
X14200000Y-42448217D03*
%TO.N,Net-(LED99-K)*%
X20060606Y-42408823D03*
%TO.N,Net-(LED100-K)*%
X25900000Y-42448217D03*
%TO.N,Net-(LED101-K)*%
X31800000Y-42448217D03*
%TO.N,Net-(LED102-K)*%
X37700000Y-42448217D03*
%TO.N,Net-(LED103-K)*%
X43600000Y-42448217D03*
%TO.N,Net-(LED104-K)*%
X49400000Y-42448217D03*
%TO.N,Net-(LED105-K)*%
X54000000Y-40948217D03*
%TO.N,Net-(LED106-K)*%
X61800000Y-41648217D03*
%TO.N,Net-(LED107-K)*%
X62500000Y-41048217D03*
%TO.N,Net-(LED108-K)*%
X73000000Y-42648217D03*
%TO.N,Net-(LED109-K)*%
X78860606Y-42408823D03*
%TO.N,Net-(LED110-K)*%
X84760606Y-42408823D03*
%TO.N,Net-(LED111-K)*%
X90639394Y-42408823D03*
%TO.N,Net-(LED112-K)*%
X96560606Y-42408823D03*
%TO.N,Net-(LED113-K)*%
X8300000Y-48448217D03*
%TO.N,Net-(LED114-K)*%
X14100000Y-48448217D03*
%TO.N,Net-(LED115-K)*%
X20000000Y-48448217D03*
%TO.N,Net-(LED116-K)*%
X25900000Y-48448217D03*
%TO.N,Net-(LED117-K)*%
X31500000Y-49348217D03*
%TO.N,Net-(LED118-K)*%
X37300000Y-44448217D03*
%TO.N,Net-(LED119-K)*%
X38175735Y-44472482D03*
X42200000Y-46848217D03*
%TO.N,Net-(LED120-K)*%
X49875735Y-49523952D03*
X40000000Y-45748217D03*
%TO.N,Net-(LED121-K)*%
X55300000Y-48448217D03*
%TO.N,Net-(LED122-K)*%
X45939159Y-50084434D03*
X45900000Y-51748217D03*
X61200000Y-48448217D03*
%TO.N,Net-(LED123-K)*%
X46800000Y-51749217D03*
X46775734Y-50072480D03*
X67100000Y-48448217D03*
%TO.N,Net-(LED124-K)*%
X50933200Y-51349217D03*
X47600000Y-50048217D03*
X73000000Y-48448217D03*
%TO.N,Net-(LED125-K)*%
X78900000Y-48448217D03*
X59900000Y-50724952D03*
X48400000Y-50048217D03*
%TO.N,Net-(LED126-K)*%
X84700000Y-48448217D03*
X62600000Y-50248217D03*
X49200003Y-50048217D03*
%TO.N,Net-(LED127-K)*%
X90600000Y-48448217D03*
%TO.N,Net-(LED128-K)*%
X96500000Y-48448217D03*
%TO.N,Net-(LED129-K)*%
X8300000Y-54648217D03*
%TO.N,Net-(LED130-K)*%
X14200000Y-54648217D03*
%TO.N,Net-(LED131-K)*%
X20060606Y-54608823D03*
%TO.N,Net-(LED132-K)*%
X25900000Y-54648217D03*
%TO.N,Net-(LED133-K)*%
X31800000Y-54648217D03*
%TO.N,Net-(LED134-K)*%
X37700000Y-54648217D03*
%TO.N,Net-(LED135-K)*%
X43600000Y-54648217D03*
%TO.N,Net-(LED136-K)*%
X49400000Y-54648217D03*
%TO.N,Net-(LED137-K)*%
X54000000Y-53148217D03*
%TO.N,Net-(LED138-K)*%
X61800000Y-53848217D03*
%TO.N,Net-(LED139-K)*%
X62500000Y-53248217D03*
%TO.N,Net-(LED140-K)*%
X73000000Y-54848217D03*
%TO.N,Net-(LED141-K)*%
X78860606Y-54608823D03*
%TO.N,Net-(LED142-K)*%
X84760606Y-54608823D03*
%TO.N,Net-(LED143-K)*%
X90639394Y-54608823D03*
%TO.N,Net-(LED144-K)*%
X96560606Y-54608823D03*
%TO.N,Net-(LED145-K)*%
X8300000Y-60648217D03*
%TO.N,Net-(LED146-K)*%
X14100000Y-60648217D03*
%TO.N,Net-(LED147-K)*%
X20000000Y-60648217D03*
%TO.N,Net-(LED148-K)*%
X25900000Y-60648217D03*
%TO.N,Net-(LED149-K)*%
X31500000Y-61548217D03*
%TO.N,Net-(LED150-K)*%
X37300000Y-56648217D03*
%TO.N,Net-(LED151-K)*%
X42200000Y-59048217D03*
X38175735Y-56672482D03*
%TO.N,Net-(LED152-K)*%
X40000000Y-57948217D03*
X49875735Y-61723952D03*
%TO.N,Net-(LED153-K)*%
X55300000Y-60648217D03*
%TO.N,Net-(LED154-K)*%
X45900000Y-63948217D03*
X61200000Y-60648217D03*
X45939159Y-62284434D03*
%TO.N,Net-(LED155-K)*%
X46775734Y-62272480D03*
X46800000Y-63949217D03*
X67100000Y-60648217D03*
%TO.N,Net-(LED156-K)*%
X50933200Y-63549217D03*
X47600000Y-62248217D03*
X73000000Y-60648217D03*
%TO.N,Net-(LED157-K)*%
X78900000Y-60648217D03*
X59900000Y-62924952D03*
X48400000Y-62248217D03*
%TO.N,Net-(LED158-K)*%
X84700000Y-60648217D03*
X49200003Y-62248217D03*
X62600000Y-62448217D03*
%TO.N,Net-(LED159-K)*%
X90600000Y-60648217D03*
%TO.N,Net-(LED160-K)*%
X96500000Y-60648217D03*
%TO.N,Net-(LED161-K)*%
X8300000Y-66748217D03*
%TO.N,Net-(LED162-K)*%
X14200000Y-66748217D03*
%TO.N,Net-(LED163-K)*%
X20060606Y-66708823D03*
%TO.N,Net-(LED164-K)*%
X25900000Y-66748217D03*
%TO.N,Net-(LED165-K)*%
X31800000Y-66748217D03*
%TO.N,Net-(LED166-K)*%
X37700000Y-66748217D03*
%TO.N,Net-(LED167-K)*%
X43600000Y-66748217D03*
%TO.N,Net-(LED168-K)*%
X49400000Y-66748217D03*
%TO.N,Net-(LED169-K)*%
X54000000Y-65248217D03*
%TO.N,Net-(LED170-K)*%
X61800000Y-65948217D03*
%TO.N,Net-(LED171-K)*%
X62500000Y-65348217D03*
%TO.N,Net-(LED172-K)*%
X73000000Y-66948217D03*
%TO.N,Net-(LED173-K)*%
X78860606Y-66708823D03*
%TO.N,Net-(LED174-K)*%
X84760606Y-66708823D03*
%TO.N,Net-(LED175-K)*%
X90639394Y-66708823D03*
%TO.N,Net-(LED176-K)*%
X96560606Y-66708823D03*
%TO.N,Net-(LED177-K)*%
X8300000Y-72748217D03*
%TO.N,Net-(LED178-K)*%
X14100000Y-72748217D03*
%TO.N,Net-(LED179-K)*%
X20000000Y-72748217D03*
%TO.N,Net-(LED180-K)*%
X25900000Y-72748217D03*
%TO.N,Net-(LED181-K)*%
X31500000Y-73648217D03*
%TO.N,Net-(LED182-K)*%
X37300000Y-68748217D03*
%TO.N,Net-(LED183-K)*%
X38175735Y-68772482D03*
X42200000Y-71148217D03*
%TO.N,Net-(LED184-K)*%
X49875735Y-73823952D03*
X40000000Y-70048217D03*
%TO.N,Net-(LED185-K)*%
X55300000Y-72748217D03*
%TO.N,Net-(LED186-K)*%
X61200000Y-72748217D03*
X45900000Y-76048217D03*
X45939159Y-74384434D03*
%TO.N,Net-(LED187-K)*%
X46800000Y-76049217D03*
X46775734Y-74372480D03*
X67100000Y-72748217D03*
%TO.N,Net-(LED188-K)*%
X73000000Y-72748217D03*
X47600000Y-74348217D03*
X50933200Y-75649217D03*
%TO.N,Net-(LED189-K)*%
X78900000Y-72748217D03*
X48400000Y-74348217D03*
X59900000Y-75024952D03*
%TO.N,Net-(LED190-K)*%
X49200003Y-74348217D03*
X62600000Y-74548217D03*
X84700000Y-72748217D03*
%TO.N,Net-(LED191-K)*%
X90600000Y-72748217D03*
%TO.N,Net-(LED192-K)*%
X96500000Y-72748217D03*
%TO.N,Net-(LED193-K)*%
X8300000Y-78848217D03*
%TO.N,Net-(LED194-K)*%
X14200000Y-78848217D03*
%TO.N,Net-(LED195-K)*%
X20060606Y-78808823D03*
%TO.N,Net-(LED196-K)*%
X25900000Y-78848217D03*
%TO.N,Net-(LED197-K)*%
X31800000Y-78848217D03*
%TO.N,Net-(LED198-K)*%
X37700000Y-78848217D03*
%TO.N,Net-(LED199-K)*%
X43600000Y-78848217D03*
%TO.N,Net-(LED200-K)*%
X49400000Y-78848217D03*
%TO.N,Net-(LED201-K)*%
X54000000Y-77348217D03*
%TO.N,Net-(LED202-K)*%
X61800000Y-78048217D03*
%TO.N,Net-(LED203-K)*%
X62500000Y-77448217D03*
%TO.N,Net-(LED204-K)*%
X73000000Y-79048217D03*
%TO.N,Net-(LED205-K)*%
X78860606Y-78808823D03*
%TO.N,Net-(LED206-K)*%
X84760606Y-78808823D03*
%TO.N,Net-(LED207-K)*%
X90639394Y-78808823D03*
%TO.N,Net-(LED208-K)*%
X96560606Y-78808823D03*
%TO.N,Net-(LED209-K)*%
X8300000Y-84848217D03*
%TO.N,Net-(LED210-K)*%
X14100000Y-84848217D03*
%TO.N,Net-(LED211-K)*%
X20000000Y-84848217D03*
%TO.N,Net-(LED212-K)*%
X25900000Y-84848217D03*
%TO.N,Net-(LED213-K)*%
X31500000Y-85748217D03*
%TO.N,Net-(LED214-K)*%
X37300000Y-80848217D03*
%TO.N,Net-(LED215-K)*%
X42200000Y-83248217D03*
X38175735Y-80872482D03*
%TO.N,Net-(LED216-K)*%
X49875735Y-85923952D03*
X40000000Y-82148217D03*
%TO.N,Net-(LED217-K)*%
X55300000Y-84848217D03*
%TO.N,Net-(LED218-K)*%
X45939159Y-86484434D03*
X45900000Y-88148217D03*
X61200000Y-84848217D03*
%TO.N,Net-(LED219-K)*%
X46775734Y-86472480D03*
X46800000Y-88149217D03*
X67100000Y-84848217D03*
%TO.N,Net-(LED220-K)*%
X73000000Y-84848217D03*
X47600000Y-86448217D03*
X50933200Y-87749217D03*
%TO.N,Net-(LED221-K)*%
X59900000Y-87124952D03*
X48400000Y-86448217D03*
X78900000Y-84848217D03*
%TO.N,Net-(LED222-K)*%
X62600000Y-86648217D03*
X49200003Y-86448217D03*
X84700000Y-84848217D03*
%TO.N,Net-(LED223-K)*%
X90600000Y-84848217D03*
%TO.N,Net-(LED224-K)*%
X96500000Y-84848217D03*
%TO.N,Net-(LED225-K)*%
X8300000Y-90948217D03*
%TO.N,Net-(LED226-K)*%
X14200000Y-90948217D03*
%TO.N,Net-(LED227-K)*%
X20060606Y-90908823D03*
%TO.N,Net-(LED228-K)*%
X25900000Y-90948217D03*
%TO.N,Net-(LED229-K)*%
X31800000Y-90948217D03*
%TO.N,Net-(LED230-K)*%
X37700000Y-90948217D03*
%TO.N,Net-(LED231-K)*%
X43600000Y-90948217D03*
%TO.N,Net-(LED232-K)*%
X49400000Y-90948217D03*
%TO.N,Net-(LED233-K)*%
X54000000Y-89448217D03*
%TO.N,Net-(LED234-K)*%
X61800000Y-90148217D03*
%TO.N,Net-(LED235-K)*%
X62500000Y-89548217D03*
%TO.N,Net-(LED236-K)*%
X73000000Y-91148217D03*
%TO.N,Net-(LED237-K)*%
X78860606Y-90908823D03*
%TO.N,Net-(LED238-K)*%
X84760606Y-90908823D03*
%TO.N,Net-(LED239-K)*%
X90639394Y-90908823D03*
%TO.N,Net-(LED240-K)*%
X96560606Y-90908823D03*
%TO.N,Net-(LED241-K)*%
X8300000Y-96948217D03*
%TO.N,Net-(LED242-K)*%
X14100000Y-96948217D03*
%TO.N,Net-(LED243-K)*%
X20000000Y-96948217D03*
%TO.N,Net-(LED244-K)*%
X25900000Y-96948217D03*
%TO.N,Net-(LED245-K)*%
X31500000Y-97848217D03*
%TO.N,Net-(LED246-K)*%
X37300000Y-92948217D03*
%TO.N,Net-(LED247-K)*%
X42200000Y-95348217D03*
X38175735Y-92972482D03*
%TO.N,Net-(LED248-K)*%
X40000000Y-94248217D03*
X49875735Y-98023952D03*
%TO.N,Net-(LED249-K)*%
X55300000Y-96948217D03*
%TO.N,Net-(LED250-K)*%
X61200000Y-96948217D03*
X45900000Y-100248217D03*
X45939159Y-98584434D03*
%TO.N,Net-(LED251-K)*%
X67100000Y-96948217D03*
X46775734Y-98572480D03*
X46800000Y-100249217D03*
%TO.N,Net-(LED252-K)*%
X73000000Y-96948217D03*
X50933200Y-99849217D03*
X47600000Y-98548217D03*
%TO.N,Net-(LED253-K)*%
X78900000Y-96948217D03*
X48400000Y-98548217D03*
X59900000Y-99224952D03*
%TO.N,Net-(LED254-K)*%
X49200003Y-98548217D03*
X84700000Y-96948217D03*
X62600000Y-98748217D03*
%TO.N,Net-(LED255-K)*%
X90600000Y-96948217D03*
%TO.N,Net-(LED256-K)*%
X96500000Y-96948217D03*
%TO.N,NOT_OE*%
X33500000Y-49748217D03*
X66026471Y-159769429D03*
X66026471Y-135469429D03*
X66026471Y-26369429D03*
X33500000Y-146748217D03*
X33500000Y-158848217D03*
X33500000Y-13400000D03*
X66026471Y-14269429D03*
X33500000Y-122548217D03*
X33500000Y-171048217D03*
X33500000Y-86148217D03*
X66026471Y-86969429D03*
X66026471Y-171869429D03*
X33500000Y-183148217D03*
X33500000Y-25548217D03*
X33500000Y-37648217D03*
X33500000Y-98248217D03*
X33500000Y-110448217D03*
X66026471Y-62769429D03*
X66026471Y-123369429D03*
X66026471Y-111269429D03*
X73200000Y-217400000D03*
X33500000Y-61948217D03*
X66026471Y-38469429D03*
X66026471Y-74869429D03*
X33500000Y-134648217D03*
X66026471Y-50669429D03*
X66026471Y-99169429D03*
X65996605Y-2104809D03*
X66026471Y-147569429D03*
X33500000Y-195248217D03*
X33500000Y-74048217D03*
X66026471Y-183969429D03*
%TO.N,CLK*%
X66900000Y-179748217D03*
X66900000Y-82748217D03*
X33124265Y-80872482D03*
X66900000Y-191848217D03*
X33124265Y-92972482D03*
X66900000Y-167648217D03*
X33124265Y-20272482D03*
X66900000Y-155448217D03*
X33124265Y-56672482D03*
X33124265Y-44472482D03*
X33124265Y-189972482D03*
X66900000Y-94848217D03*
X66900000Y-70648217D03*
X33124265Y-68772482D03*
X33124265Y-129372482D03*
X66900000Y-143348217D03*
X66900000Y-10000000D03*
X66900000Y-107048217D03*
X66900000Y-119148217D03*
X66900000Y-46348217D03*
X66900000Y-34248217D03*
X66900000Y-131248217D03*
X33124265Y-165772482D03*
X66900000Y-58548217D03*
X33124265Y-8124265D03*
X33124265Y-105172482D03*
X33124265Y-117272482D03*
X72300000Y-214600000D03*
X66900000Y-22148217D03*
X33124265Y-141472482D03*
X33124265Y-177872482D03*
X33124265Y-32372482D03*
X33124265Y-153572482D03*
%TO.N,VDD*%
X73200000Y-221100000D03*
X72800000Y-76248217D03*
X72800000Y-173248217D03*
X26900000Y-111948217D03*
X25800000Y5300000D03*
X72800000Y-27748217D03*
X96200000Y12800000D03*
X93300000Y18400000D03*
X72800000Y-148948217D03*
X72800000Y-161148217D03*
X11400000Y17400000D03*
X34400000Y-199600000D03*
X24100000Y6100000D03*
X72800000Y-15648217D03*
X72800000Y-112648217D03*
X25000000Y5300000D03*
X26900000Y-39148217D03*
X25800000Y6900000D03*
X8300000Y-219400000D03*
X72800000Y-136848217D03*
X26900000Y-172548217D03*
X89800000Y13900000D03*
X72800000Y-100548217D03*
X22400000Y11500000D03*
X26900000Y-124048217D03*
X25000000Y6900000D03*
X26900000Y-63448217D03*
X73900000Y-201800000D03*
X26900000Y-136148217D03*
X72800000Y-3500000D03*
X6100000Y-223700000D03*
X72800000Y-64148217D03*
X25000000Y6100000D03*
X72800000Y-88348217D03*
X72800000Y-39848217D03*
X24100000Y5300000D03*
X95600000Y-222200000D03*
X26900000Y-160348217D03*
X24100000Y6900000D03*
X26900000Y-184648217D03*
X26900000Y-51248217D03*
X26900000Y-14900000D03*
X72800000Y-52048217D03*
X8000000Y-212000000D03*
X26900000Y-87648217D03*
X26900000Y-27048217D03*
X26900000Y-75548217D03*
X26900000Y-148248217D03*
X72800000Y-124748217D03*
X25800000Y6100000D03*
X72800000Y-185348217D03*
X73800000Y-208400000D03*
X26900000Y-99748217D03*
%TO.N,LE*%
X34000000Y-56648217D03*
X34000000Y-80848217D03*
X34000000Y-189948217D03*
X66000000Y-167648217D03*
X34000000Y-32348217D03*
X34000000Y-68748217D03*
X34000000Y-129348217D03*
X66000000Y-82748217D03*
X66000000Y-58548217D03*
X34000000Y-117248217D03*
X66000000Y-179748217D03*
X66000000Y-22148217D03*
X66000000Y-70648217D03*
X66000000Y-34248217D03*
X66000000Y-10000000D03*
X66000000Y-143348217D03*
X34000000Y-92948217D03*
X66000000Y-94848217D03*
X34000000Y-20248217D03*
X66000000Y-107048217D03*
X66000000Y-46348217D03*
X34000000Y-141448217D03*
X34000000Y-153548217D03*
X66000000Y-131248217D03*
X71600000Y-217400000D03*
X34000000Y-165748217D03*
X66000000Y-155448217D03*
X34000000Y-177848217D03*
X34000000Y-8100000D03*
X34000000Y-44448217D03*
X66000000Y-191848217D03*
X66000000Y-119148217D03*
X34000000Y-105148217D03*
%TO.N,SDO-01*%
X67200000Y-2100000D03*
X32300000Y-8100000D03*
%TO.N,Net-(LED257-K)*%
X8300000Y-103148217D03*
%TO.N,Net-(LED258-K)*%
X14200000Y-103148217D03*
%TO.N,Net-(LED259-K)*%
X20060606Y-103108823D03*
%TO.N,Net-(LED260-K)*%
X25900000Y-103148217D03*
%TO.N,Net-(LED261-K)*%
X31800000Y-103148217D03*
%TO.N,Net-(LED262-K)*%
X37700000Y-103148217D03*
%TO.N,Net-(LED263-K)*%
X43600000Y-103148217D03*
%TO.N,Net-(LED264-K)*%
X49400000Y-103148217D03*
%TO.N,Net-(LED265-K)*%
X54000000Y-101648217D03*
%TO.N,Net-(LED266-K)*%
X61800000Y-102348217D03*
%TO.N,Net-(LED267-K)*%
X62500000Y-101748217D03*
%TO.N,Net-(LED268-K)*%
X73000000Y-103348217D03*
%TO.N,Net-(LED269-K)*%
X78860606Y-103108823D03*
%TO.N,Net-(LED270-K)*%
X84760606Y-103108823D03*
%TO.N,Net-(LED271-K)*%
X90639394Y-103108823D03*
%TO.N,Net-(LED272-K)*%
X96560606Y-103108823D03*
%TO.N,Net-(LED273-K)*%
X8300000Y-109148217D03*
%TO.N,Net-(LED274-K)*%
X14100000Y-109148217D03*
%TO.N,Net-(LED275-K)*%
X20000000Y-109148217D03*
%TO.N,Net-(LED276-K)*%
X25900000Y-109148217D03*
%TO.N,Net-(LED277-K)*%
X31500000Y-110048217D03*
%TO.N,Net-(LED278-K)*%
X37300000Y-105148217D03*
%TO.N,Net-(LED279-K)*%
X38175735Y-105172482D03*
X42200000Y-107548217D03*
%TO.N,Net-(LED280-K)*%
X40000000Y-106448217D03*
X49875735Y-110223952D03*
%TO.N,Net-(LED281-K)*%
X55300000Y-109148217D03*
%TO.N,Net-(LED282-K)*%
X45939159Y-110784434D03*
X61200000Y-109148217D03*
X45900000Y-112448217D03*
%TO.N,Net-(LED283-K)*%
X46775734Y-110772480D03*
X67100000Y-109148217D03*
X46800000Y-112449217D03*
%TO.N,Net-(LED284-K)*%
X50933200Y-112049217D03*
X47600000Y-110748217D03*
X73000000Y-109148217D03*
%TO.N,Net-(LED285-K)*%
X78900000Y-109148217D03*
X48400000Y-110748217D03*
X59900000Y-111424952D03*
%TO.N,Net-(LED286-K)*%
X62600000Y-110948217D03*
X49200003Y-110748217D03*
X84700000Y-109148217D03*
%TO.N,Net-(LED287-K)*%
X90600000Y-109148217D03*
%TO.N,Net-(LED288-K)*%
X96500000Y-109148217D03*
%TO.N,Net-(LED289-K)*%
X8300000Y-115248217D03*
%TO.N,Net-(LED290-K)*%
X14200000Y-115248217D03*
%TO.N,Net-(LED291-K)*%
X20060606Y-115208823D03*
%TO.N,Net-(LED292-K)*%
X25900000Y-115248217D03*
%TO.N,Net-(LED293-K)*%
X31800000Y-115248217D03*
%TO.N,Net-(LED294-K)*%
X37700000Y-115248217D03*
%TO.N,Net-(LED295-K)*%
X43600000Y-115248217D03*
%TO.N,Net-(LED296-K)*%
X49400000Y-115248217D03*
%TO.N,Net-(LED297-K)*%
X54000000Y-113748217D03*
%TO.N,Net-(LED298-K)*%
X61800000Y-114448217D03*
%TO.N,Net-(LED299-K)*%
X62500000Y-113848217D03*
%TO.N,Net-(LED300-K)*%
X73000000Y-115448217D03*
%TO.N,Net-(LED301-K)*%
X78860606Y-115208823D03*
%TO.N,Net-(LED302-K)*%
X84760606Y-115208823D03*
%TO.N,Net-(LED303-K)*%
X90639394Y-115208823D03*
%TO.N,Net-(LED304-K)*%
X96560606Y-115208823D03*
%TO.N,Net-(LED305-K)*%
X8300000Y-121248217D03*
%TO.N,Net-(LED306-K)*%
X14100000Y-121248217D03*
%TO.N,Net-(LED307-K)*%
X20000000Y-121248217D03*
%TO.N,Net-(LED308-K)*%
X25900000Y-121248217D03*
%TO.N,Net-(LED309-K)*%
X31500000Y-122148217D03*
%TO.N,Net-(LED310-K)*%
X37300000Y-117248217D03*
%TO.N,Net-(LED311-K)*%
X38175735Y-117272482D03*
X42200000Y-119648217D03*
%TO.N,Net-(LED312-K)*%
X40000000Y-118548217D03*
X49875735Y-122323952D03*
%TO.N,Net-(LED313-K)*%
X55300000Y-121248217D03*
%TO.N,Net-(LED314-K)*%
X45939159Y-122884434D03*
X61200000Y-121248217D03*
X45900000Y-124548217D03*
%TO.N,Net-(LED315-K)*%
X67100000Y-121248217D03*
X46775734Y-122872480D03*
X46800000Y-124549217D03*
%TO.N,Net-(LED316-K)*%
X73000000Y-121248217D03*
X47600000Y-122848217D03*
X50933200Y-124149217D03*
%TO.N,Net-(LED317-K)*%
X78900000Y-121248217D03*
X48400000Y-122848217D03*
X59900000Y-123524952D03*
%TO.N,Net-(LED318-K)*%
X49200003Y-122848217D03*
X62600000Y-123048217D03*
X84700000Y-121248217D03*
%TO.N,Net-(LED319-K)*%
X90600000Y-121248217D03*
%TO.N,Net-(LED320-K)*%
X96500000Y-121248217D03*
%TO.N,Net-(LED321-K)*%
X8300000Y-127348217D03*
%TO.N,Net-(LED322-K)*%
X14200000Y-127348217D03*
%TO.N,Net-(LED323-K)*%
X20060606Y-127308823D03*
%TO.N,Net-(LED324-K)*%
X25900000Y-127348217D03*
%TO.N,Net-(LED325-K)*%
X31800000Y-127348217D03*
%TO.N,Net-(LED326-K)*%
X37700000Y-127348217D03*
%TO.N,Net-(LED327-K)*%
X43600000Y-127348217D03*
%TO.N,Net-(LED328-K)*%
X49400000Y-127348217D03*
%TO.N,Net-(LED329-K)*%
X54000000Y-125848217D03*
%TO.N,Net-(LED330-K)*%
X61800000Y-126548217D03*
%TO.N,Net-(LED331-K)*%
X62500000Y-125948217D03*
%TO.N,Net-(LED332-K)*%
X73000000Y-127548217D03*
%TO.N,Net-(LED333-K)*%
X78860606Y-127308823D03*
%TO.N,Net-(LED334-K)*%
X84760606Y-127308823D03*
%TO.N,Net-(LED335-K)*%
X90639394Y-127308823D03*
%TO.N,Net-(LED336-K)*%
X96560606Y-127308823D03*
%TO.N,Net-(LED337-K)*%
X8300000Y-133348217D03*
%TO.N,Net-(LED338-K)*%
X14100000Y-133348217D03*
%TO.N,Net-(LED339-K)*%
X20000000Y-133348217D03*
%TO.N,Net-(LED340-K)*%
X25900000Y-133348217D03*
%TO.N,Net-(LED341-K)*%
X31500000Y-134248217D03*
%TO.N,Net-(LED342-K)*%
X37300000Y-129348217D03*
%TO.N,Net-(LED343-K)*%
X38175735Y-129372482D03*
X42200000Y-131748217D03*
%TO.N,Net-(LED344-K)*%
X49875735Y-134423952D03*
X40000000Y-130648217D03*
%TO.N,Net-(LED345-K)*%
X55300000Y-133348217D03*
%TO.N,Net-(LED346-K)*%
X45900000Y-136648217D03*
X61200000Y-133348217D03*
X45939159Y-134984434D03*
%TO.N,Net-(LED347-K)*%
X67100000Y-133348217D03*
X46800000Y-136649217D03*
X46775734Y-134972480D03*
%TO.N,Net-(LED348-K)*%
X50933200Y-136249217D03*
X47600000Y-134948217D03*
X73000000Y-133348217D03*
%TO.N,Net-(LED349-K)*%
X78900000Y-133348217D03*
X59900000Y-135624952D03*
X48400000Y-134948217D03*
%TO.N,Net-(LED350-K)*%
X62600000Y-135148217D03*
X49200003Y-134948217D03*
X84700000Y-133348217D03*
%TO.N,Net-(LED351-K)*%
X90600000Y-133348217D03*
%TO.N,Net-(LED352-K)*%
X96500000Y-133348217D03*
%TO.N,Net-(LED353-K)*%
X8300000Y-139448217D03*
%TO.N,Net-(LED354-K)*%
X14200000Y-139448217D03*
%TO.N,Net-(LED355-K)*%
X20060606Y-139408823D03*
%TO.N,Net-(LED356-K)*%
X25900000Y-139448217D03*
%TO.N,Net-(LED357-K)*%
X31800000Y-139448217D03*
%TO.N,Net-(LED358-K)*%
X37700000Y-139448217D03*
%TO.N,Net-(LED359-K)*%
X43600000Y-139448217D03*
%TO.N,Net-(LED360-K)*%
X49400000Y-139448217D03*
%TO.N,Net-(LED361-K)*%
X54000000Y-137948217D03*
%TO.N,Net-(LED362-K)*%
X61800000Y-138648217D03*
%TO.N,Net-(LED363-K)*%
X62500000Y-138048217D03*
%TO.N,Net-(LED364-K)*%
X73000000Y-139648217D03*
%TO.N,Net-(LED365-K)*%
X78860606Y-139408823D03*
%TO.N,Net-(LED366-K)*%
X84760606Y-139408823D03*
%TO.N,Net-(LED367-K)*%
X90639394Y-139408823D03*
%TO.N,Net-(LED368-K)*%
X96560606Y-139408823D03*
%TO.N,Net-(LED369-K)*%
X8300000Y-145448217D03*
%TO.N,Net-(LED370-K)*%
X14100000Y-145448217D03*
%TO.N,Net-(LED371-K)*%
X20000000Y-145448217D03*
%TO.N,Net-(LED372-K)*%
X25900000Y-145448217D03*
%TO.N,Net-(LED373-K)*%
X31500000Y-146348217D03*
%TO.N,Net-(LED374-K)*%
X37300000Y-141448217D03*
%TO.N,Net-(LED375-K)*%
X42200000Y-143848217D03*
X38175735Y-141472482D03*
%TO.N,Net-(LED376-K)*%
X49875735Y-146523952D03*
X40000000Y-142748217D03*
%TO.N,Net-(LED377-K)*%
X55300000Y-145448217D03*
%TO.N,Net-(LED378-K)*%
X45900000Y-148748217D03*
X45939159Y-147084434D03*
X61200000Y-145448217D03*
%TO.N,Net-(LED379-K)*%
X46800000Y-148749217D03*
X46775734Y-147072480D03*
X67100000Y-145448217D03*
%TO.N,Net-(LED380-K)*%
X73000000Y-145448217D03*
X47600000Y-147048217D03*
X50933200Y-148349217D03*
%TO.N,Net-(LED381-K)*%
X59900000Y-147724952D03*
X48400000Y-147048217D03*
X78900000Y-145448217D03*
%TO.N,Net-(LED382-K)*%
X84700000Y-145448217D03*
X62600000Y-147248217D03*
X49200003Y-147048217D03*
%TO.N,Net-(LED383-K)*%
X90600000Y-145448217D03*
%TO.N,Net-(LED384-K)*%
X96500000Y-145448217D03*
%TO.N,Net-(LED385-K)*%
X8300000Y-151548217D03*
%TO.N,Net-(LED386-K)*%
X14200000Y-151548217D03*
%TO.N,Net-(LED387-K)*%
X20060606Y-151508823D03*
%TO.N,Net-(LED388-K)*%
X25900000Y-151548217D03*
%TO.N,Net-(LED389-K)*%
X31800000Y-151548217D03*
%TO.N,Net-(LED390-K)*%
X37700000Y-151548217D03*
%TO.N,Net-(LED391-K)*%
X43600000Y-151548217D03*
%TO.N,Net-(LED392-K)*%
X49400000Y-151548217D03*
%TO.N,Net-(LED393-K)*%
X54000000Y-150048217D03*
%TO.N,Net-(LED394-K)*%
X61800000Y-150748217D03*
%TO.N,Net-(LED395-K)*%
X62500000Y-150148217D03*
%TO.N,Net-(LED396-K)*%
X73000000Y-151748217D03*
%TO.N,Net-(LED397-K)*%
X78860606Y-151508823D03*
%TO.N,Net-(LED398-K)*%
X84760606Y-151508823D03*
%TO.N,Net-(LED399-K)*%
X90639394Y-151508823D03*
%TO.N,Net-(LED400-K)*%
X96560606Y-151508823D03*
%TO.N,Net-(LED401-K)*%
X8300000Y-157548217D03*
%TO.N,Net-(LED402-K)*%
X14100000Y-157548217D03*
%TO.N,Net-(LED403-K)*%
X20000000Y-157548217D03*
%TO.N,Net-(LED404-K)*%
X25900000Y-157548217D03*
%TO.N,Net-(LED405-K)*%
X31500000Y-158448217D03*
%TO.N,Net-(LED406-K)*%
X37300000Y-153548217D03*
%TO.N,Net-(LED407-K)*%
X38175735Y-153572482D03*
X42200000Y-155948217D03*
%TO.N,Net-(LED408-K)*%
X40000000Y-154848217D03*
X49875735Y-158623952D03*
%TO.N,Net-(LED409-K)*%
X55300000Y-157548217D03*
%TO.N,Net-(LED410-K)*%
X61200000Y-157548217D03*
X45939159Y-159184434D03*
X45900000Y-160848217D03*
%TO.N,Net-(LED411-K)*%
X46775734Y-159172480D03*
X67100000Y-157548217D03*
X46800000Y-160849217D03*
%TO.N,Net-(LED412-K)*%
X73000000Y-157548217D03*
X47600000Y-159148217D03*
X50933200Y-160449217D03*
%TO.N,Net-(LED413-K)*%
X78900000Y-157548217D03*
X48400000Y-159148217D03*
X59900000Y-159824952D03*
%TO.N,Net-(LED414-K)*%
X49200003Y-159148217D03*
X84700000Y-157548217D03*
X62600000Y-159348217D03*
%TO.N,Net-(LED415-K)*%
X90600000Y-157548217D03*
%TO.N,Net-(LED416-K)*%
X96500000Y-157548217D03*
%TO.N,Net-(LED417-K)*%
X8300000Y-163748217D03*
%TO.N,Net-(LED418-K)*%
X14200000Y-163748217D03*
%TO.N,Net-(LED419-K)*%
X20060606Y-163708823D03*
%TO.N,Net-(LED420-K)*%
X25900000Y-163748217D03*
%TO.N,Net-(LED421-K)*%
X31800000Y-163748217D03*
%TO.N,Net-(LED422-K)*%
X37700000Y-163748217D03*
%TO.N,Net-(LED423-K)*%
X43600000Y-163748217D03*
%TO.N,Net-(LED424-K)*%
X49400000Y-163748217D03*
%TO.N,Net-(LED425-K)*%
X54000000Y-162248217D03*
%TO.N,Net-(LED426-K)*%
X61800000Y-162948217D03*
%TO.N,Net-(LED427-K)*%
X62500000Y-162348217D03*
%TO.N,Net-(LED428-K)*%
X73000000Y-163948217D03*
%TO.N,Net-(LED429-K)*%
X78860606Y-163708823D03*
%TO.N,Net-(LED430-K)*%
X84760606Y-163708823D03*
%TO.N,Net-(LED431-K)*%
X90639394Y-163708823D03*
%TO.N,Net-(LED432-K)*%
X96560606Y-163708823D03*
%TO.N,Net-(LED433-K)*%
X8300000Y-169748217D03*
%TO.N,Net-(LED434-K)*%
X14100000Y-169748217D03*
%TO.N,Net-(LED435-K)*%
X20000000Y-169748217D03*
%TO.N,Net-(LED436-K)*%
X25900000Y-169748217D03*
%TO.N,Net-(LED437-K)*%
X31500000Y-170648217D03*
%TO.N,Net-(LED438-K)*%
X37300000Y-165748217D03*
%TO.N,Net-(LED439-K)*%
X42200000Y-168148217D03*
X38175735Y-165772482D03*
%TO.N,Net-(LED440-K)*%
X40000000Y-167048217D03*
X49875735Y-170823952D03*
%TO.N,Net-(LED441-K)*%
X55300000Y-169748217D03*
%TO.N,Net-(LED442-K)*%
X45900000Y-173048217D03*
X61200000Y-169748217D03*
X45939159Y-171384434D03*
%TO.N,Net-(LED443-K)*%
X46800000Y-173049217D03*
X67100000Y-169748217D03*
X46775734Y-171372480D03*
%TO.N,Net-(LED444-K)*%
X73000000Y-169748217D03*
X47600000Y-171348217D03*
X50933200Y-172649217D03*
%TO.N,Net-(LED445-K)*%
X48400000Y-171348217D03*
X78900000Y-169748217D03*
X59900000Y-172024952D03*
%TO.N,Net-(LED446-K)*%
X62600000Y-171548217D03*
X49200003Y-171348217D03*
X84700000Y-169748217D03*
%TO.N,Net-(LED447-K)*%
X90600000Y-169748217D03*
%TO.N,Net-(LED448-K)*%
X96500000Y-169748217D03*
%TO.N,Net-(LED449-K)*%
X8300000Y-175848217D03*
%TO.N,Net-(LED450-K)*%
X14200000Y-175848217D03*
%TO.N,Net-(LED451-K)*%
X20060606Y-175808823D03*
%TO.N,Net-(LED452-K)*%
X25900000Y-175848217D03*
%TO.N,Net-(LED453-K)*%
X31800000Y-175848217D03*
%TO.N,Net-(LED454-K)*%
X37700000Y-175848217D03*
%TO.N,Net-(LED455-K)*%
X43600000Y-175848217D03*
%TO.N,Net-(LED456-K)*%
X49400000Y-175848217D03*
%TO.N,Net-(LED457-K)*%
X54000000Y-174348217D03*
%TO.N,Net-(LED458-K)*%
X61800000Y-175048217D03*
%TO.N,Net-(LED459-K)*%
X62500000Y-174448217D03*
%TO.N,Net-(LED460-K)*%
X73000000Y-176048217D03*
%TO.N,Net-(LED461-K)*%
X78860606Y-175808823D03*
%TO.N,Net-(LED462-K)*%
X84760606Y-175808823D03*
%TO.N,Net-(LED463-K)*%
X90639394Y-175808823D03*
%TO.N,Net-(LED464-K)*%
X96560606Y-175808823D03*
%TO.N,Net-(LED465-K)*%
X8300000Y-181848217D03*
%TO.N,Net-(LED466-K)*%
X14100000Y-181848217D03*
%TO.N,Net-(LED467-K)*%
X20000000Y-181848217D03*
%TO.N,Net-(LED468-K)*%
X25900000Y-181848217D03*
%TO.N,Net-(LED469-K)*%
X31500000Y-182748217D03*
%TO.N,Net-(LED470-K)*%
X37300000Y-177848217D03*
%TO.N,Net-(LED471-K)*%
X38175735Y-177872482D03*
X42200000Y-180248217D03*
%TO.N,Net-(LED472-K)*%
X40000000Y-179148217D03*
X49875735Y-182923952D03*
%TO.N,Net-(LED473-K)*%
X55300000Y-181848217D03*
%TO.N,Net-(LED474-K)*%
X45939159Y-183484434D03*
X61200000Y-181848217D03*
X45900000Y-185148217D03*
%TO.N,Net-(LED475-K)*%
X46800000Y-185149217D03*
X46775734Y-183472480D03*
X67100000Y-181848217D03*
%TO.N,Net-(LED476-K)*%
X47600000Y-183448217D03*
X73000000Y-181848217D03*
X50933200Y-184749217D03*
%TO.N,Net-(LED477-K)*%
X59900000Y-184124952D03*
X48400000Y-183448217D03*
X78900000Y-181848217D03*
%TO.N,Net-(LED478-K)*%
X49200003Y-183448217D03*
X62600000Y-183648217D03*
X84700000Y-181848217D03*
%TO.N,Net-(LED479-K)*%
X90600000Y-181848217D03*
%TO.N,Net-(LED480-K)*%
X96500000Y-181848217D03*
%TO.N,Net-(LED481-K)*%
X8300000Y-187948217D03*
%TO.N,Net-(LED482-K)*%
X14200000Y-187948217D03*
%TO.N,Net-(LED483-K)*%
X20060606Y-187908823D03*
%TO.N,Net-(LED484-K)*%
X25900000Y-187948217D03*
%TO.N,Net-(LED485-K)*%
X31800000Y-187948217D03*
%TO.N,Net-(LED486-K)*%
X37700000Y-187948217D03*
%TO.N,Net-(LED487-K)*%
X43600000Y-187948217D03*
%TO.N,Net-(LED488-K)*%
X49400000Y-187948217D03*
%TO.N,Net-(LED489-K)*%
X54000000Y-186448217D03*
%TO.N,Net-(LED490-K)*%
X61800000Y-187148217D03*
%TO.N,Net-(LED491-K)*%
X62500000Y-186548217D03*
%TO.N,Net-(LED492-K)*%
X73000000Y-188148217D03*
%TO.N,Net-(LED493-K)*%
X78860606Y-187908823D03*
%TO.N,Net-(LED494-K)*%
X84760606Y-187908823D03*
%TO.N,Net-(LED495-K)*%
X90639394Y-187908823D03*
%TO.N,Net-(LED496-K)*%
X96560606Y-187908823D03*
%TO.N,Net-(LED497-K)*%
X8300000Y-193948217D03*
%TO.N,Net-(LED498-K)*%
X14100000Y-193948217D03*
%TO.N,Net-(LED499-K)*%
X20000000Y-193948217D03*
%TO.N,Net-(LED500-K)*%
X25900000Y-193948217D03*
%TO.N,Net-(LED501-K)*%
X31500000Y-194848217D03*
%TO.N,Net-(LED502-K)*%
X37300000Y-189948217D03*
%TO.N,Net-(LED503-K)*%
X38175735Y-189972482D03*
X42200000Y-192348217D03*
%TO.N,Net-(LED504-K)*%
X40000000Y-191248217D03*
X49875735Y-195023952D03*
%TO.N,Net-(LED505-K)*%
X55300000Y-193948217D03*
%TO.N,Net-(LED506-K)*%
X45939159Y-195584434D03*
X43100000Y-196848217D03*
X61200000Y-193948217D03*
%TO.N,Net-(LED507-K)*%
X67100000Y-193948217D03*
X46775734Y-195572480D03*
X43852786Y-197249217D03*
%TO.N,Net-(LED508-K)*%
X73000000Y-193948217D03*
X47600000Y-195548217D03*
X50933200Y-196849217D03*
%TO.N,Net-(LED509-K)*%
X59900000Y-196224952D03*
X78900000Y-193948217D03*
X48400000Y-195548217D03*
%TO.N,Net-(LED510-K)*%
X62600000Y-195748217D03*
X49200003Y-195548217D03*
X84700000Y-193948217D03*
%TO.N,Net-(LED511-K)*%
X90600000Y-193948217D03*
%TO.N,Net-(LED512-K)*%
X96500000Y-193948217D03*
%TO.N,SDO-02*%
X67700000Y-22148217D03*
X31000000Y-15600000D03*
%TO.N,SDO-03*%
X67226471Y-14269429D03*
X32300000Y-20248217D03*
%TO.N,SDO-04*%
X30600000Y-27748217D03*
X67700000Y-34248217D03*
%TO.N,SDO-05*%
X32300000Y-32348217D03*
X67226471Y-26369429D03*
%TO.N,SDO-06*%
X30600000Y-39848217D03*
X67700000Y-46348217D03*
%TO.N,SDO-07*%
X67226471Y-38469429D03*
X32300000Y-44448217D03*
%TO.N,SDO-08*%
X30600000Y-51948217D03*
X67700000Y-58548217D03*
%TO.N,SDO-09*%
X32300000Y-56648217D03*
X67226471Y-50669429D03*
%TO.N,SDO-10*%
X30600000Y-64148217D03*
X67700000Y-70648217D03*
%TO.N,SDO-11*%
X32300000Y-68748217D03*
X67226471Y-62769429D03*
%TO.N,SDO-12*%
X67700000Y-82748217D03*
X30600000Y-76248217D03*
%TO.N,SDO-13*%
X67226471Y-74869429D03*
X32300000Y-80848217D03*
%TO.N,SDO-14*%
X30600000Y-88348217D03*
X67700000Y-94848217D03*
%TO.N,SDO-15*%
X67226471Y-86969429D03*
X32300000Y-92948217D03*
%TO.N,SDO-16*%
X67700000Y-107048217D03*
X30600000Y-100448217D03*
%TO.N,SDO-17*%
X67226471Y-99169429D03*
X32300000Y-105148217D03*
%TO.N,SDO-18*%
X30600000Y-112648217D03*
X67700000Y-119148217D03*
%TO.N,SDO-19*%
X32300000Y-117248217D03*
X67226471Y-111269429D03*
%TO.N,SDO-20*%
X30600000Y-124748217D03*
X67700000Y-131248217D03*
%TO.N,SDO-21*%
X67226471Y-123369429D03*
X32300000Y-129348217D03*
%TO.N,SDO-22*%
X30600000Y-136848217D03*
X67700000Y-143348217D03*
%TO.N,SDO-23*%
X32300000Y-141448217D03*
X67226471Y-135469429D03*
%TO.N,SDO-24*%
X67700000Y-155448217D03*
X30600000Y-148948217D03*
%TO.N,SDO-25*%
X67226471Y-147569429D03*
X32300000Y-153548217D03*
%TO.N,SDO-26*%
X67700000Y-167648217D03*
X30600000Y-161048217D03*
%TO.N,SDO-27*%
X67226471Y-159769429D03*
X32300000Y-165748217D03*
%TO.N,SDO-28*%
X30600000Y-173248217D03*
X67700000Y-179748217D03*
%TO.N,SDO-29*%
X67226471Y-171869429D03*
X32300000Y-177848217D03*
%TO.N,SDO-30*%
X30600000Y-185348217D03*
X67700000Y-191848217D03*
%TO.N,SDO-31*%
X67226471Y-183969429D03*
X32300000Y-189948217D03*
%TO.N,buck4v_EN*%
X94300000Y15200000D03*
X95600000Y-203000000D03*
%TO.N,SW_Reset*%
X94900000Y-220912500D03*
%TO.N,+12V*%
X8800000Y700000D03*
X6300000Y13700000D03*
X92300000Y2600000D03*
X27900000Y-214300000D03*
X92300000Y1200000D03*
X91600000Y1200000D03*
X7400000Y0D03*
X8100000Y1400000D03*
X9300000Y8300000D03*
X8800000Y1400000D03*
X27900000Y-212900000D03*
X8100000Y0D03*
X90900000Y1900000D03*
X27200000Y-213600000D03*
X7400000Y700000D03*
X27200000Y-212900000D03*
X91600000Y2600000D03*
X27200000Y-214300000D03*
X27900000Y-215000000D03*
X27900000Y-213600000D03*
X27200000Y-215700000D03*
X90900000Y1200000D03*
X27900000Y-215700000D03*
X27200000Y-215000000D03*
X7400000Y1400000D03*
X8800000Y0D03*
X90900000Y2600000D03*
X91600000Y1900000D03*
X8100000Y700000D03*
X92300000Y1900000D03*
%TO.N,SW_Boot*%
X74600000Y-205800000D03*
%TO.N,Net-(C40-Pad2)*%
X88600000Y10200000D03*
X93200000Y9800000D03*
%TO.N,buck4v_PG*%
X94400000Y12000000D03*
X95200000Y-202200000D03*
%TO.N,Net-(C56-Pad2)*%
X11100000Y10500000D03*
X6500000Y10700000D03*
%TO.N,ENC_A*%
X96400000Y-219600000D03*
%TO.N,ENC_B*%
X96400000Y-218400000D03*
%TO.N,ENC_Z*%
X96400000Y-217100000D03*
%TO.N,MOSI*%
X67700000Y-10000000D03*
X72300000Y-213300000D03*
X72400000Y-198900000D03*
%TO.N,Net-(U33-IO11)*%
X91500000Y-208700000D03*
%TO.N,Net-(U33-IO12)*%
X91500000Y-211900000D03*
X84500000Y-204000000D03*
%TO.N,Net-(U33-IO13)*%
X83400000Y-204000000D03*
X91500000Y-215100000D03*
%TO.N,Net-(SW3-A)*%
X81200000Y-202400000D03*
%TO.N,Net-(SW4-A)*%
X82500000Y-202400000D03*
%TO.N,GND*%
X13800000Y15400000D03*
X85900000Y-213300000D03*
X30800000Y13500000D03*
X31500000Y-177848217D03*
X1900000Y3700000D03*
X31500000Y-56648217D03*
X11300000Y11900000D03*
X26900000Y-13300000D03*
X68200000Y2400000D03*
X19200000Y22200000D03*
X94600000Y-224200000D03*
X26900000Y-61848217D03*
X71600000Y-220800000D03*
X96100000Y9700000D03*
X22300000Y-219700000D03*
X21600000Y-219000000D03*
X68500003Y-143348217D03*
X76500000Y-124748217D03*
X31500000Y-105148217D03*
X12200000Y-217300000D03*
X18000000Y-212700000D03*
X26900000Y-158748217D03*
X21600000Y14500000D03*
X68500003Y-58548217D03*
X87100000Y-202100000D03*
X2000000Y17300000D03*
X68500003Y-34248217D03*
X74300000Y22200000D03*
X21600000Y-219700000D03*
X29500000Y22200000D03*
X88000000Y-199300000D03*
X87300000Y-218200000D03*
X76500000Y-148948217D03*
X76500000Y-52048217D03*
X98400000Y8500000D03*
X26900000Y-195148217D03*
X26900000Y-49648217D03*
X31900000Y10400000D03*
X78500000Y22200000D03*
X91700000Y18400000D03*
X88899293Y-213000707D03*
X35000000Y7400000D03*
X68500003Y-131248217D03*
X94000000Y11100000D03*
X52000000Y-200000000D03*
X76500000Y-100548217D03*
X31500000Y-32348217D03*
X96300000Y-223400000D03*
X97900000Y17300000D03*
X31500000Y-141448217D03*
X52700000Y-200000000D03*
X22300000Y-219000000D03*
X14700000Y-213100000D03*
X88500000Y11400000D03*
X93300000Y11300000D03*
X76500000Y-185348217D03*
X21600000Y-218300000D03*
X31700000Y3400000D03*
X26900000Y-37548217D03*
X68500003Y-179748217D03*
X26900000Y-146648217D03*
X9100000Y-219400000D03*
X34900000Y3400000D03*
X65500000Y2500000D03*
X35000000Y10400000D03*
X97900000Y21900000D03*
X18500000Y-199300000D03*
X53400000Y-200700000D03*
X66100000Y-199600000D03*
X26900000Y-110348217D03*
X26900000Y-134548217D03*
X88300000Y-217100000D03*
X76500000Y-39848217D03*
X68500003Y-167648217D03*
X82600000Y22100000D03*
X83500000Y-214300000D03*
X28600000Y-208600000D03*
X65400000Y6000000D03*
X31500000Y-68748217D03*
X9100000Y-223900000D03*
X87700000Y11400000D03*
X7700000Y18200000D03*
X97900000Y2100000D03*
X76500000Y-64148217D03*
X78700000Y17000000D03*
X84500000Y-218200000D03*
X13000000Y-210100000D03*
X2000000Y22100000D03*
X31500000Y-153548217D03*
X76500000Y-173248217D03*
X93500000Y10600000D03*
X31900000Y7300000D03*
X1900000Y7200000D03*
X22300000Y-218300000D03*
X31500000Y-129348217D03*
X68500003Y-46348217D03*
X68500003Y-107048217D03*
X13900000Y22200000D03*
X31500000Y-80848217D03*
X40200000Y-199300000D03*
X53400000Y-200000000D03*
X2000000Y11900000D03*
X18800000Y-217300000D03*
X31500000Y-92948217D03*
X7700000Y22200000D03*
X26900000Y-73948217D03*
X68500003Y-22148217D03*
X10700000Y-215800000D03*
X68500003Y-119148217D03*
X23700000Y-210400000D03*
X98200000Y-214100000D03*
X31500000Y-165748217D03*
X29500000Y16000000D03*
X85800000Y14400000D03*
X31500000Y-189948217D03*
X31500000Y-44448217D03*
X26900000Y-170948217D03*
X26900000Y-183048217D03*
X26900000Y-122448217D03*
X76500000Y-3500000D03*
X86800000Y-213300000D03*
X68500003Y-155448217D03*
X76500000Y-27748217D03*
X19500000Y12300000D03*
X74400000Y-223400000D03*
X68200000Y9300000D03*
X76500000Y-15648217D03*
X82000000Y11800000D03*
X85800000Y12900000D03*
X52700000Y-200700000D03*
X12000000Y11900000D03*
X68500003Y-94848217D03*
X70700000Y13400000D03*
X24800000Y17400000D03*
X96225000Y14300000D03*
X76500000Y-112648217D03*
X76500000Y-136848217D03*
X83700000Y-201800000D03*
X68500003Y-82748217D03*
X16200000Y-213100000D03*
X4900000Y9300000D03*
X65300000Y9400000D03*
X83500000Y-215700000D03*
X80100000Y-201800000D03*
X82700000Y16900000D03*
X83600000Y-207700000D03*
X31500000Y-20248217D03*
X8900000Y-215600000D03*
X31500000Y-117248217D03*
X74600000Y17000000D03*
X76500000Y-161148217D03*
X76500000Y-76248217D03*
X92200000Y22000000D03*
X24800000Y22200000D03*
X26900000Y-86048217D03*
X21600000Y-220400000D03*
X68500003Y-70648217D03*
X5199000Y11900000D03*
X68500003Y-10000000D03*
X31500000Y-8100000D03*
X85900000Y-218200000D03*
X6400000Y11900000D03*
X78000000Y13800000D03*
X12700000Y-212100000D03*
X22300000Y-220400000D03*
X52000000Y-200700000D03*
X80700000Y-207900000D03*
X8500000Y14600000D03*
X76500000Y-88348217D03*
X26900000Y-25448217D03*
X83500000Y-217100000D03*
X84500000Y-213300000D03*
X68200000Y5900000D03*
X68500003Y-191848217D03*
X88300000Y-215700000D03*
X91200000Y14800000D03*
X98100000Y5600000D03*
X26900000Y-98148217D03*
%TD*%
D18*
%TO.N,Net-(LED23-K)*%
X40200000Y-10500000D02*
X38175735Y-8475735D01*
X42200000Y-10500000D02*
X40200000Y-10500000D01*
X38175735Y-8475735D02*
X38175735Y-8124265D01*
%TO.N,Net-(LED24-K)*%
X46100000Y-9400000D02*
X40000000Y-9400000D01*
X49875735Y-13175735D02*
X46100000Y-9400000D01*
%TO.N,Net-(LED26-K)*%
X45900000Y-13775376D02*
X45939159Y-13736217D01*
X45900000Y-15400000D02*
X45900000Y-13775376D01*
%TO.N,Net-(LED27-K)*%
X46800000Y-15401000D02*
X46800000Y-13748529D01*
X46800000Y-13748529D02*
X46775734Y-13724263D01*
%TO.N,Net-(LED28-K)*%
X47600000Y-13800000D02*
X48801000Y-15001000D01*
X47600000Y-13700000D02*
X47600000Y-13800000D01*
X48801000Y-15001000D02*
X50933200Y-15001000D01*
%TO.N,Net-(LED29-K)*%
X48973325Y-14323265D02*
X48400000Y-13749940D01*
X59846530Y-14323265D02*
X48973325Y-14323265D01*
X48400000Y-13749940D02*
X48400000Y-13700000D01*
X59900000Y-14376735D02*
X59846530Y-14323265D01*
%TO.N,Net-(LED30-K)*%
X49276738Y-13776735D02*
X49200003Y-13700000D01*
X62476735Y-13776735D02*
X49276738Y-13776735D01*
X62600000Y-13900000D02*
X62476735Y-13776735D01*
%TO.N,Net-(LED55-K)*%
X40200000Y-22648217D02*
X38175735Y-20623952D01*
X38175735Y-20623952D02*
X38175735Y-20272482D01*
X42200000Y-22648217D02*
X40200000Y-22648217D01*
%TO.N,Net-(LED56-K)*%
X49875735Y-25323952D02*
X46100000Y-21548217D01*
X46100000Y-21548217D02*
X40000000Y-21548217D01*
%TO.N,Net-(LED58-K)*%
X45900000Y-25923593D02*
X45939159Y-25884434D01*
X45900000Y-27548217D02*
X45900000Y-25923593D01*
%TO.N,Net-(LED59-K)*%
X46800000Y-25896746D02*
X46775734Y-25872480D01*
X46800000Y-27549217D02*
X46800000Y-25896746D01*
%TO.N,Net-(LED60-K)*%
X48801000Y-27149217D02*
X50933200Y-27149217D01*
X47600000Y-25948217D02*
X48801000Y-27149217D01*
X47600000Y-25848217D02*
X47600000Y-25948217D01*
%TO.N,Net-(LED61-K)*%
X48973325Y-26471482D02*
X48400000Y-25898157D01*
X59846530Y-26471482D02*
X48973325Y-26471482D01*
X59900000Y-26524952D02*
X59846530Y-26471482D01*
X48400000Y-25898157D02*
X48400000Y-25848217D01*
%TO.N,Net-(LED62-K)*%
X62476735Y-25924952D02*
X49276738Y-25924952D01*
X62600000Y-26048217D02*
X62476735Y-25924952D01*
X49276738Y-25924952D02*
X49200003Y-25848217D01*
%TO.N,Net-(LED87-K)*%
X38175735Y-32723952D02*
X38175735Y-32372482D01*
X42200000Y-34748217D02*
X40200000Y-34748217D01*
X40200000Y-34748217D02*
X38175735Y-32723952D01*
%TO.N,Net-(LED88-K)*%
X46100000Y-33648217D02*
X40000000Y-33648217D01*
X49875735Y-37423952D02*
X46100000Y-33648217D01*
%TO.N,Net-(LED90-K)*%
X45900000Y-38023593D02*
X45939159Y-37984434D01*
X45900000Y-39648217D02*
X45900000Y-38023593D01*
%TO.N,Net-(LED91-K)*%
X46800000Y-39649217D02*
X46800000Y-37996746D01*
X46800000Y-37996746D02*
X46775734Y-37972480D01*
%TO.N,Net-(LED92-K)*%
X47600000Y-38048217D02*
X48801000Y-39249217D01*
X47600000Y-37948217D02*
X47600000Y-38048217D01*
X48801000Y-39249217D02*
X50933200Y-39249217D01*
%TO.N,Net-(LED93-K)*%
X59846530Y-38571482D02*
X48973325Y-38571482D01*
X48400000Y-37998157D02*
X48400000Y-37948217D01*
X48973325Y-38571482D02*
X48400000Y-37998157D01*
X59900000Y-38624952D02*
X59846530Y-38571482D01*
%TO.N,Net-(LED94-K)*%
X62600000Y-38148217D02*
X62476735Y-38024952D01*
X49276738Y-38024952D02*
X49200003Y-37948217D01*
X62476735Y-38024952D02*
X49276738Y-38024952D01*
%TO.N,Net-(LED119-K)*%
X38175735Y-44823952D02*
X38175735Y-44472482D01*
X42200000Y-46848217D02*
X40200000Y-46848217D01*
X40200000Y-46848217D02*
X38175735Y-44823952D01*
%TO.N,Net-(LED120-K)*%
X46100000Y-45748217D02*
X40000000Y-45748217D01*
X49875735Y-49523952D02*
X46100000Y-45748217D01*
%TO.N,Net-(LED122-K)*%
X45900000Y-50123593D02*
X45939159Y-50084434D01*
X45900000Y-51748217D02*
X45900000Y-50123593D01*
%TO.N,Net-(LED123-K)*%
X46800000Y-51749217D02*
X46800000Y-50096746D01*
X46800000Y-50096746D02*
X46775734Y-50072480D01*
%TO.N,Net-(LED124-K)*%
X47600000Y-50148217D02*
X48801000Y-51349217D01*
X48801000Y-51349217D02*
X50933200Y-51349217D01*
X47600000Y-50048217D02*
X47600000Y-50148217D01*
%TO.N,Net-(LED125-K)*%
X59846530Y-50671482D02*
X48973325Y-50671482D01*
X59900000Y-50724952D02*
X59846530Y-50671482D01*
X48973325Y-50671482D02*
X48400000Y-50098157D01*
X48400000Y-50098157D02*
X48400000Y-50048217D01*
%TO.N,Net-(LED126-K)*%
X62476735Y-50124952D02*
X49276738Y-50124952D01*
X62600000Y-50248217D02*
X62476735Y-50124952D01*
X49276738Y-50124952D02*
X49200003Y-50048217D01*
%TO.N,Net-(LED151-K)*%
X38175735Y-57023952D02*
X38175735Y-56672482D01*
X40200000Y-59048217D02*
X38175735Y-57023952D01*
X42200000Y-59048217D02*
X40200000Y-59048217D01*
%TO.N,Net-(LED152-K)*%
X49875735Y-61723952D02*
X46100000Y-57948217D01*
X46100000Y-57948217D02*
X40000000Y-57948217D01*
%TO.N,Net-(LED154-K)*%
X45900000Y-62323593D02*
X45939159Y-62284434D01*
X45900000Y-63948217D02*
X45900000Y-62323593D01*
%TO.N,Net-(LED155-K)*%
X46800000Y-62296746D02*
X46775734Y-62272480D01*
X46800000Y-63949217D02*
X46800000Y-62296746D01*
%TO.N,Net-(LED156-K)*%
X47600000Y-62248217D02*
X47600000Y-62348217D01*
X48801000Y-63549217D02*
X50933200Y-63549217D01*
X47600000Y-62348217D02*
X48801000Y-63549217D01*
%TO.N,Net-(LED157-K)*%
X48400000Y-62298157D02*
X48400000Y-62248217D01*
X48973325Y-62871482D02*
X48400000Y-62298157D01*
X59900000Y-62924952D02*
X59846530Y-62871482D01*
X59846530Y-62871482D02*
X48973325Y-62871482D01*
%TO.N,Net-(LED158-K)*%
X62476735Y-62324952D02*
X49276738Y-62324952D01*
X62600000Y-62448217D02*
X62476735Y-62324952D01*
X49276738Y-62324952D02*
X49200003Y-62248217D01*
%TO.N,Net-(LED183-K)*%
X42200000Y-71148217D02*
X40200000Y-71148217D01*
X40200000Y-71148217D02*
X38175735Y-69123952D01*
X38175735Y-69123952D02*
X38175735Y-68772482D01*
%TO.N,Net-(LED184-K)*%
X46100000Y-70048217D02*
X40000000Y-70048217D01*
X49875735Y-73823952D02*
X46100000Y-70048217D01*
%TO.N,Net-(LED186-K)*%
X45900000Y-74423593D02*
X45939159Y-74384434D01*
X45900000Y-76048217D02*
X45900000Y-74423593D01*
%TO.N,Net-(LED187-K)*%
X46800000Y-74396746D02*
X46775734Y-74372480D01*
X46800000Y-76049217D02*
X46800000Y-74396746D01*
%TO.N,Net-(LED188-K)*%
X48801000Y-75649217D02*
X50933200Y-75649217D01*
X47600000Y-74348217D02*
X47600000Y-74448217D01*
X47600000Y-74448217D02*
X48801000Y-75649217D01*
%TO.N,Net-(LED189-K)*%
X59900000Y-75024952D02*
X59846530Y-74971482D01*
X48973325Y-74971482D02*
X48400000Y-74398157D01*
X48400000Y-74398157D02*
X48400000Y-74348217D01*
X59846530Y-74971482D02*
X48973325Y-74971482D01*
%TO.N,Net-(LED190-K)*%
X49276738Y-74424952D02*
X49200003Y-74348217D01*
X62476735Y-74424952D02*
X49276738Y-74424952D01*
X62600000Y-74548217D02*
X62476735Y-74424952D01*
%TO.N,Net-(LED215-K)*%
X42200000Y-83248217D02*
X40200000Y-83248217D01*
X38175735Y-81223952D02*
X38175735Y-80872482D01*
X40200000Y-83248217D02*
X38175735Y-81223952D01*
%TO.N,Net-(LED216-K)*%
X49875735Y-85923952D02*
X46100000Y-82148217D01*
X46100000Y-82148217D02*
X40000000Y-82148217D01*
%TO.N,Net-(LED218-K)*%
X45900000Y-88148217D02*
X45900000Y-86523593D01*
X45900000Y-86523593D02*
X45939159Y-86484434D01*
%TO.N,Net-(LED219-K)*%
X46800000Y-86496746D02*
X46775734Y-86472480D01*
X46800000Y-88149217D02*
X46800000Y-86496746D01*
%TO.N,Net-(LED220-K)*%
X47600000Y-86448217D02*
X47600000Y-86548217D01*
X48801000Y-87749217D02*
X50933200Y-87749217D01*
X47600000Y-86548217D02*
X48801000Y-87749217D01*
%TO.N,Net-(LED221-K)*%
X48400000Y-86498157D02*
X48400000Y-86448217D01*
X48973325Y-87071482D02*
X48400000Y-86498157D01*
X59900000Y-87124952D02*
X59846530Y-87071482D01*
X59846530Y-87071482D02*
X48973325Y-87071482D01*
%TO.N,Net-(LED222-K)*%
X49276738Y-86524952D02*
X49200003Y-86448217D01*
X62600000Y-86648217D02*
X62476735Y-86524952D01*
X62476735Y-86524952D02*
X49276738Y-86524952D01*
%TO.N,Net-(LED247-K)*%
X42200000Y-95348217D02*
X40200000Y-95348217D01*
X38175735Y-93323952D02*
X38175735Y-92972482D01*
X40200000Y-95348217D02*
X38175735Y-93323952D01*
%TO.N,Net-(LED248-K)*%
X46100000Y-94248217D02*
X40000000Y-94248217D01*
X49875735Y-98023952D02*
X46100000Y-94248217D01*
%TO.N,Net-(LED250-K)*%
X45900000Y-100248217D02*
X45900000Y-98623593D01*
X45900000Y-98623593D02*
X45939159Y-98584434D01*
%TO.N,Net-(LED251-K)*%
X46800000Y-98596746D02*
X46775734Y-98572480D01*
X46800000Y-100249217D02*
X46800000Y-98596746D01*
%TO.N,Net-(LED252-K)*%
X48801000Y-99849217D02*
X50933200Y-99849217D01*
X47600000Y-98648217D02*
X48801000Y-99849217D01*
X47600000Y-98548217D02*
X47600000Y-98648217D01*
%TO.N,Net-(LED253-K)*%
X48973325Y-99171482D02*
X48400000Y-98598157D01*
X59900000Y-99224952D02*
X59846530Y-99171482D01*
X48400000Y-98598157D02*
X48400000Y-98548217D01*
X59846530Y-99171482D02*
X48973325Y-99171482D01*
%TO.N,Net-(LED254-K)*%
X62600000Y-98748217D02*
X62476735Y-98624952D01*
X49276738Y-98624952D02*
X49200003Y-98548217D01*
X62476735Y-98624952D02*
X49276738Y-98624952D01*
%TO.N,SDO-01*%
X32901000Y-7499000D02*
X32300000Y-8100000D01*
X67200000Y-2100000D02*
X61801000Y-7499000D01*
X61801000Y-7499000D02*
X32901000Y-7499000D01*
%TO.N,Net-(LED279-K)*%
X42200000Y-107548217D02*
X40200000Y-107548217D01*
X38175735Y-105523952D02*
X38175735Y-105172482D01*
X40200000Y-107548217D02*
X38175735Y-105523952D01*
%TO.N,Net-(LED280-K)*%
X49875735Y-110223952D02*
X46100000Y-106448217D01*
X46100000Y-106448217D02*
X40000000Y-106448217D01*
%TO.N,Net-(LED282-K)*%
X45900000Y-112448217D02*
X45900000Y-110823593D01*
X45900000Y-110823593D02*
X45939159Y-110784434D01*
%TO.N,Net-(LED283-K)*%
X46800000Y-110796746D02*
X46775734Y-110772480D01*
X46800000Y-112449217D02*
X46800000Y-110796746D01*
%TO.N,Net-(LED284-K)*%
X47600000Y-110848217D02*
X48801000Y-112049217D01*
X48801000Y-112049217D02*
X50933200Y-112049217D01*
X47600000Y-110748217D02*
X47600000Y-110848217D01*
%TO.N,Net-(LED285-K)*%
X59846530Y-111371482D02*
X48973325Y-111371482D01*
X48973325Y-111371482D02*
X48400000Y-110798157D01*
X48400000Y-110798157D02*
X48400000Y-110748217D01*
X59900000Y-111424952D02*
X59846530Y-111371482D01*
%TO.N,Net-(LED286-K)*%
X49276738Y-110824952D02*
X49200003Y-110748217D01*
X62476735Y-110824952D02*
X49276738Y-110824952D01*
X62600000Y-110948217D02*
X62476735Y-110824952D01*
%TO.N,Net-(LED311-K)*%
X38175735Y-117623952D02*
X38175735Y-117272482D01*
X40200000Y-119648217D02*
X38175735Y-117623952D01*
X42200000Y-119648217D02*
X40200000Y-119648217D01*
%TO.N,Net-(LED312-K)*%
X49875735Y-122323952D02*
X46100000Y-118548217D01*
X46100000Y-118548217D02*
X40000000Y-118548217D01*
%TO.N,Net-(LED314-K)*%
X45900000Y-122923593D02*
X45939159Y-122884434D01*
X45900000Y-124548217D02*
X45900000Y-122923593D01*
%TO.N,Net-(LED315-K)*%
X46800000Y-122896746D02*
X46775734Y-122872480D01*
X46800000Y-124549217D02*
X46800000Y-122896746D01*
%TO.N,Net-(LED316-K)*%
X47600000Y-122948217D02*
X48801000Y-124149217D01*
X47600000Y-122848217D02*
X47600000Y-122948217D01*
X48801000Y-124149217D02*
X50933200Y-124149217D01*
%TO.N,Net-(LED317-K)*%
X59846530Y-123471482D02*
X48973325Y-123471482D01*
X48973325Y-123471482D02*
X48400000Y-122898157D01*
X59900000Y-123524952D02*
X59846530Y-123471482D01*
X48400000Y-122898157D02*
X48400000Y-122848217D01*
%TO.N,Net-(LED318-K)*%
X62600000Y-123048217D02*
X62476735Y-122924952D01*
X49276738Y-122924952D02*
X49200003Y-122848217D01*
X62476735Y-122924952D02*
X49276738Y-122924952D01*
%TO.N,Net-(LED343-K)*%
X38175735Y-129723952D02*
X38175735Y-129372482D01*
X42200000Y-131748217D02*
X40200000Y-131748217D01*
X40200000Y-131748217D02*
X38175735Y-129723952D01*
%TO.N,Net-(LED344-K)*%
X49875735Y-134423952D02*
X46100000Y-130648217D01*
X46100000Y-130648217D02*
X40000000Y-130648217D01*
%TO.N,Net-(LED346-K)*%
X45900000Y-136648217D02*
X45900000Y-135023593D01*
X45900000Y-135023593D02*
X45939159Y-134984434D01*
%TO.N,Net-(LED347-K)*%
X46800000Y-136649217D02*
X46800000Y-134996746D01*
X46800000Y-134996746D02*
X46775734Y-134972480D01*
%TO.N,Net-(LED348-K)*%
X47600000Y-134948217D02*
X47600000Y-135048217D01*
X48801000Y-136249217D02*
X50933200Y-136249217D01*
X47600000Y-135048217D02*
X48801000Y-136249217D01*
%TO.N,Net-(LED349-K)*%
X59900000Y-135624952D02*
X59846530Y-135571482D01*
X48973325Y-135571482D02*
X48400000Y-134998157D01*
X48400000Y-134998157D02*
X48400000Y-134948217D01*
X59846530Y-135571482D02*
X48973325Y-135571482D01*
%TO.N,Net-(LED350-K)*%
X62476735Y-135024952D02*
X49276738Y-135024952D01*
X49276738Y-135024952D02*
X49200003Y-134948217D01*
X62600000Y-135148217D02*
X62476735Y-135024952D01*
%TO.N,Net-(LED375-K)*%
X40200000Y-143848217D02*
X38175735Y-141823952D01*
X38175735Y-141823952D02*
X38175735Y-141472482D01*
X42200000Y-143848217D02*
X40200000Y-143848217D01*
%TO.N,Net-(LED376-K)*%
X49875735Y-146523952D02*
X46100000Y-142748217D01*
X46100000Y-142748217D02*
X40000000Y-142748217D01*
%TO.N,Net-(LED378-K)*%
X45900000Y-147123593D02*
X45939159Y-147084434D01*
X45900000Y-148748217D02*
X45900000Y-147123593D01*
%TO.N,Net-(LED379-K)*%
X46800000Y-148749217D02*
X46800000Y-147096746D01*
X46800000Y-147096746D02*
X46775734Y-147072480D01*
%TO.N,Net-(LED380-K)*%
X48801000Y-148349217D02*
X50933200Y-148349217D01*
X47600000Y-147148217D02*
X48801000Y-148349217D01*
X47600000Y-147048217D02*
X47600000Y-147148217D01*
%TO.N,Net-(LED381-K)*%
X59900000Y-147724952D02*
X59846530Y-147671482D01*
X59846530Y-147671482D02*
X48973325Y-147671482D01*
X48973325Y-147671482D02*
X48400000Y-147098157D01*
X48400000Y-147098157D02*
X48400000Y-147048217D01*
%TO.N,Net-(LED382-K)*%
X62476735Y-147124952D02*
X49276738Y-147124952D01*
X62600000Y-147248217D02*
X62476735Y-147124952D01*
X49276738Y-147124952D02*
X49200003Y-147048217D01*
%TO.N,Net-(LED407-K)*%
X40200000Y-155948217D02*
X38175735Y-153923952D01*
X38175735Y-153923952D02*
X38175735Y-153572482D01*
X42200000Y-155948217D02*
X40200000Y-155948217D01*
%TO.N,Net-(LED408-K)*%
X46100000Y-154848217D02*
X40000000Y-154848217D01*
X49875735Y-158623952D02*
X46100000Y-154848217D01*
%TO.N,Net-(LED410-K)*%
X45900000Y-160848217D02*
X45900000Y-159223593D01*
X45900000Y-159223593D02*
X45939159Y-159184434D01*
%TO.N,Net-(LED411-K)*%
X46800000Y-160849217D02*
X46800000Y-159196746D01*
X46800000Y-159196746D02*
X46775734Y-159172480D01*
%TO.N,Net-(LED412-K)*%
X48801000Y-160449217D02*
X50933200Y-160449217D01*
X47600000Y-159148217D02*
X47600000Y-159248217D01*
X47600000Y-159248217D02*
X48801000Y-160449217D01*
%TO.N,Net-(LED413-K)*%
X48973325Y-159771482D02*
X48400000Y-159198157D01*
X48400000Y-159198157D02*
X48400000Y-159148217D01*
X59846530Y-159771482D02*
X48973325Y-159771482D01*
X59900000Y-159824952D02*
X59846530Y-159771482D01*
%TO.N,Net-(LED414-K)*%
X62476735Y-159224952D02*
X49276738Y-159224952D01*
X49276738Y-159224952D02*
X49200003Y-159148217D01*
X62600000Y-159348217D02*
X62476735Y-159224952D01*
%TO.N,Net-(LED439-K)*%
X40200000Y-168148217D02*
X38175735Y-166123952D01*
X42200000Y-168148217D02*
X40200000Y-168148217D01*
X38175735Y-166123952D02*
X38175735Y-165772482D01*
%TO.N,Net-(LED440-K)*%
X46100000Y-167048217D02*
X40000000Y-167048217D01*
X49875735Y-170823952D02*
X46100000Y-167048217D01*
%TO.N,Net-(LED442-K)*%
X45900000Y-173048217D02*
X45900000Y-171423593D01*
X45900000Y-171423593D02*
X45939159Y-171384434D01*
%TO.N,Net-(LED443-K)*%
X46800000Y-171396746D02*
X46775734Y-171372480D01*
X46800000Y-173049217D02*
X46800000Y-171396746D01*
%TO.N,Net-(LED444-K)*%
X47600000Y-171448217D02*
X48801000Y-172649217D01*
X47600000Y-171348217D02*
X47600000Y-171448217D01*
X48801000Y-172649217D02*
X50933200Y-172649217D01*
%TO.N,Net-(LED445-K)*%
X59846530Y-171971482D02*
X48973325Y-171971482D01*
X59900000Y-172024952D02*
X59846530Y-171971482D01*
X48400000Y-171398157D02*
X48400000Y-171348217D01*
X48973325Y-171971482D02*
X48400000Y-171398157D01*
%TO.N,Net-(LED446-K)*%
X62476735Y-171424952D02*
X49276738Y-171424952D01*
X49276738Y-171424952D02*
X49200003Y-171348217D01*
X62600000Y-171548217D02*
X62476735Y-171424952D01*
%TO.N,Net-(LED471-K)*%
X42200000Y-180248217D02*
X40200000Y-180248217D01*
X40200000Y-180248217D02*
X38175735Y-178223952D01*
X38175735Y-178223952D02*
X38175735Y-177872482D01*
%TO.N,Net-(LED472-K)*%
X46100000Y-179148217D02*
X40000000Y-179148217D01*
X49875735Y-182923952D02*
X46100000Y-179148217D01*
%TO.N,Net-(LED474-K)*%
X45900000Y-185148217D02*
X45900000Y-183523593D01*
X45900000Y-183523593D02*
X45939159Y-183484434D01*
%TO.N,Net-(LED475-K)*%
X46800000Y-185149217D02*
X46800000Y-183496746D01*
X46800000Y-183496746D02*
X46775734Y-183472480D01*
%TO.N,Net-(LED476-K)*%
X47600000Y-183548217D02*
X48801000Y-184749217D01*
X48801000Y-184749217D02*
X50933200Y-184749217D01*
X47600000Y-183448217D02*
X47600000Y-183548217D01*
%TO.N,Net-(LED477-K)*%
X48400000Y-183498157D02*
X48400000Y-183448217D01*
X59846530Y-184071482D02*
X48973325Y-184071482D01*
X48973325Y-184071482D02*
X48400000Y-183498157D01*
X59900000Y-184124952D02*
X59846530Y-184071482D01*
%TO.N,Net-(LED478-K)*%
X62476735Y-183524952D02*
X49276738Y-183524952D01*
X49276738Y-183524952D02*
X49200003Y-183448217D01*
X62600000Y-183648217D02*
X62476735Y-183524952D01*
%TO.N,Net-(LED503-K)*%
X38175735Y-190323952D02*
X38175735Y-189972482D01*
X40200000Y-192348217D02*
X38175735Y-190323952D01*
X42200000Y-192348217D02*
X40200000Y-192348217D01*
%TO.N,Net-(LED504-K)*%
X49875735Y-195023952D02*
X46100000Y-191248217D01*
X46100000Y-191248217D02*
X40000000Y-191248217D01*
%TO.N,Net-(LED506-K)*%
X44324624Y-195623593D02*
X45900000Y-195623593D01*
X45900000Y-195623593D02*
X45939159Y-195584434D01*
X43100000Y-196848217D02*
X44324624Y-195623593D01*
%TO.N,Net-(LED507-K)*%
X46188102Y-196185434D02*
X46775734Y-195597802D01*
X46775734Y-195597802D02*
X46775734Y-195572480D01*
X43852786Y-197249217D02*
X44850783Y-197249217D01*
X44850783Y-197249217D02*
X45914566Y-196185434D01*
X45914566Y-196185434D02*
X46188102Y-196185434D01*
%TO.N,Net-(LED508-K)*%
X48801000Y-196849217D02*
X50933200Y-196849217D01*
X47600000Y-195648217D02*
X48801000Y-196849217D01*
X47600000Y-195548217D02*
X47600000Y-195648217D01*
%TO.N,Net-(LED509-K)*%
X59846530Y-196171482D02*
X48973325Y-196171482D01*
X59900000Y-196224952D02*
X59846530Y-196171482D01*
X48973325Y-196171482D02*
X48400000Y-195598157D01*
X48400000Y-195598157D02*
X48400000Y-195548217D01*
%TO.N,Net-(LED510-K)*%
X62476735Y-195624952D02*
X49276738Y-195624952D01*
X49276738Y-195624952D02*
X49200003Y-195548217D01*
X62600000Y-195748217D02*
X62476735Y-195624952D01*
%TO.N,SDO-02*%
X67827471Y-14020486D02*
X67827471Y-22020746D01*
X65777528Y-13668429D02*
X67475414Y-13668429D01*
X31000000Y-15600000D02*
X31401000Y-16001000D01*
X63444957Y-16001000D02*
X65777528Y-13668429D01*
X31401000Y-16001000D02*
X63444957Y-16001000D01*
X67827471Y-22020746D02*
X67700000Y-22148217D01*
X67475414Y-13668429D02*
X67827471Y-14020486D01*
%TO.N,SDO-03*%
X61852783Y-19647217D02*
X32901000Y-19647217D01*
X67155202Y-14344798D02*
X61852783Y-19647217D01*
X67226471Y-14269429D02*
X67155202Y-14198160D01*
X32901000Y-19647217D02*
X32300000Y-20248217D01*
X67155202Y-14198160D02*
X67155202Y-14344798D01*
%TO.N,SDO-04*%
X64531845Y-25768429D02*
X67475414Y-25768429D01*
X60851057Y-29449217D02*
X64531845Y-25768429D01*
X67899003Y-34049214D02*
X67700000Y-34248217D01*
X32301000Y-29449217D02*
X60851057Y-29449217D01*
X30600000Y-27748217D02*
X32301000Y-29449217D01*
X67475414Y-25768429D02*
X67899003Y-26192018D01*
X67899003Y-26192018D02*
X67899003Y-34049214D01*
%TO.N,SDO-05*%
X67155202Y-26444798D02*
X61852783Y-31747217D01*
X67155202Y-26298160D02*
X67155202Y-26444798D01*
X32901000Y-31747217D02*
X32300000Y-32348217D01*
X61852783Y-31747217D02*
X32901000Y-31747217D01*
X67226471Y-26369429D02*
X67155202Y-26298160D01*
%TO.N,SDO-06*%
X65777528Y-37868429D02*
X67475414Y-37868429D01*
X67827471Y-38220486D02*
X67827471Y-46220746D01*
X63396740Y-40249217D02*
X65777528Y-37868429D01*
X30600000Y-39848217D02*
X31001000Y-40249217D01*
X67475414Y-37868429D02*
X67827471Y-38220486D01*
X67827471Y-46220746D02*
X67700000Y-46348217D01*
X31001000Y-40249217D02*
X63396740Y-40249217D01*
%TO.N,SDO-07*%
X67155202Y-38544798D02*
X61852783Y-43847217D01*
X61852783Y-43847217D02*
X32901000Y-43847217D01*
X32901000Y-43847217D02*
X32300000Y-44448217D01*
X67226471Y-38469429D02*
X67155202Y-38398160D01*
X67155202Y-38398160D02*
X67155202Y-38544798D01*
%TO.N,SDO-08*%
X67827471Y-50420486D02*
X67827471Y-58420746D01*
X31002000Y-52350217D02*
X63495740Y-52350217D01*
X30600000Y-51948217D02*
X31002000Y-52350217D01*
X67475414Y-50068429D02*
X67827471Y-50420486D01*
X63495740Y-52350217D02*
X65777528Y-50068429D01*
X65777528Y-50068429D02*
X67475414Y-50068429D01*
X67827471Y-58420746D02*
X67700000Y-58548217D01*
%TO.N,SDO-09*%
X61852783Y-56047217D02*
X32901000Y-56047217D01*
X67155202Y-50598160D02*
X67155202Y-50744798D01*
X32901000Y-56047217D02*
X32300000Y-56648217D01*
X67226471Y-50669429D02*
X67155202Y-50598160D01*
X67155202Y-50744798D02*
X61852783Y-56047217D01*
%TO.N,SDO-10*%
X67475414Y-62168429D02*
X67827471Y-62520486D01*
X30600000Y-64148217D02*
X31051783Y-64600000D01*
X31051783Y-64600000D02*
X63345957Y-64600000D01*
X67827471Y-62520486D02*
X67827471Y-70520746D01*
X67827471Y-70520746D02*
X67700000Y-70648217D01*
X63345957Y-64600000D02*
X65777528Y-62168429D01*
X65777528Y-62168429D02*
X67475414Y-62168429D01*
%TO.N,SDO-11*%
X32901000Y-68147217D02*
X32300000Y-68748217D01*
X67155202Y-62844798D02*
X61852783Y-68147217D01*
X67226471Y-62769429D02*
X67155202Y-62698160D01*
X61852783Y-68147217D02*
X32901000Y-68147217D01*
X67155202Y-62698160D02*
X67155202Y-62844798D01*
%TO.N,SDO-12*%
X67827471Y-74620486D02*
X67827471Y-82620746D01*
X30600000Y-76248217D02*
X32301000Y-77949217D01*
X67827471Y-82620746D02*
X67700000Y-82748217D01*
X61049057Y-77949217D02*
X64729845Y-74268429D01*
X67475414Y-74268429D02*
X67827471Y-74620486D01*
X64729845Y-74268429D02*
X67475414Y-74268429D01*
X32301000Y-77949217D02*
X61049057Y-77949217D01*
%TO.N,SDO-13*%
X67155202Y-74798160D02*
X67155202Y-74944798D01*
X67226471Y-74869429D02*
X67155202Y-74798160D01*
X32901000Y-80247217D02*
X32300000Y-80848217D01*
X67155202Y-74944798D02*
X61852783Y-80247217D01*
X61852783Y-80247217D02*
X32901000Y-80247217D01*
%TO.N,SDO-14*%
X32599000Y-90347217D02*
X60751057Y-90347217D01*
X67827471Y-94720746D02*
X67700000Y-94848217D01*
X30600000Y-88348217D02*
X32599000Y-90347217D01*
X64729845Y-86368429D02*
X67475414Y-86368429D01*
X60751057Y-90347217D02*
X64729845Y-86368429D01*
X67475414Y-86368429D02*
X67827471Y-86720486D01*
X67827471Y-86720486D02*
X67827471Y-94720746D01*
%TO.N,SDO-15*%
X32901000Y-92347217D02*
X32300000Y-92948217D01*
X61852783Y-92347217D02*
X32901000Y-92347217D01*
X67155202Y-86898160D02*
X67155202Y-87044798D01*
X67226471Y-86969429D02*
X67155202Y-86898160D01*
X67155202Y-87044798D02*
X61852783Y-92347217D01*
%TO.N,SDO-16*%
X67475414Y-98568429D02*
X67827471Y-98920486D01*
X30600000Y-100448217D02*
X32650783Y-102499000D01*
X60799274Y-102499000D02*
X64729845Y-98568429D01*
X64729845Y-98568429D02*
X67475414Y-98568429D01*
X32650783Y-102499000D02*
X60799274Y-102499000D01*
X67827471Y-106920746D02*
X67700000Y-107048217D01*
X67827471Y-98920486D02*
X67827471Y-106920746D01*
%TO.N,SDO-17*%
X67155202Y-99098160D02*
X67155202Y-99244798D01*
X67226471Y-99169429D02*
X67155202Y-99098160D01*
X32901000Y-104547217D02*
X32300000Y-105148217D01*
X67155202Y-99244798D02*
X61852783Y-104547217D01*
X61852783Y-104547217D02*
X32901000Y-104547217D01*
%TO.N,SDO-18*%
X32599000Y-114647217D02*
X60751057Y-114647217D01*
X60751057Y-114647217D02*
X64729845Y-110668429D01*
X67475414Y-110668429D02*
X67827471Y-111020486D01*
X64729845Y-110668429D02*
X67475414Y-110668429D01*
X67827471Y-111020486D02*
X67827471Y-119020746D01*
X30600000Y-112648217D02*
X32599000Y-114647217D01*
X67827471Y-119020746D02*
X67700000Y-119148217D01*
%TO.N,SDO-19*%
X32901000Y-116647217D02*
X32300000Y-117248217D01*
X61852783Y-116647217D02*
X32901000Y-116647217D01*
X67155202Y-111344798D02*
X61852783Y-116647217D01*
X67155202Y-111198160D02*
X67155202Y-111344798D01*
X67226471Y-111269429D02*
X67155202Y-111198160D01*
%TO.N,SDO-20*%
X61049057Y-126449217D02*
X64729845Y-122768429D01*
X67827471Y-123120486D02*
X67827471Y-131120746D01*
X67827471Y-131120746D02*
X67700000Y-131248217D01*
X64729845Y-122768429D02*
X67475414Y-122768429D01*
X32301000Y-126449217D02*
X61049057Y-126449217D01*
X30600000Y-124748217D02*
X32301000Y-126449217D01*
X67475414Y-122768429D02*
X67827471Y-123120486D01*
%TO.N,SDO-21*%
X67155202Y-123444798D02*
X61852783Y-128747217D01*
X67155202Y-123298160D02*
X67155202Y-123444798D01*
X67226471Y-123369429D02*
X67155202Y-123298160D01*
X32901000Y-128747217D02*
X32300000Y-129348217D01*
X61852783Y-128747217D02*
X32901000Y-128747217D01*
%TO.N,SDO-22*%
X67475414Y-134868429D02*
X67827471Y-135220486D01*
X64729845Y-134868429D02*
X67475414Y-134868429D01*
X61049057Y-138549217D02*
X64729845Y-134868429D01*
X32301000Y-138549217D02*
X61049057Y-138549217D01*
X67827471Y-143220746D02*
X67700000Y-143348217D01*
X30600000Y-136848217D02*
X32301000Y-138549217D01*
X67827471Y-135220486D02*
X67827471Y-143220746D01*
%TO.N,SDO-23*%
X61852783Y-140847217D02*
X32901000Y-140847217D01*
X67155202Y-135398160D02*
X67155202Y-135544798D01*
X67155202Y-135544798D02*
X61852783Y-140847217D01*
X32901000Y-140847217D02*
X32300000Y-141448217D01*
X67226471Y-135469429D02*
X67155202Y-135398160D01*
%TO.N,SDO-24*%
X67475414Y-146968429D02*
X67827471Y-147320486D01*
X67827471Y-155320746D02*
X67700000Y-155448217D01*
X64729845Y-146968429D02*
X67475414Y-146968429D01*
X61049057Y-150649217D02*
X64729845Y-146968429D01*
X32301000Y-150649217D02*
X61049057Y-150649217D01*
X67827471Y-147320486D02*
X67827471Y-155320746D01*
X30600000Y-148948217D02*
X32301000Y-150649217D01*
%TO.N,SDO-25*%
X67226471Y-147569429D02*
X67155202Y-147498160D01*
X61852783Y-152947217D02*
X32901000Y-152947217D01*
X67155202Y-147644798D02*
X61852783Y-152947217D01*
X32901000Y-152947217D02*
X32300000Y-153548217D01*
X67155202Y-147498160D02*
X67155202Y-147644798D01*
%TO.N,SDO-26*%
X67827471Y-159520486D02*
X67827471Y-167520746D01*
X61049057Y-162849217D02*
X64729845Y-159168429D01*
X67475414Y-159168429D02*
X67827471Y-159520486D01*
X64729845Y-159168429D02*
X67475414Y-159168429D01*
X67827471Y-167520746D02*
X67700000Y-167648217D01*
X32401000Y-162849217D02*
X61049057Y-162849217D01*
X30600000Y-161048217D02*
X32401000Y-162849217D01*
%TO.N,SDO-27*%
X32901000Y-165147217D02*
X32300000Y-165748217D01*
X67226471Y-159769429D02*
X67155202Y-159698160D01*
X67155202Y-159698160D02*
X67155202Y-159844798D01*
X67155202Y-159844798D02*
X61852783Y-165147217D01*
X61852783Y-165147217D02*
X32901000Y-165147217D01*
%TO.N,SDO-28*%
X67475414Y-171268429D02*
X67827471Y-171620486D01*
X30600000Y-173248217D02*
X32301000Y-174949217D01*
X64729845Y-171268429D02*
X67475414Y-171268429D01*
X67827471Y-179620746D02*
X67700000Y-179748217D01*
X67827471Y-171620486D02*
X67827471Y-179620746D01*
X32301000Y-174949217D02*
X61049057Y-174949217D01*
X61049057Y-174949217D02*
X64729845Y-171268429D01*
%TO.N,SDO-29*%
X61852783Y-177247217D02*
X32901000Y-177247217D01*
X67155202Y-171944798D02*
X61852783Y-177247217D01*
X67226471Y-171869429D02*
X67155202Y-171798160D01*
X67155202Y-171798160D02*
X67155202Y-171944798D01*
X32901000Y-177247217D02*
X32300000Y-177848217D01*
%TO.N,SDO-30*%
X67827471Y-191720746D02*
X67700000Y-191848217D01*
X61049057Y-187049217D02*
X64729845Y-183368429D01*
X32301000Y-187049217D02*
X61049057Y-187049217D01*
X64729845Y-183368429D02*
X67475414Y-183368429D01*
X30600000Y-185348217D02*
X32301000Y-187049217D01*
X67475414Y-183368429D02*
X67827471Y-183720486D01*
X67827471Y-183720486D02*
X67827471Y-191720746D01*
%TO.N,SDO-31*%
X32901000Y-189347217D02*
X32300000Y-189948217D01*
X67155202Y-184044798D02*
X61852783Y-189347217D01*
X61852783Y-189347217D02*
X32901000Y-189347217D01*
X67226471Y-183969429D02*
X67155202Y-183898160D01*
X67155202Y-183898160D02*
X67155202Y-184044798D01*
%TO.N,ENC_A*%
X83600000Y-208549944D02*
X80453057Y-205403000D01*
X75846943Y-205403000D02*
X74848943Y-206401000D01*
X10018400Y-205403000D02*
X10015400Y-205400000D01*
X73353057Y-205403000D02*
X10018400Y-205403000D01*
X74351057Y-206401000D02*
X73353057Y-205403000D01*
X90751057Y-215701000D02*
X83600000Y-208549944D01*
X10015400Y-205400000D02*
X6400000Y-205400000D01*
X96400000Y-219600000D02*
X94650056Y-219600000D01*
X2615000Y-201650000D02*
X6365000Y-205400000D01*
X94650056Y-219600000D02*
X90751057Y-215701000D01*
X74848943Y-206401000D02*
X74351057Y-206401000D01*
X80453057Y-205403000D02*
X75846943Y-205403000D01*
X6365000Y-205400000D02*
X6400000Y-205400000D01*
%TO.N,ENC_B*%
X10967000Y-205002000D02*
X11100000Y-205002000D01*
X7615000Y-201650000D02*
X10967000Y-205002000D01*
X83002000Y-205002000D02*
X96400000Y-218400000D01*
X11100000Y-205002000D02*
X83002000Y-205002000D01*
%TO.N,ENC_Z*%
X15600000Y-204601000D02*
X83301000Y-204601000D01*
X95800000Y-217100000D02*
X96400000Y-217100000D01*
X83301000Y-204601000D02*
X95800000Y-217100000D01*
X12615000Y-201650000D02*
X15566000Y-204601000D01*
X15566000Y-204601000D02*
X15600000Y-204601000D01*
%TO.N,MOSI*%
X72400000Y-198900000D02*
X75100000Y-196200000D01*
X67650060Y-10000000D02*
X67700000Y-10000000D01*
X75100000Y-196200000D02*
X75100000Y-16300000D01*
X75100000Y-16300000D02*
X69401000Y-10601000D01*
X68251060Y-10601000D02*
X67650060Y-10000000D01*
X69401000Y-10601000D02*
X68251060Y-10601000D01*
%TD*%
M02*
