M48
; DRILL file {KiCad 9.0.1} date 2026-01-21T11:16:38-0700
; FORMAT={-:-/ absolute / metric / decimal}
; #@! TF.CreationDate,2026-01-21T11:16:38-07:00
; #@! TF.GenerationSoftware,Kicad,Pcbnew,9.0.1
; #@! TF.FileFunction,Plated,1,6,PTH
FMAT,2
METRIC
; #@! TA.AperFunction,Plated,PTH,ViaDrill
T1C0.300
%
G90
G05
T1
X8.3Y-6.1
X8.3Y-12.1
X8.326Y-18.221
X8.326Y-24.221
X14.1Y-12.1
X14.126Y-24.221
X14.2Y-6.1
X14.226Y-18.221
X20.0Y-12.1
X20.026Y-24.221
X20.061Y-6.061
X20.087Y-18.182
X25.9Y-6.1
X25.9Y-12.1
X25.926Y-18.221
X25.926Y-24.221
X30.6Y-15.6
X31.0Y-14.8
X31.5Y-8.1
X31.5Y-13.0
X31.526Y-25.121
X31.8Y-6.1
X31.826Y-18.221
X32.3Y-8.1
X33.124Y-8.124
X33.5Y-13.4
X34.0Y-8.1
X37.3Y-8.1
X37.526Y-19.921
X37.7Y-6.1
X37.726Y-18.221
X38.176Y-8.124
X38.226Y-20.321
X40.0Y-9.4
X40.026Y-21.521
X42.3Y-13.939
X42.3Y-15.139
X42.326Y-26.06
X42.326Y-27.26
X43.2Y-15.561
X43.2Y-13.9
X43.226Y-27.682
X43.226Y-26.021
X43.6Y-6.1
X43.626Y-18.221
X47.576Y-13.799
X47.603Y-25.92
X48.4Y-13.775
X48.427Y-25.897
X49.2Y-13.8
X49.226Y-25.921
X49.4Y-6.1
X49.426Y-18.221
X50.933Y-15.001
X50.96Y-27.122
X54.0Y-4.6
X54.026Y-16.721
X55.3Y-12.1
X55.326Y-24.221
X60.5Y-14.323
X60.526Y-26.444
X61.2Y-12.1
X61.226Y-24.221
X61.8Y-5.3
X61.826Y-17.421
X62.5Y-4.7
X62.526Y-16.821
X62.7Y-14.0
X62.726Y-26.121
X66.0Y-10.0
X66.1Y-2.0
X66.9Y-2.0
X66.9Y-10.0
X67.1Y-12.1
X67.126Y-24.221
X67.5Y-19.2
X67.7Y-10.0
X69.2Y-3.2
X73.0Y-6.3
X73.0Y-12.1
X73.026Y-18.421
X73.026Y-24.221
X78.861Y-6.061
X78.887Y-18.182
X78.9Y-12.1
X78.926Y-24.221
X84.7Y-12.1
X84.726Y-24.221
X84.761Y-6.061
X84.787Y-18.182
X90.6Y-12.1
X90.626Y-24.221
X90.639Y-6.061
X90.666Y-18.182
X96.5Y-12.1
X96.526Y-24.221
X96.561Y-6.061
X96.587Y-18.182
M30
