%TF.GenerationSoftware,KiCad,Pcbnew,9.0.1*%
%TF.CreationDate,2026-02-18T14:45:31-07:00*%
%TF.ProjectId,hologram v3,686f6c6f-6772-4616-9d20-76332e6b6963,rev?*%
%TF.SameCoordinates,Original*%
%TF.FileFunction,Copper,L2,Inr*%
%TF.FilePolarity,Positive*%
%FSLAX46Y46*%
G04 Gerber Fmt 4.6, Leading zero omitted, Abs format (unit mm)*
G04 Created by KiCad (PCBNEW 9.0.1) date 2026-02-18 14:45:31*
%MOMM*%
%LPD*%
G01*
G04 APERTURE LIST*
%TA.AperFunction,ComponentPad*%
%ADD10C,10.000000*%
%TD*%
%TA.AperFunction,ComponentPad*%
%ADD11R,1.700000X1.700000*%
%TD*%
%TA.AperFunction,ComponentPad*%
%ADD12C,1.700000*%
%TD*%
%TA.AperFunction,ComponentPad*%
%ADD13C,0.700000*%
%TD*%
%TA.AperFunction,ComponentPad*%
%ADD14O,1.100000X2.000000*%
%TD*%
%TA.AperFunction,ComponentPad*%
%ADD15O,1.200000X1.800000*%
%TD*%
%TA.AperFunction,ComponentPad*%
%ADD16C,2.200000*%
%TD*%
%TA.AperFunction,ViaPad*%
%ADD17C,0.600000*%
%TD*%
%TA.AperFunction,Conductor*%
%ADD18C,0.200000*%
%TD*%
%TA.AperFunction,Conductor*%
%ADD19C,2.000000*%
%TD*%
G04 APERTURE END LIST*
D10*
%TO.N,N/C*%
%TO.C,H3*%
X37000000Y-218000000D03*
%TD*%
%TO.N,N/C*%
%TO.C,H4*%
X63000000Y-218000000D03*
%TD*%
%TO.N,N/C*%
%TO.C,H2*%
X63000000Y18000000D03*
%TD*%
D11*
%TO.N,NOT_OE*%
%TO.C,J1*%
X2500000Y-209880000D03*
D12*
%TO.N,CLK*%
X2500000Y-212420000D03*
%TO.N,LE*%
X2500000Y-214960000D03*
%TO.N,GND*%
X2500000Y-217500000D03*
%TO.N,VDD*%
X2500000Y-220040000D03*
%TO.N,VCC*%
X2500000Y-222580000D03*
%TD*%
D13*
%TO.N,*%
%TO.C,U35*%
X12610000Y-219517500D03*
X18390000Y-219517500D03*
D14*
%TO.N,Net-(R33-Pad1)*%
X11180000Y-218987500D03*
D15*
X11180000Y-223197500D03*
D14*
X19820000Y-218987500D03*
D15*
X19820000Y-223197500D03*
%TD*%
D10*
%TO.N,N/C*%
%TO.C,H1*%
X37000000Y18000000D03*
%TD*%
D16*
%TO.N,Net-(J2-Pin_1)*%
%TO.C,J2*%
X27615000Y-201650000D03*
%TO.N,GND*%
X22615000Y-201650000D03*
%TO.N,Net-(J2-Pin_3)*%
X17615000Y-201650000D03*
%TO.N,ENC_Z*%
X12615000Y-201650000D03*
%TO.N,ENC_B*%
X7615000Y-201650000D03*
%TO.N,ENC_A*%
X2615000Y-201650000D03*
%TD*%
D17*
%TO.N,VCC*%
X87500000Y15900000D03*
X77800000Y11400000D03*
X87500000Y17500000D03*
X77800000Y10600000D03*
%TO.N,Net-(LED2-K)*%
X14200000Y-6100000D03*
%TO.N,Net-(LED1-K)*%
X8300000Y-6100000D03*
%TO.N,Net-(LED3-K)*%
X20060606Y-6060606D03*
%TO.N,Net-(LED4-K)*%
X25900000Y-6100000D03*
%TO.N,Net-(LED5-K)*%
X31800000Y-6100000D03*
%TO.N,Net-(LED6-K)*%
X37700000Y-6100000D03*
%TO.N,Net-(LED7-K)*%
X43600000Y-6100000D03*
%TO.N,Net-(LED8-K)*%
X49400000Y-6100000D03*
%TO.N,Net-(LED9-K)*%
X54000000Y-4600000D03*
%TO.N,Net-(LED10-K)*%
X61800000Y-5300000D03*
%TO.N,Net-(LED11-K)*%
X62500000Y-4700000D03*
%TO.N,Net-(LED12-K)*%
X73000000Y-6300000D03*
%TO.N,Net-(LED13-K)*%
X78860606Y-6060606D03*
%TO.N,Net-(LED14-K)*%
X84760606Y-6060606D03*
%TO.N,Net-(LED15-K)*%
X90639394Y-6060606D03*
%TO.N,Net-(LED16-K)*%
X96560606Y-6060606D03*
%TO.N,Net-(LED17-K)*%
X8300000Y-12100000D03*
%TO.N,Net-(LED18-K)*%
X14100000Y-12100000D03*
%TO.N,Net-(LED19-K)*%
X20000000Y-12100000D03*
%TO.N,Net-(LED20-K)*%
X25900000Y-12100000D03*
%TO.N,Net-(LED21-K)*%
X31500000Y-13000000D03*
%TO.N,Net-(LED22-K)*%
X37300000Y-8100000D03*
%TO.N,Net-(LED23-K)*%
X42200000Y-10500000D03*
X38175735Y-8124265D03*
%TO.N,Net-(LED24-K)*%
X49875735Y-13175735D03*
X40000000Y-9400000D03*
%TO.N,Net-(LED25-K)*%
X55300000Y-12100000D03*
%TO.N,Net-(LED26-K)*%
X45939159Y-13736217D03*
X45900000Y-15400000D03*
X61200000Y-12100000D03*
%TO.N,Net-(LED27-K)*%
X46800000Y-15401000D03*
X67100000Y-12100000D03*
X46775734Y-13724263D03*
%TO.N,Net-(LED28-K)*%
X73000000Y-12100000D03*
X47600000Y-13700000D03*
X50933200Y-15001000D03*
%TO.N,Net-(LED29-K)*%
X78900000Y-12100000D03*
X59900000Y-14376735D03*
X48400000Y-13700000D03*
%TO.N,Net-(LED30-K)*%
X49200003Y-13700000D03*
X84700000Y-12100000D03*
X62600000Y-13900000D03*
%TO.N,Net-(LED31-K)*%
X90600000Y-12100000D03*
%TO.N,Net-(LED32-K)*%
X96500000Y-12100000D03*
%TO.N,Net-(LED33-K)*%
X8300000Y-18248217D03*
%TO.N,Net-(LED34-K)*%
X14200000Y-18248217D03*
%TO.N,Net-(LED35-K)*%
X20060606Y-18208823D03*
%TO.N,Net-(LED36-K)*%
X25900000Y-18248217D03*
%TO.N,Net-(LED37-K)*%
X31800000Y-18248217D03*
%TO.N,Net-(LED38-K)*%
X37700000Y-18248217D03*
%TO.N,Net-(LED39-K)*%
X43600000Y-18248217D03*
%TO.N,Net-(LED40-K)*%
X49400000Y-18248217D03*
%TO.N,Net-(LED41-K)*%
X54000000Y-16748217D03*
%TO.N,Net-(LED42-K)*%
X61800000Y-17448217D03*
%TO.N,Net-(LED43-K)*%
X62500000Y-16848217D03*
%TO.N,Net-(LED44-K)*%
X73000000Y-18448217D03*
%TO.N,Net-(LED45-K)*%
X78860606Y-18208823D03*
%TO.N,Net-(LED46-K)*%
X84760606Y-18208823D03*
%TO.N,Net-(LED47-K)*%
X90639394Y-18208823D03*
%TO.N,Net-(LED48-K)*%
X96560606Y-18208823D03*
%TO.N,Net-(LED49-K)*%
X8300000Y-24248217D03*
%TO.N,Net-(LED50-K)*%
X14100000Y-24248217D03*
%TO.N,Net-(LED51-K)*%
X20000000Y-24248217D03*
%TO.N,Net-(LED52-K)*%
X25900000Y-24248217D03*
%TO.N,Net-(LED53-K)*%
X31500000Y-25148217D03*
%TO.N,Net-(LED54-K)*%
X37300000Y-20248217D03*
%TO.N,Net-(LED55-K)*%
X42200000Y-22648217D03*
X38175735Y-20272482D03*
%TO.N,Net-(LED56-K)*%
X49875735Y-25323952D03*
X40000000Y-21548217D03*
%TO.N,Net-(LED57-K)*%
X55300000Y-24248217D03*
%TO.N,Net-(LED58-K)*%
X45900000Y-27548217D03*
X61200000Y-24248217D03*
X45939159Y-25884434D03*
%TO.N,Net-(LED59-K)*%
X46775734Y-25872480D03*
X67100000Y-24248217D03*
X46800000Y-27549217D03*
%TO.N,Net-(LED60-K)*%
X73000000Y-24248217D03*
X47600000Y-25848217D03*
X50933200Y-27149217D03*
%TO.N,Net-(LED61-K)*%
X59900000Y-26524952D03*
X48400000Y-25848217D03*
X78900000Y-24248217D03*
%TO.N,Net-(LED62-K)*%
X49200003Y-25848217D03*
X62600000Y-26048217D03*
X84700000Y-24248217D03*
%TO.N,Net-(LED63-K)*%
X90600000Y-24248217D03*
%TO.N,Net-(LED64-K)*%
X96500000Y-24248217D03*
%TO.N,Net-(LED65-K)*%
X8300000Y-30348217D03*
%TO.N,Net-(LED66-K)*%
X14200000Y-30348217D03*
%TO.N,Net-(LED67-K)*%
X20060606Y-30308823D03*
%TO.N,Net-(LED68-K)*%
X25900000Y-30348217D03*
%TO.N,Net-(LED69-K)*%
X31800000Y-30348217D03*
%TO.N,Net-(LED70-K)*%
X37700000Y-30348217D03*
%TO.N,Net-(LED71-K)*%
X43600000Y-30348217D03*
%TO.N,Net-(LED72-K)*%
X49400000Y-30348217D03*
%TO.N,Net-(LED73-K)*%
X54000000Y-28848217D03*
%TO.N,Net-(LED74-K)*%
X61800000Y-29548217D03*
%TO.N,Net-(LED75-K)*%
X62500000Y-28948217D03*
%TO.N,Net-(LED76-K)*%
X73000000Y-30548217D03*
%TO.N,Net-(LED77-K)*%
X78860606Y-30308823D03*
%TO.N,Net-(LED78-K)*%
X84760606Y-30308823D03*
%TO.N,Net-(LED79-K)*%
X90639394Y-30308823D03*
%TO.N,Net-(LED80-K)*%
X96560606Y-30308823D03*
%TO.N,Net-(LED81-K)*%
X8300000Y-36348217D03*
%TO.N,Net-(LED82-K)*%
X14100000Y-36348217D03*
%TO.N,Net-(LED83-K)*%
X20000000Y-36348217D03*
%TO.N,Net-(LED84-K)*%
X25900000Y-36348217D03*
%TO.N,Net-(LED85-K)*%
X31500000Y-37248217D03*
%TO.N,Net-(LED86-K)*%
X37300000Y-32348217D03*
%TO.N,Net-(LED87-K)*%
X38175735Y-32372482D03*
X42200000Y-34748217D03*
%TO.N,Net-(LED88-K)*%
X40000000Y-33648217D03*
X49875735Y-37423952D03*
%TO.N,Net-(LED89-K)*%
X55300000Y-36348217D03*
%TO.N,Net-(LED90-K)*%
X45939159Y-37984434D03*
X61200000Y-36348217D03*
X45900000Y-39648217D03*
%TO.N,Net-(LED91-K)*%
X46800000Y-39649217D03*
X67100000Y-36348217D03*
X46775734Y-37972480D03*
%TO.N,Net-(LED92-K)*%
X73000000Y-36348217D03*
X47600000Y-37948217D03*
X50933200Y-39249217D03*
%TO.N,Net-(LED93-K)*%
X59900000Y-38624952D03*
X48400000Y-37948217D03*
X78900000Y-36348217D03*
%TO.N,Net-(LED94-K)*%
X84700000Y-36348217D03*
X49200003Y-37948217D03*
X62600000Y-38148217D03*
%TO.N,Net-(LED95-K)*%
X90600000Y-36348217D03*
%TO.N,Net-(LED96-K)*%
X96500000Y-36348217D03*
%TO.N,Net-(LED97-K)*%
X8300000Y-42448217D03*
%TO.N,Net-(LED98-K)*%
X14200000Y-42448217D03*
%TO.N,Net-(LED99-K)*%
X20060606Y-42408823D03*
%TO.N,Net-(LED100-K)*%
X25900000Y-42448217D03*
%TO.N,Net-(LED101-K)*%
X31800000Y-42448217D03*
%TO.N,Net-(LED102-K)*%
X37700000Y-42448217D03*
%TO.N,Net-(LED103-K)*%
X43600000Y-42448217D03*
%TO.N,Net-(LED104-K)*%
X49400000Y-42448217D03*
%TO.N,Net-(LED105-K)*%
X54000000Y-40948217D03*
%TO.N,Net-(LED106-K)*%
X61800000Y-41648217D03*
%TO.N,Net-(LED107-K)*%
X62500000Y-41048217D03*
%TO.N,Net-(LED108-K)*%
X73000000Y-42648217D03*
%TO.N,Net-(LED109-K)*%
X78860606Y-42408823D03*
%TO.N,Net-(LED110-K)*%
X84760606Y-42408823D03*
%TO.N,Net-(LED111-K)*%
X90639394Y-42408823D03*
%TO.N,Net-(LED112-K)*%
X96560606Y-42408823D03*
%TO.N,Net-(LED113-K)*%
X8300000Y-48448217D03*
%TO.N,Net-(LED114-K)*%
X14100000Y-48448217D03*
%TO.N,Net-(LED115-K)*%
X20000000Y-48448217D03*
%TO.N,Net-(LED116-K)*%
X25900000Y-48448217D03*
%TO.N,Net-(LED117-K)*%
X31500000Y-49348217D03*
%TO.N,Net-(LED118-K)*%
X37300000Y-44448217D03*
%TO.N,Net-(LED119-K)*%
X38175735Y-44472482D03*
X42200000Y-46848217D03*
%TO.N,Net-(LED120-K)*%
X49875735Y-49523952D03*
X40000000Y-45748217D03*
%TO.N,Net-(LED121-K)*%
X55300000Y-48448217D03*
%TO.N,Net-(LED122-K)*%
X45939159Y-50084434D03*
X45900000Y-51748217D03*
X61200000Y-48448217D03*
%TO.N,Net-(LED123-K)*%
X46800000Y-51749217D03*
X46775734Y-50072480D03*
X67100000Y-48448217D03*
%TO.N,Net-(LED124-K)*%
X50933200Y-51349217D03*
X47600000Y-50048217D03*
X73000000Y-48448217D03*
%TO.N,Net-(LED125-K)*%
X78900000Y-48448217D03*
X59900000Y-50724952D03*
X48400000Y-50048217D03*
%TO.N,Net-(LED126-K)*%
X84700000Y-48448217D03*
X62600000Y-50248217D03*
X49200003Y-50048217D03*
%TO.N,Net-(LED127-K)*%
X90600000Y-48448217D03*
%TO.N,Net-(LED128-K)*%
X96500000Y-48448217D03*
%TO.N,Net-(LED129-K)*%
X8300000Y-54648217D03*
%TO.N,Net-(LED130-K)*%
X14200000Y-54648217D03*
%TO.N,Net-(LED131-K)*%
X20060606Y-54608823D03*
%TO.N,Net-(LED132-K)*%
X25900000Y-54648217D03*
%TO.N,Net-(LED133-K)*%
X31800000Y-54648217D03*
%TO.N,Net-(LED134-K)*%
X37700000Y-54648217D03*
%TO.N,Net-(LED135-K)*%
X43600000Y-54648217D03*
%TO.N,Net-(LED136-K)*%
X49400000Y-54648217D03*
%TO.N,Net-(LED137-K)*%
X54000000Y-53148217D03*
%TO.N,Net-(LED138-K)*%
X61800000Y-53848217D03*
%TO.N,Net-(LED139-K)*%
X62500000Y-53248217D03*
%TO.N,Net-(LED140-K)*%
X73000000Y-54848217D03*
%TO.N,Net-(LED141-K)*%
X78860606Y-54608823D03*
%TO.N,Net-(LED142-K)*%
X84760606Y-54608823D03*
%TO.N,Net-(LED143-K)*%
X90639394Y-54608823D03*
%TO.N,Net-(LED144-K)*%
X96560606Y-54608823D03*
%TO.N,Net-(LED145-K)*%
X8300000Y-60648217D03*
%TO.N,Net-(LED146-K)*%
X14100000Y-60648217D03*
%TO.N,Net-(LED147-K)*%
X20000000Y-60648217D03*
%TO.N,Net-(LED148-K)*%
X25900000Y-60648217D03*
%TO.N,Net-(LED149-K)*%
X31500000Y-61548217D03*
%TO.N,Net-(LED150-K)*%
X37300000Y-56648217D03*
%TO.N,Net-(LED151-K)*%
X42200000Y-59048217D03*
X38175735Y-56672482D03*
%TO.N,Net-(LED152-K)*%
X40000000Y-57948217D03*
X49875735Y-61723952D03*
%TO.N,Net-(LED153-K)*%
X55300000Y-60648217D03*
%TO.N,Net-(LED154-K)*%
X45900000Y-63948217D03*
X61200000Y-60648217D03*
X45939159Y-62284434D03*
%TO.N,Net-(LED155-K)*%
X46775734Y-62272480D03*
X46800000Y-63949217D03*
X67100000Y-60648217D03*
%TO.N,Net-(LED156-K)*%
X50933200Y-63549217D03*
X47600000Y-62248217D03*
X73000000Y-60648217D03*
%TO.N,Net-(LED157-K)*%
X78900000Y-60648217D03*
X59900000Y-62924952D03*
X48400000Y-62248217D03*
%TO.N,Net-(LED158-K)*%
X84700000Y-60648217D03*
X49200003Y-62248217D03*
X62600000Y-62448217D03*
%TO.N,Net-(LED159-K)*%
X90600000Y-60648217D03*
%TO.N,Net-(LED160-K)*%
X96500000Y-60648217D03*
%TO.N,Net-(LED161-K)*%
X8300000Y-66748217D03*
%TO.N,Net-(LED162-K)*%
X14200000Y-66748217D03*
%TO.N,Net-(LED163-K)*%
X20060606Y-66708823D03*
%TO.N,Net-(LED164-K)*%
X25900000Y-66748217D03*
%TO.N,Net-(LED165-K)*%
X31800000Y-66748217D03*
%TO.N,Net-(LED166-K)*%
X37700000Y-66748217D03*
%TO.N,Net-(LED167-K)*%
X43600000Y-66748217D03*
%TO.N,Net-(LED168-K)*%
X49400000Y-66748217D03*
%TO.N,Net-(LED169-K)*%
X54000000Y-65248217D03*
%TO.N,Net-(LED170-K)*%
X61800000Y-65948217D03*
%TO.N,Net-(LED171-K)*%
X62500000Y-65348217D03*
%TO.N,Net-(LED172-K)*%
X73000000Y-66948217D03*
%TO.N,Net-(LED173-K)*%
X78860606Y-66708823D03*
%TO.N,Net-(LED174-K)*%
X84760606Y-66708823D03*
%TO.N,Net-(LED175-K)*%
X90639394Y-66708823D03*
%TO.N,Net-(LED176-K)*%
X96560606Y-66708823D03*
%TO.N,Net-(LED177-K)*%
X8300000Y-72748217D03*
%TO.N,Net-(LED178-K)*%
X14100000Y-72748217D03*
%TO.N,Net-(LED179-K)*%
X20000000Y-72748217D03*
%TO.N,Net-(LED180-K)*%
X25900000Y-72748217D03*
%TO.N,Net-(LED181-K)*%
X31500000Y-73648217D03*
%TO.N,Net-(LED182-K)*%
X37300000Y-68748217D03*
%TO.N,Net-(LED183-K)*%
X38175735Y-68772482D03*
X42200000Y-71148217D03*
%TO.N,Net-(LED184-K)*%
X49875735Y-73823952D03*
X40000000Y-70048217D03*
%TO.N,Net-(LED185-K)*%
X55300000Y-72748217D03*
%TO.N,Net-(LED186-K)*%
X61200000Y-72748217D03*
X45900000Y-76048217D03*
X45939159Y-74384434D03*
%TO.N,Net-(LED187-K)*%
X46800000Y-76049217D03*
X46775734Y-74372480D03*
X67100000Y-72748217D03*
%TO.N,Net-(LED188-K)*%
X73000000Y-72748217D03*
X47600000Y-74348217D03*
X50933200Y-75649217D03*
%TO.N,Net-(LED189-K)*%
X78900000Y-72748217D03*
X48400000Y-74348217D03*
X59900000Y-75024952D03*
%TO.N,Net-(LED190-K)*%
X49200003Y-74348217D03*
X62600000Y-74548217D03*
X84700000Y-72748217D03*
%TO.N,Net-(LED191-K)*%
X90600000Y-72748217D03*
%TO.N,Net-(LED192-K)*%
X96500000Y-72748217D03*
%TO.N,Net-(LED193-K)*%
X8300000Y-78848217D03*
%TO.N,Net-(LED194-K)*%
X14200000Y-78848217D03*
%TO.N,Net-(LED195-K)*%
X20060606Y-78808823D03*
%TO.N,Net-(LED196-K)*%
X25900000Y-78848217D03*
%TO.N,Net-(LED197-K)*%
X31800000Y-78848217D03*
%TO.N,Net-(LED198-K)*%
X37700000Y-78848217D03*
%TO.N,Net-(LED199-K)*%
X43600000Y-78848217D03*
%TO.N,Net-(LED200-K)*%
X49400000Y-78848217D03*
%TO.N,Net-(LED201-K)*%
X54000000Y-77348217D03*
%TO.N,Net-(LED202-K)*%
X61800000Y-78048217D03*
%TO.N,Net-(LED203-K)*%
X62500000Y-77448217D03*
%TO.N,Net-(LED204-K)*%
X73000000Y-79048217D03*
%TO.N,Net-(LED205-K)*%
X78860606Y-78808823D03*
%TO.N,Net-(LED206-K)*%
X84760606Y-78808823D03*
%TO.N,Net-(LED207-K)*%
X90639394Y-78808823D03*
%TO.N,Net-(LED208-K)*%
X96560606Y-78808823D03*
%TO.N,Net-(LED209-K)*%
X8300000Y-84848217D03*
%TO.N,Net-(LED210-K)*%
X14100000Y-84848217D03*
%TO.N,Net-(LED211-K)*%
X20000000Y-84848217D03*
%TO.N,Net-(LED212-K)*%
X25900000Y-84848217D03*
%TO.N,Net-(LED213-K)*%
X31500000Y-85748217D03*
%TO.N,Net-(LED214-K)*%
X37300000Y-80848217D03*
%TO.N,Net-(LED215-K)*%
X42200000Y-83248217D03*
X38175735Y-80872482D03*
%TO.N,Net-(LED216-K)*%
X49875735Y-85923952D03*
X40000000Y-82148217D03*
%TO.N,Net-(LED217-K)*%
X55300000Y-84848217D03*
%TO.N,Net-(LED218-K)*%
X45939159Y-86484434D03*
X45900000Y-88148217D03*
X61200000Y-84848217D03*
%TO.N,Net-(LED219-K)*%
X46775734Y-86472480D03*
X46800000Y-88149217D03*
X67100000Y-84848217D03*
%TO.N,Net-(LED220-K)*%
X73000000Y-84848217D03*
X47600000Y-86448217D03*
X50933200Y-87749217D03*
%TO.N,Net-(LED221-K)*%
X59900000Y-87124952D03*
X48400000Y-86448217D03*
X78900000Y-84848217D03*
%TO.N,Net-(LED222-K)*%
X62600000Y-86648217D03*
X49200003Y-86448217D03*
X84700000Y-84848217D03*
%TO.N,Net-(LED223-K)*%
X90600000Y-84848217D03*
%TO.N,Net-(LED224-K)*%
X96500000Y-84848217D03*
%TO.N,Net-(LED225-K)*%
X8300000Y-90948217D03*
%TO.N,Net-(LED226-K)*%
X14200000Y-90948217D03*
%TO.N,Net-(LED227-K)*%
X20060606Y-90908823D03*
%TO.N,Net-(LED228-K)*%
X25900000Y-90948217D03*
%TO.N,Net-(LED229-K)*%
X31800000Y-90948217D03*
%TO.N,Net-(LED230-K)*%
X37700000Y-90948217D03*
%TO.N,Net-(LED231-K)*%
X43600000Y-90948217D03*
%TO.N,Net-(LED232-K)*%
X49400000Y-90948217D03*
%TO.N,Net-(LED233-K)*%
X54000000Y-89448217D03*
%TO.N,Net-(LED234-K)*%
X61800000Y-90148217D03*
%TO.N,Net-(LED235-K)*%
X62500000Y-89548217D03*
%TO.N,Net-(LED236-K)*%
X73000000Y-91148217D03*
%TO.N,Net-(LED237-K)*%
X78860606Y-90908823D03*
%TO.N,Net-(LED238-K)*%
X84760606Y-90908823D03*
%TO.N,Net-(LED239-K)*%
X90639394Y-90908823D03*
%TO.N,Net-(LED240-K)*%
X96560606Y-90908823D03*
%TO.N,Net-(LED241-K)*%
X8300000Y-96948217D03*
%TO.N,Net-(LED242-K)*%
X14100000Y-96948217D03*
%TO.N,Net-(LED243-K)*%
X20000000Y-96948217D03*
%TO.N,Net-(LED244-K)*%
X25900000Y-96948217D03*
%TO.N,Net-(LED245-K)*%
X31500000Y-97848217D03*
%TO.N,Net-(LED246-K)*%
X37300000Y-92948217D03*
%TO.N,Net-(LED247-K)*%
X42200000Y-95348217D03*
X38175735Y-92972482D03*
%TO.N,Net-(LED248-K)*%
X40000000Y-94248217D03*
X49875735Y-98023952D03*
%TO.N,Net-(LED249-K)*%
X55300000Y-96948217D03*
%TO.N,Net-(LED250-K)*%
X61200000Y-96948217D03*
X45900000Y-100248217D03*
X45939159Y-98584434D03*
%TO.N,Net-(LED251-K)*%
X67100000Y-96948217D03*
X46775734Y-98572480D03*
X46800000Y-100249217D03*
%TO.N,Net-(LED252-K)*%
X73000000Y-96948217D03*
X50933200Y-99849217D03*
X47600000Y-98548217D03*
%TO.N,Net-(LED253-K)*%
X78900000Y-96948217D03*
X48400000Y-98548217D03*
X59900000Y-99224952D03*
%TO.N,Net-(LED254-K)*%
X49200003Y-98548217D03*
X84700000Y-96948217D03*
X62600000Y-98748217D03*
%TO.N,Net-(LED255-K)*%
X90600000Y-96948217D03*
%TO.N,Net-(LED256-K)*%
X96500000Y-96948217D03*
%TO.N,NOT_OE*%
X33500000Y-49748217D03*
X66026471Y-159769429D03*
X66026471Y-135469429D03*
X66026471Y-26369429D03*
X33500000Y-146748217D03*
X33500000Y-158848217D03*
X33500000Y-13400000D03*
X66026471Y-14269429D03*
X33500000Y-122548217D03*
X33500000Y-171048217D03*
X33500000Y-86148217D03*
X66026471Y-86969429D03*
X66026471Y-171869429D03*
X33500000Y-183148217D03*
X33500000Y-25548217D03*
X33500000Y-37648217D03*
X33500000Y-98248217D03*
X33500000Y-110448217D03*
X66026471Y-62769429D03*
X66026471Y-123369429D03*
X66026471Y-111269429D03*
X73200000Y-217400000D03*
X33500000Y-61948217D03*
X66026471Y-38469429D03*
X66026471Y-74869429D03*
X33500000Y-134648217D03*
X66026471Y-50669429D03*
X66026471Y-99169429D03*
X65996605Y-2104809D03*
X66026471Y-147569429D03*
X33500000Y-195248217D03*
X33500000Y-74048217D03*
X66026471Y-183969429D03*
%TO.N,CLK*%
X66900000Y-179748217D03*
X66900000Y-82748217D03*
X33124265Y-80872482D03*
X66900000Y-191848217D03*
X33124265Y-92972482D03*
X66900000Y-167648217D03*
X33124265Y-20272482D03*
X66900000Y-155448217D03*
X33124265Y-56672482D03*
X33124265Y-44472482D03*
X33124265Y-189972482D03*
X66900000Y-94848217D03*
X66900000Y-70648217D03*
X33124265Y-68772482D03*
X33124265Y-129372482D03*
X66900000Y-143348217D03*
X66900000Y-10000000D03*
X66900000Y-107048217D03*
X66900000Y-119148217D03*
X66900000Y-46348217D03*
X66900000Y-34248217D03*
X66900000Y-131248217D03*
X33124265Y-165772482D03*
X66900000Y-58548217D03*
X33124265Y-8124265D03*
X33124265Y-105172482D03*
X33124265Y-117272482D03*
X72300000Y-214600000D03*
X66900000Y-22148217D03*
X33124265Y-141472482D03*
X33124265Y-177872482D03*
X33124265Y-32372482D03*
X33124265Y-153572482D03*
%TO.N,VDD*%
X73200000Y-221100000D03*
X72800000Y-76248217D03*
X72800000Y-173248217D03*
X26900000Y-111948217D03*
X25800000Y5300000D03*
X72800000Y-27748217D03*
X96200000Y12800000D03*
X93300000Y18400000D03*
X72800000Y-148948217D03*
X72800000Y-161148217D03*
X11400000Y17400000D03*
X34400000Y-199600000D03*
X24100000Y6100000D03*
X72800000Y-15648217D03*
X72800000Y-112648217D03*
X25000000Y5300000D03*
X26900000Y-39148217D03*
X25800000Y6900000D03*
X8300000Y-219400000D03*
X72800000Y-136848217D03*
X26900000Y-172548217D03*
X89800000Y13900000D03*
X72800000Y-100548217D03*
X22400000Y11500000D03*
X26900000Y-124048217D03*
X25000000Y6900000D03*
X26900000Y-63448217D03*
X73900000Y-201800000D03*
X26900000Y-136148217D03*
X72800000Y-3500000D03*
X6100000Y-223700000D03*
X72800000Y-64148217D03*
X25000000Y6100000D03*
X72800000Y-88348217D03*
X72800000Y-39848217D03*
X24100000Y5300000D03*
X95600000Y-222200000D03*
X26900000Y-160348217D03*
X24100000Y6900000D03*
X26900000Y-184648217D03*
X26900000Y-51248217D03*
X26900000Y-14900000D03*
X72800000Y-52048217D03*
X8000000Y-212000000D03*
X26900000Y-87648217D03*
X26900000Y-27048217D03*
X26900000Y-75548217D03*
X26900000Y-148248217D03*
X72800000Y-124748217D03*
X25800000Y6100000D03*
X72800000Y-185348217D03*
X73800000Y-208400000D03*
X26900000Y-99748217D03*
%TO.N,LE*%
X34000000Y-56648217D03*
X34000000Y-80848217D03*
X34000000Y-189948217D03*
X66000000Y-167648217D03*
X34000000Y-32348217D03*
X34000000Y-68748217D03*
X34000000Y-129348217D03*
X66000000Y-82748217D03*
X66000000Y-58548217D03*
X34000000Y-117248217D03*
X66000000Y-179748217D03*
X66000000Y-22148217D03*
X66000000Y-70648217D03*
X66000000Y-34248217D03*
X66000000Y-10000000D03*
X66000000Y-143348217D03*
X34000000Y-92948217D03*
X66000000Y-94848217D03*
X34000000Y-20248217D03*
X66000000Y-107048217D03*
X66000000Y-46348217D03*
X34000000Y-141448217D03*
X34000000Y-153548217D03*
X66000000Y-131248217D03*
X71600000Y-217400000D03*
X34000000Y-165748217D03*
X66000000Y-155448217D03*
X34000000Y-177848217D03*
X34000000Y-8100000D03*
X34000000Y-44448217D03*
X66000000Y-191848217D03*
X66000000Y-119148217D03*
X34000000Y-105148217D03*
%TO.N,SDO-01*%
X67200000Y-2100000D03*
X32300000Y-8100000D03*
%TO.N,Net-(LED257-K)*%
X8300000Y-103148217D03*
%TO.N,Net-(LED258-K)*%
X14200000Y-103148217D03*
%TO.N,Net-(LED259-K)*%
X20060606Y-103108823D03*
%TO.N,Net-(LED260-K)*%
X25900000Y-103148217D03*
%TO.N,Net-(LED261-K)*%
X31800000Y-103148217D03*
%TO.N,Net-(LED262-K)*%
X37700000Y-103148217D03*
%TO.N,Net-(LED263-K)*%
X43600000Y-103148217D03*
%TO.N,Net-(LED264-K)*%
X49400000Y-103148217D03*
%TO.N,Net-(LED265-K)*%
X54000000Y-101648217D03*
%TO.N,Net-(LED266-K)*%
X61800000Y-102348217D03*
%TO.N,Net-(LED267-K)*%
X62500000Y-101748217D03*
%TO.N,Net-(LED268-K)*%
X73000000Y-103348217D03*
%TO.N,Net-(LED269-K)*%
X78860606Y-103108823D03*
%TO.N,Net-(LED270-K)*%
X84760606Y-103108823D03*
%TO.N,Net-(LED271-K)*%
X90639394Y-103108823D03*
%TO.N,Net-(LED272-K)*%
X96560606Y-103108823D03*
%TO.N,Net-(LED273-K)*%
X8300000Y-109148217D03*
%TO.N,Net-(LED274-K)*%
X14100000Y-109148217D03*
%TO.N,Net-(LED275-K)*%
X20000000Y-109148217D03*
%TO.N,Net-(LED276-K)*%
X25900000Y-109148217D03*
%TO.N,Net-(LED277-K)*%
X31500000Y-110048217D03*
%TO.N,Net-(LED278-K)*%
X37300000Y-105148217D03*
%TO.N,Net-(LED279-K)*%
X38175735Y-105172482D03*
X42200000Y-107548217D03*
%TO.N,Net-(LED280-K)*%
X40000000Y-106448217D03*
X49875735Y-110223952D03*
%TO.N,Net-(LED281-K)*%
X55300000Y-109148217D03*
%TO.N,Net-(LED282-K)*%
X45939159Y-110784434D03*
X61200000Y-109148217D03*
X45900000Y-112448217D03*
%TO.N,Net-(LED283-K)*%
X46775734Y-110772480D03*
X67100000Y-109148217D03*
X46800000Y-112449217D03*
%TO.N,Net-(LED284-K)*%
X50933200Y-112049217D03*
X47600000Y-110748217D03*
X73000000Y-109148217D03*
%TO.N,Net-(LED285-K)*%
X78900000Y-109148217D03*
X48400000Y-110748217D03*
X59900000Y-111424952D03*
%TO.N,Net-(LED286-K)*%
X62600000Y-110948217D03*
X49200003Y-110748217D03*
X84700000Y-109148217D03*
%TO.N,Net-(LED287-K)*%
X90600000Y-109148217D03*
%TO.N,Net-(LED288-K)*%
X96500000Y-109148217D03*
%TO.N,Net-(LED289-K)*%
X8300000Y-115248217D03*
%TO.N,Net-(LED290-K)*%
X14200000Y-115248217D03*
%TO.N,Net-(LED291-K)*%
X20060606Y-115208823D03*
%TO.N,Net-(LED292-K)*%
X25900000Y-115248217D03*
%TO.N,Net-(LED293-K)*%
X31800000Y-115248217D03*
%TO.N,Net-(LED294-K)*%
X37700000Y-115248217D03*
%TO.N,Net-(LED295-K)*%
X43600000Y-115248217D03*
%TO.N,Net-(LED296-K)*%
X49400000Y-115248217D03*
%TO.N,Net-(LED297-K)*%
X54000000Y-113748217D03*
%TO.N,Net-(LED298-K)*%
X61800000Y-114448217D03*
%TO.N,Net-(LED299-K)*%
X62500000Y-113848217D03*
%TO.N,Net-(LED300-K)*%
X73000000Y-115448217D03*
%TO.N,Net-(LED301-K)*%
X78860606Y-115208823D03*
%TO.N,Net-(LED302-K)*%
X84760606Y-115208823D03*
%TO.N,Net-(LED303-K)*%
X90639394Y-115208823D03*
%TO.N,Net-(LED304-K)*%
X96560606Y-115208823D03*
%TO.N,Net-(LED305-K)*%
X8300000Y-121248217D03*
%TO.N,Net-(LED306-K)*%
X14100000Y-121248217D03*
%TO.N,Net-(LED307-K)*%
X20000000Y-121248217D03*
%TO.N,Net-(LED308-K)*%
X25900000Y-121248217D03*
%TO.N,Net-(LED309-K)*%
X31500000Y-122148217D03*
%TO.N,Net-(LED310-K)*%
X37300000Y-117248217D03*
%TO.N,Net-(LED311-K)*%
X38175735Y-117272482D03*
X42200000Y-119648217D03*
%TO.N,Net-(LED312-K)*%
X40000000Y-118548217D03*
X49875735Y-122323952D03*
%TO.N,Net-(LED313-K)*%
X55300000Y-121248217D03*
%TO.N,Net-(LED314-K)*%
X45939159Y-122884434D03*
X61200000Y-121248217D03*
X45900000Y-124548217D03*
%TO.N,Net-(LED315-K)*%
X67100000Y-121248217D03*
X46775734Y-122872480D03*
X46800000Y-124549217D03*
%TO.N,Net-(LED316-K)*%
X73000000Y-121248217D03*
X47600000Y-122848217D03*
X50933200Y-124149217D03*
%TO.N,Net-(LED317-K)*%
X78900000Y-121248217D03*
X48400000Y-122848217D03*
X59900000Y-123524952D03*
%TO.N,Net-(LED318-K)*%
X49200003Y-122848217D03*
X62600000Y-123048217D03*
X84700000Y-121248217D03*
%TO.N,Net-(LED319-K)*%
X90600000Y-121248217D03*
%TO.N,Net-(LED320-K)*%
X96500000Y-121248217D03*
%TO.N,Net-(LED321-K)*%
X8300000Y-127348217D03*
%TO.N,Net-(LED322-K)*%
X14200000Y-127348217D03*
%TO.N,Net-(LED323-K)*%
X20060606Y-127308823D03*
%TO.N,Net-(LED324-K)*%
X25900000Y-127348217D03*
%TO.N,Net-(LED325-K)*%
X31800000Y-127348217D03*
%TO.N,Net-(LED326-K)*%
X37700000Y-127348217D03*
%TO.N,Net-(LED327-K)*%
X43600000Y-127348217D03*
%TO.N,Net-(LED328-K)*%
X49400000Y-127348217D03*
%TO.N,Net-(LED329-K)*%
X54000000Y-125848217D03*
%TO.N,Net-(LED330-K)*%
X61800000Y-126548217D03*
%TO.N,Net-(LED331-K)*%
X62500000Y-125948217D03*
%TO.N,Net-(LED332-K)*%
X73000000Y-127548217D03*
%TO.N,Net-(LED333-K)*%
X78860606Y-127308823D03*
%TO.N,Net-(LED334-K)*%
X84760606Y-127308823D03*
%TO.N,Net-(LED335-K)*%
X90639394Y-127308823D03*
%TO.N,Net-(LED336-K)*%
X96560606Y-127308823D03*
%TO.N,Net-(LED337-K)*%
X8300000Y-133348217D03*
%TO.N,Net-(LED338-K)*%
X14100000Y-133348217D03*
%TO.N,Net-(LED339-K)*%
X20000000Y-133348217D03*
%TO.N,Net-(LED340-K)*%
X25900000Y-133348217D03*
%TO.N,Net-(LED341-K)*%
X31500000Y-134248217D03*
%TO.N,Net-(LED342-K)*%
X37300000Y-129348217D03*
%TO.N,Net-(LED343-K)*%
X38175735Y-129372482D03*
X42200000Y-131748217D03*
%TO.N,Net-(LED344-K)*%
X49875735Y-134423952D03*
X40000000Y-130648217D03*
%TO.N,Net-(LED345-K)*%
X55300000Y-133348217D03*
%TO.N,Net-(LED346-K)*%
X45900000Y-136648217D03*
X61200000Y-133348217D03*
X45939159Y-134984434D03*
%TO.N,Net-(LED347-K)*%
X67100000Y-133348217D03*
X46800000Y-136649217D03*
X46775734Y-134972480D03*
%TO.N,Net-(LED348-K)*%
X50933200Y-136249217D03*
X47600000Y-134948217D03*
X73000000Y-133348217D03*
%TO.N,Net-(LED349-K)*%
X78900000Y-133348217D03*
X59900000Y-135624952D03*
X48400000Y-134948217D03*
%TO.N,Net-(LED350-K)*%
X62600000Y-135148217D03*
X49200003Y-134948217D03*
X84700000Y-133348217D03*
%TO.N,Net-(LED351-K)*%
X90600000Y-133348217D03*
%TO.N,Net-(LED352-K)*%
X96500000Y-133348217D03*
%TO.N,Net-(LED353-K)*%
X8300000Y-139448217D03*
%TO.N,Net-(LED354-K)*%
X14200000Y-139448217D03*
%TO.N,Net-(LED355-K)*%
X20060606Y-139408823D03*
%TO.N,Net-(LED356-K)*%
X25900000Y-139448217D03*
%TO.N,Net-(LED357-K)*%
X31800000Y-139448217D03*
%TO.N,Net-(LED358-K)*%
X37700000Y-139448217D03*
%TO.N,Net-(LED359-K)*%
X43600000Y-139448217D03*
%TO.N,Net-(LED360-K)*%
X49400000Y-139448217D03*
%TO.N,Net-(LED361-K)*%
X54000000Y-137948217D03*
%TO.N,Net-(LED362-K)*%
X61800000Y-138648217D03*
%TO.N,Net-(LED363-K)*%
X62500000Y-138048217D03*
%TO.N,Net-(LED364-K)*%
X73000000Y-139648217D03*
%TO.N,Net-(LED365-K)*%
X78860606Y-139408823D03*
%TO.N,Net-(LED366-K)*%
X84760606Y-139408823D03*
%TO.N,Net-(LED367-K)*%
X90639394Y-139408823D03*
%TO.N,Net-(LED368-K)*%
X96560606Y-139408823D03*
%TO.N,Net-(LED369-K)*%
X8300000Y-145448217D03*
%TO.N,Net-(LED370-K)*%
X14100000Y-145448217D03*
%TO.N,Net-(LED371-K)*%
X20000000Y-145448217D03*
%TO.N,Net-(LED372-K)*%
X25900000Y-145448217D03*
%TO.N,Net-(LED373-K)*%
X31500000Y-146348217D03*
%TO.N,Net-(LED374-K)*%
X37300000Y-141448217D03*
%TO.N,Net-(LED375-K)*%
X42200000Y-143848217D03*
X38175735Y-141472482D03*
%TO.N,Net-(LED376-K)*%
X49875735Y-146523952D03*
X40000000Y-142748217D03*
%TO.N,Net-(LED377-K)*%
X55300000Y-145448217D03*
%TO.N,Net-(LED378-K)*%
X45900000Y-148748217D03*
X45939159Y-147084434D03*
X61200000Y-145448217D03*
%TO.N,Net-(LED379-K)*%
X46800000Y-148749217D03*
X46775734Y-147072480D03*
X67100000Y-145448217D03*
%TO.N,Net-(LED380-K)*%
X73000000Y-145448217D03*
X47600000Y-147048217D03*
X50933200Y-148349217D03*
%TO.N,Net-(LED381-K)*%
X59900000Y-147724952D03*
X48400000Y-147048217D03*
X78900000Y-145448217D03*
%TO.N,Net-(LED382-K)*%
X84700000Y-145448217D03*
X62600000Y-147248217D03*
X49200003Y-147048217D03*
%TO.N,Net-(LED383-K)*%
X90600000Y-145448217D03*
%TO.N,Net-(LED384-K)*%
X96500000Y-145448217D03*
%TO.N,Net-(LED385-K)*%
X8300000Y-151548217D03*
%TO.N,Net-(LED386-K)*%
X14200000Y-151548217D03*
%TO.N,Net-(LED387-K)*%
X20060606Y-151508823D03*
%TO.N,Net-(LED388-K)*%
X25900000Y-151548217D03*
%TO.N,Net-(LED389-K)*%
X31800000Y-151548217D03*
%TO.N,Net-(LED390-K)*%
X37700000Y-151548217D03*
%TO.N,Net-(LED391-K)*%
X43600000Y-151548217D03*
%TO.N,Net-(LED392-K)*%
X49400000Y-151548217D03*
%TO.N,Net-(LED393-K)*%
X54000000Y-150048217D03*
%TO.N,Net-(LED394-K)*%
X61800000Y-150748217D03*
%TO.N,Net-(LED395-K)*%
X62500000Y-150148217D03*
%TO.N,Net-(LED396-K)*%
X73000000Y-151748217D03*
%TO.N,Net-(LED397-K)*%
X78860606Y-151508823D03*
%TO.N,Net-(LED398-K)*%
X84760606Y-151508823D03*
%TO.N,Net-(LED399-K)*%
X90639394Y-151508823D03*
%TO.N,Net-(LED400-K)*%
X96560606Y-151508823D03*
%TO.N,Net-(LED401-K)*%
X8300000Y-157548217D03*
%TO.N,Net-(LED402-K)*%
X14100000Y-157548217D03*
%TO.N,Net-(LED403-K)*%
X20000000Y-157548217D03*
%TO.N,Net-(LED404-K)*%
X25900000Y-157548217D03*
%TO.N,Net-(LED405-K)*%
X31500000Y-158448217D03*
%TO.N,Net-(LED406-K)*%
X37300000Y-153548217D03*
%TO.N,Net-(LED407-K)*%
X38175735Y-153572482D03*
X42200000Y-155948217D03*
%TO.N,Net-(LED408-K)*%
X40000000Y-154848217D03*
X49875735Y-158623952D03*
%TO.N,Net-(LED409-K)*%
X55300000Y-157548217D03*
%TO.N,Net-(LED410-K)*%
X61200000Y-157548217D03*
X45939159Y-159184434D03*
X45900000Y-160848217D03*
%TO.N,Net-(LED411-K)*%
X46775734Y-159172480D03*
X67100000Y-157548217D03*
X46800000Y-160849217D03*
%TO.N,Net-(LED412-K)*%
X73000000Y-157548217D03*
X47600000Y-159148217D03*
X50933200Y-160449217D03*
%TO.N,Net-(LED413-K)*%
X78900000Y-157548217D03*
X48400000Y-159148217D03*
X59900000Y-159824952D03*
%TO.N,Net-(LED414-K)*%
X49200003Y-159148217D03*
X84700000Y-157548217D03*
X62600000Y-159348217D03*
%TO.N,Net-(LED415-K)*%
X90600000Y-157548217D03*
%TO.N,Net-(LED416-K)*%
X96500000Y-157548217D03*
%TO.N,Net-(LED417-K)*%
X8300000Y-163748217D03*
%TO.N,Net-(LED418-K)*%
X14200000Y-163748217D03*
%TO.N,Net-(LED419-K)*%
X20060606Y-163708823D03*
%TO.N,Net-(LED420-K)*%
X25900000Y-163748217D03*
%TO.N,Net-(LED421-K)*%
X31800000Y-163748217D03*
%TO.N,Net-(LED422-K)*%
X37700000Y-163748217D03*
%TO.N,Net-(LED423-K)*%
X43600000Y-163748217D03*
%TO.N,Net-(LED424-K)*%
X49400000Y-163748217D03*
%TO.N,Net-(LED425-K)*%
X54000000Y-162248217D03*
%TO.N,Net-(LED426-K)*%
X61800000Y-162948217D03*
%TO.N,Net-(LED427-K)*%
X62500000Y-162348217D03*
%TO.N,Net-(LED428-K)*%
X73000000Y-163948217D03*
%TO.N,Net-(LED429-K)*%
X78860606Y-163708823D03*
%TO.N,Net-(LED430-K)*%
X84760606Y-163708823D03*
%TO.N,Net-(LED431-K)*%
X90639394Y-163708823D03*
%TO.N,Net-(LED432-K)*%
X96560606Y-163708823D03*
%TO.N,Net-(LED433-K)*%
X8300000Y-169748217D03*
%TO.N,Net-(LED434-K)*%
X14100000Y-169748217D03*
%TO.N,Net-(LED435-K)*%
X20000000Y-169748217D03*
%TO.N,Net-(LED436-K)*%
X25900000Y-169748217D03*
%TO.N,Net-(LED437-K)*%
X31500000Y-170648217D03*
%TO.N,Net-(LED438-K)*%
X37300000Y-165748217D03*
%TO.N,Net-(LED439-K)*%
X42200000Y-168148217D03*
X38175735Y-165772482D03*
%TO.N,Net-(LED440-K)*%
X40000000Y-167048217D03*
X49875735Y-170823952D03*
%TO.N,Net-(LED441-K)*%
X55300000Y-169748217D03*
%TO.N,Net-(LED442-K)*%
X45900000Y-173048217D03*
X61200000Y-169748217D03*
X45939159Y-171384434D03*
%TO.N,Net-(LED443-K)*%
X46800000Y-173049217D03*
X67100000Y-169748217D03*
X46775734Y-171372480D03*
%TO.N,Net-(LED444-K)*%
X73000000Y-169748217D03*
X47600000Y-171348217D03*
X50933200Y-172649217D03*
%TO.N,Net-(LED445-K)*%
X48400000Y-171348217D03*
X78900000Y-169748217D03*
X59900000Y-172024952D03*
%TO.N,Net-(LED446-K)*%
X62600000Y-171548217D03*
X49200003Y-171348217D03*
X84700000Y-169748217D03*
%TO.N,Net-(LED447-K)*%
X90600000Y-169748217D03*
%TO.N,Net-(LED448-K)*%
X96500000Y-169748217D03*
%TO.N,Net-(LED449-K)*%
X8300000Y-175848217D03*
%TO.N,Net-(LED450-K)*%
X14200000Y-175848217D03*
%TO.N,Net-(LED451-K)*%
X20060606Y-175808823D03*
%TO.N,Net-(LED452-K)*%
X25900000Y-175848217D03*
%TO.N,Net-(LED453-K)*%
X31800000Y-175848217D03*
%TO.N,Net-(LED454-K)*%
X37700000Y-175848217D03*
%TO.N,Net-(LED455-K)*%
X43600000Y-175848217D03*
%TO.N,Net-(LED456-K)*%
X49400000Y-175848217D03*
%TO.N,Net-(LED457-K)*%
X54000000Y-174348217D03*
%TO.N,Net-(LED458-K)*%
X61800000Y-175048217D03*
%TO.N,Net-(LED459-K)*%
X62500000Y-174448217D03*
%TO.N,Net-(LED460-K)*%
X73000000Y-176048217D03*
%TO.N,Net-(LED461-K)*%
X78860606Y-175808823D03*
%TO.N,Net-(LED462-K)*%
X84760606Y-175808823D03*
%TO.N,Net-(LED463-K)*%
X90639394Y-175808823D03*
%TO.N,Net-(LED464-K)*%
X96560606Y-175808823D03*
%TO.N,Net-(LED465-K)*%
X8300000Y-181848217D03*
%TO.N,Net-(LED466-K)*%
X14100000Y-181848217D03*
%TO.N,Net-(LED467-K)*%
X20000000Y-181848217D03*
%TO.N,Net-(LED468-K)*%
X25900000Y-181848217D03*
%TO.N,Net-(LED469-K)*%
X31500000Y-182748217D03*
%TO.N,Net-(LED470-K)*%
X37300000Y-177848217D03*
%TO.N,Net-(LED471-K)*%
X38175735Y-177872482D03*
X42200000Y-180248217D03*
%TO.N,Net-(LED472-K)*%
X40000000Y-179148217D03*
X49875735Y-182923952D03*
%TO.N,Net-(LED473-K)*%
X55300000Y-181848217D03*
%TO.N,Net-(LED474-K)*%
X45939159Y-183484434D03*
X61200000Y-181848217D03*
X45900000Y-185148217D03*
%TO.N,Net-(LED475-K)*%
X46800000Y-185149217D03*
X46775734Y-183472480D03*
X67100000Y-181848217D03*
%TO.N,Net-(LED476-K)*%
X47600000Y-183448217D03*
X73000000Y-181848217D03*
X50933200Y-184749217D03*
%TO.N,Net-(LED477-K)*%
X59900000Y-184124952D03*
X48400000Y-183448217D03*
X78900000Y-181848217D03*
%TO.N,Net-(LED478-K)*%
X49200003Y-183448217D03*
X62600000Y-183648217D03*
X84700000Y-181848217D03*
%TO.N,Net-(LED479-K)*%
X90600000Y-181848217D03*
%TO.N,Net-(LED480-K)*%
X96500000Y-181848217D03*
%TO.N,Net-(LED481-K)*%
X8300000Y-187948217D03*
%TO.N,Net-(LED482-K)*%
X14200000Y-187948217D03*
%TO.N,Net-(LED483-K)*%
X20060606Y-187908823D03*
%TO.N,Net-(LED484-K)*%
X25900000Y-187948217D03*
%TO.N,Net-(LED485-K)*%
X31800000Y-187948217D03*
%TO.N,Net-(LED486-K)*%
X37700000Y-187948217D03*
%TO.N,Net-(LED487-K)*%
X43600000Y-187948217D03*
%TO.N,Net-(LED488-K)*%
X49400000Y-187948217D03*
%TO.N,Net-(LED489-K)*%
X54000000Y-186448217D03*
%TO.N,Net-(LED490-K)*%
X61800000Y-187148217D03*
%TO.N,Net-(LED491-K)*%
X62500000Y-186548217D03*
%TO.N,Net-(LED492-K)*%
X73000000Y-188148217D03*
%TO.N,Net-(LED493-K)*%
X78860606Y-187908823D03*
%TO.N,Net-(LED494-K)*%
X84760606Y-187908823D03*
%TO.N,Net-(LED495-K)*%
X90639394Y-187908823D03*
%TO.N,Net-(LED496-K)*%
X96560606Y-187908823D03*
%TO.N,Net-(LED497-K)*%
X8300000Y-193948217D03*
%TO.N,Net-(LED498-K)*%
X14100000Y-193948217D03*
%TO.N,Net-(LED499-K)*%
X20000000Y-193948217D03*
%TO.N,Net-(LED500-K)*%
X25900000Y-193948217D03*
%TO.N,Net-(LED501-K)*%
X31500000Y-194848217D03*
%TO.N,Net-(LED502-K)*%
X37300000Y-189948217D03*
%TO.N,Net-(LED503-K)*%
X38175735Y-189972482D03*
X42200000Y-192348217D03*
%TO.N,Net-(LED504-K)*%
X40000000Y-191248217D03*
X49875735Y-195023952D03*
%TO.N,Net-(LED505-K)*%
X55300000Y-193948217D03*
%TO.N,Net-(LED506-K)*%
X45939159Y-195584434D03*
X43100000Y-196848217D03*
X61200000Y-193948217D03*
%TO.N,Net-(LED507-K)*%
X67100000Y-193948217D03*
X46775734Y-195572480D03*
X43852786Y-197249217D03*
%TO.N,Net-(LED508-K)*%
X73000000Y-193948217D03*
X47600000Y-195548217D03*
X50933200Y-196849217D03*
%TO.N,Net-(LED509-K)*%
X59900000Y-196224952D03*
X78900000Y-193948217D03*
X48400000Y-195548217D03*
%TO.N,Net-(LED510-K)*%
X62600000Y-195748217D03*
X49200003Y-195548217D03*
X84700000Y-193948217D03*
%TO.N,Net-(LED511-K)*%
X90600000Y-193948217D03*
%TO.N,Net-(LED512-K)*%
X96500000Y-193948217D03*
%TO.N,SDO-02*%
X67700000Y-22148217D03*
X31000000Y-15600000D03*
%TO.N,SDO-03*%
X67226471Y-14269429D03*
X32300000Y-20248217D03*
%TO.N,SDO-04*%
X30600000Y-27748217D03*
X67700000Y-34248217D03*
%TO.N,SDO-05*%
X32300000Y-32348217D03*
X67226471Y-26369429D03*
%TO.N,SDO-06*%
X30600000Y-39848217D03*
X67700000Y-46348217D03*
%TO.N,SDO-07*%
X67226471Y-38469429D03*
X32300000Y-44448217D03*
%TO.N,SDO-08*%
X30600000Y-51948217D03*
X67700000Y-58548217D03*
%TO.N,SDO-09*%
X32300000Y-56648217D03*
X67226471Y-50669429D03*
%TO.N,SDO-10*%
X30600000Y-64148217D03*
X67700000Y-70648217D03*
%TO.N,SDO-11*%
X32300000Y-68748217D03*
X67226471Y-62769429D03*
%TO.N,SDO-12*%
X67700000Y-82748217D03*
X30600000Y-76248217D03*
%TO.N,SDO-13*%
X67226471Y-74869429D03*
X32300000Y-80848217D03*
%TO.N,SDO-14*%
X30600000Y-88348217D03*
X67700000Y-94848217D03*
%TO.N,SDO-15*%
X67226471Y-86969429D03*
X32300000Y-92948217D03*
%TO.N,SDO-16*%
X67700000Y-107048217D03*
X30600000Y-100448217D03*
%TO.N,SDO-17*%
X67226471Y-99169429D03*
X32300000Y-105148217D03*
%TO.N,SDO-18*%
X30600000Y-112648217D03*
X67700000Y-119148217D03*
%TO.N,SDO-19*%
X32300000Y-117248217D03*
X67226471Y-111269429D03*
%TO.N,SDO-20*%
X30600000Y-124748217D03*
X67700000Y-131248217D03*
%TO.N,SDO-21*%
X67226471Y-123369429D03*
X32300000Y-129348217D03*
%TO.N,SDO-22*%
X30600000Y-136848217D03*
X67700000Y-143348217D03*
%TO.N,SDO-23*%
X32300000Y-141448217D03*
X67226471Y-135469429D03*
%TO.N,SDO-24*%
X67700000Y-155448217D03*
X30600000Y-148948217D03*
%TO.N,SDO-25*%
X67226471Y-147569429D03*
X32300000Y-153548217D03*
%TO.N,SDO-26*%
X67700000Y-167648217D03*
X30600000Y-161048217D03*
%TO.N,SDO-27*%
X67226471Y-159769429D03*
X32300000Y-165748217D03*
%TO.N,SDO-28*%
X30600000Y-173248217D03*
X67700000Y-179748217D03*
%TO.N,SDO-29*%
X67226471Y-171869429D03*
X32300000Y-177848217D03*
%TO.N,SDO-30*%
X30600000Y-185348217D03*
X67700000Y-191848217D03*
%TO.N,SDO-31*%
X67226471Y-183969429D03*
X32300000Y-189948217D03*
%TO.N,buck4v_EN*%
X94300000Y15200000D03*
X95600000Y-203000000D03*
%TO.N,SW_Reset*%
X94900000Y-220912500D03*
%TO.N,+12V*%
X8800000Y700000D03*
X6300000Y13700000D03*
X92300000Y2600000D03*
X27900000Y-214300000D03*
X92300000Y1200000D03*
X91600000Y1200000D03*
X7400000Y0D03*
X8100000Y1400000D03*
X9300000Y8300000D03*
X8800000Y1400000D03*
X27900000Y-212900000D03*
X8100000Y0D03*
X90900000Y1900000D03*
X27200000Y-213600000D03*
X7400000Y700000D03*
X27200000Y-212900000D03*
X91600000Y2600000D03*
X27200000Y-214300000D03*
X27900000Y-215000000D03*
X27900000Y-213600000D03*
X27200000Y-215700000D03*
X90900000Y1200000D03*
X27900000Y-215700000D03*
X27200000Y-215000000D03*
X7400000Y1400000D03*
X8800000Y0D03*
X90900000Y2600000D03*
X91600000Y1900000D03*
X8100000Y700000D03*
X92300000Y1900000D03*
%TO.N,SW_Boot*%
X74600000Y-205800000D03*
%TO.N,Net-(C40-Pad2)*%
X88600000Y10200000D03*
X93200000Y9800000D03*
%TO.N,buck4v_PG*%
X94400000Y12000000D03*
X95200000Y-202200000D03*
%TO.N,Net-(C56-Pad2)*%
X11100000Y10500000D03*
X6500000Y10700000D03*
%TO.N,ENC_A*%
X96400000Y-219600000D03*
%TO.N,ENC_B*%
X96400000Y-218400000D03*
%TO.N,ENC_Z*%
X96400000Y-217100000D03*
%TO.N,MOSI*%
X67700000Y-10000000D03*
X72300000Y-213300000D03*
X72400000Y-198900000D03*
%TO.N,Net-(U33-IO11)*%
X91500000Y-208700000D03*
%TO.N,Net-(U33-IO12)*%
X91500000Y-211900000D03*
X84500000Y-204000000D03*
%TO.N,Net-(U33-IO13)*%
X83400000Y-204000000D03*
X91500000Y-215100000D03*
%TO.N,Net-(SW3-A)*%
X81200000Y-202400000D03*
%TO.N,Net-(SW4-A)*%
X82500000Y-202400000D03*
%TO.N,GND*%
X13800000Y15400000D03*
X85900000Y-213300000D03*
X30800000Y13500000D03*
X31500000Y-177848217D03*
X1900000Y3700000D03*
X31500000Y-56648217D03*
X11300000Y11900000D03*
X26900000Y-13300000D03*
X68200000Y2400000D03*
X19200000Y22200000D03*
X94600000Y-224200000D03*
X26900000Y-61848217D03*
X71600000Y-220800000D03*
X96100000Y9700000D03*
X22300000Y-219700000D03*
X21600000Y-219000000D03*
X68500003Y-143348217D03*
X76500000Y-124748217D03*
X31500000Y-105148217D03*
X12200000Y-217300000D03*
X18000000Y-212700000D03*
X26900000Y-158748217D03*
X21600000Y14500000D03*
X68500003Y-58548217D03*
X87100000Y-202100000D03*
X2000000Y17300000D03*
X68500003Y-34248217D03*
X74300000Y22200000D03*
X21600000Y-219700000D03*
X29500000Y22200000D03*
X88000000Y-199300000D03*
X87300000Y-218200000D03*
X76500000Y-148948217D03*
X76500000Y-52048217D03*
X98400000Y8500000D03*
X26900000Y-195148217D03*
X26900000Y-49648217D03*
X31900000Y10400000D03*
X78500000Y22200000D03*
X91700000Y18400000D03*
X88899293Y-213000707D03*
X35000000Y7400000D03*
X68500003Y-131248217D03*
X94000000Y11100000D03*
X52000000Y-200000000D03*
X76500000Y-100548217D03*
X31500000Y-32348217D03*
X96300000Y-223400000D03*
X97900000Y17300000D03*
X31500000Y-141448217D03*
X52700000Y-200000000D03*
X22300000Y-219000000D03*
X14700000Y-213100000D03*
X88500000Y11400000D03*
X93300000Y11300000D03*
X76500000Y-185348217D03*
X21600000Y-218300000D03*
X31700000Y3400000D03*
X26900000Y-37548217D03*
X68500003Y-179748217D03*
X26900000Y-146648217D03*
X9100000Y-219400000D03*
X34900000Y3400000D03*
X65500000Y2500000D03*
X35000000Y10400000D03*
X97900000Y21900000D03*
X18500000Y-199300000D03*
X53400000Y-200700000D03*
X66100000Y-199600000D03*
X26900000Y-110348217D03*
X26900000Y-134548217D03*
X88300000Y-217100000D03*
X76500000Y-39848217D03*
X68500003Y-167648217D03*
X82600000Y22100000D03*
X83500000Y-214300000D03*
X28600000Y-208600000D03*
X65400000Y6000000D03*
X31500000Y-68748217D03*
X9100000Y-223900000D03*
X87700000Y11400000D03*
X7700000Y18200000D03*
X97900000Y2100000D03*
X76500000Y-64148217D03*
X78700000Y17000000D03*
X84500000Y-218200000D03*
X13000000Y-210100000D03*
X2000000Y22100000D03*
X31500000Y-153548217D03*
X76500000Y-173248217D03*
X93500000Y10600000D03*
X31900000Y7300000D03*
X1900000Y7200000D03*
X22300000Y-218300000D03*
X31500000Y-129348217D03*
X68500003Y-46348217D03*
X68500003Y-107048217D03*
X13900000Y22200000D03*
X31500000Y-80848217D03*
X40200000Y-199300000D03*
X53400000Y-200000000D03*
X2000000Y11900000D03*
X18800000Y-217300000D03*
X31500000Y-92948217D03*
X7700000Y22200000D03*
X26900000Y-73948217D03*
X68500003Y-22148217D03*
X10700000Y-215800000D03*
X68500003Y-119148217D03*
X23700000Y-210400000D03*
X98200000Y-214100000D03*
X31500000Y-165748217D03*
X29500000Y16000000D03*
X85800000Y14400000D03*
X31500000Y-189948217D03*
X31500000Y-44448217D03*
X26900000Y-170948217D03*
X26900000Y-183048217D03*
X26900000Y-122448217D03*
X76500000Y-3500000D03*
X86800000Y-213300000D03*
X68500003Y-155448217D03*
X76500000Y-27748217D03*
X19500000Y12300000D03*
X74400000Y-223400000D03*
X68200000Y9300000D03*
X76500000Y-15648217D03*
X82000000Y11800000D03*
X85800000Y12900000D03*
X52700000Y-200700000D03*
X12000000Y11900000D03*
X68500003Y-94848217D03*
X70700000Y13400000D03*
X24800000Y17400000D03*
X96225000Y14300000D03*
X76500000Y-112648217D03*
X76500000Y-136848217D03*
X83700000Y-201800000D03*
X68500003Y-82748217D03*
X16200000Y-213100000D03*
X4900000Y9300000D03*
X65300000Y9400000D03*
X83500000Y-215700000D03*
X80100000Y-201800000D03*
X82700000Y16900000D03*
X83600000Y-207700000D03*
X31500000Y-20248217D03*
X8900000Y-215600000D03*
X31500000Y-117248217D03*
X74600000Y17000000D03*
X76500000Y-161148217D03*
X76500000Y-76248217D03*
X92200000Y22000000D03*
X24800000Y22200000D03*
X26900000Y-86048217D03*
X21600000Y-220400000D03*
X68500003Y-70648217D03*
X5199000Y11900000D03*
X68500003Y-10000000D03*
X31500000Y-8100000D03*
X85900000Y-218200000D03*
X6400000Y11900000D03*
X78000000Y13800000D03*
X12700000Y-212100000D03*
X22300000Y-220400000D03*
X52000000Y-200700000D03*
X80700000Y-207900000D03*
X8500000Y14600000D03*
X76500000Y-88348217D03*
X26900000Y-25448217D03*
X83500000Y-217100000D03*
X84500000Y-213300000D03*
X68200000Y5900000D03*
X68500003Y-191848217D03*
X88300000Y-215700000D03*
X91200000Y14800000D03*
X98100000Y5600000D03*
X26900000Y-98148217D03*
%TD*%
D18*
%TO.N,NOT_OE*%
X30899000Y-149499160D02*
X33500000Y-146898160D01*
X30899000Y-168447217D02*
X30899000Y-161599160D01*
X69101003Y-174943961D02*
X66026471Y-171869429D01*
X66026471Y-62769429D02*
X69101003Y-59694897D01*
X33500000Y-158848217D02*
X30899000Y-156247217D01*
X30899000Y-137399160D02*
X33500000Y-134798160D01*
X73200000Y-199000000D02*
X73200000Y-195698271D01*
X66026471Y-26369429D02*
X69101003Y-23294897D01*
X33500000Y-62100000D02*
X33500000Y-61948217D01*
X69101003Y-126443961D02*
X66026471Y-123369429D01*
X66026471Y-86969429D02*
X69101003Y-83894897D01*
X69101003Y-17343961D02*
X66026471Y-14269429D01*
X69101003Y-53743961D02*
X66026471Y-50669429D01*
X33500000Y-171198160D02*
X33500000Y-171048217D01*
X69101003Y-150643961D02*
X66026471Y-147569429D01*
X30848943Y-88949217D02*
X33500000Y-86298160D01*
X35498000Y-210867800D02*
X35498000Y-197246217D01*
X33500000Y-110598160D02*
X33500000Y-110448217D01*
X30899000Y-35047217D02*
X30899000Y-28299160D01*
X30899000Y-173799160D02*
X33500000Y-171198160D01*
X66026471Y-99169429D02*
X69101003Y-96094897D01*
X69101003Y-114343961D02*
X66026471Y-111269429D01*
X33500000Y-146748217D02*
X30899000Y-144147217D01*
X69101003Y-47594897D02*
X69101003Y-41543961D01*
X33500000Y-171048217D02*
X30899000Y-168447217D01*
X6321000Y-213701000D02*
X22268100Y-213701000D01*
X69101003Y-138543961D02*
X66026471Y-135469429D01*
X30899000Y-59347217D02*
X30899000Y-52499160D01*
X33500000Y-86148217D02*
X29900000Y-82548217D01*
X69101003Y-144494897D02*
X69101003Y-138543961D01*
X33500000Y-146898160D02*
X33500000Y-146748217D01*
X25465100Y-216898000D02*
X29467800Y-216898000D01*
X33500000Y-122700000D02*
X33500000Y-122548217D01*
X66026471Y-183969429D02*
X69101003Y-180894897D01*
X33500000Y-86298160D02*
X33500000Y-86148217D01*
X22268100Y-213701000D02*
X25465100Y-216898000D01*
X30899000Y-144147217D02*
X30899000Y-137399160D01*
X69101003Y-162843961D02*
X66026471Y-159769429D01*
X36645248Y-2104809D02*
X30899000Y-7851057D01*
X33500000Y-49898160D02*
X33500000Y-49748217D01*
X33500000Y-134798160D02*
X33500000Y-134648217D01*
X66026471Y-188524742D02*
X66026471Y-183969429D01*
X30899000Y-71447217D02*
X30899000Y-64701000D01*
X69101003Y-132394897D02*
X69101003Y-126443961D01*
X69101003Y-156694897D02*
X69101003Y-150643961D01*
X29900000Y-82548217D02*
X29900000Y-77798160D01*
X33500000Y-37798160D02*
X33500000Y-37648217D01*
X66026471Y-111269429D02*
X69101003Y-108194897D01*
X30899000Y-192647217D02*
X30899000Y-185899160D01*
X69101003Y-102243961D02*
X66026471Y-99169429D01*
X30200000Y-113898160D02*
X33500000Y-110598160D01*
X69101003Y-180894897D02*
X69101003Y-174943961D01*
X66026471Y-14269429D02*
X69101003Y-11194897D01*
X33500000Y-98248217D02*
X30848943Y-95597160D01*
X33500000Y-49748217D02*
X30899000Y-47147217D01*
X30899000Y-28299160D02*
X33500000Y-25698160D01*
X69101003Y-108194897D02*
X69101003Y-102243961D01*
X30899000Y-7851057D02*
X30899000Y-10799000D01*
X66026471Y-147569429D02*
X69101003Y-144494897D01*
X30899000Y-22947217D02*
X30899000Y-16550943D01*
X30899000Y-64701000D02*
X33500000Y-62100000D01*
X69101003Y-23294897D02*
X69101003Y-17343961D01*
X29900000Y-77798160D02*
X33500000Y-74198160D01*
X33500000Y-122548217D02*
X30200000Y-119248217D01*
X66026471Y-123369429D02*
X69101003Y-120294897D01*
X66026471Y-50669429D02*
X69101003Y-47594897D01*
X33500000Y-25548217D02*
X30899000Y-22947217D01*
X33500000Y-183148217D02*
X30899000Y-180547217D01*
X73200000Y-217400000D02*
X73200000Y-199000000D01*
X30899000Y-125301000D02*
X33500000Y-122700000D01*
X69101003Y-83894897D02*
X69101003Y-77943961D01*
X69101003Y-29443961D02*
X66026471Y-26369429D01*
X33500000Y-98398160D02*
X33500000Y-98248217D01*
X30200000Y-119248217D02*
X30200000Y-113898160D01*
X30899000Y-156247217D02*
X30899000Y-149499160D01*
X70200000Y-66942958D02*
X66026471Y-62769429D01*
X33500000Y-183298160D02*
X33500000Y-183148217D01*
X30848943Y-95597160D02*
X30848943Y-88949217D01*
X73200000Y-195698271D02*
X66026471Y-188524742D01*
X33500000Y-13949943D02*
X33500000Y-13400000D01*
X29467800Y-216898000D02*
X35498000Y-210867800D01*
X30899000Y-185899160D02*
X33500000Y-183298160D01*
X69101003Y-96094897D02*
X69101003Y-90043961D01*
X69101003Y-35394897D02*
X69101003Y-29443961D01*
X30899000Y-180547217D02*
X30899000Y-173799160D01*
X66026471Y-38469429D02*
X69101003Y-35394897D01*
X30848943Y-107797160D02*
X30848943Y-101049217D01*
X66026471Y-159769429D02*
X69101003Y-156694897D01*
X33500000Y-61948217D02*
X30899000Y-59347217D01*
X65996605Y-2104809D02*
X36645248Y-2104809D01*
X30899000Y-10799000D02*
X33500000Y-13400000D01*
X69101003Y-168794897D02*
X69101003Y-162843961D01*
X69101003Y-41543961D02*
X66026471Y-38469429D01*
X33500000Y-74198160D02*
X33500000Y-74048217D01*
X33500000Y-195248217D02*
X30899000Y-192647217D01*
X35498000Y-197246217D02*
X33500000Y-195248217D01*
X30899000Y-161599160D02*
X33500000Y-158998160D01*
X69101003Y-11194897D02*
X69101003Y-5209207D01*
X70200000Y-70695900D02*
X70200000Y-66942958D01*
X69101003Y-59694897D02*
X69101003Y-53743961D01*
X33500000Y-74048217D02*
X30899000Y-71447217D01*
X33500000Y-25698160D02*
X33500000Y-25548217D01*
X33500000Y-134648217D02*
X30899000Y-132047217D01*
X69101003Y-77943961D02*
X66026471Y-74869429D01*
X2500000Y-209880000D02*
X6321000Y-213701000D01*
X30899000Y-52499160D02*
X33500000Y-49898160D01*
X66026471Y-74869429D02*
X70200000Y-70695900D01*
X69101003Y-90043961D02*
X66026471Y-86969429D01*
X30899000Y-132047217D02*
X30899000Y-125301000D01*
X30899000Y-47147217D02*
X30899000Y-40399160D01*
X30899000Y-40399160D02*
X33500000Y-37798160D01*
X66026471Y-171869429D02*
X69101003Y-168794897D01*
X30899000Y-16550943D02*
X33500000Y-13949943D01*
X33500000Y-158998160D02*
X33500000Y-158848217D01*
X69101003Y-5209207D02*
X65996605Y-2104809D01*
X66026471Y-135469429D02*
X69101003Y-132394897D01*
X69101003Y-120294897D02*
X69101003Y-114343961D01*
X30848943Y-101049217D02*
X33500000Y-98398160D01*
X33500000Y-37648217D02*
X30899000Y-35047217D01*
X33500000Y-110448217D02*
X30848943Y-107797160D01*
%TO.N,CLK*%
X34500000Y-154948217D02*
X34500000Y-164396747D01*
X34500000Y-103796747D02*
X33124265Y-105172482D01*
X34500000Y-140096747D02*
X33124265Y-141472482D01*
X34500000Y-152196747D02*
X33124265Y-153572482D01*
X33124265Y-20272482D02*
X34400000Y-21548217D01*
X65425471Y-190423631D02*
X65425471Y-181222746D01*
X66900000Y-22148217D02*
X65200000Y-20448217D01*
X33124265Y-117272482D02*
X34500000Y-118648217D01*
X65200000Y-108748217D02*
X66900000Y-107048217D01*
X66900000Y-191898160D02*
X66900000Y-191848217D01*
X65200000Y-117448217D02*
X65200000Y-108748217D01*
X33124265Y-56672482D02*
X34500000Y-58048217D01*
X34600000Y-33848217D02*
X34600000Y-42996747D01*
X34500000Y-55296747D02*
X33124265Y-56672482D01*
X65200000Y-105348217D02*
X65200000Y-96548217D01*
X65425471Y-153973688D02*
X65425471Y-144822746D01*
X71699000Y-196697160D02*
X67150920Y-192149080D01*
X33124265Y-105172482D02*
X34500000Y-106548217D01*
X65200000Y-35948217D02*
X66900000Y-34248217D01*
X65200000Y-96548217D02*
X66900000Y-94848217D01*
X33124265Y-44472482D02*
X34500000Y-45848217D01*
X66900000Y-131248217D02*
X65000000Y-129348217D01*
X71699000Y-213999000D02*
X71699000Y-196697160D01*
X66900000Y-143348217D02*
X65425471Y-141873688D01*
X65425471Y-144822746D02*
X66900000Y-143348217D01*
X33124265Y-141472482D02*
X34500000Y-142848217D01*
X34500000Y-91596747D02*
X33124265Y-92972482D01*
X33124265Y-92972482D02*
X34500000Y-94348217D01*
X66900000Y-119148217D02*
X65200000Y-117448217D01*
X33124265Y-153572482D02*
X34500000Y-154948217D01*
X22102000Y-214102000D02*
X25299000Y-217299000D01*
X35899000Y-192747217D02*
X33124265Y-189972482D01*
X72300000Y-214600000D02*
X71699000Y-213999000D01*
X66900000Y-94848217D02*
X66900000Y-94100000D01*
X33124265Y-165772482D02*
X34500000Y-167148217D01*
X65425471Y-141873688D02*
X65425471Y-132722746D01*
X50050943Y-5901000D02*
X49648943Y-5499000D01*
X66900000Y-82748217D02*
X65100000Y-80948217D01*
X65300000Y-32648217D02*
X65300000Y-23748217D01*
X66900000Y-34248217D02*
X65300000Y-32648217D01*
X33124265Y-8124265D02*
X34600000Y-9600000D01*
X65100000Y-165848217D02*
X65100000Y-157248217D01*
X34500000Y-167148217D02*
X34500000Y-176496747D01*
X66900000Y-58548217D02*
X65300000Y-56948217D01*
X34400000Y-21548217D02*
X34400000Y-31096747D01*
X67150920Y-192149080D02*
X65425471Y-190423631D01*
X65300000Y-23748217D02*
X66900000Y-22148217D01*
X34500000Y-94348217D02*
X34500000Y-103796747D01*
X25299000Y-217299000D02*
X29633900Y-217299000D01*
X34500000Y-179248217D02*
X34500000Y-188596747D01*
X65200000Y-20448217D02*
X65200000Y-11700000D01*
X66900000Y-46348217D02*
X65200000Y-44648217D01*
X34500000Y-67396747D02*
X33124265Y-68772482D01*
X67150920Y-192149080D02*
X66900000Y-191898160D01*
X34500000Y-82248217D02*
X34500000Y-91596747D01*
X65200000Y-11700000D02*
X66900000Y-10000000D01*
X4182000Y-214102000D02*
X22102000Y-214102000D01*
X49648943Y-5499000D02*
X35749530Y-5499000D01*
X66900000Y-94100000D02*
X65200000Y-92400000D01*
X34500000Y-115896747D02*
X33124265Y-117272482D01*
X34500000Y-188596747D02*
X33124265Y-189972482D01*
X34600000Y-18796747D02*
X33124265Y-20272482D01*
X33124265Y-32372482D02*
X34600000Y-33848217D01*
X65200000Y-92400000D02*
X65200000Y-84448217D01*
X66900000Y-167648217D02*
X65100000Y-165848217D01*
X65425471Y-181222746D02*
X66900000Y-179748217D01*
X65200000Y-60248217D02*
X66900000Y-58548217D01*
X34600000Y-9600000D02*
X34600000Y-18796747D01*
X34400000Y-79596747D02*
X33124265Y-80872482D01*
X34500000Y-58048217D02*
X34500000Y-67396747D01*
X33124265Y-177872482D02*
X34500000Y-179248217D01*
X34500000Y-142848217D02*
X34500000Y-152196747D01*
X34600000Y-42996747D02*
X33124265Y-44472482D01*
X65000000Y-129348217D02*
X65000000Y-121048217D01*
X66900000Y-10000000D02*
X62801000Y-5901000D01*
X66900000Y-107048217D02*
X65200000Y-105348217D01*
X34500000Y-176496747D02*
X33124265Y-177872482D01*
X65200000Y-44648217D02*
X65200000Y-35948217D01*
X65300000Y-47948217D02*
X66900000Y-46348217D01*
X33124265Y-129372482D02*
X34500000Y-130748217D01*
X65200000Y-68948217D02*
X65200000Y-60248217D01*
X33124265Y-68772482D02*
X34400000Y-70048217D01*
X65200000Y-84448217D02*
X66900000Y-82748217D01*
X66900000Y-155448217D02*
X65425471Y-153973688D01*
X34400000Y-70048217D02*
X34400000Y-79596747D01*
X66900000Y-70648217D02*
X65200000Y-68948217D01*
X34400000Y-31096747D02*
X33124265Y-32372482D01*
X65000000Y-121048217D02*
X66900000Y-119148217D01*
X34500000Y-127996747D02*
X33124265Y-129372482D01*
X35749530Y-5499000D02*
X33124265Y-8124265D01*
X34500000Y-45848217D02*
X34500000Y-55296747D01*
X65100000Y-72448217D02*
X66900000Y-70648217D01*
X66900000Y-179748217D02*
X65425471Y-178273688D01*
X29633900Y-217299000D02*
X35899000Y-211033900D01*
X34500000Y-106548217D02*
X34500000Y-115896747D01*
X34500000Y-164396747D02*
X33124265Y-165772482D01*
X62801000Y-5901000D02*
X50050943Y-5901000D01*
X65100000Y-157248217D02*
X66900000Y-155448217D01*
X34500000Y-118648217D02*
X34500000Y-127996747D01*
X34500000Y-130748217D02*
X34500000Y-140096747D01*
X2500000Y-212420000D02*
X4182000Y-214102000D01*
X33124265Y-80872482D02*
X34500000Y-82248217D01*
X65300000Y-56948217D02*
X65300000Y-47948217D01*
X65425471Y-178273688D02*
X65425471Y-169122746D01*
X65425471Y-169122746D02*
X66900000Y-167648217D01*
X65100000Y-80948217D02*
X65100000Y-72448217D01*
X35899000Y-211033900D02*
X35899000Y-192747217D01*
X65425471Y-132722746D02*
X66900000Y-131248217D01*
%TO.N,LE*%
X35300000Y-43148217D02*
X35300000Y-33648217D01*
X34000000Y-20248217D02*
X35600000Y-18648217D01*
X35300000Y-70048217D02*
X34000000Y-68748217D01*
X64500000Y-132748217D02*
X66000000Y-131248217D01*
X2500000Y-214960000D02*
X2860000Y-214600000D01*
X35300000Y-154848217D02*
X34000000Y-153548217D01*
X35300000Y-164448217D02*
X35300000Y-154848217D01*
X22000000Y-214600000D02*
X25100000Y-217700000D01*
X66000000Y-179748217D02*
X66000000Y-179800000D01*
X35300000Y-130648217D02*
X34000000Y-129348217D01*
X35300000Y-140148217D02*
X35300000Y-130648217D01*
X70900000Y-196748217D02*
X66000000Y-191848217D01*
X64500000Y-178248217D02*
X64500000Y-169148217D01*
X35300000Y-188648217D02*
X35300000Y-179148217D01*
X66000000Y-143348217D02*
X64500000Y-141848217D01*
X66000000Y-70648217D02*
X64600000Y-69248217D01*
X64600000Y-47748217D02*
X66000000Y-46348217D01*
X64700000Y-154148217D02*
X64700000Y-144648217D01*
X64700000Y-144648217D02*
X66000000Y-143348217D01*
X35300000Y-128048217D02*
X35300000Y-118548217D01*
X64600000Y-59948217D02*
X66000000Y-58548217D01*
X64700000Y-181100000D02*
X64700000Y-190500000D01*
X64600000Y-23548217D02*
X66000000Y-22148217D01*
X35300000Y-57948217D02*
X34000000Y-56648217D01*
X35300000Y-82148217D02*
X34000000Y-80848217D01*
X70900000Y-216700000D02*
X70900000Y-196748217D01*
X66000000Y-58548217D02*
X64600000Y-57148217D01*
X66000000Y-22148217D02*
X64600000Y-20748217D01*
X34000000Y-117248217D02*
X35300000Y-115948217D01*
X64400000Y-129648217D02*
X64400000Y-120748217D01*
X64500000Y-81248217D02*
X64500000Y-72148217D01*
X34000000Y-92948217D02*
X35300000Y-91648217D01*
X35300000Y-115948217D02*
X35300000Y-106448217D01*
X35300000Y-91648217D02*
X35300000Y-82148217D01*
X66000000Y-107048217D02*
X64500000Y-105548217D01*
X34000000Y-68748217D02*
X35300000Y-67448217D01*
X64500000Y-156948217D02*
X66000000Y-155448217D01*
X29800000Y-217700000D02*
X36300000Y-211200000D01*
X64700000Y-190500000D02*
X66000000Y-191800000D01*
X34000000Y-56648217D02*
X35300000Y-55348217D01*
X34000000Y-177848217D02*
X35300000Y-176548217D01*
X34000000Y-165748217D02*
X35300000Y-164448217D01*
X34000000Y-129348217D02*
X35300000Y-128048217D01*
X35300000Y-55348217D02*
X35300000Y-45748217D01*
X64600000Y-20748217D02*
X64600000Y-11400000D01*
X34000000Y-32348217D02*
X35100000Y-31248217D01*
X64500000Y-141848217D02*
X64500000Y-132748217D01*
X64500000Y-169148217D02*
X66000000Y-167648217D01*
X35600000Y-9700000D02*
X34000000Y-8100000D01*
X63499000Y-7499000D02*
X34601000Y-7499000D01*
X64600000Y-11400000D02*
X66000000Y-10000000D01*
X35300000Y-152248217D02*
X35300000Y-142748217D01*
X35300000Y-118548217D02*
X34000000Y-117248217D01*
X71600000Y-217400000D02*
X70900000Y-216700000D01*
X35300000Y-33648217D02*
X34000000Y-32348217D01*
X66000000Y-155448217D02*
X64700000Y-154148217D01*
X36300000Y-192248217D02*
X34000000Y-189948217D01*
X66000000Y-46348217D02*
X64600000Y-44948217D01*
X34000000Y-189948217D02*
X35300000Y-188648217D01*
X66000000Y-34248217D02*
X64600000Y-32848217D01*
X35100000Y-21348217D02*
X34000000Y-20248217D01*
X35300000Y-179148217D02*
X34000000Y-177848217D01*
X66000000Y-179748217D02*
X64500000Y-178248217D01*
X35300000Y-103848217D02*
X35300000Y-94248217D01*
X36300000Y-211200000D02*
X36300000Y-192248217D01*
X64600000Y-69248217D02*
X64600000Y-59948217D01*
X64500000Y-117648217D02*
X64500000Y-108548217D01*
X35600000Y-18648217D02*
X35600000Y-9700000D01*
X34000000Y-44448217D02*
X35300000Y-43148217D01*
X66000000Y-10000000D02*
X63499000Y-7499000D01*
X64500000Y-84248217D02*
X66000000Y-82748217D01*
X35300000Y-106448217D02*
X34000000Y-105148217D01*
X64600000Y-57148217D02*
X64600000Y-47748217D01*
X64600000Y-35648217D02*
X66000000Y-34248217D01*
X64600000Y-44948217D02*
X64600000Y-35648217D01*
X64500000Y-72148217D02*
X66000000Y-70648217D01*
X64600000Y-32848217D02*
X64600000Y-23548217D01*
X66000000Y-179800000D02*
X64700000Y-181100000D01*
X35100000Y-31248217D02*
X35100000Y-21348217D01*
X64500000Y-96348217D02*
X66000000Y-94848217D01*
X66000000Y-94848217D02*
X64500000Y-93348217D01*
X35300000Y-67448217D02*
X35300000Y-57948217D01*
X66000000Y-191800000D02*
X66000000Y-191848217D01*
X64500000Y-166148217D02*
X64500000Y-156948217D01*
X34000000Y-80848217D02*
X35300000Y-79548217D01*
X64500000Y-105548217D02*
X64500000Y-96348217D01*
X35300000Y-79548217D02*
X35300000Y-70048217D01*
X34601000Y-7499000D02*
X34000000Y-8100000D01*
X35300000Y-176548217D02*
X35300000Y-167048217D01*
X64400000Y-120748217D02*
X66000000Y-119148217D01*
X35300000Y-94248217D02*
X34000000Y-92948217D01*
X35300000Y-142748217D02*
X34000000Y-141448217D01*
X34000000Y-105148217D02*
X35300000Y-103848217D01*
X35300000Y-167048217D02*
X34000000Y-165748217D01*
X66000000Y-167648217D02*
X64500000Y-166148217D01*
X64500000Y-93348217D02*
X64500000Y-84248217D01*
X66000000Y-119148217D02*
X64500000Y-117648217D01*
X25100000Y-217700000D02*
X29800000Y-217700000D01*
X66000000Y-131248217D02*
X64400000Y-129648217D01*
X66000000Y-82748217D02*
X64500000Y-81248217D01*
X2860000Y-214600000D02*
X22000000Y-214600000D01*
X34000000Y-141448217D02*
X35300000Y-140148217D01*
X34000000Y-153548217D02*
X35300000Y-152248217D01*
X64500000Y-108548217D02*
X66000000Y-107048217D01*
X35300000Y-45748217D02*
X34000000Y-44448217D01*
%TO.N,buck4v_EN*%
X94700000Y15600000D02*
X94300000Y15200000D01*
X95600000Y-203000000D02*
X99100000Y-199500000D01*
X99100000Y13900000D02*
X97400000Y15600000D01*
X99100000Y-199500000D02*
X99100000Y13900000D01*
X97400000Y15600000D02*
X94700000Y15600000D01*
D19*
%TO.N,+12V*%
X31800000Y-200500000D02*
X30200000Y-198900000D01*
X31800000Y-209700000D02*
X31800000Y-200500000D01*
X27900000Y-212900000D02*
X27900000Y-214300000D01*
X90400000Y700000D02*
X91600000Y1900000D01*
X6000000Y-196800000D02*
X2300000Y-193100000D01*
X27200000Y-214300000D02*
X31800000Y-209700000D01*
X30200000Y-198900000D02*
X25200000Y-198900000D01*
X23100000Y-196800000D02*
X6000000Y-196800000D01*
X8600000Y700000D02*
X90400000Y700000D01*
X27900000Y-214300000D02*
X27200000Y-215000000D01*
X5500000Y700000D02*
X8600000Y700000D01*
X2300000Y-2500000D02*
X5500000Y700000D01*
X2300000Y-193100000D02*
X2300000Y-2500000D01*
X25200000Y-198900000D02*
X23100000Y-196800000D01*
D18*
%TO.N,buck4v_PG*%
X98700000Y-198700000D02*
X98700000Y7100000D01*
X97300000Y9500000D02*
X94800000Y12000000D01*
X95200000Y-202200000D02*
X98700000Y-198700000D01*
X98700000Y7100000D02*
X97300000Y8500000D01*
X97300000Y8500000D02*
X97300000Y9500000D01*
X94800000Y12000000D02*
X94400000Y12000000D01*
%TO.N,MOSI*%
X72300000Y-199000000D02*
X72400000Y-198900000D01*
X72300000Y-213300000D02*
X72300000Y-199000000D01*
%TO.N,Net-(U33-IO12)*%
X84500000Y-204900000D02*
X84500000Y-204000000D01*
X91500000Y-211900000D02*
X84500000Y-204900000D01*
%TO.N,Net-(U33-IO13)*%
X83400000Y-204600000D02*
X83400000Y-204000000D01*
X89500000Y-215100000D02*
X83000000Y-208600000D01*
X83000000Y-205000000D02*
X83400000Y-204600000D01*
X91500000Y-215100000D02*
X89500000Y-215100000D01*
X83000000Y-208600000D02*
X83000000Y-205000000D01*
%TD*%
M02*
